<?xml version="1.0" encoding="UTF-8" standalone="no"?>
<!-- Created with Inkscape (http://www.inkscape.org/) -->

<svg
   xmlns:dc="http://purl.org/dc/elements/1.1/"
   xmlns:cc="http://creativecommons.org/ns#"
   xmlns:rdf="http://www.w3.org/1999/02/22-rdf-syntax-ns#"
   xmlns:svg="http://www.w3.org/2000/svg"
   xmlns="http://www.w3.org/2000/svg"
   xmlns:xlink="http://www.w3.org/1999/xlink"
   xmlns:sodipodi="http://sodipodi.sourceforge.net/DTD/sodipodi-0.dtd"
   xmlns:inkscape="http://www.inkscape.org/namespaces/inkscape"
   width="144"
   height="96"
   id="svg3072"
   version="1.1"
   inkscape:version="0.48.2 r9819"
   inkscape:export-filename="/home/moshse/Projects/android-radio-t/Radio-T/res/drawable-ldpi/home_btn_main_show_pressed.png"
   inkscape:export-xdpi="45"
   inkscape:export-ydpi="45"
   sodipodi:docname="btn_home_main_show.svg">
  <defs
     id="defs3074">
    <linearGradient
       inkscape:collect="always"
       id="linearGradient4246">
      <stop
         style="stop-color:#4b4d49;stop-opacity:1;"
         offset="0"
         id="stop4248" />
      <stop
         style="stop-color:#4b4d49;stop-opacity:0;"
         offset="1"
         id="stop4250" />
    </linearGradient>
    <linearGradient
       inkscape:collect="always"
       id="linearGradient4230">
      <stop
         style="stop-color:#e27000;stop-opacity:1;"
         offset="0"
         id="stop4232" />
      <stop
         style="stop-color:#e27000;stop-opacity:0;"
         offset="1"
         id="stop4234" />
    </linearGradient>
    <linearGradient
       inkscape:collect="always"
       xlink:href="#linearGradient4349"
       id="linearGradient4355"
       x1="8"
       y1="4"
       x2="40"
       y2="34"
       gradientUnits="userSpaceOnUse" />
    <linearGradient
       id="linearGradient4349">
      <stop
         style="stop-color:#eeeeec;stop-opacity:1;"
         offset="0"
         id="stop4351" />
      <stop
         style="stop-color:#eeeeec;stop-opacity:0.50196081;"
         offset="1"
         id="stop4353" />
    </linearGradient>
    <linearGradient
       inkscape:collect="always"
       xlink:href="#linearGradient4383"
       id="linearGradient4435"
       x1="39"
       y1="985.36218"
       x2="9"
       y2="961.36218"
       gradientUnits="userSpaceOnUse" />
    <linearGradient
       id="linearGradient4383">
      <stop
         style="stop-color:#000000;stop-opacity:0.64705884;"
         offset="0"
         id="stop4385" />
      <stop
         style="stop-color:#000000;stop-opacity:0;"
         offset="1"
         id="stop4387" />
    </linearGradient>
    <linearGradient
       inkscape:collect="always"
       xlink:href="#linearGradient4383"
       id="linearGradient4445"
       x1="33"
       y1="988.36218"
       x2="15"
       y2="970.36218"
       gradientUnits="userSpaceOnUse" />
    <linearGradient
       id="linearGradient3181">
      <stop
         style="stop-color:#000000;stop-opacity:0.64705884;"
         offset="0"
         id="stop3183" />
      <stop
         style="stop-color:#000000;stop-opacity:0;"
         offset="1"
         id="stop3185" />
    </linearGradient>
    <filter
       color-interpolation-filters="sRGB"
       inkscape:collect="always"
       id="filter4551">
      <feGaussianBlur
         inkscape:collect="always"
         stdDeviation="0.055"
         id="feGaussianBlur4553" />
    </filter>
    <filter
       color-interpolation-filters="sRGB"
       inkscape:collect="always"
       id="filter4571">
      <feGaussianBlur
         inkscape:collect="always"
         stdDeviation="0.11"
         id="feGaussianBlur4573" />
    </filter>
    <linearGradient
       inkscape:collect="always"
       xlink:href="#linearGradient4383"
       id="linearGradient3242"
       gradientUnits="userSpaceOnUse"
       x1="39"
       y1="985.36218"
       x2="9"
       y2="961.36218" />
    <linearGradient
       inkscape:collect="always"
       xlink:href="#linearGradient4383"
       id="linearGradient3244"
       gradientUnits="userSpaceOnUse"
       x1="33"
       y1="988.36218"
       x2="15"
       y2="970.36218" />
    <linearGradient
       inkscape:collect="always"
       xlink:href="#linearGradient4383"
       id="linearGradient3259"
       gradientUnits="userSpaceOnUse"
       x1="33"
       y1="988.36218"
       x2="15"
       y2="970.36218"
       gradientTransform="matrix(2.9320156,0,0,2.9320156,2.1748348,-1854.2696)" />
    <linearGradient
       inkscape:collect="always"
       xlink:href="#linearGradient4383"
       id="linearGradient3262"
       gradientUnits="userSpaceOnUse"
       x1="39"
       y1="985.36218"
       x2="9"
       y2="961.36218"
       gradientTransform="matrix(2.9320156,0,0,2.9320156,2.1748348,-1854.2696)" />
    <linearGradient
       inkscape:collect="always"
       xlink:href="#linearGradient4383"
       id="linearGradient4081"
       gradientUnits="userSpaceOnUse"
       gradientTransform="matrix(2.9320156,0,0,2.9320156,2.1748348,-1854.2696)"
       x1="39"
       y1="985.36218"
       x2="9"
       y2="961.36218" />
    <linearGradient
       inkscape:collect="always"
       xlink:href="#linearGradient4383"
       id="linearGradient4083"
       gradientUnits="userSpaceOnUse"
       gradientTransform="matrix(2.9320156,0,0,2.9320156,2.1748348,-1854.2696)"
       x1="33"
       y1="988.36218"
       x2="15"
       y2="970.36218" />
    <linearGradient
       inkscape:collect="always"
       xlink:href="#linearGradient4383"
       id="linearGradient4105"
       gradientUnits="userSpaceOnUse"
       gradientTransform="matrix(2.9320156,0,0,2.9320156,2.1748348,-1854.2696)"
       x1="39"
       y1="985.36218"
       x2="9"
       y2="961.36218" />
    <linearGradient
       inkscape:collect="always"
       xlink:href="#linearGradient4383"
       id="linearGradient4107"
       gradientUnits="userSpaceOnUse"
       gradientTransform="matrix(2.9320156,0,0,2.9320156,2.1748348,-1854.2696)"
       x1="33"
       y1="988.36218"
       x2="15"
       y2="970.36218" />
    <linearGradient
       inkscape:collect="always"
       xlink:href="#linearGradient4383"
       id="linearGradient4127"
       gradientUnits="userSpaceOnUse"
       gradientTransform="matrix(2.9320156,0,0,2.9320156,2.1748348,-1854.2696)"
       x1="39"
       y1="985.36218"
       x2="9"
       y2="961.36218" />
    <linearGradient
       inkscape:collect="always"
       xlink:href="#linearGradient4383"
       id="linearGradient4129"
       gradientUnits="userSpaceOnUse"
       gradientTransform="matrix(2.9320156,0,0,2.9320156,2.1748348,-1854.2696)"
       x1="33"
       y1="988.36218"
       x2="15"
       y2="970.36218" />
    <linearGradient
       inkscape:collect="always"
       xlink:href="#linearGradient4383"
       id="linearGradient4144"
       gradientUnits="userSpaceOnUse"
       gradientTransform="matrix(2.9378861,0,0,2.9378861,2.073602,-1860.0738)"
       x1="33"
       y1="988.36218"
       x2="15"
       y2="970.36218" />
    <linearGradient
       inkscape:collect="always"
       xlink:href="#linearGradient4383"
       id="linearGradient4147"
       gradientUnits="userSpaceOnUse"
       gradientTransform="matrix(2.9378861,0,0,2.9378861,2.1234105,-1860.0738)"
       x1="39"
       y1="985.36218"
       x2="9"
       y2="961.36218" />
    <linearGradient
       id="linearGradient4383-2">
      <stop
         style="stop-color:#000000;stop-opacity:0.64705884;"
         offset="0"
         id="stop4385-4" />
      <stop
         style="stop-color:#000000;stop-opacity:0;"
         offset="1"
         id="stop4387-1" />
    </linearGradient>
    <linearGradient
       inkscape:collect="always"
       xlink:href="#linearGradient4383-2"
       id="linearGradient4147-5"
       gradientUnits="userSpaceOnUse"
       gradientTransform="matrix(2.9378861,0,0,2.9378861,2.1234105,-1860.0738)"
       x1="39"
       y1="985.36218"
       x2="9"
       y2="961.36218" />
    <linearGradient
       id="linearGradient4168">
      <stop
         style="stop-color:#000000;stop-opacity:0.38607843"
         offset="0"
         id="stop4170" />
      <stop
         style="stop-color:#000000;stop-opacity:0;"
         offset="1"
         id="stop4172" />
    </linearGradient>
    <linearGradient
       inkscape:collect="always"
       xlink:href="#linearGradient4230"
       id="linearGradient4236"
       x1="40.246296"
       y1="1064.5804"
       x2="88.603317"
       y2="1110.5804"
       gradientUnits="userSpaceOnUse"
       gradientTransform="translate(8.9501915,-67.749939)" />
    <filter
       inkscape:collect="always"
       id="filter4238">
      <feGaussianBlur
         inkscape:collect="always"
         stdDeviation="0.52107025"
         id="feGaussianBlur4240" />
    </filter>
    <linearGradient
       inkscape:collect="always"
       xlink:href="#linearGradient4246"
       id="linearGradient4252"
       x1="-94.39122"
       y1="913.68335"
       x2="-6.7591548"
       y2="980.93335"
       gradientUnits="userSpaceOnUse"
       gradientTransform="translate(122.5,52)" />
    <filter
       inkscape:collect="always"
       id="filter4254">
      <feGaussianBlur
         inkscape:collect="always"
         stdDeviation="0.78710652"
         id="feGaussianBlur4256" />
    </filter>
    <linearGradient
       inkscape:collect="always"
       xlink:href="#linearGradient4168"
       id="linearGradient5553"
       x1="88.256386"
       y1="1034.152"
       x2="55.868614"
       y2="1002.1554"
       gradientUnits="userSpaceOnUse" />
    <filter
       inkscape:collect="always"
       id="filter5571">
      <feGaussianBlur
         inkscape:collect="always"
         stdDeviation="0.93906823"
         id="feGaussianBlur5573" />
    </filter>
  </defs>
  <sodipodi:namedview
     id="base"
     pagecolor="#000000"
     bordercolor="#666666"
     borderopacity="1.0"
     inkscape:pageopacity="0"
     inkscape:pageshadow="2"
     inkscape:zoom="5.6568543"
     inkscape:cx="49.800302"
     inkscape:cy="25.801209"
     inkscape:document-units="px"
     inkscape:current-layer="g5575"
     showgrid="false"
     inkscape:window-width="1680"
     inkscape:window-height="1026"
     inkscape:window-x="0"
     inkscape:window-y="24"
     inkscape:window-maximized="1" />
  <metadata
     id="metadata3077">
    <rdf:RDF>
      <cc:Work
         rdf:about="">
        <dc:format>image/svg+xml</dc:format>
        <dc:type
           rdf:resource="http://purl.org/dc/dcmitype/StillImage" />
        <dc:title />
      </cc:Work>
    </rdf:RDF>
  </metadata>
  <g
     inkscape:groupmode="layer"
     id="layer3"
     inkscape:label="Black"
     sodipodi:insensitive="true">
    <rect
       style="fill:#000000;fill-opacity:1;stroke:none"
       id="rect3292"
       width="144"
       height="95.5"
       x="-0.5"
       y="1.0130611e-07"
       ry="2.3209162" />
  </g>
  <g
     inkscape:groupmode="layer"
     id="layer4"
     inkscape:label="Background"
     style="display:none"
     sodipodi:insensitive="true">
    <path
       sodipodi:type="inkscape:offset"
       inkscape:radius="1.0196115"
       inkscape:original="M 72 4.34375 C 46.672668 4.34375 25.886611 24.099704 24 48.96875 L 23.96875 48.96875 C 23.964833 48.988002 23.972987 49.037418 23.96875 49.0625 C 23.967213 49.083332 23.970261 49.104161 23.96875 49.125 A 1.2925205 1.2925205 0 0 0 23.96875 49.1875 C 23.967818 49.196637 23.96949 49.20855 23.96875 49.21875 A 1.2925205 1.2925205 0 0 0 23.96875 49.28125 C 23.963744 49.18335 23.930684 49.119754 23.90625 49.5 A 1.2925205 1.2925205 0 0 0 23.90625 49.78125 A 1.2925205 1.2925205 0 0 0 23.90625 49.8125 C 23.904963 49.819683 23.909306 49.855496 23.90625 49.875 C 23.904722 49.884752 23.909532 49.878745 23.90625 49.90625 C 23.904609 49.920002 23.906261 49.96859 23.90625 49.96875 C 23.880124 50.284642 23.8125 50.681854 23.8125 51.15625 L 23.8125 52.65625 A 1.2925205 1.2925205 0 0 0 23.84375 53.03125 C 23.843037 53.094583 23.842751 53.155415 23.84375 53.21875 A 1.2925205 1.2925205 0 0 0 23.8125 53.5625 L 23.8125 70.8125 C 23.8125 76.607663 28.51524 81.46875 34.375 81.46875 L 35.5625 81.46875 C 38.513817 81.46875 41.078227 80.157756 42.9375 78.1875 C 45.505533 85.999707 52.816791 91.65625 61.46875 91.65625 L 82.53125 91.65625 C 91.183209 91.65625 98.494467 85.999707 101.0625 78.1875 C 102.92177 80.157756 105.48618 81.46875 108.4375 81.46875 L 109.65625 81.46875 C 115.51863 81.46875 120.1875 76.588778 120.1875 70.8125 L 120.1875 53.46875 A 1.2925205 1.2925205 0 0 0 120.15625 53.09375 C 120.15638 53.062726 120.15652 53.03102 120.15625 53 A 1.2925205 1.2925205 0 0 0 120.1875 52.65625 L 120.1875 51.15625 C 120.1875 50.683263 120.12151 50.262881 120.09375 49.9375 C 120.09356 49.93553 120.09699 49.931651 120.09375 49.90625 C 120.09315 49.899127 120.09456 49.885163 120.09375 49.875 A 1.2925205 1.2925205 0 0 0 120.09375 49.8125 C 120.09106 49.775505 120.09629 49.729016 120.09375 49.6875 A 1.2925205 1.2925205 0 0 0 120.09375 49.5 C 120.06277 49.01752 120.0113 48.935697 120.03125 49.21875 A 1.2925205 1.2925205 0 0 0 120.03125 49.15625 C 120.03126 49.144466 120.03144 49.136006 120.03125 49.125 C 120.03478 49.145067 120.04201 49.208266 120.03125 49.0625 C 120.02971 49.041618 120.03282 49.020875 120.03125 49 C 118.16117 24.114461 97.339035 4.34375 72 4.34375 z M 72 18.5625 C 87.143046 18.5625 99.056734 28.404227 103.4375 42.09375 C 102.42321 42.670302 101.53845 43.354524 100.78125 44.21875 C 98.005045 36.789977 90.908938 31.46875 82.53125 31.46875 L 61.46875 31.46875 C 53.101505 31.46875 46.002363 36.773271 43.21875 44.1875 C 42.481702 43.351354 41.605792 42.690103 40.625 42.125 C 44.991888 28.414347 56.846897 18.5625 72 18.5625 z "
       style="font-size:medium;font-style:normal;font-variant:normal;font-weight:normal;font-stretch:normal;text-indent:0;text-align:start;text-decoration:none;line-height:normal;letter-spacing:normal;word-spacing:normal;text-transform:none;direction:ltr;block-progression:tb;writing-mode:lr-tb;text-anchor:start;color:#000000;fill:#888a85;fill-opacity:1;stroke:none;stroke-width:2.0754981;marker:none;visibility:visible;display:inline;overflow:visible;enable-background:accumulate;font-family:Bitstream Vera Sans;-inkscape-font-specification:Bitstream Vera Sans"
       id="path4224"
       d="m 72,3.3125 c -25.747899,0 -46.887876,20.041535 -48.96875,45.28125 -0.0019,0.02259 -0.02942,0.0399 -0.03125,0.0625 a 1.0197134,1.0197134 0 0 0 0,0.03125 1.0197134,1.0197134 0 0 0 -0.03125,0.0625 c -0.03143,0.154502 -0.003,0.120246 0,0.15625 0.0012,0.01512 -0.03399,0.05707 -0.03125,0.0625 a 1.0197134,1.0197134 0 0 0 0,0.03125 c 0.0024,0.003 -1.67e-4,0.05957 0,0.0625 a 1.0197134,1.0197134 0 0 0 0,0.03125 c 9.78e-4,0.01027 -0.02945,0.04997 -0.03125,0.0625 -0.01287,0.0895 -0.02408,0.16969 -0.03125,0.28125 -0.0023,0.0283 1.27e-4,0.06017 0,0.0625 -2.7e-4,0.005 0,0.120041 0,0.125 0,0.005 -2.7e-4,0.151299 0,0.15625 -7.19e-4,0.0097 2.7e-5,0.02679 0,0.03125 8.47e-4,0.01054 -0.0012,0.0171 0,0.03125 1.86e-4,0.0081 -1.93e-4,0.02621 0,0.03125 0.0028,-0.01721 3e-6,0.03121 0,0.03125 -0.02215,0.246157 -0.09375,0.692568 -0.09375,1.25 l 0,1.4375 0,0.0625 c -0.0013,0.04686 -4e-5,0.08976 0,0.09375 6.7e-5,0.0066 0.0307,0.180878 0.03125,0.1875 3.31e-4,0.004 -0.0056,0.04721 0,0.09375 0.0038,0.03102 -4.13e-4,0.05987 0,0.0625 1.99e-4,0.0013 -0.0019,0.02126 0,0.03125 -0.0017,0.0092 1.84e-4,0.03009 0,0.03125 -5.74e-4,0.0036 0.0053,0.0511 0,0.09375 -0.0035,0.02843 2.21e-4,0.06007 0,0.0625 -5.52e-4,0.0061 -0.03111,0.11891 -0.03125,0.125 -1.15e-4,0.0049 -4.87e-4,0.08518 0,0.125 1.22e-4,0.01 -5.3e-5,0.03003 0,0.03125 l 0,17.21875 c 0,6.346769 5.170097,11.6875 11.59375,11.6875 l 1.1875,0 c 2.714126,0 5.032145,-1.168053 6.9375,-2.75 3.049123,7.549567 10.351817,12.9375 18.96875,12.9375 l 21.0625,0 c 8.616933,0 15.919627,-5.387933 18.96875,-12.9375 1.90535,1.581947 4.22337,2.75 6.9375,2.75 l 1.21875,0 c 6.42821,0 11.5625,-5.361799 11.5625,-11.6875 l 0,-17.28125 0,-0.0625 c 0.001,-0.04686 4e-5,-0.08976 0,-0.09375 -7e-5,-0.0066 -0.0307,-0.180878 -0.0312,-0.1875 -3.3e-4,-0.004 0.006,-0.04721 0,-0.09375 0.002,-0.0092 -1.8e-4,-0.03009 0,-0.03125 -0.001,-0.01078 2.1e-4,-0.02994 0,-0.03125 -2e-4,-0.0013 0.002,-0.02126 0,-0.03125 0.005,-0.04264 -3.3e-4,-0.09011 0,-0.09375 5.5e-4,-0.0061 0.0311,-0.11891 0.0312,-0.125 1.2e-4,-0.0049 4.9e-4,-0.08518 0,-0.125 -1.2e-4,-0.01 5e-5,-0.03003 0,-0.03125 l 0,-1.46875 c 0,-0.487117 -0.0639,-0.849777 -0.0937,-1.125 0.005,-0.05229 0.001,-0.08363 0,-0.125 -0.001,-0.0134 0.001,-0.05003 0,-0.0625 0,-0.01343 1e-5,-0.02091 0,-0.03125 -1e-5,-0.01034 3e-5,-0.03015 0,-0.03125 a 1.0197134,1.0197134 0 0 0 0,-0.03125 c 3.8e-4,-0.0053 -0.001,-0.08185 0,-0.125 3.6e-4,-0.01079 0,-0.02993 0,-0.03125 0,-0.0066 4.8e-4,-0.149663 0,-0.15625 -0.008,-0.131326 -0.056,-0.228133 -0.0625,-0.3125 -4.2e-4,-0.0321 7.6e-4,-0.01732 0,-0.03125 -0.002,-0.02785 0.003,-0.05434 0,-0.09375 -0.003,-0.01919 0.005,-0.04059 0,-0.0625 -0.004,-0.05372 -0.027,-0.102574 -0.0312,-0.15625 C 119.04422,23.447798 97.814705,3.3125 72,3.3125 z m 0,16.28125 c 14.462828,0 25.797268,9.212778 30.21875,22.1875 -0.40126,0.26747 -0.76092,0.589586 -1.125,0.90625 -3.222888,-7.145146 -10.23635,-12.25 -18.5625,-12.25 l -21.0625,0 c -8.315506,0 -15.332539,5.087585 -18.5625,12.21875 C 42.559763,42.359461 42.220667,42.064401 41.84375,41.8125 46.251309,28.815443 57.527436,19.59375 72,19.59375 z" />
  </g>
  <g
     style="display:inline"
     inkscape:label="Selected"
     id="g5559"
     inkscape:groupmode="layer"
     sodipodi:insensitive="true">
    <path
       d="m 72,3.3125 c -25.747899,0 -46.887876,20.041535 -48.96875,45.28125 -0.0019,0.02259 -0.02942,0.0399 -0.03125,0.0625 a 1.0197134,1.0197134 0 0 0 0,0.03125 1.0197134,1.0197134 0 0 0 -0.03125,0.0625 c -0.03143,0.154502 -0.003,0.120246 0,0.15625 0.0012,0.01512 -0.03399,0.05707 -0.03125,0.0625 a 1.0197134,1.0197134 0 0 0 0,0.03125 c 0.0024,0.003 -1.67e-4,0.05957 0,0.0625 a 1.0197134,1.0197134 0 0 0 0,0.03125 c 9.78e-4,0.01027 -0.02945,0.04997 -0.03125,0.0625 -0.01287,0.0895 -0.02408,0.16969 -0.03125,0.28125 -0.0023,0.0283 1.27e-4,0.06017 0,0.0625 -2.7e-4,0.005 0,0.120041 0,0.125 0,0.005 -2.7e-4,0.151299 0,0.15625 -7.19e-4,0.0097 2.7e-5,0.02679 0,0.03125 8.47e-4,0.01054 -0.0012,0.0171 0,0.03125 1.86e-4,0.0081 -1.93e-4,0.02621 0,0.03125 0.0028,-0.01721 3e-6,0.03121 0,0.03125 -0.02215,0.246157 -0.09375,0.692568 -0.09375,1.25 l 0,1.4375 0,0.0625 c -0.0013,0.04686 -4e-5,0.08976 0,0.09375 6.7e-5,0.0066 0.0307,0.180878 0.03125,0.1875 3.31e-4,0.004 -0.0056,0.04721 0,0.09375 0.0038,0.03102 -4.13e-4,0.05987 0,0.0625 1.99e-4,0.0013 -0.0019,0.02126 0,0.03125 -0.0017,0.0092 1.84e-4,0.03009 0,0.03125 -5.74e-4,0.0036 0.0053,0.0511 0,0.09375 -0.0035,0.02843 2.21e-4,0.06007 0,0.0625 -5.52e-4,0.0061 -0.03111,0.11891 -0.03125,0.125 -1.15e-4,0.0049 -4.87e-4,0.08518 0,0.125 1.22e-4,0.01 -5.3e-5,0.03003 0,0.03125 l 0,17.21875 c 0,6.346769 5.170097,11.6875 11.59375,11.6875 l 1.1875,0 c 2.714126,0 5.032145,-1.168053 6.9375,-2.75 3.049123,7.549567 10.351817,12.9375 18.96875,12.9375 l 21.0625,0 c 8.616933,0 15.919627,-5.387933 18.96875,-12.9375 1.90535,1.581947 4.22337,2.75 6.9375,2.75 l 1.21875,0 c 6.42821,0 11.5625,-5.361799 11.5625,-11.6875 l 0,-17.28125 0,-0.0625 c 0.001,-0.04686 4e-5,-0.08976 0,-0.09375 -7e-5,-0.0066 -0.0307,-0.180878 -0.0312,-0.1875 -3.3e-4,-0.004 0.006,-0.04721 0,-0.09375 0.002,-0.0092 -1.8e-4,-0.03009 0,-0.03125 -0.001,-0.01078 2.1e-4,-0.02994 0,-0.03125 -2e-4,-0.0013 0.002,-0.02126 0,-0.03125 0.005,-0.04264 -3.3e-4,-0.09011 0,-0.09375 5.5e-4,-0.0061 0.0311,-0.11891 0.0312,-0.125 1.2e-4,-0.0049 4.9e-4,-0.08518 0,-0.125 -1.2e-4,-0.01 5e-5,-0.03003 0,-0.03125 l 0,-1.46875 c 0,-0.487117 -0.0639,-0.849777 -0.0937,-1.125 0.005,-0.05229 0.001,-0.08363 0,-0.125 -0.001,-0.0134 0.001,-0.05003 0,-0.0625 0,-0.01343 1e-5,-0.02091 0,-0.03125 -1e-5,-0.01034 3e-5,-0.03015 0,-0.03125 a 1.0197134,1.0197134 0 0 0 0,-0.03125 c 3.8e-4,-0.0053 -0.001,-0.08185 0,-0.125 3.6e-4,-0.01079 0,-0.02993 0,-0.03125 0,-0.0066 4.8e-4,-0.149663 0,-0.15625 -0.008,-0.131326 -0.056,-0.228133 -0.0625,-0.3125 -4.2e-4,-0.0321 7.6e-4,-0.01732 0,-0.03125 -0.002,-0.02785 0.003,-0.05434 0,-0.09375 -0.003,-0.01919 0.005,-0.04059 0,-0.0625 -0.004,-0.05372 -0.027,-0.102574 -0.0312,-0.15625 C 119.04422,23.447798 97.814705,3.3125 72,3.3125 z m 0,16.28125 c 14.462828,0 25.797268,9.212778 30.21875,22.1875 -0.40126,0.26747 -0.76092,0.589586 -1.125,0.90625 -3.222888,-7.145146 -10.23635,-12.25 -18.5625,-12.25 l -21.0625,0 c -8.315506,0 -15.332539,5.087585 -18.5625,12.21875 C 42.559763,42.359461 42.220667,42.064401 41.84375,41.8125 46.251309,28.815443 57.527436,19.59375 72,19.59375 z"
       id="path5561"
       style="font-size:medium;font-style:normal;font-variant:normal;font-weight:normal;font-stretch:normal;text-indent:0;text-align:start;text-decoration:none;line-height:normal;letter-spacing:normal;word-spacing:normal;text-transform:none;direction:ltr;block-progression:tb;writing-mode:lr-tb;text-anchor:start;color:#000000;fill:#eeeeec;fill-opacity:1;stroke:none;stroke-width:2.07549809999999990;marker:none;visibility:visible;display:inline;overflow:visible;filter:url(#filter5571);enable-background:accumulate;font-family:Bitstream Vera Sans;-inkscape-font-specification:Bitstream Vera Sans"
       inkscape:original="M 72 4.34375 C 46.672668 4.34375 25.886611 24.099704 24 48.96875 L 23.96875 48.96875 C 23.964833 48.988002 23.972987 49.037418 23.96875 49.0625 C 23.967213 49.083332 23.970261 49.104161 23.96875 49.125 A 1.2925205 1.2925205 0 0 0 23.96875 49.1875 C 23.967818 49.196637 23.96949 49.20855 23.96875 49.21875 A 1.2925205 1.2925205 0 0 0 23.96875 49.28125 C 23.963744 49.18335 23.930684 49.119754 23.90625 49.5 A 1.2925205 1.2925205 0 0 0 23.90625 49.78125 A 1.2925205 1.2925205 0 0 0 23.90625 49.8125 C 23.904963 49.819683 23.909306 49.855496 23.90625 49.875 C 23.904722 49.884752 23.909532 49.878745 23.90625 49.90625 C 23.904609 49.920002 23.906261 49.96859 23.90625 49.96875 C 23.880124 50.284642 23.8125 50.681854 23.8125 51.15625 L 23.8125 52.65625 A 1.2925205 1.2925205 0 0 0 23.84375 53.03125 C 23.843037 53.094583 23.842751 53.155415 23.84375 53.21875 A 1.2925205 1.2925205 0 0 0 23.8125 53.5625 L 23.8125 70.8125 C 23.8125 76.607663 28.51524 81.46875 34.375 81.46875 L 35.5625 81.46875 C 38.513817 81.46875 41.078227 80.157756 42.9375 78.1875 C 45.505533 85.999707 52.816791 91.65625 61.46875 91.65625 L 82.53125 91.65625 C 91.183209 91.65625 98.494467 85.999707 101.0625 78.1875 C 102.92177 80.157756 105.48618 81.46875 108.4375 81.46875 L 109.65625 81.46875 C 115.51863 81.46875 120.1875 76.588778 120.1875 70.8125 L 120.1875 53.46875 A 1.2925205 1.2925205 0 0 0 120.15625 53.09375 C 120.15638 53.062726 120.15652 53.03102 120.15625 53 A 1.2925205 1.2925205 0 0 0 120.1875 52.65625 L 120.1875 51.15625 C 120.1875 50.683263 120.12151 50.262881 120.09375 49.9375 C 120.09356 49.93553 120.09699 49.931651 120.09375 49.90625 C 120.09315 49.899127 120.09456 49.885163 120.09375 49.875 A 1.2925205 1.2925205 0 0 0 120.09375 49.8125 C 120.09106 49.775505 120.09629 49.729016 120.09375 49.6875 A 1.2925205 1.2925205 0 0 0 120.09375 49.5 C 120.06277 49.01752 120.0113 48.935697 120.03125 49.21875 A 1.2925205 1.2925205 0 0 0 120.03125 49.15625 C 120.03126 49.144466 120.03144 49.136006 120.03125 49.125 C 120.03478 49.145067 120.04201 49.208266 120.03125 49.0625 C 120.02971 49.041618 120.03282 49.020875 120.03125 49 C 118.16117 24.114461 97.339035 4.34375 72 4.34375 z M 72 18.5625 C 87.143046 18.5625 99.056734 28.404227 103.4375 42.09375 C 102.42321 42.670302 101.53845 43.354524 100.78125 44.21875 C 98.005045 36.789977 90.908938 31.46875 82.53125 31.46875 L 61.46875 31.46875 C 53.101505 31.46875 46.002363 36.773271 43.21875 44.1875 C 42.481702 43.351354 41.605792 42.690103 40.625 42.125 C 44.991888 28.414347 56.846897 18.5625 72 18.5625 z "
       inkscape:radius="1.0196115"
       sodipodi:type="inkscape:offset" />
  </g>
  <g
     inkscape:label="Main"
     inkscape:groupmode="layer"
     id="layer1"
     transform="translate(0,-956.36218)"
     style="display:inline"
     sodipodi:insensitive="true">
    <rect
       style="opacity:0.6;fill:url(#linearGradient4236);fill-opacity:1;stroke:none;filter:url(#filter4238)"
       id="rect4226"
       width="52.107025"
       height="52.107025"
       x="45.446487"
       y="991.27704"
       rx="15.53162"
       ry="15.53162" />
    <path
       inkscape:connector-curvature="0"
       style="font-size:medium;font-style:normal;font-variant:normal;font-weight:normal;font-stretch:normal;text-indent:0;text-align:start;text-decoration:none;line-height:normal;letter-spacing:normal;word-spacing:normal;text-transform:none;direction:ltr;block-progression:tb;writing-mode:lr-tb;text-anchor:start;color:#000000;fill:#555753;fill-opacity:1;stroke:none;stroke-width:2.0754981;marker:none;visibility:visible;display:inline;overflow:visible;enable-background:accumulate;font-family:Bitstream Vera Sans;-inkscape-font-specification:Bitstream Vera Sans"
       d="m 72.053326,964.66376 c -23.400381,0 -42.58801,18.36825 -44.068294,41.40574 -0.0059,0.029 0.0059,0.064 0,0.091 -0.08696,0.4274 -0.09166,0.8313 -0.09166,1.2852 l 0,1.469 c -0.04612,0.3038 -0.04612,0.6143 0,0.9181 l 0,17.2601 c 0,3.6314 2.886973,6.6101 6.518436,6.6101 l 1.193517,0 c 3.631433,0 6.518434,-2.9787 6.518434,-6.6101 l 0,-19.6472 c 0,-3.6315 -2.887001,-6.5185 -6.518434,-6.5185 l 0.02351,0 c 3.688839,-17.18932 18.121792,-30.11337 36.425469,-30.11337 18.303677,0 32.781296,12.92405 36.470126,30.11337 l -0.0235,0 c -3.63144,0 -6.51844,2.887 -6.51844,6.5185 l 0,19.6472 c 0,3.6314 2.887,6.6101 6.51844,6.6101 l 1.19351,0 c 3.63143,0 6.51843,-2.9787 6.51843,-6.6101 l 0,-17.3521 c 0.0373,-0.2732 0.0373,-0.5523 0,-0.8261 l 0,-1.469 c 0,-0.4539 -0.006,-0.8578 -0.0917,-1.2852 -0.006,-0.029 0.006,-0.065 0,-0.091 -1.48025,-23.03749 -20.667877,-41.40574 -44.068228,-41.40574 z"
       id="path3592"
       sodipodi:nodetypes="ccsccccccccccsccccccccccscc" />
    <rect
       style="fill:#f57900;fill-opacity:1;stroke:none"
       id="rect3311"
       width="52.107025"
       height="52.107025"
       x="45.996296"
       y="991.77704"
       rx="15.53162"
       ry="15.53162" />
    <path
       sodipodi:nodetypes="ccsccccccccccsccccccccccscc"
       id="path4427"
       d="m 72.053326,964.66376 c -23.400381,0 -42.58801,18.36825 -44.068294,41.40574 -0.0059,0.029 0.0059,0.064 0,0.091 -0.08696,0.4274 -0.09166,0.8313 -0.09166,1.2852 l 0,1.469 c -0.04612,0.3038 -0.04612,0.6143 0,0.9181 l 0,17.2601 c 0,3.6314 2.886973,6.6101 6.518436,6.6101 l 1.193517,0 c 3.631433,0 6.518434,-2.9787 6.518434,-6.6101 l 0,-19.6472 c 0,-3.6315 -2.887001,-6.5185 -6.518434,-6.5185 l 0.02351,0 c 3.688839,-17.18932 18.121792,-30.11337 36.425469,-30.11337 18.303677,0 32.781296,12.92405 36.470126,30.11337 l -0.0235,0 c -3.63144,0 -6.51844,2.887 -6.51844,6.5185 l 0,19.6472 c 0,3.6314 2.887,6.6101 6.51844,6.6101 l 1.19351,0 c 3.63143,0 6.51843,-2.9787 6.51843,-6.6101 l 0,-17.3521 c 0.0373,-0.2732 0.0373,-0.5523 0,-0.8261 l 0,-1.469 c 0,-0.4539 -0.006,-0.8578 -0.0917,-1.2852 -0.006,-0.029 0.006,-0.065 0,-0.091 -1.48025,-23.03749 -20.667877,-41.40574 -44.068228,-41.40574 z"
       style="font-size:medium;font-style:normal;font-variant:normal;font-weight:normal;font-stretch:normal;text-indent:0;text-align:start;text-decoration:none;line-height:normal;letter-spacing:normal;word-spacing:normal;text-transform:none;direction:ltr;block-progression:tb;writing-mode:lr-tb;text-anchor:start;color:#000000;fill:url(#linearGradient4147);fill-opacity:1;stroke:none;stroke-width:2.0754981;marker:none;visibility:visible;display:inline;overflow:visible;enable-background:accumulate;font-family:Bitstream Vera Sans;-inkscape-font-specification:Bitstream Vera Sans"
       inkscape:connector-curvature="0" />
    <rect
       ry="15.53162"
       rx="15.53162"
       y="991.77704"
       x="45.946487"
       height="52.107025"
       width="52.107025"
       id="rect4437"
       style="fill:url(#linearGradient4144);fill-opacity:1;stroke:none" />
    <g
       style="fill:#692f00;fill-opacity:1;filter:url(#filter4551)"
       transform="matrix(2.9378861,0,0,2.9378861,-117.91475,-1938.9823)"
       id="g4555" />
    <g
       style="fill:#ff7506;fill-opacity:1;filter:url(#filter4571)"
       transform="matrix(2.9378861,0,0,2.9378861,-116.97293,-1938.0405)"
       id="g4563" />
    <path
       id="path5441"
       d="m 61.166054,1002.747 c -1.508187,0 -2.962914,0.1448 -4.40625,0.375 l 0,5.9688 c 1.43437,-0.2935 2.88511,-0.4688 4.40625,-0.4688 12.169124,0 22.03125,9.8934 22.03125,22.0625 0,1.4891 -0.187183,2.9063 -0.46875,4.3125 l 5.96875,0 c 0.220929,-1.4146 0.375,-2.8359 0.375,-4.3125 0,-15.4142 -12.492028,-27.9375 -27.90625,-27.9375 z m 0,11.7813 c -1.541588,0 -2.994088,0.2218 -4.40625,0.625 l 0,6.25 c 1.329496,-0.6273 2.838694,-1 4.40625,-1 5.678925,0 10.28125,4.6023 10.28125,10.2812 0,1.5383 -0.42579,3.0022 -1.03125,4.3125 l 6.25,0 c 0.387636,-1.3868 0.65625,-2.802 0.65625,-4.3125 0,-8.924 -7.232227,-16.1562 -16.15625,-16.1562 z m 0,11.75 c -2.433825,0 -4.40625,1.9724 -4.40625,4.4062 0,2.4339 1.972425,4.4063 4.40625,4.4063 2.433825,0 4.40625,-1.9724 4.40625,-4.4063 0,-2.4338 -1.972425,-4.4062 -4.40625,-4.4062 z"
       style="fill:#e37000;fill-opacity:1;stroke:none"
       inkscape:connector-curvature="0" />
    <path
       id="path5443"
       d="m 59.458946,1001.0398 c -1.508187,0 -2.962914,0.1448 -4.40625,0.375 l 0,5.9688 c 1.43437,-0.2935 2.88511,-0.4688 4.40625,-0.4688 12.169124,0 22.03125,9.8934 22.03125,22.0625 0,1.4891 -0.187183,2.9063 -0.46875,4.3125 l 5.96875,0 c 0.220929,-1.4146 0.375,-2.8359 0.375,-4.3125 0,-15.4142 -12.492028,-27.9375 -27.90625,-27.9375 z m 0,11.7813 c -1.541588,0 -2.994088,0.2218 -4.40625,0.625 l 0,6.25 c 1.329496,-0.6273 2.838694,-1 4.40625,-1 5.678925,0 10.28125,4.6023 10.28125,10.2812 0,1.5383 -0.42579,3.0022 -1.03125,4.3125 l 6.25,0 c 0.387636,-1.3868 0.65625,-2.802 0.65625,-4.3125 0,-8.924 -7.232227,-16.1562 -16.15625,-16.1562 z m 0,11.75 c -2.433825,0 -4.40625,1.9724 -4.40625,4.4062 0,2.4339 1.972425,4.4063 4.40625,4.4063 2.433825,0 4.40625,-1.9724 4.40625,-4.4063 0,-2.4338 -1.972425,-4.4062 -4.40625,-4.4062 z"
       style="fill:#663200;fill-opacity:1;stroke:none"
       inkscape:connector-curvature="0" />
    <path
       style="fill:#eeeeec;fill-opacity:1;stroke:none"
       d="m 60.3125,1001.8934 c -1.508187,0 -2.962914,0.1448 -4.40625,0.375 l 0,5.9688 c 1.43437,-0.2935 2.88511,-0.4688 4.40625,-0.4688 12.169124,0 22.03125,9.8934 22.03125,22.0625 0,1.4891 -0.187183,2.9063 -0.46875,4.3125 l 5.96875,0 c 0.220929,-1.4146 0.375,-2.8359 0.375,-4.3125 0,-15.4142 -12.492028,-27.9375 -27.90625,-27.9375 z m 0,11.7813 c -1.541588,0 -2.994088,0.2218 -4.40625,0.625 l 0,6.25 c 1.329496,-0.6273 2.838694,-1 4.40625,-1 5.678925,0 10.28125,4.6023 10.28125,10.2812 0,1.5383 -0.42579,3.0022 -1.03125,4.3125 l 6.25,0 c 0.387636,-1.3868 0.65625,-2.802 0.65625,-4.3125 0,-8.924 -7.232227,-16.1562 -16.15625,-16.1562 z m 0,11.75 c -2.433825,0 -4.40625,1.9724 -4.40625,4.4062 0,2.4339 1.972425,4.4063 4.40625,4.4063 2.433825,0 4.40625,-1.9724 4.40625,-4.4063 0,-2.4338 -1.972425,-4.4062 -4.40625,-4.4062 z"
       id="path4526"
       inkscape:connector-curvature="0" />
    <path
       inkscape:connector-curvature="0"
       style="font-size:medium;font-style:normal;font-variant:normal;font-weight:normal;font-stretch:normal;text-indent:0;text-align:start;text-decoration:none;line-height:normal;letter-spacing:normal;word-spacing:normal;text-transform:none;direction:ltr;block-progression:tb;writing-mode:lr-tb;text-anchor:start;opacity:0.6;color:#000000;fill:url(#linearGradient4252);fill-opacity:1;stroke:none;stroke-width:2.0754981;marker:none;visibility:visible;display:inline;overflow:visible;filter:url(#filter4254);enable-background:accumulate;font-family:Bitstream Vera Sans;-inkscape-font-specification:Bitstream Vera Sans"
       d="m 71.553326,964.16376 c -23.400381,0 -42.58801,18.36825 -44.068294,41.40574 -0.0059,0.029 0.0059,0.064 0,0.091 -0.08696,0.4274 -0.09166,0.8313 -0.09166,1.2852 l 0,1.469 c -0.04612,0.3038 -0.04612,0.6143 0,0.9181 l 0,17.2601 c 0,3.6314 2.886973,6.6101 6.518436,6.6101 l 1.193517,0 c 3.631433,0 6.518434,-2.9787 6.518434,-6.6101 l 0,-19.6472 c 0,-3.6315 -2.887001,-6.5185 -6.518434,-6.5185 l 0.02351,0 c 3.688839,-17.18932 18.121792,-30.11337 36.425469,-30.11337 18.303677,0 32.781296,12.92405 36.470126,30.11337 l -0.0235,0 c -3.63144,0 -6.51844,2.887 -6.51844,6.5185 l 0,19.6472 c 0,3.6314 2.887,6.6101 6.51844,6.6101 l 1.19351,0 c 3.63143,0 6.51843,-2.9787 6.51843,-6.6101 l 0,-17.3521 c 0.0373,-0.2732 0.0373,-0.5523 0,-0.8261 l 0,-1.469 c 0,-0.4539 -0.006,-0.8578 -0.0917,-1.2852 -0.006,-0.029 0.006,-0.065 0,-0.091 -1.48025,-23.03749 -20.667877,-41.40574 -44.068228,-41.40574 z"
       id="path4242"
       sodipodi:nodetypes="ccsccccccccccsccccccccccscc" />
    <path
       inkscape:connector-curvature="0"
       id="path5545"
       d="m 60.3125,1001.8934 c -1.508187,0 -2.962914,0.1448 -4.40625,0.375 l 0,5.9688 c 1.43437,-0.2935 2.88511,-0.4688 4.40625,-0.4688 12.169124,0 22.03125,9.8934 22.03125,22.0625 0,1.4891 -0.187183,2.9063 -0.46875,4.3125 l 5.96875,0 c 0.220929,-1.4146 0.375,-2.8359 0.375,-4.3125 0,-15.4142 -12.492028,-27.9375 -27.90625,-27.9375 z m 0,11.7813 c -1.541588,0 -2.994088,0.2218 -4.40625,0.625 l 0,6.25 c 1.329496,-0.6273 2.838694,-1 4.40625,-1 5.678925,0 10.28125,4.6023 10.28125,10.2812 0,1.5383 -0.42579,3.0022 -1.03125,4.3125 l 6.25,0 c 0.387636,-1.3868 0.65625,-2.802 0.65625,-4.3125 0,-8.924 -7.232227,-16.1562 -16.15625,-16.1562 z m 0,11.75 c -2.433825,0 -4.40625,1.9724 -4.40625,4.4062 0,2.4339 1.972425,4.4063 4.40625,4.4063 2.433825,0 4.40625,-1.9724 4.40625,-4.4063 0,-2.4338 -1.972425,-4.4062 -4.40625,-4.4062 z"
       style="fill:url(#linearGradient5553);fill-opacity:1;stroke:none" />
  </g>
  <g
     style="display:inline"
     inkscape:label="Pressed"
     id="g5575"
     inkscape:groupmode="layer">
    <path
       d="m 72,3.3125 c -25.747899,0 -46.887876,20.041535 -48.96875,45.28125 -0.0019,0.02259 -0.02942,0.0399 -0.03125,0.0625 a 1.0197134,1.0197134 0 0 0 0,0.03125 1.0197134,1.0197134 0 0 0 -0.03125,0.0625 c -0.03143,0.154502 -0.003,0.120246 0,0.15625 0.0012,0.01512 -0.03399,0.05707 -0.03125,0.0625 a 1.0197134,1.0197134 0 0 0 0,0.03125 c 0.0024,0.003 -1.67e-4,0.05957 0,0.0625 a 1.0197134,1.0197134 0 0 0 0,0.03125 c 9.78e-4,0.01027 -0.02945,0.04997 -0.03125,0.0625 -0.01287,0.0895 -0.02408,0.16969 -0.03125,0.28125 -0.0023,0.0283 1.27e-4,0.06017 0,0.0625 -2.7e-4,0.005 0,0.120041 0,0.125 0,0.005 -2.7e-4,0.151299 0,0.15625 -7.19e-4,0.0097 2.7e-5,0.02679 0,0.03125 8.47e-4,0.01054 -0.0012,0.0171 0,0.03125 1.86e-4,0.0081 -1.93e-4,0.02621 0,0.03125 0.0028,-0.01721 3e-6,0.03121 0,0.03125 -0.02215,0.246157 -0.09375,0.692568 -0.09375,1.25 l 0,1.4375 0,0.0625 c -0.0013,0.04686 -4e-5,0.08976 0,0.09375 6.7e-5,0.0066 0.0307,0.180878 0.03125,0.1875 3.31e-4,0.004 -0.0056,0.04721 0,0.09375 0.0038,0.03102 -4.13e-4,0.05987 0,0.0625 1.99e-4,0.0013 -0.0019,0.02126 0,0.03125 -0.0017,0.0092 1.84e-4,0.03009 0,0.03125 -5.74e-4,0.0036 0.0053,0.0511 0,0.09375 -0.0035,0.02843 2.21e-4,0.06007 0,0.0625 -5.52e-4,0.0061 -0.03111,0.11891 -0.03125,0.125 -1.15e-4,0.0049 -4.87e-4,0.08518 0,0.125 1.22e-4,0.01 -5.3e-5,0.03003 0,0.03125 l 0,17.21875 c 0,6.346769 5.170097,11.6875 11.59375,11.6875 l 1.1875,0 c 2.714126,0 5.032145,-1.168053 6.9375,-2.75 3.049123,7.549567 10.351817,12.9375 18.96875,12.9375 l 21.0625,0 c 8.616933,0 15.919627,-5.387933 18.96875,-12.9375 1.90535,1.581947 4.22337,2.75 6.9375,2.75 l 1.21875,0 c 6.42821,0 11.5625,-5.361799 11.5625,-11.6875 l 0,-17.28125 0,-0.0625 c 0.001,-0.04686 4e-5,-0.08976 0,-0.09375 -7e-5,-0.0066 -0.0307,-0.180878 -0.0312,-0.1875 -3.3e-4,-0.004 0.006,-0.04721 0,-0.09375 0.002,-0.0092 -1.8e-4,-0.03009 0,-0.03125 -0.001,-0.01078 2.1e-4,-0.02994 0,-0.03125 -2e-4,-0.0013 0.002,-0.02126 0,-0.03125 0.005,-0.04264 -3.3e-4,-0.09011 0,-0.09375 5.5e-4,-0.0061 0.0311,-0.11891 0.0312,-0.125 1.2e-4,-0.0049 4.9e-4,-0.08518 0,-0.125 -1.2e-4,-0.01 5e-5,-0.03003 0,-0.03125 l 0,-1.46875 c 0,-0.487117 -0.0639,-0.849777 -0.0937,-1.125 0.005,-0.05229 0.001,-0.08363 0,-0.125 -0.001,-0.0134 0.001,-0.05003 0,-0.0625 0,-0.01343 1e-5,-0.02091 0,-0.03125 -1e-5,-0.01034 3e-5,-0.03015 0,-0.03125 a 1.0197134,1.0197134 0 0 0 0,-0.03125 c 3.8e-4,-0.0053 -0.001,-0.08185 0,-0.125 3.6e-4,-0.01079 0,-0.02993 0,-0.03125 0,-0.0066 4.8e-4,-0.149663 0,-0.15625 -0.008,-0.131326 -0.056,-0.228133 -0.0625,-0.3125 -4.2e-4,-0.0321 7.6e-4,-0.01732 0,-0.03125 -0.002,-0.02785 0.003,-0.05434 0,-0.09375 -0.003,-0.01919 0.005,-0.04059 0,-0.0625 -0.004,-0.05372 -0.027,-0.102574 -0.0312,-0.15625 C 119.04422,23.447798 97.814705,3.3125 72,3.3125 z m 0,16.28125 c 14.462828,0 25.797268,9.212778 30.21875,22.1875 -0.40126,0.26747 -0.76092,0.589586 -1.125,0.90625 -3.222888,-7.145146 -10.23635,-12.25 -18.5625,-12.25 l -21.0625,0 c -8.315506,0 -15.332539,5.087585 -18.5625,12.21875 C 42.559763,42.359461 42.220667,42.064401 41.84375,41.8125 46.251309,28.815443 57.527436,19.59375 72,19.59375 z"
       id="path5577"
       style="font-size:medium;font-style:normal;font-variant:normal;font-weight:normal;font-stretch:normal;text-indent:0;text-align:start;text-decoration:none;line-height:normal;letter-spacing:normal;word-spacing:normal;text-transform:none;direction:ltr;block-progression:tb;writing-mode:lr-tb;text-anchor:start;color:#000000;fill:#eeeeec;fill-opacity:1;stroke:none;stroke-width:2.07549809999999990;marker:none;visibility:visible;display:inline;overflow:visible;enable-background:accumulate;font-family:Bitstream Vera Sans;-inkscape-font-specification:Bitstream Vera Sans;opacity:0.4"
       inkscape:original="M 72 4.34375 C 46.672668 4.34375 25.886611 24.099704 24 48.96875 L 23.96875 48.96875 C 23.964833 48.988002 23.972987 49.037418 23.96875 49.0625 C 23.967213 49.083332 23.970261 49.104161 23.96875 49.125 A 1.2925205 1.2925205 0 0 0 23.96875 49.1875 C 23.967818 49.196637 23.96949 49.20855 23.96875 49.21875 A 1.2925205 1.2925205 0 0 0 23.96875 49.28125 C 23.963744 49.18335 23.930684 49.119754 23.90625 49.5 A 1.2925205 1.2925205 0 0 0 23.90625 49.78125 A 1.2925205 1.2925205 0 0 0 23.90625 49.8125 C 23.904963 49.819683 23.909306 49.855496 23.90625 49.875 C 23.904722 49.884752 23.909532 49.878745 23.90625 49.90625 C 23.904609 49.920002 23.906261 49.96859 23.90625 49.96875 C 23.880124 50.284642 23.8125 50.681854 23.8125 51.15625 L 23.8125 52.65625 A 1.2925205 1.2925205 0 0 0 23.84375 53.03125 C 23.843037 53.094583 23.842751 53.155415 23.84375 53.21875 A 1.2925205 1.2925205 0 0 0 23.8125 53.5625 L 23.8125 70.8125 C 23.8125 76.607663 28.51524 81.46875 34.375 81.46875 L 35.5625 81.46875 C 38.513817 81.46875 41.078227 80.157756 42.9375 78.1875 C 45.505533 85.999707 52.816791 91.65625 61.46875 91.65625 L 82.53125 91.65625 C 91.183209 91.65625 98.494467 85.999707 101.0625 78.1875 C 102.92177 80.157756 105.48618 81.46875 108.4375 81.46875 L 109.65625 81.46875 C 115.51863 81.46875 120.1875 76.588778 120.1875 70.8125 L 120.1875 53.46875 A 1.2925205 1.2925205 0 0 0 120.15625 53.09375 C 120.15638 53.062726 120.15652 53.03102 120.15625 53 A 1.2925205 1.2925205 0 0 0 120.1875 52.65625 L 120.1875 51.15625 C 120.1875 50.683263 120.12151 50.262881 120.09375 49.9375 C 120.09356 49.93553 120.09699 49.931651 120.09375 49.90625 C 120.09315 49.899127 120.09456 49.885163 120.09375 49.875 A 1.2925205 1.2925205 0 0 0 120.09375 49.8125 C 120.09106 49.775505 120.09629 49.729016 120.09375 49.6875 A 1.2925205 1.2925205 0 0 0 120.09375 49.5 C 120.06277 49.01752 120.0113 48.935697 120.03125 49.21875 A 1.2925205 1.2925205 0 0 0 120.03125 49.15625 C 120.03126 49.144466 120.03144 49.136006 120.03125 49.125 C 120.03478 49.145067 120.04201 49.208266 120.03125 49.0625 C 120.02971 49.041618 120.03282 49.020875 120.03125 49 C 118.16117 24.114461 97.339035 4.34375 72 4.34375 z M 72 18.5625 C 87.143046 18.5625 99.056734 28.404227 103.4375 42.09375 C 102.42321 42.670302 101.53845 43.354524 100.78125 44.21875 C 98.005045 36.789977 90.908938 31.46875 82.53125 31.46875 L 61.46875 31.46875 C 53.101505 31.46875 46.002363 36.773271 43.21875 44.1875 C 42.481702 43.351354 41.605792 42.690103 40.625 42.125 C 44.991888 28.414347 56.846897 18.5625 72 18.5625 z "
       inkscape:radius="1.0196115"
       sodipodi:type="inkscape:offset" />
  </g>
</svg>
