<?xml version="1.0" encoding="UTF-8" standalone="no"?>
<!-- Created with Inkscape (http://www.inkscape.org/) -->

<svg
   xmlns:dc="http://purl.org/dc/elements/1.1/"
   xmlns:cc="http://creativecommons.org/ns#"
   xmlns:rdf="http://www.w3.org/1999/02/22-rdf-syntax-ns#"
   xmlns:svg="http://www.w3.org/2000/svg"
   xmlns="http://www.w3.org/2000/svg"
   xmlns:xlink="http://www.w3.org/1999/xlink"
   xmlns:sodipodi="http://sodipodi.sourceforge.net/DTD/sodipodi-0.dtd"
   xmlns:inkscape="http://www.inkscape.org/namespaces/inkscape"
   width="32"
   height="32"
   id="svg2"
   version="1.1"
   inkscape:version="0.47 r22583"
   sodipodi:docname="after-show.svg"
   inkscape:export-filename="/Users/sergio/Projects/Eclipse/android-radio-t/Radio-T/res/drawable-mdpi/after_show_icon.png"
   inkscape:export-xdpi="90"
   inkscape:export-ydpi="90">
  <defs
     id="defs4">
    <linearGradient
       id="linearGradient4145">
      <stop
         style="stop-color:#ffffff;stop-opacity:1;"
         offset="0"
         id="stop4147" />
      <stop
         style="stop-color:#ffffff;stop-opacity:0.74901962;"
         offset="1"
         id="stop4149" />
    </linearGradient>
    <linearGradient
       id="linearGradient3708">
      <stop
         style="stop-color:#ffffff;stop-opacity:1;"
         offset="0"
         id="stop3710" />
      <stop
         style="stop-color:#ffffff;stop-opacity:0.74796748;"
         offset="1"
         id="stop3712" />
    </linearGradient>
    <inkscape:perspective
       sodipodi:type="inkscape:persp3d"
       inkscape:vp_x="0 : 526.18109 : 1"
       inkscape:vp_y="0 : 1000 : 0"
       inkscape:vp_z="744.09448 : 526.18109 : 1"
       inkscape:persp3d-origin="372.04724 : 350.78739 : 1"
       id="perspective10" />
    <linearGradient
       inkscape:collect="always"
       xlink:href="#linearGradient3708"
       id="linearGradient3714"
       x1="16.178661"
       y1="1054.9312"
       x2="16.178661"
       y2="1081.4312"
       gradientUnits="userSpaceOnUse"
       gradientTransform="translate(-0.17207162,-31.833248)" />
    <clipPath
       clipPathUnits="userSpaceOnUse"
       id="clipPath3757">
      <path
         id="path3759"
         d="m 16.007714,1023.0979 c -7.9650361,0 -14.4961348,6.2522 -14.9999998,14.0937 -0.0021,0.01 0.002,0.022 0,0.031 -0.02962,0.1455 -0.03125,0.283 -0.03125,0.4375 l 0,0.5 c -0.01574,0.1034 -0.01574,0.2091 0,0.3125 l 0,5.875 c 0,1.2361 0.982677,2.25 2.21875,2.25 l 0.40625,0 c 1.236073,0 2.21875,-1.0139 2.21875,-2.25 l 0,-6.6875 c 0,-1.2361 -0.982677,-2.2188 -2.21875,-2.2188 1.255616,-5.8509 6.1760297,-10.25 12.4062498,-10.25 6.23022,0 11.150638,4.3991 12.40625,10.25 -1.236073,0 -2.21875,0.9827 -2.21875,2.2188 l 0,6.6875 c 0,1.2361 0.982677,2.25 2.21875,2.25 l 0.40625,0 c 1.236073,0 2.21875,-1.0139 2.21875,-2.25 l 0,-5.9063 c 0.01274,-0.093 0.01274,-0.188 0,-0.2812 l 0,-0.5 c 0,-0.1545 -0.0016,-0.292 -0.03125,-0.4375 -0.002,-0.01 0.0021,-0.022 0,-0.031 -0.50385,-7.8415 -7.034965,-14.0937 -15,-14.0937 z m 0,8.5937 c -4.939064,0 -8.9374998,3.9984 -8.9374998,8.9375 0,4.939 3.9984358,8.9688 8.9374998,8.9688 4.939064,0 8.9375,-4.0298 8.9375,-8.9688 0,-4.9391 -3.998436,-8.9375 -8.9375,-8.9375 z m -3.96875,4.5 7.90625,0 0,2.1875 -2.84375,0 0,6.6875 -2.1875,0 0,-6.6875 -2.875,0 0,-2.1875 z"
         style="font-size:medium;font-style:normal;font-variant:normal;font-weight:normal;font-stretch:normal;text-indent:0;text-align:start;text-decoration:none;line-height:normal;letter-spacing:normal;word-spacing:normal;text-transform:none;direction:ltr;block-progression:tb;writing-mode:lr-tb;text-anchor:start;color:#000000;fill:url(#linearGradient3761);fill-opacity:1;stroke:none;stroke-width:2.0754981;marker:none;visibility:visible;display:inline;overflow:visible;enable-background:accumulate;font-family:Bitstream Vera Sans;-inkscape-font-specification:Bitstream Vera Sans" />
    </clipPath>
    <linearGradient
       inkscape:collect="always"
       xlink:href="#linearGradient3708"
       id="linearGradient3761"
       gradientUnits="userSpaceOnUse"
       gradientTransform="translate(-0.17207162,-31.833248)"
       x1="16.178661"
       y1="1054.9312"
       x2="16.178661"
       y2="1081.4312" />
    <filter
       inkscape:collect="always"
       id="filter4347">
      <feGaussianBlur
         inkscape:collect="always"
         stdDeviation="0.85"
         id="feGaussianBlur4349" />
    </filter>
    <clipPath
       clipPathUnits="userSpaceOnUse"
       id="clipPath4353">
      <path
         id="path4355"
         d="m 15.321001,1022.1122 c -0.924657,0.022 -1.843527,0.1599 -2.78125,0.375 -7.5017896,1.7205 -12.38898597,9.2372 -11.2812504,17 5.52e-5,0.01 1.39e-4,0.021 0,0.031 0.00146,0.1484 0.031323,0.2554 0.0625,0.4062 l 0.09375,0.5 c 0.00604,0.1043 0.026807,0.215 0.0625,0.3125 l 1.1875,5.7188 c 0.2494324,1.2065 1.3983233,1.9856 2.5625,1.7187 l 0.375,-0.094 c 1.1641858,-0.2671 1.8744232,-1.4498 1.625,-2.6563 l -1.34375,-6.5312 c -0.2494323,-1.2064 -1.3670642,-1.9546 -2.53125,-1.6875 0.00197,-5.9822 3.7258768,-11.3417 9.5937504,-12.6875 5.867864,-1.3459 11.418047,1.9039 13.78125,7.3437 -1.164185,0.267 -1.905673,1.4184 -1.65625,2.625 l 1.34375,6.5313 c 0.249424,1.2066 1.398315,1.9857 2.5625,1.7187 l 0.375,-0.094 c 1.164185,-0.2671 1.874423,-1.4498 1.625,-2.6563 l -1.1875,-5.7812 c -0.0068,-0.093 -0.0317,-0.1931 -0.0625,-0.2813 l -0.09375,-0.4687 c -0.03118,-0.1508 -0.06772,-0.3018 -0.125,-0.4375 -0.0038,-0.01 0.0039,-0.022 0,-0.031 -1.799731,-6.602 -7.714902,-11.0265 -14.1875,-10.875 z m -6.2187504,6.375 a 0.85398529,0.85398529 0 0 0 -0.46875,0.2813 l -2.6875,3 a 0.85398529,0.85398529 0 1 0 1.25,1.1562 l 1.78125,-1.9687 1.2187504,3.0312 -2.6562504,0 c -0.010405,-6e-4 -0.020845,-6e-4 -0.03125,0 -0.02206,0.01 -0.043129,0.018 -0.0625,0.031 -0.049696,0.018 -0.093796,0.051 -0.125,0.094 -0.071207,0.1027 -0.057302,0.2557 0.03125,0.3438 l 4.0312504,3.8125 3,2.8437 0,6.5625 -1.15625,0.5625 -2.25,1.125 c -0.01124,0.01 -0.0217,0.02 -0.03125,0.031 -0.04262,0.031 -0.07569,0.075 -0.09375,0.125 -0.01534,0.051 -0.01534,0.1056 0,0.1562 0.0045,0.033 0.01515,0.065 0.03125,0.094 0.01725,0.024 0.03846,0.046 0.0625,0.062 0.02899,0.016 0.06095,0.027 0.09375,0.031 0.01937,0.013 0.04044,0.023 0.0625,0.031 l 4.46875,0 4.46875,0 c 0.0328,0 0.06476,-0.015 0.09375,-0.031 0.0497,-0.018 0.0938,-0.051 0.125,-0.094 0.07121,-0.1027 0.0573,-0.2557 -0.03125,-0.3438 -0.01725,-0.024 -0.03846,-0.045 -0.0625,-0.062 l -2.21875,-1.125 -1.1875,-0.5937 0,-6.5 3.03125,-2.875 4,-3.8125 c 0.02715,-0.026 0.0486,-0.059 0.0625,-0.094 0.01534,-0.051 0.01534,-0.1056 0,-0.1562 -0.0045,-0.033 -0.01515,-0.065 -0.03125,-0.094 -0.01725,-0.024 -0.03846,-0.045 -0.0625,-0.062 -0.02899,-0.016 -0.06095,-0.027 -0.09375,-0.031 -0.01937,-0.013 -0.04044,-0.023 -0.0625,-0.031 l -8.03125,0 -3.53125,0 -1.96875,-4.9687 a 0.85398529,0.85398529 0 0 0 -0.8750004,-0.5313 0.85398529,0.85398529 0 0 0 -0.09375,0 z"
         style="font-size:medium;font-style:normal;font-variant:normal;font-weight:normal;font-stretch:normal;text-indent:0;text-align:start;text-decoration:none;line-height:normal;letter-spacing:normal;word-spacing:normal;text-transform:none;direction:ltr;block-progression:tb;writing-mode:lr-tb;text-anchor:start;color:#000000;fill:#ffffff;fill-opacity:1;stroke:none;stroke-width:2.0754981;marker:none;visibility:visible;display:inline;overflow:visible;enable-background:accumulate;font-family:Bitstream Vera Sans;-inkscape-font-specification:Bitstream Vera Sans" />
    </clipPath>
    <linearGradient
       inkscape:collect="always"
       xlink:href="#linearGradient4145"
       id="linearGradient4151"
       x1="16.064627"
       y1="1022.1078"
       x2="16.064627"
       y2="1049.8925"
       gradientUnits="userSpaceOnUse" />
  </defs>
  <sodipodi:namedview
     id="base"
     pagecolor="#000000"
     bordercolor="#666666"
     borderopacity="1.0"
     inkscape:pageopacity="0"
     inkscape:pageshadow="2"
     inkscape:zoom="11.623068"
     inkscape:cx="-1.4779027"
     inkscape:cy="14.544998"
     inkscape:document-units="px"
     inkscape:current-layer="layer1"
     showgrid="true"
     inkscape:window-width="1278"
     inkscape:window-height="650"
     inkscape:window-x="0"
     inkscape:window-y="24"
     inkscape:window-maximized="0"
     inkscape:snap-grids="false">
    <inkscape:grid
       type="xygrid"
       id="grid2816"
       empspacing="5"
       visible="true"
       enabled="true"
       snapvisiblegridlinesonly="true"
       dotted="true" />
  </sodipodi:namedview>
  <metadata
     id="metadata7">
    <rdf:RDF>
      <cc:Work
         rdf:about="">
        <dc:format>image/svg+xml</dc:format>
        <dc:type
           rdf:resource="http://purl.org/dc/dcmitype/StillImage" />
        <dc:title></dc:title>
      </cc:Work>
    </rdf:RDF>
  </metadata>
  <g
     inkscape:label="Layer 1"
     inkscape:groupmode="layer"
     id="layer1"
     transform="translate(0,-1020.3622)">
    <path
       style="font-size:medium;font-style:normal;font-variant:normal;font-weight:normal;font-stretch:normal;text-indent:0;text-align:start;text-decoration:none;line-height:normal;letter-spacing:normal;word-spacing:normal;text-transform:none;direction:ltr;block-progression:tb;writing-mode:lr-tb;text-anchor:start;color:#000000;fill:url(#linearGradient4151);fill-opacity:1;stroke:none;stroke-width:2.07549809999999990;marker:none;visibility:visible;display:inline;overflow:visible;enable-background:accumulate;font-family:Bitstream Vera Sans;-inkscape-font-specification:Bitstream Vera Sans"
       d="m 15.321001,1022.1122 c -0.924657,0.022 -1.843527,0.1599 -2.78125,0.375 -7.5017896,1.7205 -12.38898597,9.2372 -11.2812504,17 5.52e-5,0.01 1.39e-4,0.021 0,0.031 0.00146,0.1484 0.031323,0.2554 0.0625,0.4062 l 0.09375,0.5 c 0.00604,0.1043 0.026807,0.215 0.0625,0.3125 l 1.1875,5.7188 c 0.2494324,1.2065 1.3983233,1.9856 2.5625,1.7187 l 0.375,-0.094 c 1.1641858,-0.2671 1.8744232,-1.4498 1.625,-2.6563 l -1.34375,-6.5312 c -0.2494323,-1.2064 -1.3670642,-1.9546 -2.53125,-1.6875 0.00197,-5.9822 3.7258768,-11.3417 9.5937504,-12.6875 5.867864,-1.3459 11.418047,1.9039 13.78125,7.3437 -1.164185,0.267 -1.905673,1.4184 -1.65625,2.625 l 1.34375,6.5313 c 0.249424,1.2066 1.398315,1.9857 2.5625,1.7187 l 0.375,-0.094 c 1.164185,-0.2671 1.874423,-1.4498 1.625,-2.6563 l -1.1875,-5.7812 c -0.0068,-0.093 -0.0317,-0.1931 -0.0625,-0.2813 l -0.09375,-0.4687 c -0.03118,-0.1508 -0.06772,-0.3018 -0.125,-0.4375 -0.0038,-0.01 0.0039,-0.022 0,-0.031 -1.799731,-6.602 -7.714902,-11.0265 -14.1875,-10.875 z m -6.2187504,6.375 a 0.85398529,0.85398529 0 0 0 -0.46875,0.2813 l -2.6875,3 a 0.85398529,0.85398529 0 1 0 1.25,1.1562 l 1.78125,-1.9687 1.2187504,3.0312 -2.6562504,0 c -0.010405,-6e-4 -0.020845,-6e-4 -0.03125,0 -0.02206,0.01 -0.043129,0.018 -0.0625,0.031 -0.049696,0.018 -0.093796,0.051 -0.125,0.094 -0.071207,0.1027 -0.057302,0.2557 0.03125,0.3438 l 4.0312504,3.8125 3,2.8437 0,6.5625 -1.15625,0.5625 -2.25,1.125 c -0.01124,0.01 -0.0217,0.02 -0.03125,0.031 -0.04262,0.031 -0.07569,0.075 -0.09375,0.125 -0.01534,0.051 -0.01534,0.1056 0,0.1562 0.0045,0.033 0.01515,0.065 0.03125,0.094 0.01725,0.024 0.03846,0.046 0.0625,0.062 0.02899,0.016 0.06095,0.027 0.09375,0.031 0.01937,0.013 0.04044,0.023 0.0625,0.031 l 4.46875,0 4.46875,0 c 0.0328,0 0.06476,-0.015 0.09375,-0.031 0.0497,-0.018 0.0938,-0.051 0.125,-0.094 0.07121,-0.1027 0.0573,-0.2557 -0.03125,-0.3438 -0.01725,-0.024 -0.03846,-0.045 -0.0625,-0.062 l -2.21875,-1.125 -1.1875,-0.5937 0,-6.5 3.03125,-2.875 4,-3.8125 c 0.02715,-0.026 0.0486,-0.059 0.0625,-0.094 0.01534,-0.051 0.01534,-0.1056 0,-0.1562 -0.0045,-0.033 -0.01515,-0.065 -0.03125,-0.094 -0.01725,-0.024 -0.03846,-0.045 -0.0625,-0.062 -0.02899,-0.016 -0.06095,-0.027 -0.09375,-0.031 -0.01937,-0.013 -0.04044,-0.023 -0.0625,-0.031 l -8.03125,0 -3.53125,0 -1.96875,-4.9687 a 0.85398529,0.85398529 0 0 0 -0.8750004,-0.5313 0.85398529,0.85398529 0 0 0 -0.09375,0 z"
       id="path3592" />
    <path
       style="opacity:0.81000000999999999;fill:#000000;fill-opacity:1;stroke:none;filter:url(#filter4347)"
       d="m -12.247086,1015.6881 0,42 58,0 0,-42 -58,0 z m 28.25,7.125 c 6.472598,-0.1515 12.387769,4.273 14.1875,10.875 0.0039,0.01 -0.0038,0.021 0,0.031 0.05728,0.1357 0.09382,0.2867 0.125,0.4375 l 0.09375,0.4687 c 0.0308,0.088 0.0557,0.1883 0.0625,0.2813 l 1.1875,5.7812 c 0.249423,1.2065 -0.460815,2.3892 -1.625,2.6563 l -0.375,0.094 c -1.164185,0.267 -2.313076,-0.5121 -2.5625,-1.7187 l -1.34375,-6.5313 c -0.249423,-1.2066 0.492065,-2.358 1.65625,-2.625 -2.363203,-5.4398 -7.913386,-8.6897 -13.78125,-7.3437 -5.8678752,1.3458 -9.5917512,6.7053 -9.5937512,12.6875 1.164185,-0.2671 2.281817,0.4811 2.53125,1.6875 l 1.34375,6.5312 c 0.249423,1.2065 -0.460815,2.3892 -1.625,2.6563 l -0.375,0.094 c -1.164177,0.2669 -2.313068,-0.5122 -2.5625,-1.7187 l -1.1875,-5.7188 c -0.03569,-0.098 -0.0565,-0.2082 -0.0625,-0.3125 l -0.09375,-0.5 c -0.03118,-0.1508 -0.061,-0.2578 -0.0625,-0.4062 1.39e-4,-0.01 5.5e-5,-0.021 0,-0.031 -1.10773604,-7.7628 3.77946,-15.2795 11.2812512,-17 0.937723,-0.2151 1.856593,-0.353 2.78125,-0.375 z m -6.2187512,6.375 a 0.85398529,0.85398529 0 0 1 0.09375,0 0.85398529,0.85398529 0 0 1 0.8750012,0.5313 l 1.96875,4.9687 3.53125,0 8.03125,0 c 0.02206,0.01 0.04313,0.018 0.0625,0.031 0.0328,0 0.06476,0.015 0.09375,0.031 0.02404,0.017 0.04525,0.038 0.0625,0.062 0.0161,0.029 0.02675,0.061 0.03125,0.094 0.01534,0.051 0.01534,0.1052 0,0.1562 -0.0139,0.035 -0.03535,0.068 -0.0625,0.094 l -4,3.8125 -3.03125,2.875 0,6.5 1.1875,0.5937 2.21875,1.125 c 0.02404,0.017 0.04525,0.038 0.0625,0.062 0.08855,0.088 0.10246,0.2411 0.03125,0.3438 -0.0312,0.043 -0.0753,0.076 -0.125,0.094 -0.02899,0.016 -0.06095,0.031 -0.09375,0.031 l -4.46875,0 -4.46875,0 c -0.02206,-0.01 -0.04313,-0.018 -0.0625,-0.031 -0.0328,0 -0.06476,-0.015 -0.09375,-0.031 -0.02404,-0.016 -0.04525,-0.038 -0.0625,-0.062 -0.0161,-0.029 -0.02675,-0.061 -0.03125,-0.094 -0.01534,-0.051 -0.01534,-0.1052 0,-0.1562 0.01806,-0.05 0.05113,-0.094 0.09375,-0.125 0.0095,-0.011 0.02001,-0.021 0.03125,-0.031 l 2.25,-1.125 1.15625,-0.5625 0,-6.5625 -3,-2.8437 -4.0312512,-3.8125 c -0.08855,-0.088 -0.10246,-0.2411 -0.03125,-0.3438 0.0312,-0.043 0.0753,-0.076 0.125,-0.094 0.01937,-0.013 0.04044,-0.021 0.0625,-0.031 0.0104,-6e-4 0.02085,-6e-4 0.03125,0 l 2.6562512,0 -1.2187512,-3.0312 -1.78125,1.9687 a 0.85398529,0.85398529 0 1 1 -1.25,-1.1562 l 2.6875,-3 a 0.85398529,0.85398529 0 0 1 0.46875,-0.2813 z"
       id="rect2881"
       clip-path="url(#clipPath4353)" />
  </g>
</svg>
