<?xml version="1.0" encoding="UTF-8" standalone="no"?>
<!-- Created with Inkscape (http://www.inkscape.org/) -->

<svg
   xmlns:dc="http://purl.org/dc/elements/1.1/"
   xmlns:cc="http://creativecommons.org/ns#"
   xmlns:rdf="http://www.w3.org/1999/02/22-rdf-syntax-ns#"
   xmlns:svg="http://www.w3.org/2000/svg"
   xmlns="http://www.w3.org/2000/svg"
   xmlns:xlink="http://www.w3.org/1999/xlink"
   xmlns:sodipodi="http://sodipodi.sourceforge.net/DTD/sodipodi-0.dtd"
   xmlns:inkscape="http://www.inkscape.org/namespaces/inkscape"
   width="144"
   height="96"
   id="svg3323"
   version="1.1"
   inkscape:version="0.48.2 r9819"
   inkscape:export-filename="/home/moshse/Projects/android-radio-t/Radio-T/res/drawable-ldpi/home_btn_after_show_pressed.png"
   inkscape:export-xdpi="45"
   inkscape:export-ydpi="45"
   sodipodi:docname="btn_home_after_show.svg">
  <defs
     id="defs3325">
    <linearGradient
       id="linearGradient4349">
      <stop
         style="stop-color:#eeeeec;stop-opacity:1;"
         offset="0"
         id="stop4351" />
      <stop
         style="stop-color:#eeeeec;stop-opacity:0.50196081;"
         offset="1"
         id="stop4353" />
    </linearGradient>
    <filter
       color-interpolation-filters="sRGB"
       inkscape:collect="always"
       id="filter4591">
      <feGaussianBlur
         inkscape:collect="always"
         stdDeviation="0.18438211"
         id="feGaussianBlur4593" />
    </filter>
    <linearGradient
       inkscape:collect="always"
       xlink:href="#linearGradient4383"
       id="linearGradient4515"
       x1="65"
       y1="980.36218"
       x2="52"
       y2="967.36218"
       gradientUnits="userSpaceOnUse" />
    <linearGradient
       id="linearGradient4383">
      <stop
         style="stop-color:#000000;stop-opacity:0.64705884;"
         offset="0"
         id="stop4385" />
      <stop
         style="stop-color:#000000;stop-opacity:0;"
         offset="1"
         id="stop4387" />
    </linearGradient>
    <filter
       color-interpolation-filters="sRGB"
       inkscape:collect="always"
       id="filter4505">
      <feGaussianBlur
         inkscape:collect="always"
         stdDeviation="0.13810411"
         id="feGaussianBlur4507" />
    </filter>
    <linearGradient
       id="linearGradient3367">
      <stop
         style="stop-color:#000000;stop-opacity:0.64705884;"
         offset="0"
         id="stop3369" />
      <stop
         style="stop-color:#000000;stop-opacity:0;"
         offset="1"
         id="stop3371" />
    </linearGradient>
    <linearGradient
       inkscape:collect="always"
       xlink:href="#linearGradient4383"
       id="linearGradient4455"
       x1="71"
       y1="993.36218"
       x2="56"
       y2="972.36218"
       gradientUnits="userSpaceOnUse" />
    <linearGradient
       id="linearGradient3374">
      <stop
         style="stop-color:#000000;stop-opacity:0.64705884;"
         offset="0"
         id="stop3376" />
      <stop
         style="stop-color:#000000;stop-opacity:0;"
         offset="1"
         id="stop3378" />
    </linearGradient>
    <linearGradient
       inkscape:collect="always"
       xlink:href="#linearGradient4383"
       id="linearGradient3156"
       gradientUnits="userSpaceOnUse"
       x1="71"
       y1="993.36218"
       x2="56"
       y2="972.36218"
       gradientTransform="matrix(2.4703688,0,0,2.4703688,-86.303218,-1410.9198)" />
    <linearGradient
       inkscape:collect="always"
       xlink:href="#linearGradient4383"
       id="linearGradient3159"
       gradientUnits="userSpaceOnUse"
       x1="80"
       y1="989.36218"
       x2="49"
       y2="961.36218"
       gradientTransform="matrix(2.4703688,0,0,2.4703688,-86.303218,-1410.9198)" />
    <linearGradient
       id="linearGradient4349-0">
      <stop
         style="stop-color:#eeeeec;stop-opacity:1;"
         offset="0"
         id="stop4351-8" />
      <stop
         style="stop-color:#eeeeec;stop-opacity:0.50196081;"
         offset="1"
         id="stop4353-9" />
    </linearGradient>
    <filter
       inkscape:collect="always"
       id="filter4649">
      <feGaussianBlur
         inkscape:collect="always"
         stdDeviation="0.68640529"
         id="feGaussianBlur4651" />
    </filter>
  </defs>
  <sodipodi:namedview
     id="base"
     pagecolor="#000000"
     bordercolor="#666666"
     borderopacity="1.0"
     inkscape:pageopacity="0"
     inkscape:pageshadow="2"
     inkscape:zoom="6.2387442"
     inkscape:cx="25.451959"
     inkscape:cy="39.38514"
     inkscape:document-units="px"
     inkscape:current-layer="layer3"
     showgrid="false"
     inkscape:window-width="1680"
     inkscape:window-height="1026"
     inkscape:window-x="0"
     inkscape:window-y="24"
     inkscape:window-maximized="1" />
  <metadata
     id="metadata3328">
    <rdf:RDF>
      <cc:Work
         rdf:about="">
        <dc:format>image/svg+xml</dc:format>
        <dc:type
           rdf:resource="http://purl.org/dc/dcmitype/StillImage" />
        <dc:title></dc:title>
      </cc:Work>
    </rdf:RDF>
  </metadata>
  <g
     inkscape:groupmode="layer"
     id="layer2"
     inkscape:label="Background"
     sodipodi:insensitive="true">
    <path
       transform="matrix(2.4703688,0,0,2.4703688,-86.303218,-4.7147279)"
       d="m 62.46875,3.96875 c -2.030723,0.1064121 -4.058062,0.5879775 -6,1.5 -7.728407,3.6296056 -11.252222,12.642335 -8.25,20.5 0.01926,0.05039 0.01146,0.105952 0.03125,0.15625 l 0.03125,0 c 0.01965,0.0636 0.04124,0.101018 0.0625,0.15625 -4.5e-5,-8.7e-5 -0.0029,0.02643 0,0.03125 0.02177,0.03564 0.04289,0.06743 0.0625,0.09375 0.02841,0.06543 0.03871,0.168104 0.0625,0.21875 A 1.2022852,1.2022852 0 0 0 48.5,26.65625 l 0.125,0.25 0.09375,0.1875 c 0.02056,0.07471 0.06277,0.158893 0.125,0.28125 l -0.03125,0 0.09375,0.15625 2.40625,5.15625 c 0.797254,1.697558 2.847433,2.492965 4.5625,1.6875 a 1.2022852,1.2022852 0 0 0 0.0625,-0.03125 l 0.28125,-0.15625 c 0.02153,-0.01011 0.04128,-0.02074 0.0625,-0.03125 0.470715,-0.233205 0.85157,-0.575901 1.15625,-0.96875 l 0.21875,1.65625 c -0.05562,0.03127 -0.08428,0.0684 -0.15625,0.125 L 57.46875,34.9375 c -0.402265,0.308133 -1.044208,0.637014 -1.65625,1.21875 A 1.2022852,1.2022852 0 0 0 55.6875,37.75 c 0.482168,0.641775 1.168626,0.828067 1.6875,0.90625 0.518874,0.07818 0.979695,0.05601 1.28125,0.0625 a 1.2022852,1.2022852 0 0 0 0.03125,0 c 3.779275,-0.0099 7.569647,0.03203 11.375,0 0.03136,-2.64e-4 0.06239,2.74e-4 0.09375,0 l 0,-0.03125 c 0.637314,0.03225 1.153754,-0.04259 1.71875,-0.4375 0.149101,-0.104215 0.287164,-0.239125 0.4375,-0.46875 0.150336,-0.229625 0.274548,-0.586131 0.21875,-0.96875 -0.09531,-0.653588 -0.50546,-0.937217 -0.875,-1.125 l 0.03125,-0.03125 -1.25,-0.875 c 0.100977,-0.641096 0.19358,-1.303598 0.28125,-1.8125 a 1.2022852,1.2022852 0 0 0 0,-0.0625 l 1.9375,-14.0625 1.46875,3.125 c 0.797255,1.69756 2.84743,2.492989 4.5625,1.6875 A 1.2022852,1.2022852 0 0 0 78.71875,23.625 l 0.34375,-0.15625 0.03125,-0.03125 c 1.683029,-0.81834 2.377296,-2.86288 1.59375,-4.53125 L 78.25,13.71875 c -0.02068,-0.06609 -0.03867,-0.100055 -0.0625,-0.15625 -0.02979,-0.07024 -0.06303,-0.131663 -0.09375,-0.1875 l -0.1875,-0.46875 A 1.2022852,1.2022852 0 0 0 77.875,12.84375 c -0.07221,-0.153752 -0.170456,-0.336931 -0.28125,-0.5 -0.0072,-0.01316 -0.02397,-0.01812 -0.03125,-0.03125 -0.0114,-0.02058 -0.01977,-0.04199 -0.03125,-0.0625 -0.0073,-0.01309 -0.02389,-0.01819 -0.03125,-0.03125 -3.089949,-5.4847499 -8.999014,-8.5660967 -15.03125,-8.25 z m -0.1875,4.5 c 3.561192,-0.3032804 6.970106,1.226179 9.4375,3.9375 -0.555183,0.724915 -0.784527,1.615536 -0.65625,2.53125 -0.381848,-0.07945 -0.758494,-0.148292 -1.09375,-0.125 -0.02837,0.002 -0.06574,-0.0024 -0.09375,0 l -8.71875,0 C 60.607783,13.653785 60.050893,12.471451 59.5,11.3125 A 1.2022852,1.2022852 0 0 0 59.46875,11.28125 C 59.141892,10.679462 58.543581,10.128035 57.6875,10 57.937945,9.859241 58.109394,9.6559915 58.375,9.53125 59.656779,8.9292698 60.975021,8.5799919 62.28125,8.46875 z m -6.96875,9.5 1.21875,8.8125 -1.5,-3.21875 C 54.480302,22.389388 53.316784,21.718967 52.09375,21.65625 51.935399,20.547137 51.861352,19.449592 52,18.375 c 0.0093,0.0092 0.02183,0.02232 0.03125,0.03125 0.511511,0.485003 1.203703,0.809474 2.0625,0.59375 A 1.2022852,1.2022852 0 0 0 54.5,18.84375 c 0.496194,-0.346012 0.632041,-0.614509 0.8125,-0.875 z"
       id="path4337"
       style="font-size:medium;font-style:normal;font-variant:normal;font-weight:normal;font-stretch:normal;text-indent:0;text-align:start;text-decoration:none;line-height:normal;letter-spacing:normal;word-spacing:normal;text-transform:none;direction:ltr;block-progression:tb;writing-mode:lr-tb;text-anchor:start;color:#000000;fill:#eeeeec;fill-opacity:1;stroke:none;stroke-width:2.0754981;marker:none;visibility:visible;display:inline;overflow:visible;filter:url(#filter4649);enable-background:accumulate;font-family:Bitstream Vera Sans;-inkscape-font-specification:Bitstream Vera Sans"
       inkscape:original="M 62.53125 5.15625 C 60.654819 5.254577 58.771131 5.71602 56.96875 6.5625 C 49.759215 9.94842 46.49766 18.37559 49.375 25.6875 C 49.3775 25.6975 49.40422 25.70965 49.40625 25.71875 C 49.44131 25.86304 49.49682 25.98515 49.5625 26.125 L 49.78125 26.5625 C 49.81099 26.66277 49.84808 26.78809 49.90625 26.875 L 52.40625 32.1875 C 52.931701 33.30632 54.256166 33.8067 55.375 33.28125 L 55.71875 33.09375 C 56.837575 32.5683 57.306701 31.24383 56.78125 30.125 L 53.9375 24.0625 C 53.412036 22.94365 52.118825 22.47455 51 23 C 49.649305 17.17032 52.235734 11.08597 57.875 8.4375 C 63.514267 5.78905 69.84503 7.67533 73.46875 12.4375 L 73.4375 12.46875 C 72.318674 12.9942 71.849537 14.2874 72.375 15.40625 L 75.21875 21.46875 C 75.744201 22.58757 77.068675 23.08796 78.1875 22.5625 L 78.5625 22.375 C 79.681324 21.84955 80.119201 20.52507 79.59375 19.40625 L 77.09375 14.0625 C 77.06571 13.9729 77.01987 13.89146 76.96875 13.8125 L 76.78125 13.34375 C 76.71557 13.20391 76.650783 13.08804 76.5625 12.96875 C 76.5565 12.95975 76.53683 12.9449 76.53125 12.9375 C 73.68915 7.7748525 68.160544 4.861268 62.53125 5.15625 z M 57.46875 11.15625 C 57.057889 11.15623 56.706087 11.32765 56.5 11.6875 C 55.216386 13.32386 53.908614 14.9886 52.625 16.625 C 52.316259 17.2794 53.17753 18.00325 53.8125 17.84375 C 54.194814 17.57715 54.436944 17.12715 54.75 16.78125 C 55.598744 15.71425 56.432505 14.66072 57.28125 13.59375 C 57.662697 14.398816 58.056667 15.194634 58.4375 16 L 57.625 16 C 56.805372 15.9467 56.164649 16.61228 56.4375 17.28125 L 58.90625 35.15625 C 59.099976 35.51031 58.409682 35.65422 58.1875 35.90625 C 57.68123 36.29405 57.108251 36.60163 56.65625 37.03125 C 57.060106 37.56879 57.999894 37.51646 58.6875 37.53125 C 62.509124 37.52125 66.335521 37.56465 70.15625 37.53125 C 70.799801 37.57955 71.94171 37.06666 71 36.65625 L 69.125 35.34375 C 69.355223 34.49411 69.382107 33.61574 69.53125 32.75 L 71.71875 16.875 C 71.72415 16.11493 70.675188 15.94015 69.96875 16 L 60.375 16 C 59.719333 14.616251 59.063605 13.226672 58.40625 11.84375 C 58.217578 11.49638 57.877283 11.19849 57.46875 11.15625 z "
       inkscape:radius="1.202165"
       sodipodi:type="inkscape:offset" />
    <path
       transform="matrix(2.4771362,0,0,2.4771362,-86.736881,-4.8591372)"
       sodipodi:type="inkscape:offset"
       inkscape:radius="1.202165"
       inkscape:original="M 62.53125 5.15625 C 60.654819 5.254577 58.771131 5.71602 56.96875 6.5625 C 49.759215 9.94842 46.49766 18.37559 49.375 25.6875 C 49.3775 25.6975 49.40422 25.70965 49.40625 25.71875 C 49.44131 25.86304 49.49682 25.98515 49.5625 26.125 L 49.78125 26.5625 C 49.81099 26.66277 49.84808 26.78809 49.90625 26.875 L 52.40625 32.1875 C 52.931701 33.30632 54.256166 33.8067 55.375 33.28125 L 55.71875 33.09375 C 56.837575 32.5683 57.306701 31.24383 56.78125 30.125 L 53.9375 24.0625 C 53.412036 22.94365 52.118825 22.47455 51 23 C 49.649305 17.17032 52.235734 11.08597 57.875 8.4375 C 63.514267 5.78905 69.84503 7.67533 73.46875 12.4375 L 73.4375 12.46875 C 72.318674 12.9942 71.849537 14.2874 72.375 15.40625 L 75.21875 21.46875 C 75.744201 22.58757 77.068675 23.08796 78.1875 22.5625 L 78.5625 22.375 C 79.681324 21.84955 80.119201 20.52507 79.59375 19.40625 L 77.09375 14.0625 C 77.06571 13.9729 77.01987 13.89146 76.96875 13.8125 L 76.78125 13.34375 C 76.71557 13.20391 76.650783 13.08804 76.5625 12.96875 C 76.5565 12.95975 76.53683 12.9449 76.53125 12.9375 C 73.68915 7.7748525 68.160544 4.861268 62.53125 5.15625 z M 57.46875 11.15625 C 57.057889 11.15623 56.706087 11.32765 56.5 11.6875 C 55.216386 13.32386 53.908614 14.9886 52.625 16.625 C 52.316259 17.2794 53.17753 18.00325 53.8125 17.84375 C 54.194814 17.57715 54.436944 17.12715 54.75 16.78125 C 55.598744 15.71425 56.432505 14.66072 57.28125 13.59375 C 57.662697 14.398816 58.056667 15.194634 58.4375 16 L 57.625 16 C 56.805372 15.9467 56.164649 16.61228 56.4375 17.28125 L 58.90625 35.15625 C 59.099976 35.51031 58.409682 35.65422 58.1875 35.90625 C 57.68123 36.29405 57.108251 36.60163 56.65625 37.03125 C 57.060106 37.56879 57.999894 37.51646 58.6875 37.53125 C 62.509124 37.52125 66.335521 37.56465 70.15625 37.53125 C 70.799801 37.57955 71.94171 37.06666 71 36.65625 L 69.125 35.34375 C 69.355223 34.49411 69.382107 33.61574 69.53125 32.75 L 71.71875 16.875 C 71.72415 16.11493 70.675188 15.94015 69.96875 16 L 60.375 16 C 59.719333 14.616251 59.063605 13.226672 58.40625 11.84375 C 58.217578 11.49638 57.877283 11.19849 57.46875 11.15625 z "
       style="font-size:medium;font-style:normal;font-variant:normal;font-weight:normal;font-stretch:normal;text-indent:0;text-align:start;text-decoration:none;line-height:normal;letter-spacing:normal;word-spacing:normal;text-transform:none;direction:ltr;block-progression:tb;writing-mode:lr-tb;text-anchor:start;color:#000000;fill:#eeeeec;fill-opacity:1;stroke:none;stroke-width:2.0754981;marker:none;visibility:visible;display:inline;overflow:visible;enable-background:accumulate;font-family:Bitstream Vera Sans;-inkscape-font-specification:Bitstream Vera Sans"
       id="path3540"
       d="m 62.46875,3.96875 c -2.030723,0.1064121 -4.058062,0.5879775 -6,1.5 -7.728407,3.6296056 -11.252222,12.642335 -8.25,20.5 0.01926,0.05039 0.01146,0.105952 0.03125,0.15625 l 0.03125,0 c 0.01965,0.0636 0.04124,0.101018 0.0625,0.15625 -4.5e-5,-8.7e-5 -0.0029,0.02643 0,0.03125 0.02177,0.03564 0.04289,0.06743 0.0625,0.09375 0.02841,0.06543 0.03871,0.168104 0.0625,0.21875 A 1.2022852,1.2022852 0 0 0 48.5,26.65625 l 0.125,0.25 0.09375,0.1875 c 0.02056,0.07471 0.06277,0.158893 0.125,0.28125 l -0.03125,0 0.09375,0.15625 2.40625,5.15625 c 0.797254,1.697558 2.847433,2.492965 4.5625,1.6875 a 1.2022852,1.2022852 0 0 0 0.0625,-0.03125 l 0.28125,-0.15625 c 0.02153,-0.01011 0.04128,-0.02074 0.0625,-0.03125 0.470715,-0.233205 0.85157,-0.575901 1.15625,-0.96875 l 0.21875,1.65625 c -0.05562,0.03127 -0.08428,0.0684 -0.15625,0.125 L 57.46875,34.9375 c -0.402265,0.308133 -1.044208,0.637014 -1.65625,1.21875 A 1.2022852,1.2022852 0 0 0 55.6875,37.75 c 0.482168,0.641775 1.168626,0.828067 1.6875,0.90625 0.518874,0.07818 0.979695,0.05601 1.28125,0.0625 a 1.2022852,1.2022852 0 0 0 0.03125,0 c 3.779275,-0.0099 7.569647,0.03203 11.375,0 0.03136,-2.64e-4 0.06239,2.74e-4 0.09375,0 l 0,-0.03125 c 0.637314,0.03225 1.153754,-0.04259 1.71875,-0.4375 0.149101,-0.104215 0.287164,-0.239125 0.4375,-0.46875 0.150336,-0.229625 0.274548,-0.586131 0.21875,-0.96875 -0.09531,-0.653588 -0.50546,-0.937217 -0.875,-1.125 l 0.03125,-0.03125 -1.25,-0.875 c 0.100977,-0.641096 0.19358,-1.303598 0.28125,-1.8125 a 1.2022852,1.2022852 0 0 0 0,-0.0625 l 1.9375,-14.0625 1.46875,3.125 c 0.797255,1.69756 2.84743,2.492989 4.5625,1.6875 A 1.2022852,1.2022852 0 0 0 78.71875,23.625 l 0.34375,-0.15625 0.03125,-0.03125 c 1.683029,-0.81834 2.377296,-2.86288 1.59375,-4.53125 L 78.25,13.71875 c -0.02068,-0.06609 -0.03867,-0.100055 -0.0625,-0.15625 -0.02979,-0.07024 -0.06303,-0.131663 -0.09375,-0.1875 l -0.1875,-0.46875 A 1.2022852,1.2022852 0 0 0 77.875,12.84375 c -0.07221,-0.153752 -0.170456,-0.336931 -0.28125,-0.5 -0.0072,-0.01316 -0.02397,-0.01812 -0.03125,-0.03125 -0.0114,-0.02058 -0.01977,-0.04199 -0.03125,-0.0625 -0.0073,-0.01309 -0.02389,-0.01819 -0.03125,-0.03125 -3.089949,-5.4847499 -8.999014,-8.5660967 -15.03125,-8.25 z m -0.1875,4.5 c 3.561192,-0.3032804 6.970106,1.226179 9.4375,3.9375 -0.555183,0.724915 -0.784527,1.615536 -0.65625,2.53125 -0.381848,-0.07945 -0.758494,-0.148292 -1.09375,-0.125 -0.02837,0.002 -0.06574,-0.0024 -0.09375,0 l -8.71875,0 C 60.607783,13.653785 60.050893,12.471451 59.5,11.3125 A 1.2022852,1.2022852 0 0 0 59.46875,11.28125 C 59.141892,10.679462 58.543581,10.128035 57.6875,10 57.937945,9.859241 58.109394,9.6559915 58.375,9.53125 59.656779,8.9292698 60.975021,8.5799919 62.28125,8.46875 z m -6.96875,9.5 1.21875,8.8125 -1.5,-3.21875 C 54.480302,22.389388 53.316784,21.718967 52.09375,21.65625 51.935399,20.547137 51.861352,19.449592 52,18.375 c 0.0093,0.0092 0.02183,0.02232 0.03125,0.03125 0.511511,0.485003 1.203703,0.809474 2.0625,0.59375 A 1.2022852,1.2022852 0 0 0 54.5,18.84375 c 0.496194,-0.346012 0.632041,-0.614509 0.8125,-0.875 z" />
  </g>
  <g
     inkscape:label="Main"
     inkscape:groupmode="layer"
     id="layer1"
     transform="translate(0,-956.36218)"
     sodipodi:insensitive="true"
     style="display:inline">
    <path
       style="opacity:0.66255146;fill:#4e85d5;fill-opacity:1;stroke:none;filter:url(#filter4591)"
       d="m 57.475676,972.28199 c -0.819628,-0.0533 -1.475131,0.60491 -1.20228,1.27388 0.819895,5.95743 1.63979,11.91485 2.459685,17.87228 0.193726,0.35406 -0.472767,0.49475 -0.694949,0.74678 -0.50627,0.3878 -1.097027,0.71049 -1.549028,1.14011 0.403856,0.53754 1.3405,0.48319 2.028106,0.49798 3.821624,-0.01 7.644663,0.019 11.465392,-0.0144 0.643551,0.0483 1.784345,-0.43633 0.842635,-0.84674 -0.625245,-0.44071 -1.250491,-0.88143 -1.875736,-1.32214 0.230223,-0.84964 0.260204,-1.73912 0.409347,-2.60486 0.728016,-5.28984 1.456034,-10.57967 2.184052,-15.86951 0.0054,-0.76007 -1.022774,-0.93318 -1.729212,-0.87333 -4.112672,0 -8.225342,0 -12.338012,0 z"
       id="path4585"
       inkscape:connector-curvature="0"
       transform="matrix(2.4703688,0,0,2.4703688,-86.303218,-1410.9198)" />
    <path
       inkscape:connector-curvature="0"
       style="font-size:medium;font-style:normal;font-variant:normal;font-weight:normal;font-stretch:normal;text-indent:0;text-align:start;text-decoration:none;line-height:normal;letter-spacing:normal;word-spacing:normal;text-transform:none;direction:ltr;block-progression:tb;writing-mode:lr-tb;text-anchor:start;color:#000000;fill:#555753;fill-opacity:1;stroke:none;stroke-width:2.0754981;marker:none;visibility:visible;display:inline;overflow:visible;enable-background:accumulate;font-family:Bitstream Vera Sans;-inkscape-font-specification:Bitstream Vera Sans"
       d="m 54.433722,967.83935 c -17.81021,8.36447 -25.848318,29.20332 -18.740227,47.26645 0.0062,0.025 0.02754,0.047 0.03256,0.069 0.08661,0.3564 0.227422,0.6656 0.389676,1.0111 l 0.525074,1.118 c 0.07347,0.2477 0.184463,0.484 0.328172,0.6987 l 6.16963,13.1368 c 1.298057,2.7639 4.560098,3.9991 7.32403,2.701 l 0.908397,-0.4266 c 2.76391,-1.2981 3.896483,-4.5971 2.598425,-7.3611 l -7.022873,-14.9535 c -1.29809,-2.764 -4.52739,-3.9294 -7.291301,-2.6313 l 0.01779,-0.01 c -3.336715,-14.40147 3.028605,-29.3971 16.959672,-35.9398 13.931069,-6.54265 29.569798,-1.88106 38.521723,9.88325 l -0.01779,0.01 c -2.763913,1.29806 -3.929248,4.5274 -2.631161,7.29137 l 7.022876,14.95358 c 1.298055,2.7639 4.560125,3.999 7.324035,2.701 l 0.90839,-0.4266 c 2.76391,-1.2981 3.89648,-4.5972 2.59842,-7.36108 l -6.2025,-13.20676 c -0.0693,-0.22135 -0.16902,-0.43372 -0.29531,-0.62879 l -0.52507,-1.11801 c -0.16225,-0.34546 -0.31111,-0.65082 -0.5292,-0.94551 -0.0148,-0.0222 -0.0188,-0.0511 -0.0326,-0.0694 C 93.413179,966.5963 72.243591,959.47472 54.433405,967.83919 z"
       id="path3592-4"
       sodipodi:nodetypes="ccsccccccccccsccccccccccscc" />
    <path
       style="fill:#ce5c00;fill-opacity:1;stroke:none"
       d="m 55.700236,979.17293 c -1.014978,-5e-5 -1.943741,0.49361 -2.452852,1.38257 -3.171,4.04241 -6.341997,8.0848 -9.512997,12.12731 -0.762704,1.61661 1.3612,3.4222 2.92981,3.02818 0.944457,-0.6586 1.509344,-1.75446 2.282708,-2.60896 2.09671,-2.63588 4.193423,-5.27176 6.290137,-7.90757 4.786067,10.10126 9.545729,20.21544 14.348322,30.30834 0.587537,1.3573 2.722818,2.5122 3.768883,0.9924 1.064418,-1.6939 -0.192071,-3.4904 -0.891096,-5.0561 -4.827331,-10.1809 -9.639041,-20.36944 -14.476134,-30.54556 -0.46609,-0.85813 -1.277554,-1.61626 -2.286781,-1.72061 z"
       id="rect3348"
       inkscape:connector-curvature="0" />
    <path
       inkscape:connector-curvature="0"
       id="path4503"
       d="m 57.482694,967.50442 c -0.410861,-2e-5 -0.786822,0.19981 -0.992909,0.55966 -1.283614,1.63636 -2.567227,3.27271 -3.850841,4.90911 -0.308741,0.6544 0.551011,1.3853 1.185981,1.2258 0.382314,-0.2666 0.610979,-0.7102 0.924035,-1.0561 0.848744,-1.067 1.697489,-2.134 2.546234,-3.20097 1.93739,4.08897 3.864091,8.18317 5.80817,12.26877 0.237834,0.5494 1.102191,1.0169 1.525636,0.4017 0.430874,-0.6857 -0.07775,-1.4129 -0.360714,-2.0467 -1.954093,-4.1212 -3.901863,-8.2455 -5.859908,-12.36477 -0.188672,-0.34737 -0.517151,-0.65426 -0.925684,-0.6965 z"
       style="fill:url(#linearGradient4515);fill-opacity:1;stroke:none;filter:url(#filter4505)"
       transform="matrix(2.4703688,0,0,2.4703688,-86.303218,-1410.9198)" />
    <path
       style="fill:#3465a4;fill-opacity:1;stroke:none"
       d="m 56.078869,991.17327 c -2.024783,-0.13167 -3.644117,1.49435 -2.970075,3.14695 2.025443,14.71708 4.050886,29.43408 6.076329,44.15108 0.478575,0.8747 -1.167909,1.2223 -1.71678,1.8449 -1.250674,0.958 -2.710061,1.7551 -3.82667,2.8165 0.997673,1.3279 3.311529,1.1936 5.010169,1.2302 9.440821,-0.025 18.885137,0.047 28.323747,-0.036 1.589808,0.1193 4.40799,-1.0779 2.081619,-2.0918 -1.544586,-1.0887 -3.089174,-2.1774 -4.633759,-3.2662 0.568735,-2.0989 0.642799,-4.2962 1.011238,-6.4349 1.798468,-13.0679 3.596941,-26.1357 5.395413,-39.20356 0.01334,-1.87765 -2.526628,-2.3053 -4.271791,-2.15745 -10.159816,0 -20.319628,0 -30.47944,0 z"
       id="rect3331"
       inkscape:connector-curvature="0" />
    <path
       sodipodi:nodetypes="ccsccccccccccsccccccccccscc"
       id="path4391"
       d="m 54.433722,967.83935 c -17.81021,8.36447 -25.848318,29.20332 -18.740227,47.26645 0.0062,0.025 0.02754,0.047 0.03256,0.069 0.08661,0.3564 0.227422,0.6656 0.389676,1.0111 l 0.525074,1.118 c 0.07347,0.2477 0.184463,0.484 0.328172,0.6987 l 6.16963,13.1368 c 1.298057,2.7639 4.560098,3.9991 7.32403,2.701 l 0.908397,-0.4266 c 2.76391,-1.2981 3.896483,-4.5971 2.598425,-7.3611 l -7.022873,-14.9535 c -1.29809,-2.764 -4.52739,-3.9294 -7.291301,-2.6313 l 0.01779,-0.01 c -3.336715,-14.40147 3.028605,-29.3971 16.959672,-35.9398 13.931069,-6.54265 29.569798,-1.88106 38.521723,9.88325 l -0.01779,0.01 c -2.763913,1.29806 -3.929248,4.5274 -2.631161,7.29137 l 7.022876,14.95358 c 1.298055,2.7639 4.560125,3.999 7.324035,2.701 l 0.90839,-0.4266 c 2.76391,-1.2981 3.89648,-4.5972 2.59842,-7.36108 l -6.2025,-13.20676 c -0.0693,-0.22135 -0.16902,-0.43372 -0.29531,-0.62879 l -0.52507,-1.11801 c -0.16225,-0.34546 -0.31111,-0.65082 -0.5292,-0.94551 -0.0148,-0.0222 -0.0188,-0.0511 -0.0326,-0.0694 C 93.413179,966.5963 72.243591,959.47472 54.433405,967.83919 z"
       style="font-size:medium;font-style:normal;font-variant:normal;font-weight:normal;font-stretch:normal;text-indent:0;text-align:start;text-decoration:none;line-height:normal;letter-spacing:normal;word-spacing:normal;text-transform:none;direction:ltr;block-progression:tb;writing-mode:lr-tb;text-anchor:start;color:#000000;fill:url(#linearGradient3159);fill-opacity:1;stroke:none;stroke-width:2.0754981;marker:none;visibility:visible;display:inline;overflow:visible;enable-background:accumulate;font-family:Bitstream Vera Sans;-inkscape-font-specification:Bitstream Vera Sans"
       inkscape:connector-curvature="0" />
    <path
       inkscape:connector-curvature="0"
       id="path4447"
       d="m 56.078869,991.17327 c -2.024783,-0.13167 -3.644117,1.49435 -2.970075,3.14695 2.025443,14.71708 4.050886,29.43408 6.076329,44.15108 0.478575,0.8747 -1.167909,1.2223 -1.71678,1.8449 -1.250674,0.958 -2.710061,1.7551 -3.82667,2.8165 0.997673,1.3279 3.311529,1.1936 5.010169,1.2302 9.440821,-0.025 18.885137,0.047 28.323747,-0.036 1.589808,0.1193 4.40799,-1.0779 2.081619,-2.0918 -1.544586,-1.0887 -3.089174,-2.1774 -4.633759,-3.2662 0.568735,-2.0989 0.642799,-4.2962 1.011238,-6.4349 1.798468,-13.0679 3.596941,-26.1357 5.395413,-39.20356 0.01334,-1.87765 -2.526628,-2.3053 -4.271791,-2.15745 -10.159816,0 -20.319628,0 -30.47944,0 z"
       style="fill:url(#linearGradient3156);fill-opacity:1;stroke:none" />
  </g>
  <g
     inkscape:groupmode="layer"
     id="layer3"
     inkscape:label="Selection">
    <path
       transform="matrix(2.4771362,0,0,2.4771362,-86.736878,-4.8591361)"
       sodipodi:type="inkscape:offset"
       inkscape:radius="1.202165"
       inkscape:original="M 62.53125 5.15625 C 60.654819 5.254577 58.771131 5.71602 56.96875 6.5625 C 49.759215 9.94842 46.49766 18.37559 49.375 25.6875 C 49.3775 25.6975 49.40422 25.70965 49.40625 25.71875 C 49.44131 25.86304 49.49682 25.98515 49.5625 26.125 L 49.78125 26.5625 C 49.81099 26.66277 49.84808 26.78809 49.90625 26.875 L 52.40625 32.1875 C 52.931701 33.30632 54.256166 33.8067 55.375 33.28125 L 55.71875 33.09375 C 56.837575 32.5683 57.306701 31.24383 56.78125 30.125 L 53.9375 24.0625 C 53.412036 22.94365 52.118825 22.47455 51 23 C 49.649305 17.17032 52.235734 11.08597 57.875 8.4375 C 63.514267 5.78905 69.84503 7.67533 73.46875 12.4375 L 73.4375 12.46875 C 72.318674 12.9942 71.849537 14.2874 72.375 15.40625 L 75.21875 21.46875 C 75.744201 22.58757 77.068675 23.08796 78.1875 22.5625 L 78.5625 22.375 C 79.681324 21.84955 80.119201 20.52507 79.59375 19.40625 L 77.09375 14.0625 C 77.06571 13.9729 77.01987 13.89146 76.96875 13.8125 L 76.78125 13.34375 C 76.71557 13.20391 76.650783 13.08804 76.5625 12.96875 C 76.5565 12.95975 76.53683 12.9449 76.53125 12.9375 C 73.68915 7.7748525 68.160544 4.861268 62.53125 5.15625 z M 57.46875 11.15625 C 57.057889 11.15623 56.706087 11.32765 56.5 11.6875 C 55.216386 13.32386 53.908614 14.9886 52.625 16.625 C 52.316259 17.2794 53.17753 18.00325 53.8125 17.84375 C 54.194814 17.57715 54.436944 17.12715 54.75 16.78125 C 55.598744 15.71425 56.432505 14.66072 57.28125 13.59375 C 57.662697 14.398816 58.056667 15.194634 58.4375 16 L 57.625 16 C 56.805372 15.9467 56.164649 16.61228 56.4375 17.28125 L 58.90625 35.15625 C 59.099976 35.51031 58.409682 35.65422 58.1875 35.90625 C 57.68123 36.29405 57.108251 36.60163 56.65625 37.03125 C 57.060106 37.56879 57.999894 37.51646 58.6875 37.53125 C 62.509124 37.52125 66.335521 37.56465 70.15625 37.53125 C 70.799801 37.57955 71.94171 37.06666 71 36.65625 L 69.125 35.34375 C 69.355223 34.49411 69.382107 33.61574 69.53125 32.75 L 71.71875 16.875 C 71.72415 16.11493 70.675188 15.94015 69.96875 16 L 60.375 16 C 59.719333 14.616251 59.063605 13.226672 58.40625 11.84375 C 58.217578 11.49638 57.877283 11.19849 57.46875 11.15625 z "
       style="font-size:medium;font-style:normal;font-variant:normal;font-weight:normal;font-stretch:normal;text-indent:0;text-align:start;text-decoration:none;line-height:normal;letter-spacing:normal;word-spacing:normal;text-transform:none;direction:ltr;block-progression:tb;writing-mode:lr-tb;text-anchor:start;color:#000000;fill:#eeeeec;fill-opacity:1;stroke:none;stroke-width:2.07549809999999990;marker:none;visibility:visible;display:inline;overflow:visible;enable-background:accumulate;font-family:Bitstream Vera Sans;-inkscape-font-specification:Bitstream Vera Sans;opacity:0.4"
       id="path3540-5"
       d="m 62.46875,3.96875 c -2.030723,0.1064121 -4.058062,0.5879775 -6,1.5 -7.728407,3.6296056 -11.252222,12.642335 -8.25,20.5 0.01926,0.05039 0.01146,0.105952 0.03125,0.15625 l 0.03125,0 c 0.01965,0.0636 0.04124,0.101018 0.0625,0.15625 -4.5e-5,-8.7e-5 -0.0029,0.02643 0,0.03125 0.02177,0.03564 0.04289,0.06743 0.0625,0.09375 0.02841,0.06543 0.03871,0.168104 0.0625,0.21875 A 1.2022852,1.2022852 0 0 0 48.5,26.65625 l 0.125,0.25 0.09375,0.1875 c 0.02056,0.07471 0.06277,0.158893 0.125,0.28125 l -0.03125,0 0.09375,0.15625 2.40625,5.15625 c 0.797254,1.697558 2.847433,2.492965 4.5625,1.6875 a 1.2022852,1.2022852 0 0 0 0.0625,-0.03125 l 0.28125,-0.15625 c 0.02153,-0.01011 0.04128,-0.02074 0.0625,-0.03125 0.470715,-0.233205 0.85157,-0.575901 1.15625,-0.96875 l 0.21875,1.65625 c -0.05562,0.03127 -0.08428,0.0684 -0.15625,0.125 L 57.46875,34.9375 c -0.402265,0.308133 -1.044208,0.637014 -1.65625,1.21875 A 1.2022852,1.2022852 0 0 0 55.6875,37.75 c 0.482168,0.641775 1.168626,0.828067 1.6875,0.90625 0.518874,0.07818 0.979695,0.05601 1.28125,0.0625 a 1.2022852,1.2022852 0 0 0 0.03125,0 c 3.779275,-0.0099 7.569647,0.03203 11.375,0 0.03136,-2.64e-4 0.06239,2.74e-4 0.09375,0 l 0,-0.03125 c 0.637314,0.03225 1.153754,-0.04259 1.71875,-0.4375 0.149101,-0.104215 0.287164,-0.239125 0.4375,-0.46875 0.150336,-0.229625 0.274548,-0.586131 0.21875,-0.96875 -0.09531,-0.653588 -0.50546,-0.937217 -0.875,-1.125 l 0.03125,-0.03125 -1.25,-0.875 c 0.100977,-0.641096 0.19358,-1.303598 0.28125,-1.8125 a 1.2022852,1.2022852 0 0 0 0,-0.0625 l 1.9375,-14.0625 1.46875,3.125 c 0.797255,1.69756 2.84743,2.492989 4.5625,1.6875 A 1.2022852,1.2022852 0 0 0 78.71875,23.625 l 0.34375,-0.15625 0.03125,-0.03125 c 1.683029,-0.81834 2.377296,-2.86288 1.59375,-4.53125 L 78.25,13.71875 c -0.02068,-0.06609 -0.03867,-0.100055 -0.0625,-0.15625 -0.02979,-0.07024 -0.06303,-0.131663 -0.09375,-0.1875 l -0.1875,-0.46875 A 1.2022852,1.2022852 0 0 0 77.875,12.84375 c -0.07221,-0.153752 -0.170456,-0.336931 -0.28125,-0.5 -0.0072,-0.01316 -0.02397,-0.01812 -0.03125,-0.03125 -0.0114,-0.02058 -0.01977,-0.04199 -0.03125,-0.0625 -0.0073,-0.01309 -0.02389,-0.01819 -0.03125,-0.03125 -3.089949,-5.4847499 -8.999014,-8.5660967 -15.03125,-8.25 z m -0.1875,4.5 c 3.561192,-0.3032804 6.970106,1.226179 9.4375,3.9375 -0.555183,0.724915 -0.784527,1.615536 -0.65625,2.53125 -0.381848,-0.07945 -0.758494,-0.148292 -1.09375,-0.125 -0.02837,0.002 -0.06574,-0.0024 -0.09375,0 l -8.71875,0 C 60.607783,13.653785 60.050893,12.471451 59.5,11.3125 A 1.2022852,1.2022852 0 0 0 59.46875,11.28125 C 59.141892,10.679462 58.543581,10.128035 57.6875,10 57.937945,9.859241 58.109394,9.6559915 58.375,9.53125 59.656779,8.9292698 60.975021,8.5799919 62.28125,8.46875 z m -6.96875,9.5 1.21875,8.8125 -1.5,-3.21875 C 54.480302,22.389388 53.316784,21.718967 52.09375,21.65625 51.935399,20.547137 51.861352,19.449592 52,18.375 c 0.0093,0.0092 0.02183,0.02232 0.03125,0.03125 0.511511,0.485003 1.203703,0.809474 2.0625,0.59375 A 1.2022852,1.2022852 0 0 0 54.5,18.84375 c 0.496194,-0.346012 0.632041,-0.614509 0.8125,-0.875 z" />
  </g>
</svg>
