<?xml version="1.0" encoding="UTF-8" standalone="no"?>
<!-- Created with Inkscape (http://www.inkscape.org/) -->

<svg
   xmlns:dc="http://purl.org/dc/elements/1.1/"
   xmlns:cc="http://creativecommons.org/ns#"
   xmlns:rdf="http://www.w3.org/1999/02/22-rdf-syntax-ns#"
   xmlns:svg="http://www.w3.org/2000/svg"
   xmlns="http://www.w3.org/2000/svg"
   xmlns:xlink="http://www.w3.org/1999/xlink"
   xmlns:sodipodi="http://sodipodi.sourceforge.net/DTD/sodipodi-0.dtd"
   xmlns:inkscape="http://www.inkscape.org/namespaces/inkscape"
   width="144"
   height="96"
   id="svg3323"
   version="1.1"
   inkscape:version="0.48.2 r9819"
   inkscape:export-filename="/home/moshse/Projects/android-radio-t/Radio-T/res/drawable-ldpi/home_btn_after_show_pressed.png"
   inkscape:export-xdpi="45"
   inkscape:export-ydpi="45"
   sodipodi:docname="btn_home_after_show.svg">
  <defs
     id="defs3325">
    <linearGradient
       id="linearGradient4349">
      <stop
         style="stop-color:#eeeeec;stop-opacity:1;"
         offset="0"
         id="stop4351" />
      <stop
         style="stop-color:#eeeeec;stop-opacity:0.50196081;"
         offset="1"
         id="stop4353" />
    </linearGradient>
    <linearGradient
       inkscape:collect="always"
       xlink:href="#linearGradient4383"
       id="linearGradient4515"
       x1="65"
       y1="980.36218"
       x2="52"
       y2="967.36218"
       gradientUnits="userSpaceOnUse" />
    <linearGradient
       id="linearGradient4383">
      <stop
         style="stop-color:#000000;stop-opacity:0.64705884;"
         offset="0"
         id="stop4385" />
      <stop
         style="stop-color:#000000;stop-opacity:0;"
         offset="1"
         id="stop4387" />
    </linearGradient>
    <linearGradient
       id="linearGradient3367">
      <stop
         style="stop-color:#000000;stop-opacity:0.64705884;"
         offset="0"
         id="stop3369" />
      <stop
         style="stop-color:#000000;stop-opacity:0;"
         offset="1"
         id="stop3371" />
    </linearGradient>
    <linearGradient
       inkscape:collect="always"
       xlink:href="#linearGradient4383"
       id="linearGradient4455"
       x1="71"
       y1="993.36218"
       x2="56"
       y2="972.36218"
       gradientUnits="userSpaceOnUse" />
    <linearGradient
       id="linearGradient3374">
      <stop
         style="stop-color:#000000;stop-opacity:0.64705884;"
         offset="0"
         id="stop3376" />
      <stop
         style="stop-color:#000000;stop-opacity:0;"
         offset="1"
         id="stop3378" />
    </linearGradient>
    <linearGradient
       inkscape:collect="always"
       xlink:href="#linearGradient4383"
       id="linearGradient3156"
       gradientUnits="userSpaceOnUse"
       x1="71"
       y1="993.36218"
       x2="56"
       y2="972.36218"
       gradientTransform="matrix(2.4703688,0,0,2.4703688,-86.303218,-1410.9198)" />
    <linearGradient
       inkscape:collect="always"
       xlink:href="#linearGradient4383"
       id="linearGradient3159"
       gradientUnits="userSpaceOnUse"
       x1="80"
       y1="989.36218"
       x2="49"
       y2="961.36218"
       gradientTransform="matrix(2.4703688,0,0,2.4703688,-86.303218,-1410.9198)" />
    <linearGradient
       id="linearGradient4349-0">
      <stop
         style="stop-color:#eeeeec;stop-opacity:1;"
         offset="0"
         id="stop4351-8" />
      <stop
         style="stop-color:#eeeeec;stop-opacity:0.50196081;"
         offset="1"
         id="stop4353-9" />
    </linearGradient>
    <linearGradient
       inkscape:collect="always"
       xlink:href="#linearGradient4383"
       id="linearGradient4162"
       gradientUnits="userSpaceOnUse"
       x1="65"
       y1="980.36218"
       x2="52"
       y2="967.36218" />
    <linearGradient
       inkscape:collect="always"
       xlink:href="#linearGradient4383"
       id="linearGradient4164"
       gradientUnits="userSpaceOnUse"
       gradientTransform="matrix(2.4703688,0,0,2.4703688,-86.303218,-1410.9198)"
       x1="80"
       y1="989.36218"
       x2="49"
       y2="961.36218" />
    <linearGradient
       inkscape:collect="always"
       xlink:href="#linearGradient4383"
       id="linearGradient4166"
       gradientUnits="userSpaceOnUse"
       gradientTransform="matrix(2.4703688,0,0,2.4703688,-86.303218,-1410.9198)"
       x1="71"
       y1="993.36218"
       x2="56"
       y2="972.36218" />
    <linearGradient
       inkscape:collect="always"
       xlink:href="#linearGradient4383"
       id="linearGradient4169"
       gradientUnits="userSpaceOnUse"
       gradientTransform="matrix(2.5736581,0,0,2.5009152,-92.937672,-1440.7904)"
       x1="71"
       y1="993.36218"
       x2="56"
       y2="972.36218" />
    <linearGradient
       inkscape:collect="always"
       xlink:href="#linearGradient4383"
       id="linearGradient4172"
       gradientUnits="userSpaceOnUse"
       gradientTransform="matrix(2.5678095,-0.17340827,0.16850699,2.4952319,-256.97007,-1424.1328)"
       x1="78.726234"
       y1="991.65045"
       x2="53.960304"
       y2="964.72607" />
    <linearGradient
       inkscape:collect="always"
       xlink:href="#linearGradient4383"
       id="linearGradient4179"
       gradientUnits="userSpaceOnUse"
       x1="65"
       y1="980.36218"
       x2="52"
       y2="967.36218" />
    <linearGradient
       inkscape:collect="always"
       xlink:href="#linearGradient4383"
       id="linearGradient4185"
       gradientUnits="userSpaceOnUse"
       gradientTransform="matrix(2.5678095,-0.17340827,0.16850699,2.4952319,-256.97007,-1424.1328)"
       x1="78.726234"
       y1="991.65045"
       x2="53.960304"
       y2="964.72607" />
    <linearGradient
       inkscape:collect="always"
       xlink:href="#linearGradient3367"
       id="linearGradient4195"
       x1="89.172958"
       y1="1044.1252"
       x2="53.453167"
       y2="987.22278"
       gradientUnits="userSpaceOnUse" />
    <linearGradient
       gradientTransform="translate(-0.79128561,-982.7805)"
       inkscape:collect="always"
       xlink:href="#linearGradient3367-7"
       id="linearGradient4195-6"
       x1="89.172958"
       y1="1044.1252"
       x2="53.453167"
       y2="987.22278"
       gradientUnits="userSpaceOnUse" />
    <linearGradient
       id="linearGradient3367-7">
      <stop
         style="stop-color:#000000;stop-opacity:0.64705884;"
         offset="0"
         id="stop3369-4" />
      <stop
         style="stop-color:#000000;stop-opacity:0;"
         offset="1"
         id="stop3371-2" />
    </linearGradient>
    <linearGradient
       inkscape:collect="always"
       xlink:href="#linearGradient4383-3"
       id="linearGradient4185-8"
       gradientUnits="userSpaceOnUse"
       gradientTransform="matrix(2.5678095,-0.17340827,0.16850699,2.4952319,-256.97007,-1424.1328)"
       x1="78.726234"
       y1="991.65045"
       x2="53.960304"
       y2="964.72607" />
    <linearGradient
       id="linearGradient4383-3">
      <stop
         style="stop-color:#000000;stop-opacity:0.64705884;"
         offset="0"
         id="stop4385-0" />
      <stop
         style="stop-color:#000000;stop-opacity:0;"
         offset="1"
         id="stop4387-0" />
    </linearGradient>
    <linearGradient
       inkscape:collect="always"
       xlink:href="#linearGradient4383-3"
       id="linearGradient4278"
       gradientUnits="userSpaceOnUse"
       gradientTransform="matrix(2.5678095,-0.17340827,0.16850699,2.4952319,-256.97007,-1424.1328)"
       x1="78.726234"
       y1="991.65045"
       x2="53.960304"
       y2="964.72607" />
    <linearGradient
       inkscape:collect="always"
       xlink:href="#linearGradient4383-3"
       id="linearGradient4281"
       gradientUnits="userSpaceOnUse"
       gradientTransform="matrix(2.5678095,-0.17340827,0.16850699,2.4952319,-257.92164,-2406.9133)"
       x1="78.726234"
       y1="991.65045"
       x2="53.960304"
       y2="964.72607" />
    <filter
       inkscape:collect="always"
       id="filter4291">
      <feGaussianBlur
         inkscape:collect="always"
         stdDeviation="0.48431253"
         id="feGaussianBlur4293" />
    </filter>
    <filter
       inkscape:collect="always"
       id="filter4297">
      <feGaussianBlur
         inkscape:collect="always"
         stdDeviation="0.34983115"
         id="feGaussianBlur4299" />
    </filter>
    <linearGradient
       inkscape:collect="always"
       xlink:href="#linearGradient3367-7"
       id="linearGradient4309"
       x1="62.406162"
       y1="993.30359"
       x2="49.940941"
       y2="981.28192"
       gradientUnits="userSpaceOnUse" />
    <linearGradient
       inkscape:collect="always"
       xlink:href="#linearGradient4383"
       id="linearGradient4312"
       gradientUnits="userSpaceOnUse"
       gradientTransform="matrix(2.5678095,-0.17340827,0.16850699,2.4952319,-257.13036,-1424.1328)"
       x1="78.726234"
       y1="991.65045"
       x2="53.960304"
       y2="964.72607" />
    <filter
       inkscape:collect="always"
       id="filter4348">
      <feGaussianBlur
         inkscape:collect="always"
         stdDeviation="0.89250344"
         id="feGaussianBlur4350" />
    </filter>
  </defs>
  <sodipodi:namedview
     id="base"
     pagecolor="#000000"
     bordercolor="#666666"
     borderopacity="1.0"
     inkscape:pageopacity="0"
     inkscape:pageshadow="2"
     inkscape:zoom="6.2387442"
     inkscape:cx="45.617516"
     inkscape:cy="53.637062"
     inkscape:document-units="px"
     inkscape:current-layer="g4352"
     showgrid="false"
     inkscape:window-width="1680"
     inkscape:window-height="1026"
     inkscape:window-x="0"
     inkscape:window-y="24"
     inkscape:window-maximized="1" />
  <metadata
     id="metadata3328">
    <rdf:RDF>
      <cc:Work
         rdf:about="">
        <dc:format>image/svg+xml</dc:format>
        <dc:type
           rdf:resource="http://purl.org/dc/dcmitype/StillImage" />
        <dc:title></dc:title>
      </cc:Work>
    </rdf:RDF>
  </metadata>
  <g
     inkscape:groupmode="layer"
     id="layer5"
     inkscape:label="Black"
     sodipodi:insensitive="true"
     style="display:none">
    <rect
       style="fill:#000000;fill-opacity:1;stroke:#ff0000;stroke-width:0.1;stroke-miterlimit:4;stroke-opacity:1;stroke-dasharray:0.3, 0.3;stroke-dashoffset:0"
       id="rect4198"
       width="144.2598"
       height="96.97464"
       x="-0.32057732"
       y="-0.33348969" />
  </g>
  <g
     inkscape:groupmode="layer"
     id="layer6"
     inkscape:label="Background"
     sodipodi:insensitive="true"
     style="display:none">
    <path
       sodipodi:type="inkscape:offset"
       inkscape:radius="4.1798172"
       inkscape:original="M 69.125 7.5625 C 63.122557 7.72458 57.075668 9.2503586 51.46875 12.28125 C 33.526589 21.98009 26.598178 43.59775 35.21875 61.34375 C 35.22695 61.36775 35.2433 61.38425 35.25 61.40625 C 35.364335 61.76015 35.526534 62.06875 35.71875 62.40625 L 36.34375 63.5 C 36.43701 63.745 36.585975 63.9807 36.75 64.1875 L 44.03125 77 C 45.569037 79.7007 49.059346 80.72395 51.84375 79.21875 L 52.75 78.71875 C 55.534381 77.21355 56.506545 73.8257 54.96875 71.125 L 46.625 56.5 C 45.091806 53.807529 41.68614 52.857813 38.90625 54.34375 C 34.455579 40.03152 40.028224 24.43019 54.0625 16.84375 C 68.096781 9.2573596 84.673769 12.87067 94.78125 24.125 L 94.78125 24.15625 C 91.996861 25.6614 90.993429 28.98684 92.53125 31.6875 L 100.84375 46.3125 C 102.38153 49.013 105.87185 50.03635 108.65625 48.53125 L 109.5625 48.03125 C 112.34688 46.52605 113.28779 43.10678 111.75 40.40625 L 104.40625 27.5 C 104.31915 27.28128 104.20707 27.06317 104.0625 26.875 L 103.4375 25.78125 C 103.24529 25.4437 103.09054 25.15735 102.84375 24.875 C 102.82685 24.8536 102.79695 24.8299 102.78125 24.8125 C 95.29403 13.455337 82.330375 7.205925 69.125 7.5625 z M 55.0625 19.875 C 54.005084 19.87495 53.030397 20.38129 52.5 21.28125 C 49.196416 25.37364 45.897334 29.47001 42.59375 33.5625 C 41.799156 35.1991 44.022055 37.02389 45.65625 36.625 C 46.640196 35.95825 47.225551 34.86506 48.03125 34 C 50.215626 31.33152 52.37812 28.63715 54.5625 25.96875 C 55.211558 27.299903 55.851715 28.637234 56.5 29.96875 L 55.375 29.96875 C 53.325785 29.82394 51.661575 31.58885 52.34375 33.40625 L 58.5 81.96875 C 58.98435 82.93065 57.336744 83.3153 56.78125 84 C 55.515485 85.0535 54.036332 85.92655 52.90625 87.09375 C 53.915961 88.55405 56.249614 88.3973 57.96875 88.4375 C 67.523487 88.4105 77.0725 88.49725 86.625 88.40625 C 88.233991 88.53745 91.104442 87.20875 88.75 86.09375 C 87.186776 84.89655 85.625722 83.6974 84.0625 82.5 C 84.638097 80.1918 84.689615 77.7894 85.0625 75.4375 C 86.882669 61.0665 88.711077 46.68341 90.53125 32.3125 C 90.54475 30.24762 87.98497 29.80615 86.21875 29.96875 L 61.5 29.96875 C 60.144442 27.190011 58.796065 24.402323 57.4375 21.625 C 56.951922 20.75626 56.113924 19.98064 55.0625 19.875 z "
       style="fill:#888a85;fill-opacity:1;stroke:none;display:inline"
       id="path4285"
       d="M 69,3.375 C 62.365729,3.5541408 55.665362,5.2440919 49.46875,8.59375 29.813369,19.21869 22.05296,42.987138 31.25,62.625 c 0.01,0.02133 0.02122,0.04118 0.03125,0.0625 0.02158,0.06679 0.03989,0.09216 0.0625,0.15625 0.04904,0.103122 0.07502,0.209613 0.125,0.3125 l 0.03125,0 c 0.206175,0.501132 0.42154,1.010128 0.59375,1.3125 l 0.625,1.09375 0.03125,-0.03125 c 0.135763,0.26535 0.261379,0.508441 0.40625,0.71875 l -0.03125,0 7.28125,12.8125 c 1.994107,3.5021 5.862427,5.34906 9.6875,4.96875 -0.07539,0.07488 -0.111842,0.07811 -0.1875,0.15625 a 4.1802352,4.1802352 0 0 0 -0.4375,5.28125 c 1.401354,2.026716 3.550435,2.731096 5.03125,2.96875 1.480815,0.237654 2.686556,0.171402 3.375,0.1875 a 4.1802352,4.1802352 0 0 0 0.09375,0 c 9.521568,-0.02691 19.083166,0.06024 28.6875,-0.03125 l 0,-0.0625 c 1.90671,0.09972 3.251381,-0.185704 4.96875,-1.4375 0.920859,-0.671217 2.479763,-2.235239 2.15625,-4.6875 C 93.517802,84.409292 92.323257,83.446008 91.25,82.8125 l 0.03125,-0.03125 c -0.912858,-0.699115 -1.835614,-1.392398 -2.75,-2.09375 0.210958,-1.611077 0.461957,-3.368282 0.65625,-4.59375 a 4.1802352,4.1802352 0 0 0 0.03125,-0.125 c 1.437506,-11.349712 2.872631,-22.708079 4.3125,-34.0625 l 3.6875,6.46875 c 2.658872,4.669253 8.67047,6.420556 13.4375,3.84375 a 4.1802352,4.1802352 0 0 0 0.0312,-0.03125 l 0.875,-0.46875 0.0312,-0.03125 c 4.73668,-2.589885 6.42508,-8.700898 3.78125,-13.34375 L 108.03125,25.4375 108,25.46875 c -0.0946,-0.199223 -0.20952,-0.407915 -0.34375,-0.625 l 0.0312,-0.03125 -0.625,-1.09375 C 106.93511,23.495029 106.61105,22.986852 106.25,22.5 l 0.0312,0 c -0.0499,-0.07576 -0.10587,-0.143401 -0.15625,-0.21875 -0.30416,-0.385145 -0.0903,-0.129366 -0.125,-0.15625 -0.0331,-0.04895 -0.0917,-0.07622 -0.125,-0.125 C 97.50534,9.7241699 83.386403,2.9865346 69,3.375 z M 70.40625,17 c 6.849103,0.145769 13.406902,2.846787 18.65625,7.46875 -0.24875,0.45749 -0.54435,0.885886 -0.71875,1.375 -0.754338,-0.09877 -1.450253,-0.07841 -2.125,-0.03125 l 0,-0.03125 -22.125,0 c -0.970878,-1.996643 -1.926373,-3.99683 -2.90625,-6 a 4.1802352,4.1802352 0 0 0 -0.09375,-0.1875 C 60.912644,19.269736 60.552282,18.977589 60.3125,18.65625 63.636503,17.48503 67.05285,16.92863 70.40625,17 z M 48.875,39.3125 50.9375,55.65625 50.25,54.4375 C 48.533081,51.422386 45.395437,49.822602 42.125,49.65625 41.518292,46.378787 41.476059,43.102234 42,39.9375 c 1.303945,0.738882 2.788028,1.206014 4.65625,0.75 A 4.1802352,4.1802352 0 0 0 48,40.09375 c 0.410013,-0.277837 0.56491,-0.50748 0.875,-0.78125 z" />
  </g>
  <g
     inkscape:label="Selected"
     id="g4340"
     inkscape:groupmode="layer"
     style="display:inline"
     sodipodi:insensitive="true">
    <path
       d="M 69,3.375 C 62.365729,3.5541408 55.665362,5.2440919 49.46875,8.59375 29.813369,19.21869 22.05296,42.987138 31.25,62.625 c 0.01,0.02133 0.02122,0.04118 0.03125,0.0625 0.02158,0.06679 0.03989,0.09216 0.0625,0.15625 0.04904,0.103122 0.07502,0.209613 0.125,0.3125 l 0.03125,0 c 0.206175,0.501132 0.42154,1.010128 0.59375,1.3125 l 0.625,1.09375 0.03125,-0.03125 c 0.135763,0.26535 0.261379,0.508441 0.40625,0.71875 l -0.03125,0 7.28125,12.8125 c 1.994107,3.5021 5.862427,5.34906 9.6875,4.96875 -0.07539,0.07488 -0.111842,0.07811 -0.1875,0.15625 a 4.1802352,4.1802352 0 0 0 -0.4375,5.28125 c 1.401354,2.026716 3.550435,2.731096 5.03125,2.96875 1.480815,0.237654 2.686556,0.171402 3.375,0.1875 a 4.1802352,4.1802352 0 0 0 0.09375,0 c 9.521568,-0.02691 19.083166,0.06024 28.6875,-0.03125 l 0,-0.0625 c 1.90671,0.09972 3.251381,-0.185704 4.96875,-1.4375 0.920859,-0.671217 2.479763,-2.235239 2.15625,-4.6875 C 93.517802,84.409292 92.323257,83.446008 91.25,82.8125 l 0.03125,-0.03125 c -0.912858,-0.699115 -1.835614,-1.392398 -2.75,-2.09375 0.210958,-1.611077 0.461957,-3.368282 0.65625,-4.59375 a 4.1802352,4.1802352 0 0 0 0.03125,-0.125 c 1.437506,-11.349712 2.872631,-22.708079 4.3125,-34.0625 l 3.6875,6.46875 c 2.658872,4.669253 8.67047,6.420556 13.4375,3.84375 a 4.1802352,4.1802352 0 0 0 0.0312,-0.03125 l 0.875,-0.46875 0.0312,-0.03125 c 4.73668,-2.589885 6.42508,-8.700898 3.78125,-13.34375 L 108.03125,25.4375 108,25.46875 c -0.0946,-0.199223 -0.20952,-0.407915 -0.34375,-0.625 l 0.0312,-0.03125 -0.625,-1.09375 C 106.93511,23.495029 106.61105,22.986852 106.25,22.5 l 0.0312,0 c -0.0499,-0.07576 -0.10587,-0.143401 -0.15625,-0.21875 -0.30416,-0.385145 -0.0903,-0.129366 -0.125,-0.15625 -0.0331,-0.04895 -0.0917,-0.07622 -0.125,-0.125 C 97.50534,9.7241699 83.386403,2.9865346 69,3.375 z M 70.40625,17 c 6.849103,0.145769 13.406902,2.846787 18.65625,7.46875 -0.24875,0.45749 -0.54435,0.885886 -0.71875,1.375 -0.754338,-0.09877 -1.450253,-0.07841 -2.125,-0.03125 l 0,-0.03125 -22.125,0 c -0.970878,-1.996643 -1.926373,-3.99683 -2.90625,-6 a 4.1802352,4.1802352 0 0 0 -0.09375,-0.1875 C 60.912644,19.269736 60.552282,18.977589 60.3125,18.65625 63.636503,17.48503 67.05285,16.92863 70.40625,17 z M 48.875,39.3125 50.9375,55.65625 50.25,54.4375 C 48.533081,51.422386 45.395437,49.822602 42.125,49.65625 41.518292,46.378787 41.476059,43.102234 42,39.9375 c 1.303945,0.738882 2.788028,1.206014 4.65625,0.75 A 4.1802352,4.1802352 0 0 0 48,40.09375 c 0.410013,-0.277837 0.56491,-0.50748 0.875,-0.78125 z"
       id="path4342"
       style="fill:#eeeeec;fill-opacity:1;stroke:none;display:inline;filter:url(#filter4348)"
       inkscape:original="M 69.125 7.5625 C 63.122557 7.72458 57.075668 9.2503586 51.46875 12.28125 C 33.526589 21.98009 26.598178 43.59775 35.21875 61.34375 C 35.22695 61.36775 35.2433 61.38425 35.25 61.40625 C 35.364335 61.76015 35.526534 62.06875 35.71875 62.40625 L 36.34375 63.5 C 36.43701 63.745 36.585975 63.9807 36.75 64.1875 L 44.03125 77 C 45.569037 79.7007 49.059346 80.72395 51.84375 79.21875 L 52.75 78.71875 C 55.534381 77.21355 56.506545 73.8257 54.96875 71.125 L 46.625 56.5 C 45.091806 53.807529 41.68614 52.857813 38.90625 54.34375 C 34.455579 40.03152 40.028224 24.43019 54.0625 16.84375 C 68.096781 9.2573596 84.673769 12.87067 94.78125 24.125 L 94.78125 24.15625 C 91.996861 25.6614 90.993429 28.98684 92.53125 31.6875 L 100.84375 46.3125 C 102.38153 49.013 105.87185 50.03635 108.65625 48.53125 L 109.5625 48.03125 C 112.34688 46.52605 113.28779 43.10678 111.75 40.40625 L 104.40625 27.5 C 104.31915 27.28128 104.20707 27.06317 104.0625 26.875 L 103.4375 25.78125 C 103.24529 25.4437 103.09054 25.15735 102.84375 24.875 C 102.82685 24.8536 102.79695 24.8299 102.78125 24.8125 C 95.29403 13.455337 82.330375 7.205925 69.125 7.5625 z M 55.0625 19.875 C 54.005084 19.87495 53.030397 20.38129 52.5 21.28125 C 49.196416 25.37364 45.897334 29.47001 42.59375 33.5625 C 41.799156 35.1991 44.022055 37.02389 45.65625 36.625 C 46.640196 35.95825 47.225551 34.86506 48.03125 34 C 50.215626 31.33152 52.37812 28.63715 54.5625 25.96875 C 55.211558 27.299903 55.851715 28.637234 56.5 29.96875 L 55.375 29.96875 C 53.325785 29.82394 51.661575 31.58885 52.34375 33.40625 L 58.5 81.96875 C 58.98435 82.93065 57.336744 83.3153 56.78125 84 C 55.515485 85.0535 54.036332 85.92655 52.90625 87.09375 C 53.915961 88.55405 56.249614 88.3973 57.96875 88.4375 C 67.523487 88.4105 77.0725 88.49725 86.625 88.40625 C 88.233991 88.53745 91.104442 87.20875 88.75 86.09375 C 87.186776 84.89655 85.625722 83.6974 84.0625 82.5 C 84.638097 80.1918 84.689615 77.7894 85.0625 75.4375 C 86.882669 61.0665 88.711077 46.68341 90.53125 32.3125 C 90.54475 30.24762 87.98497 29.80615 86.21875 29.96875 L 61.5 29.96875 C 60.144442 27.190011 58.796065 24.402323 57.4375 21.625 C 56.951922 20.75626 56.113924 19.98064 55.0625 19.875 z "
       inkscape:radius="4.1798172"
       sodipodi:type="inkscape:offset" />
  </g>
  <g
     inkscape:label="Main"
     inkscape:groupmode="layer"
     id="layer1"
     transform="translate(0,-956.36218)"
     style="display:inline"
     sodipodi:insensitive="true">
    <path
       inkscape:connector-curvature="0"
       id="path4295"
       d="m 54.682553,975.97087 c -1.057416,-5e-5 -2.025012,0.49971 -2.555409,1.39967 -3.303584,4.09239 -6.607164,8.18477 -9.910748,12.27726 -0.794594,1.6366 1.418114,3.46452 3.052309,3.06563 0.983946,-0.66675 1.572452,-1.77616 2.378151,-2.64122 2.184376,-2.66848 4.368756,-5.33695 6.553136,-8.00535 4.986179,10.22616 9.944848,20.46524 14.948244,30.68294 0.612103,1.3741 2.836662,2.5432 3.926465,1.0047 1.108923,-1.7149 -0.200102,-3.5336 -0.928354,-5.1187 -5.029168,-10.30669 -10.042062,-20.62109 -15.0814,-30.92304 -0.485578,-0.86874 -1.33097,-1.63625 -2.382394,-1.74189 z"
       style="opacity:0.6;fill:#ce5c00;fill-opacity:1;stroke:none;filter:url(#filter4297)" />
    <path
       style="opacity:0.6;fill:#538cd5;fill-opacity:1;stroke:none;filter:url(#filter4291)"
       d="m 54.828383,986.19848 c -2.049215,-0.14481 -3.688088,1.64334 -3.005913,3.46074 2.049883,16.18458 4.099766,32.36908 6.149648,48.55358 0.48435,0.9619 -1.182001,1.3441 -1.737495,2.0288 -1.265765,1.0535 -2.742762,1.9301 -3.872844,3.0973 1.009711,1.4603 3.351487,1.3127 5.070623,1.3529 9.554737,-0.027 19.113011,0.052 28.665511,-0.039 1.608991,0.1312 4.461179,-1.1854 2.106737,-2.3004 -1.563224,-1.1972 -3.126449,-2.3945 -4.689671,-3.5919 0.575597,-2.3082 0.650554,-4.7246 1.023439,-7.0765 1.820169,-14.371 3.640343,-28.7418 5.460516,-43.11272 0.0135,-2.06488 -2.557116,-2.53518 -4.323336,-2.37258 -10.282407,0 -20.564811,0 -30.847215,0 z"
       id="path4287"
       inkscape:connector-curvature="0" />
    <path
       style="fill:#ce5c00;fill-opacity:1;stroke:none"
       d="m 55.003131,976.29145 c -1.057416,-5e-5 -2.025012,0.49971 -2.555409,1.39967 -3.303584,4.09239 -6.607164,8.18477 -9.910748,12.27726 -0.794594,1.6366 1.418114,3.46452 3.052309,3.06563 0.983946,-0.66675 1.572452,-1.77616 2.378151,-2.64122 2.184376,-2.66848 4.368756,-5.33695 6.553136,-8.00535 4.986179,10.22616 9.944848,20.46526 14.948244,30.68296 0.612103,1.3741 2.836662,2.5432 3.926465,1.0047 1.108923,-1.7149 -0.200102,-3.5336 -0.928354,-5.1187 -5.029168,-10.30671 -10.042062,-20.62111 -15.0814,-30.92306 -0.485578,-0.86874 -1.33097,-1.63625 -2.382394,-1.74189 z"
       id="rect3348"
       inkscape:connector-curvature="0" />
    <path
       inkscape:connector-curvature="0"
       id="path4301"
       d="m 55.003131,976.29145 c -1.057416,-5e-5 -2.025012,0.49971 -2.555409,1.39967 -3.303584,4.09239 -6.607164,8.18477 -9.910748,12.27726 -0.794594,1.6366 1.418114,3.46452 3.052309,3.06563 0.983946,-0.66675 1.572452,-1.77616 2.378151,-2.64122 2.184376,-2.66848 4.368756,-5.33695 6.553136,-8.00535 4.986179,10.22616 9.944848,20.46526 14.948244,30.68296 0.612103,1.3741 2.836662,2.5432 3.926465,1.0047 1.108923,-1.7149 -0.200102,-3.5336 -0.928354,-5.1187 -5.029168,-10.30671 -10.042062,-20.62111 -15.0814,-30.92306 -0.485578,-0.86874 -1.33097,-1.63625 -2.382394,-1.74189 z"
       style="fill:url(#linearGradient4309);fill-opacity:1;stroke:none" />
    <path
       style="fill:#548ed8;fill-opacity:1;stroke:none"
       d="m 55.30925,986.35879 c -2.049215,-0.14481 -3.688088,1.64334 -3.005913,3.46074 2.049883,16.18457 4.099766,32.36907 6.149648,48.55357 0.48435,0.9619 -1.182001,1.3441 -1.737495,2.0288 -1.265765,1.0535 -2.742762,1.9301 -3.872844,3.0973 1.009711,1.4603 3.351487,1.3127 5.070623,1.3529 9.554737,-0.027 19.113011,0.052 28.665511,-0.039 1.608991,0.1312 4.461179,-1.1854 2.106737,-2.3004 -1.563224,-1.1972 -3.126449,-2.3945 -4.689671,-3.5919 0.575597,-2.3082 0.650554,-4.7246 1.023439,-7.0765 1.820169,-14.371 3.640343,-28.7418 5.460516,-43.11271 0.0135,-2.06488 -2.557116,-2.53518 -4.323336,-2.37258 -10.282407,0 -20.564811,0 -30.847215,0 z"
       id="rect3331"
       inkscape:connector-curvature="0" />
    <path
       inkscape:connector-curvature="0"
       style="font-size:medium;font-style:normal;font-variant:normal;font-weight:normal;font-stretch:normal;text-indent:0;text-align:start;text-decoration:none;line-height:normal;letter-spacing:normal;word-spacing:normal;text-transform:none;direction:ltr;block-progression:tb;writing-mode:lr-tb;text-anchor:start;color:#000000;fill:#555753;fill-opacity:1;stroke:none;stroke-width:2.0754981;marker:none;visibility:visible;display:inline;overflow:visible;enable-background:accumulate;font-family:Bitstream Vera Sans;-inkscape-font-specification:Bitstream Vera Sans"
       d="M 51.415951,968.68838 C 33.47379,978.38722 26.540073,1000 35.160645,1017.746 c 0.0082,0.024 0.03186,0.046 0.03856,0.068 0.114335,0.3539 0.281798,0.6564 0.474014,0.9939 l 0.62205,1.0925 c 0.09326,0.245 0.224748,0.4758 0.388773,0.6826 l 7.30906,12.8359 c 1.537787,2.7007 5.012752,3.7193 7.797156,2.2141 l 0.915133,-0.4946 c 2.784381,-1.5052 3.736597,-4.9169 2.198802,-7.6176 l -8.319879,-14.6111 c -1.537823,-2.7006 -4.973998,-3.6511 -7.75838,-2.1459 l 0.01781,-0.011 c -4.450671,-14.31223 1.142849,-29.90561 15.177125,-37.49205 14.034281,-7.58639 30.607834,-3.97565 40.715315,7.27868 l -0.01781,0.0113 c -2.784389,1.50515 -3.775412,4.84879 -2.237591,7.54945 l 8.319887,14.61122 c 1.53778,2.7005 5.01276,3.7191 7.79716,2.214 l 0.91512,-0.4947 c 2.78438,-1.5052 3.73659,-4.91702 2.1988,-7.61755 l -7.348,-12.90429 c -0.0871,-0.21872 -0.20527,-0.42623 -0.34984,-0.6144 l -0.62205,-1.0924 c -0.19221,-0.33755 -0.36777,-0.63553 -0.61456,-0.91788 -0.0169,-0.0214 -0.023,-0.0503 -0.0387,-0.0677 C 91.848107,964.69697 69.357738,958.98972 51.415602,968.68857 z"
       id="path3592-4"
       sodipodi:nodetypes="ccsccccccccccsccccccccccscc" />
    <path
       sodipodi:nodetypes="ccsccccccccccsccccccccccscc"
       id="path4391"
       d="M 51.415951,968.68838 C 33.47379,978.38722 26.540073,1000 35.160645,1017.746 c 0.0082,0.024 0.03186,0.046 0.03856,0.068 0.114335,0.3539 0.281798,0.6564 0.474014,0.9939 l 0.62205,1.0925 c 0.09326,0.245 0.224748,0.4758 0.388773,0.6826 l 7.30906,12.8359 c 1.537787,2.7007 5.012752,3.7193 7.797156,2.2141 l 0.915133,-0.4946 c 2.784381,-1.5052 3.736597,-4.9169 2.198802,-7.6176 l -8.319879,-14.6111 c -1.537823,-2.7006 -4.973998,-3.6511 -7.75838,-2.1459 l 0.01781,-0.011 c -4.450671,-14.31223 1.142849,-29.90561 15.177125,-37.49205 14.034281,-7.58639 30.607834,-3.97565 40.715315,7.27868 l -0.01781,0.0113 c -2.784389,1.50515 -3.775412,4.84879 -2.237591,7.54945 l 8.319887,14.61122 c 1.53778,2.7005 5.01276,3.7191 7.79716,2.214 l 0.91512,-0.4947 c 2.78438,-1.5052 3.73659,-4.91702 2.1988,-7.61755 l -7.348,-12.90429 c -0.0871,-0.21872 -0.20527,-0.42623 -0.34984,-0.6144 l -0.62205,-1.0924 c -0.19221,-0.33755 -0.36777,-0.63553 -0.61456,-0.91788 -0.0169,-0.0214 -0.023,-0.0503 -0.0387,-0.0677 C 91.848107,964.69697 69.357738,958.98972 51.415602,968.68857 z"
       style="font-size:medium;font-style:normal;font-variant:normal;font-weight:normal;font-stretch:normal;text-indent:0;text-align:start;text-decoration:none;line-height:normal;letter-spacing:normal;word-spacing:normal;text-transform:none;direction:ltr;block-progression:tb;writing-mode:lr-tb;text-anchor:start;color:#000000;fill:url(#linearGradient4312);fill-opacity:1;stroke:none;stroke-width:2.0754981;marker:none;visibility:visible;display:inline;overflow:visible;enable-background:accumulate;font-family:Bitstream Vera Sans;-inkscape-font-specification:Bitstream Vera Sans"
       inkscape:connector-curvature="0" />
    <path
       inkscape:connector-curvature="0"
       id="path4187"
       d="m 55.30925,986.35879 c -2.049215,-0.14481 -3.688088,1.64334 -3.005913,3.46074 2.049883,16.18457 4.099766,32.36907 6.149648,48.55357 0.48435,0.9619 -1.182001,1.3441 -1.737495,2.0288 -1.265765,1.0535 -2.742762,1.9301 -3.872844,3.0973 1.009711,1.4603 3.351487,1.3127 5.070623,1.3529 9.554737,-0.027 19.113011,0.052 28.665511,-0.039 1.608991,0.1312 4.461179,-1.1854 2.106737,-2.3004 -1.563224,-1.1972 -3.126449,-2.3945 -4.689671,-3.5919 0.575597,-2.3082 0.650554,-4.7246 1.023439,-7.0765 1.820169,-14.371 3.640343,-28.7418 5.460516,-43.11271 0.0135,-2.06488 -2.557116,-2.53518 -4.323336,-2.37258 -10.282407,0 -20.564811,0 -30.847215,0 z"
       style="fill:url(#linearGradient4195);fill-opacity:1;stroke:none" />
  </g>
  <g
     style="display:inline"
     inkscape:label="Pressed"
     id="g4352"
     inkscape:groupmode="layer"
     sodipodi:insensitive="true">
    <path
       d="M 69,3.375 C 62.365729,3.5541408 55.665362,5.2440919 49.46875,8.59375 29.813369,19.21869 22.05296,42.987138 31.25,62.625 c 0.01,0.02133 0.02122,0.04118 0.03125,0.0625 0.02158,0.06679 0.03989,0.09216 0.0625,0.15625 0.04904,0.103122 0.07502,0.209613 0.125,0.3125 l 0.03125,0 c 0.206175,0.501132 0.42154,1.010128 0.59375,1.3125 l 0.625,1.09375 0.03125,-0.03125 c 0.135763,0.26535 0.261379,0.508441 0.40625,0.71875 l -0.03125,0 7.28125,12.8125 c 1.994107,3.5021 5.862427,5.34906 9.6875,4.96875 -0.07539,0.07488 -0.111842,0.07811 -0.1875,0.15625 a 4.1802352,4.1802352 0 0 0 -0.4375,5.28125 c 1.401354,2.026716 3.550435,2.731096 5.03125,2.96875 1.480815,0.237654 2.686556,0.171402 3.375,0.1875 a 4.1802352,4.1802352 0 0 0 0.09375,0 c 9.521568,-0.02691 19.083166,0.06024 28.6875,-0.03125 l 0,-0.0625 c 1.90671,0.09972 3.251381,-0.185704 4.96875,-1.4375 0.920859,-0.671217 2.479763,-2.235239 2.15625,-4.6875 C 93.517802,84.409292 92.323257,83.446008 91.25,82.8125 l 0.03125,-0.03125 c -0.912858,-0.699115 -1.835614,-1.392398 -2.75,-2.09375 0.210958,-1.611077 0.461957,-3.368282 0.65625,-4.59375 a 4.1802352,4.1802352 0 0 0 0.03125,-0.125 c 1.437506,-11.349712 2.872631,-22.708079 4.3125,-34.0625 l 3.6875,6.46875 c 2.658872,4.669253 8.67047,6.420556 13.4375,3.84375 a 4.1802352,4.1802352 0 0 0 0.0312,-0.03125 l 0.875,-0.46875 0.0312,-0.03125 c 4.73668,-2.589885 6.42508,-8.700898 3.78125,-13.34375 L 108.03125,25.4375 108,25.46875 c -0.0946,-0.199223 -0.20952,-0.407915 -0.34375,-0.625 l 0.0312,-0.03125 -0.625,-1.09375 C 106.93511,23.495029 106.61105,22.986852 106.25,22.5 l 0.0312,0 c -0.0499,-0.07576 -0.10587,-0.143401 -0.15625,-0.21875 -0.30416,-0.385145 -0.0903,-0.129366 -0.125,-0.15625 -0.0331,-0.04895 -0.0917,-0.07622 -0.125,-0.125 C 97.50534,9.7241699 83.386403,2.9865346 69,3.375 z M 70.40625,17 c 6.849103,0.145769 13.406902,2.846787 18.65625,7.46875 -0.24875,0.45749 -0.54435,0.885886 -0.71875,1.375 -0.754338,-0.09877 -1.450253,-0.07841 -2.125,-0.03125 l 0,-0.03125 -22.125,0 c -0.970878,-1.996643 -1.926373,-3.99683 -2.90625,-6 a 4.1802352,4.1802352 0 0 0 -0.09375,-0.1875 C 60.912644,19.269736 60.552282,18.977589 60.3125,18.65625 63.636503,17.48503 67.05285,16.92863 70.40625,17 z M 48.875,39.3125 50.9375,55.65625 50.25,54.4375 C 48.533081,51.422386 45.395437,49.822602 42.125,49.65625 41.518292,46.378787 41.476059,43.102234 42,39.9375 c 1.303945,0.738882 2.788028,1.206014 4.65625,0.75 A 4.1802352,4.1802352 0 0 0 48,40.09375 c 0.410013,-0.277837 0.56491,-0.50748 0.875,-0.78125 z"
       id="path4354"
       style="opacity:0.4;fill:#eeeeec;fill-opacity:1;stroke:none;display:inline"
       inkscape:original="M 69.125 7.5625 C 63.122557 7.72458 57.075668 9.2503586 51.46875 12.28125 C 33.526589 21.98009 26.598178 43.59775 35.21875 61.34375 C 35.22695 61.36775 35.2433 61.38425 35.25 61.40625 C 35.364335 61.76015 35.526534 62.06875 35.71875 62.40625 L 36.34375 63.5 C 36.43701 63.745 36.585975 63.9807 36.75 64.1875 L 44.03125 77 C 45.569037 79.7007 49.059346 80.72395 51.84375 79.21875 L 52.75 78.71875 C 55.534381 77.21355 56.506545 73.8257 54.96875 71.125 L 46.625 56.5 C 45.091806 53.807529 41.68614 52.857813 38.90625 54.34375 C 34.455579 40.03152 40.028224 24.43019 54.0625 16.84375 C 68.096781 9.2573596 84.673769 12.87067 94.78125 24.125 L 94.78125 24.15625 C 91.996861 25.6614 90.993429 28.98684 92.53125 31.6875 L 100.84375 46.3125 C 102.38153 49.013 105.87185 50.03635 108.65625 48.53125 L 109.5625 48.03125 C 112.34688 46.52605 113.28779 43.10678 111.75 40.40625 L 104.40625 27.5 C 104.31915 27.28128 104.20707 27.06317 104.0625 26.875 L 103.4375 25.78125 C 103.24529 25.4437 103.09054 25.15735 102.84375 24.875 C 102.82685 24.8536 102.79695 24.8299 102.78125 24.8125 C 95.29403 13.455337 82.330375 7.205925 69.125 7.5625 z M 55.0625 19.875 C 54.005084 19.87495 53.030397 20.38129 52.5 21.28125 C 49.196416 25.37364 45.897334 29.47001 42.59375 33.5625 C 41.799156 35.1991 44.022055 37.02389 45.65625 36.625 C 46.640196 35.95825 47.225551 34.86506 48.03125 34 C 50.215626 31.33152 52.37812 28.63715 54.5625 25.96875 C 55.211558 27.299903 55.851715 28.637234 56.5 29.96875 L 55.375 29.96875 C 53.325785 29.82394 51.661575 31.58885 52.34375 33.40625 L 58.5 81.96875 C 58.98435 82.93065 57.336744 83.3153 56.78125 84 C 55.515485 85.0535 54.036332 85.92655 52.90625 87.09375 C 53.915961 88.55405 56.249614 88.3973 57.96875 88.4375 C 67.523487 88.4105 77.0725 88.49725 86.625 88.40625 C 88.233991 88.53745 91.104442 87.20875 88.75 86.09375 C 87.186776 84.89655 85.625722 83.6974 84.0625 82.5 C 84.638097 80.1918 84.689615 77.7894 85.0625 75.4375 C 86.882669 61.0665 88.711077 46.68341 90.53125 32.3125 C 90.54475 30.24762 87.98497 29.80615 86.21875 29.96875 L 61.5 29.96875 C 60.144442 27.190011 58.796065 24.402323 57.4375 21.625 C 56.951922 20.75626 56.113924 19.98064 55.0625 19.875 z "
       inkscape:radius="4.1798172"
       sodipodi:type="inkscape:offset" />
  </g>
  <g
     inkscape:groupmode="layer"
     id="layer2"
     inkscape:label="Guides"
     sodipodi:insensitive="true"
     style="display:none">
    <rect
       style="opacity:0.6;fill:none;stroke:#ff0000;stroke-width:0.1;stroke-miterlimit:4;stroke-opacity:1;stroke-dasharray:0.3, 0.3;stroke-dashoffset:0"
       id="rect3240"
       width="80"
       height="80"
       x="32"
       y="8" />
    <rect
       y="3.0640297"
       x="27.063698"
       height="89.871941"
       width="89.872604"
       id="rect4010"
       style="opacity:0.6;fill:none;stroke:#ff0000;stroke-width:0.11234034;stroke-miterlimit:4;stroke-opacity:1;stroke-dasharray:0.33702102, 0.33702102;stroke-dashoffset:0" />
  </g>
</svg>
