<?xml version="1.0" encoding="UTF-8" standalone="no"?>
<!-- Created with Inkscape (http://www.inkscape.org/) -->

<svg
   xmlns:dc="http://purl.org/dc/elements/1.1/"
   xmlns:cc="http://creativecommons.org/ns#"
   xmlns:rdf="http://www.w3.org/1999/02/22-rdf-syntax-ns#"
   xmlns:svg="http://www.w3.org/2000/svg"
   xmlns="http://www.w3.org/2000/svg"
   xmlns:xlink="http://www.w3.org/1999/xlink"
   xmlns:sodipodi="http://sodipodi.sourceforge.net/DTD/sodipodi-0.dtd"
   xmlns:inkscape="http://www.inkscape.org/namespaces/inkscape"
   width="144"
   height="96"
   id="svg3482"
   version="1.1"
   inkscape:version="0.48.2 r9819"
   inkscape:export-filename="/home/moshse/Projects/android-radio-t/Radio-T/res/drawable-ldpi/home_btn_live_default.png"
   inkscape:export-xdpi="45"
   inkscape:export-ydpi="45"
   sodipodi:docname="New document 9">
  <defs
     id="defs3484">
    <filter
       color-interpolation-filters="sRGB"
       inkscape:collect="always"
       id="filter4345">
      <feGaussianBlur
         inkscape:collect="always"
         stdDeviation="0.30771262"
         id="feGaussianBlur4347" />
    </filter>
    <linearGradient
       inkscape:collect="always"
       xlink:href="#linearGradient4349"
       id="linearGradient4371"
       x1="4.942493"
       y1="37.409599"
       x2="36.942493"
       y2="65.409599"
       gradientUnits="userSpaceOnUse" />
    <linearGradient
       id="linearGradient4349">
      <stop
         style="stop-color:#eeeeec;stop-opacity:1;"
         offset="0"
         id="stop4351" />
      <stop
         style="stop-color:#eeeeec;stop-opacity:0.50196081;"
         offset="1"
         id="stop4353" />
    </linearGradient>
    <filter
       color-interpolation-filters="sRGB"
       inkscape:collect="always"
       id="filter4601">
      <feGaussianBlur
         inkscape:collect="always"
         stdDeviation="0.17471464"
         id="feGaussianBlur4603" />
    </filter>
    <linearGradient
       inkscape:collect="always"
       xlink:href="#linearGradient4383"
       id="linearGradient4409"
       x1="39"
       y1="1018.3622"
       x2="9"
       y2="995.36218"
       gradientUnits="userSpaceOnUse" />
    <linearGradient
       id="linearGradient4383">
      <stop
         style="stop-color:#000000;stop-opacity:0.64705884;"
         offset="0"
         id="stop4385" />
      <stop
         style="stop-color:#000000;stop-opacity:0;"
         offset="1"
         id="stop4387" />
    </linearGradient>
    <linearGradient
       inkscape:collect="always"
       xlink:href="#linearGradient4383"
       id="linearGradient4465"
       x1="25.769379"
       y1="60.195572"
       x2="14.194157"
       y2="46.691147"
       gradientUnits="userSpaceOnUse" />
    <linearGradient
       id="linearGradient3616">
      <stop
         style="stop-color:#000000;stop-opacity:0.64705884;"
         offset="0"
         id="stop3618" />
      <stop
         style="stop-color:#000000;stop-opacity:0;"
         offset="1"
         id="stop3620" />
    </linearGradient>
    <filter
       color-interpolation-filters="sRGB"
       inkscape:collect="always"
       id="filter4736">
      <feGaussianBlur
         inkscape:collect="always"
         stdDeviation="0.061765304"
         id="feGaussianBlur4738" />
    </filter>
    <filter
       color-interpolation-filters="sRGB"
       inkscape:collect="always"
       id="filter4772">
      <feGaussianBlur
         inkscape:collect="always"
         stdDeviation="0.061765304"
         id="feGaussianBlur4774" />
    </filter>
  </defs>
  <sodipodi:namedview
     id="base"
     pagecolor="#ffffff"
     bordercolor="#666666"
     borderopacity="1.0"
     inkscape:pageopacity="0.0"
     inkscape:pageshadow="2"
     inkscape:zoom="2.8284271"
     inkscape:cx="20.115224"
     inkscape:cy="50.343146"
     inkscape:document-units="px"
     inkscape:current-layer="layer1"
     showgrid="false"
     inkscape:window-width="1680"
     inkscape:window-height="1026"
     inkscape:window-x="0"
     inkscape:window-y="24"
     inkscape:window-maximized="1" />
  <metadata
     id="metadata3487">
    <rdf:RDF>
      <cc:Work
         rdf:about="">
        <dc:format>image/svg+xml</dc:format>
        <dc:type
           rdf:resource="http://purl.org/dc/dcmitype/StillImage" />
        <dc:title></dc:title>
      </cc:Work>
    </rdf:RDF>
  </metadata>
  <g
     inkscape:label="Layer 1"
     inkscape:groupmode="layer"
     id="layer1"
     transform="translate(0,-956.36218)">
    <g
       transform="matrix(2.9560756,0,0,2.9560756,0.88670969,-1975.9147)"
       id="g3490">
      <path
         sodipodi:type="inkscape:offset"
         inkscape:radius="0.19169477"
         inkscape:original="M 21 36.9375 C 12.534798 36.9375 5.586577 43.560162 4.96875 51.875 C 4.9647843 51.894829 4.9716298 51.888438 4.96875 51.90625 C 4.9656164 51.949558 4.9402887 51.987851 4.9375 52.03125 C 4.9379203 52.092158 4.9371561 52.21501 4.9375 52.21875 C 4.9301416 52.333888 4.90625 52.477652 4.90625 52.5625 L 4.90625 52.90625 L 4.90625 53.0625 C 4.8983006 53.167687 4.8983006 53.269813 4.90625 53.375 C 4.9102247 53.427594 4.8983006 53.478896 4.90625 53.53125 L 4.90625 59.25 C 4.90625 61.047984 6.3716688 62.5625 8.1875 62.5625 L 8.59375 62.5625 C 10.309419 62.5625 11.663191 61.196754 11.8125 59.53125 C 13.400781 63.050553 16.899446 65.53125 21 65.53125 C 25.100554 65.53125 28.599219 63.050553 30.1875 59.53125 C 30.336809 61.196754 31.690581 62.5625 33.40625 62.5625 L 33.8125 62.5625 C 35.628325 62.5625 37.09375 61.047991 37.09375 59.25 L 37.09375 53.5 L 37.09375 53.34375 C 37.099535 53.254035 37.099526 53.15217 37.09375 53.0625 L 37.09375 52.90625 L 37.09375 52.5625 C 37.09375 52.476814 37.069877 52.33338 37.0625 52.21875 C 37.062697 52.216607 37.062011 52.095017 37.0625 52.03125 C 37.059711 51.987851 37.034384 51.949558 37.03125 51.90625 C 37.027612 51.886278 37.03626 51.897545 37.03125 51.875 C 36.413433 43.56016 29.465193 36.9375 21 36.9375 z M 21 41.15625 C 26.371938 41.15625 30.530927 44.734876 32 49.625 C 31.208236 50.008758 30.596292 50.689738 30.3125 51.53125 C 28.785519 47.87085 25.202851 45.28125 21 45.28125 C 16.797149 45.28125 13.214481 47.87085 11.6875 51.53125 C 11.403708 50.689738 10.791764 50.008758 10 49.625 C 11.469073 44.734876 15.628063 41.15625 21 41.15625 z "
         style="font-size:medium;font-style:normal;font-variant:normal;font-weight:normal;font-stretch:normal;text-indent:0;text-align:start;text-decoration:none;line-height:normal;letter-spacing:normal;word-spacing:normal;text-transform:none;direction:ltr;block-progression:tb;writing-mode:lr-tb;text-anchor:start;opacity:0.5;color:#000000;fill:#eeeeec;fill-opacity:1;stroke:none;stroke-width:2.0754981;marker:none;visibility:visible;display:inline;overflow:visible;filter:url(#filter4345);enable-background:accumulate;font-family:Bitstream Vera Sans;-inkscape-font-specification:Bitstream Vera Sans"
         id="path4343"
         d="m 21,36.75 c -8.554628,0 -15.5786177,6.695087 -16.21875,15.09375 -7.898e-4,0.01036 7.703e-4,0.02088 0,0.03125 a 0.19171394,0.19171394 0 0 0 0,0.03125 c 0.001,0.01255 -9.793e-4,0.02769 0,0.03125 -0.00669,0.0052 -0.025829,0.0094 -0.03125,0.09375 3.403e-4,0.04931 -2.361e-4,0.154234 0,0.1875 3.93e-5,0.0055 -4.91e-5,0.03072 0,0.03125 -0.00854,0.09573 -0.03125,0.202562 -0.03125,0.3125 l 0,0.34375 0,0.15625 c -0.00865,0.114484 -0.00865,0.198016 0,0.3125 9.148e-4,0.0121 -0.00536,0.08546 0,0.15625 0.00107,0.01416 -0.0025,0.01477 0,0.03125 l 0,5.6875 c 0,1.902143 1.5463286,3.5 3.46875,3.5 l 0.40625,0 c 1.625175,0 2.938896,-1.153778 3.3125,-2.65625 1.712614,3.321343 5.110126,5.625 9.09375,5.625 3.983624,0 7.381136,-2.303657 9.09375,-5.625 0.373604,1.502472 1.687325,2.65625 3.3125,2.65625 l 0.40625,0 c 1.922415,0 3.46875,-1.59785 3.46875,-3.5 l 0,-5.75 0,-0.15625 c 0.0064,-0.09903 0.0064,-0.182299 0,-0.28125 l 0,-0.15625 0,-0.34375 c 0,-0.110355 -0.0227,-0.217131 -0.03125,-0.3125 2.8e-5,-3.06e-4 -2.7e-5,-0.02592 0,-0.03125 1.61e-4,-0.03199 -3.98e-4,-0.135622 0,-0.1875 -0.0038,-0.0584 -0.02383,-0.04266 -0.03125,-0.0625 -0.0032,0.0074 -0.0027,-0.03708 0,-0.0625 0.0021,-0.01062 -1.85e-4,-0.02218 0,-0.03125 -7.7e-4,-0.01037 7.9e-4,-0.02089 0,-0.03125 C 36.578628,43.445085 29.554619,36.75 21,36.75 z m 0,4.59375 c 5.227314,0 9.260055,3.451749 10.75,8.1875 -0.635112,0.348883 -1.122222,0.908804 -1.4375,1.5625 -1.640442,-3.524729 -5.17956,-6 -9.3125,-6 -4.13294,0 -7.672058,2.475271 -9.3125,6 -0.315278,-0.653696 -0.802388,-1.213617 -1.4375,-1.5625 1.489945,-4.735751 5.522687,-8.1875 10.75,-8.1875 z"
         transform="translate(3.057507,956.95258)" />
      <path
         transform="translate(3.057507,956.95258)"
         d="m 21,36.75 c -8.554628,0 -15.5786177,6.695087 -16.21875,15.09375 -7.898e-4,0.01036 7.703e-4,0.02088 0,0.03125 a 0.19171394,0.19171394 0 0 0 0,0.03125 c 0.001,0.01255 -9.793e-4,0.02769 0,0.03125 -0.00669,0.0052 -0.025829,0.0094 -0.03125,0.09375 3.403e-4,0.04931 -2.361e-4,0.154234 0,0.1875 3.93e-5,0.0055 -4.91e-5,0.03072 0,0.03125 -0.00854,0.09573 -0.03125,0.202562 -0.03125,0.3125 l 0,0.34375 0,0.15625 c -0.00865,0.114484 -0.00865,0.198016 0,0.3125 9.148e-4,0.0121 -0.00536,0.08546 0,0.15625 0.00107,0.01416 -0.0025,0.01477 0,0.03125 l 0,5.6875 c 0,1.902143 1.5463286,3.5 3.46875,3.5 l 0.40625,0 c 1.625175,0 2.938896,-1.153778 3.3125,-2.65625 1.712614,3.321343 5.110126,5.625 9.09375,5.625 3.983624,0 7.381136,-2.303657 9.09375,-5.625 0.373604,1.502472 1.687325,2.65625 3.3125,2.65625 l 0.40625,0 c 1.922415,0 3.46875,-1.59785 3.46875,-3.5 l 0,-5.75 0,-0.15625 c 0.0064,-0.09903 0.0064,-0.182299 0,-0.28125 l 0,-0.15625 0,-0.34375 c 0,-0.110355 -0.0227,-0.217131 -0.03125,-0.3125 2.8e-5,-3.06e-4 -2.7e-5,-0.02592 0,-0.03125 1.61e-4,-0.03199 -3.98e-4,-0.135622 0,-0.1875 -0.0038,-0.0584 -0.02383,-0.04266 -0.03125,-0.0625 -0.0032,0.0074 -0.0027,-0.03708 0,-0.0625 0.0021,-0.01062 -1.85e-4,-0.02218 0,-0.03125 -7.7e-4,-0.01037 7.9e-4,-0.02089 0,-0.03125 C 36.578628,43.445085 29.554619,36.75 21,36.75 z m 0,4.59375 c 5.227314,0 9.260055,3.451749 10.75,8.1875 -0.635112,0.348883 -1.122222,0.908804 -1.4375,1.5625 -1.640442,-3.524729 -5.17956,-6 -9.3125,-6 -4.13294,0 -7.672058,2.475271 -9.3125,6 -0.315278,-0.653696 -0.802388,-1.213617 -1.4375,-1.5625 1.489945,-4.735751 5.522687,-8.1875 10.75,-8.1875 z"
         id="path3521"
         style="font-size:medium;font-style:normal;font-variant:normal;font-weight:normal;font-stretch:normal;text-indent:0;text-align:start;text-decoration:none;line-height:normal;letter-spacing:normal;word-spacing:normal;text-transform:none;direction:ltr;block-progression:tb;writing-mode:lr-tb;text-anchor:start;color:#000000;fill:url(#linearGradient4371);fill-opacity:1;stroke:none;stroke-width:2.0754981;marker:none;visibility:visible;display:inline;overflow:visible;enable-background:accumulate;font-family:Bitstream Vera Sans;-inkscape-font-specification:Bitstream Vera Sans"
         inkscape:original="M 21 36.9375 C 12.534798 36.9375 5.586577 43.560162 4.96875 51.875 C 4.9647843 51.894829 4.9716298 51.888438 4.96875 51.90625 C 4.9656164 51.949558 4.9402887 51.987851 4.9375 52.03125 C 4.9379203 52.092158 4.9371561 52.21501 4.9375 52.21875 C 4.9301416 52.333888 4.90625 52.477652 4.90625 52.5625 L 4.90625 52.90625 L 4.90625 53.0625 C 4.8983006 53.167687 4.8983006 53.269813 4.90625 53.375 C 4.9102247 53.427594 4.8983006 53.478896 4.90625 53.53125 L 4.90625 59.25 C 4.90625 61.047984 6.3716688 62.5625 8.1875 62.5625 L 8.59375 62.5625 C 10.309419 62.5625 11.663191 61.196754 11.8125 59.53125 C 13.400781 63.050553 16.899446 65.53125 21 65.53125 C 25.100554 65.53125 28.599219 63.050553 30.1875 59.53125 C 30.336809 61.196754 31.690581 62.5625 33.40625 62.5625 L 33.8125 62.5625 C 35.628325 62.5625 37.09375 61.047991 37.09375 59.25 L 37.09375 53.5 L 37.09375 53.34375 C 37.099535 53.254035 37.099526 53.15217 37.09375 53.0625 L 37.09375 52.90625 L 37.09375 52.5625 C 37.09375 52.476814 37.069877 52.33338 37.0625 52.21875 C 37.062697 52.216607 37.062011 52.095017 37.0625 52.03125 C 37.059711 51.987851 37.034384 51.949558 37.03125 51.90625 C 37.027612 51.886278 37.03626 51.897545 37.03125 51.875 C 36.413433 43.56016 29.465193 36.9375 21 36.9375 z M 21 41.15625 C 26.371938 41.15625 30.530927 44.734876 32 49.625 C 31.208236 50.008758 30.596292 50.689738 30.3125 51.53125 C 28.785519 47.87085 25.202851 45.28125 21 45.28125 C 16.797149 45.28125 13.214481 47.87085 11.6875 51.53125 C 11.403708 50.689738 10.791764 50.008758 10 49.625 C 11.469073 44.734876 15.628063 41.15625 21 41.15625 z "
         inkscape:radius="0.19169477"
         sodipodi:type="inkscape:offset" />
      <path
         transform="matrix(1.0366972,0,0,1.0366972,3.124669,956.79732)"
         d="m 28.771815,53.443359 c 0,4.824612 -3.91112,8.735732 -8.735732,8.735732 -4.824611,0 -8.735732,-3.91112 -8.735732,-8.735732 0,-4.824611 3.911121,-8.735732 8.735732,-8.735732 4.824612,0 8.735732,3.911121 8.735732,8.735732 z"
         sodipodi:ry="8.7357321"
         sodipodi:rx="8.7357321"
         sodipodi:cy="53.443359"
         sodipodi:cx="20.036083"
         id="path4595"
         style="opacity:0.76954735;fill:#6ed908;fill-opacity:1;stroke:none;filter:url(#filter4601)"
         sodipodi:type="arc" />
      <path
         sodipodi:nodetypes="ccsccccccccccsccccccccccscc"
         id="path3592-6"
         d="m 24.057507,994.95258 c -7.96504,0 -14.496141,6.25222 -15.000001,14.09362 -0.002,0.01 0.002,0.022 0,0.031 -0.0296,0.1455 -0.0312,0.283 -0.0312,0.4375 l 0,0.5 c -0.0157,0.1034 -0.0157,0.2091 0,0.3125 l 0,5.875 c 0,1.2361 0.98267,2.25 2.218751,2.25 l 0.40625,0 c 1.23607,0 2.21875,-1.0139 2.21875,-2.25 l 0,-6.6875 c 0,-1.2361 -0.98268,-2.2188 -2.21875,-2.2188 l 0.008,0 c 1.25561,-5.8508 6.16831,-10.24992 12.398529,-10.24992 6.23022,0 11.15812,4.39912 12.41373,10.24992 l -0.008,0 c -1.23607,0 -2.21875,0.9827 -2.21875,2.2188 l 0,6.6875 c 0,1.2361 0.98268,2.25 2.21875,2.25 l 0.40625,0 c 1.236068,0 2.218748,-1.0139 2.218748,-2.25 l 0,-5.9063 c 0.0127,-0.093 0.0127,-0.188 0,-0.2812 l 0,-0.5 c 0,-0.1545 -0.002,-0.292 -0.0312,-0.4375 -0.002,-0.01 0.002,-0.022 0,-0.031 -0.50385,-7.8414 -7.034948,-14.09362 -14.999978,-14.09362 z"
         style="font-size:medium;font-style:normal;font-variant:normal;font-weight:normal;font-stretch:normal;text-indent:0;text-align:start;text-decoration:none;line-height:normal;letter-spacing:normal;word-spacing:normal;text-transform:none;direction:ltr;block-progression:tb;writing-mode:lr-tb;text-anchor:start;color:#000000;fill:#555753;fill-opacity:1;stroke:none;stroke-width:2.0754981;marker:none;visibility:visible;display:inline;overflow:visible;enable-background:accumulate;font-family:Bitstream Vera Sans;-inkscape-font-specification:Bitstream Vera Sans"
         inkscape:connector-curvature="0" />
      <path
         transform="matrix(1.0366972,0,0,1.0366972,3.2849576,956.9576)"
         d="m 28.771815,53.443359 c 0,4.824612 -3.91112,8.735732 -8.735732,8.735732 -4.824611,0 -8.735732,-3.91112 -8.735732,-8.735732 0,-4.824611 3.911121,-8.735732 8.735732,-8.735732 4.824612,0 8.735732,3.911121 8.735732,8.735732 z"
         sodipodi:ry="8.7357321"
         sodipodi:rx="8.7357321"
         sodipodi:cy="53.443359"
         sodipodi:cx="20.036083"
         id="path3426"
         style="fill:#4e9a06;fill-opacity:1;stroke:none"
         sodipodi:type="arc" />
      <path
         inkscape:connector-curvature="0"
         style="font-size:medium;font-style:normal;font-variant:normal;font-weight:normal;font-stretch:normal;text-indent:0;text-align:start;text-decoration:none;line-height:normal;letter-spacing:normal;word-spacing:normal;text-transform:none;direction:ltr;block-progression:tb;writing-mode:lr-tb;text-anchor:start;color:#000000;fill:url(#linearGradient4409);fill-opacity:1;stroke:none;stroke-width:2.0754981;marker:none;visibility:visible;display:inline;overflow:visible;enable-background:accumulate;font-family:Bitstream Vera Sans;-inkscape-font-specification:Bitstream Vera Sans"
         d="m 24.057507,994.95258 c -7.96504,0 -14.496141,6.25222 -15.000001,14.09362 -0.002,0.01 0.002,0.022 0,0.031 -0.0296,0.1455 -0.0312,0.283 -0.0312,0.4375 l 0,0.5 c -0.0157,0.1034 -0.0157,0.2091 0,0.3125 l 0,5.875 c 0,1.2361 0.98267,2.25 2.218751,2.25 l 0.40625,0 c 1.23607,0 2.21875,-1.0139 2.21875,-2.25 l 0,-6.6875 c 0,-1.2361 -0.98268,-2.2188 -2.21875,-2.2188 l 0.008,0 c 1.25561,-5.8508 6.16831,-10.24992 12.398529,-10.24992 6.23022,0 11.15812,4.39912 12.41373,10.24992 l -0.008,0 c -1.23607,0 -2.21875,0.9827 -2.21875,2.2188 l 0,6.6875 c 0,1.2361 0.98268,2.25 2.21875,2.25 l 0.40625,0 c 1.236068,0 2.218748,-1.0139 2.218748,-2.25 l 0,-5.9063 c 0.0127,-0.093 0.0127,-0.188 0,-0.2812 l 0,-0.5 c 0,-0.1545 -0.002,-0.292 -0.0312,-0.4375 -0.002,-0.01 0.002,-0.022 0,-0.031 -0.50385,-7.8414 -7.034948,-14.09362 -14.999978,-14.09362 z"
         id="path4401"
         sodipodi:nodetypes="ccsccccccccccsccccccccccscc" />
      <path
         sodipodi:type="arc"
         style="fill:url(#linearGradient4465);fill-opacity:1;stroke:none"
         id="path4457"
         sodipodi:cx="20.036083"
         sodipodi:cy="53.443359"
         sodipodi:rx="8.7357321"
         sodipodi:ry="8.7357321"
         d="m 28.771815,53.443359 c 0,4.824612 -3.91112,8.735732 -8.735732,8.735732 -4.824611,0 -8.735732,-3.91112 -8.735732,-8.735732 0,-4.824611 3.911121,-8.735732 8.735732,-8.735732 4.824612,0 8.735732,3.911121 8.735732,8.735732 z"
         transform="matrix(1.0366972,0,0,1.0366972,3.2849576,956.9576)" />
      <path
         style="opacity:0.83539094;fill:#2c4d0b;fill-opacity:1;stroke:none;filter:url(#filter4736)"
         d="m 22.239305,1005.7013 c -0.617341,0.1433 -0.53338,0.8908 -0.686523,1.3739 -0.574416,2.7149 -1.148831,5.4298 -1.723247,8.1447 -0.524966,0.056 -1.129592,-0.1471 -1.579363,0.1877 -0.549389,0.5759 0.183272,1.2822 0.821789,1.0975 0.51761,-0.035 1.063898,0.085 1.556862,-0.09 0.542659,-0.4367 0.467595,-1.1999 0.657136,-1.8145 0.364638,-1.7212 0.729277,-3.4426 1.093915,-5.1639 0.470675,2.1902 0.915828,4.3868 1.402519,6.5729 0.275122,0.6751 1.059335,0.462 1.629624,0.4958 0.41946,-0.114 0.315343,0.4521 0.448802,0.7095 0.177083,0.4614 0.137113,1.0566 0.541448,1.3882 0.553736,0.3271 1.175942,-0.1016 1.195959,-0.7044 0.128121,-0.4644 0.256241,-0.9289 0.384362,-1.3933 0.518355,-0.055 1.116087,0.1468 1.559282,-0.1878 0.549389,-0.5759 -0.183272,-1.2821 -0.821789,-1.0974 -0.481933,0.019 -0.973017,-0.042 -1.448329,0.037 -0.462568,0.1222 -0.375742,1.0136 -0.601963,0.2745 -0.449549,-0.4901 -1.168779,-0.2569 -1.759657,-0.3115 -0.652843,-3.047 -1.274741,-6.102 -1.946978,-9.144 -0.111145,-0.2758 -0.435473,-0.4377 -0.723849,-0.3746 z"
         id="path4726"
         inkscape:connector-curvature="0" />
      <path
         inkscape:connector-curvature="0"
         id="rect4605"
         d="m 22.399593,1005.8615 c -0.617341,0.1433 -0.53338,0.8908 -0.686523,1.3739 -0.574416,2.7149 -1.148831,5.4298 -1.723247,8.1447 -0.524966,0.056 -1.129592,-0.1471 -1.579363,0.1877 -0.549389,0.5759 0.183272,1.2822 0.821789,1.0975 0.51761,-0.035 1.063898,0.085 1.556862,-0.09 0.542659,-0.4367 0.467595,-1.1999 0.657136,-1.8145 0.364638,-1.7212 0.729277,-3.4426 1.093915,-5.1639 0.470675,2.1902 0.915828,4.3868 1.402519,6.5729 0.275122,0.6751 1.059335,0.462 1.629624,0.4958 0.41946,-0.114 0.315343,0.4521 0.448802,0.7095 0.177083,0.4614 0.137113,1.0566 0.541448,1.3882 0.553736,0.3271 1.175942,-0.1016 1.195959,-0.7044 0.128121,-0.4644 0.256241,-0.9289 0.384362,-1.3933 0.518355,-0.055 1.116087,0.1468 1.559282,-0.1878 0.549389,-0.5759 -0.183272,-1.2821 -0.821789,-1.0974 -0.481933,0.019 -0.973017,-0.042 -1.448329,0.037 -0.462568,0.1222 -0.375742,1.0136 -0.601963,0.2745 -0.449549,-0.4901 -1.168779,-0.2569 -1.759657,-0.3115 -0.652843,-3.047 -1.274741,-6.102 -1.946978,-9.144 -0.111145,-0.2758 -0.435473,-0.4377 -0.723849,-0.3746 z"
         style="fill:#8ae234;fill-opacity:1;stroke:none" />
      <path
         inkscape:connector-curvature="0"
         id="path4754"
         d="m 22.479737,1006.0217 c -0.617341,0.1433 -0.53338,0.8908 -0.686523,1.3739 -0.574416,2.7149 -1.148831,5.4298 -1.723247,8.1447 -0.524966,0.056 -1.129592,-0.1471 -1.579363,0.1877 -0.549389,0.5759 0.183272,1.2822 0.821789,1.0975 0.51761,-0.035 1.063898,0.085 1.556862,-0.09 0.542659,-0.4367 0.467595,-1.1999 0.657136,-1.8145 0.364638,-1.7212 0.729277,-3.4426 1.093915,-5.1639 0.470675,2.1902 0.915828,4.3868 1.402519,6.5729 0.275122,0.6751 1.059335,0.462 1.629624,0.4958 0.41946,-0.114 0.315343,0.4521 0.448802,0.7095 0.177083,0.4614 0.137113,1.0566 0.541448,1.3882 0.553736,0.3271 1.175942,-0.1016 1.195959,-0.7044 0.128121,-0.4644 0.256241,-0.9289 0.384362,-1.3933 0.518355,-0.055 1.116087,0.1468 1.559282,-0.1878 0.549389,-0.5759 -0.183272,-1.2821 -0.821789,-1.0974 -0.481933,0.019 -0.973017,-0.042 -1.448329,0.037 -0.462568,0.1222 -0.375742,1.0136 -0.601963,0.2745 -0.449549,-0.4901 -1.168779,-0.2569 -1.759657,-0.3115 -0.652843,-3.047 -1.274741,-6.102 -1.946978,-9.144 -0.111145,-0.2758 -0.435473,-0.4377 -0.723849,-0.3746 z"
         style="opacity:0.62551437;fill:#8ae234;fill-opacity:1;stroke:none;filter:url(#filter4772)" />
      <path
         style="fill:#b6ed81;fill-opacity:1;stroke:none"
         d="m 22.399593,1005.8615 c -0.617341,0.1433 -0.53338,0.8908 -0.686523,1.3739 -0.574416,2.7149 -1.148831,5.4298 -1.723247,8.1447 -0.524966,0.056 -1.129592,-0.1471 -1.579363,0.1877 -0.549389,0.5759 0.183272,1.2822 0.821789,1.0975 0.51761,-0.035 1.063898,0.085 1.556862,-0.09 0.542659,-0.4367 0.467595,-1.1999 0.657136,-1.8145 0.364638,-1.7212 0.729277,-3.4426 1.093915,-5.1639 0.470675,2.1902 0.915828,4.3868 1.402519,6.5729 0.275122,0.6751 1.059335,0.462 1.629624,0.4958 0.41946,-0.114 0.315343,0.4521 0.448802,0.7095 0.177083,0.4614 0.137113,1.0566 0.541448,1.3882 0.553736,0.3271 1.175942,-0.1016 1.195959,-0.7044 0.128121,-0.4644 0.256241,-0.9289 0.384362,-1.3933 0.518355,-0.055 1.116087,0.1468 1.559282,-0.1878 0.549389,-0.5759 -0.183272,-1.2821 -0.821789,-1.0974 -0.481933,0.019 -0.973017,-0.042 -1.448329,0.037 -0.462568,0.1222 -0.375742,1.0136 -0.601963,0.2745 -0.449549,-0.4901 -1.168779,-0.2569 -1.759657,-0.3115 -0.652843,-3.047 -1.274741,-6.102 -1.946978,-9.144 -0.111145,-0.2758 -0.435473,-0.4377 -0.723849,-0.3746 z"
         id="path4742"
         inkscape:connector-curvature="0" />
    </g>
  </g>
</svg>
