<?xml version="1.0" encoding="UTF-8" standalone="no"?>
<!-- Created with Inkscape (http://www.inkscape.org/) -->

<svg
   xmlns:dc="http://purl.org/dc/elements/1.1/"
   xmlns:cc="http://creativecommons.org/ns#"
   xmlns:rdf="http://www.w3.org/1999/02/22-rdf-syntax-ns#"
   xmlns:svg="http://www.w3.org/2000/svg"
   xmlns="http://www.w3.org/2000/svg"
   xmlns:xlink="http://www.w3.org/1999/xlink"
   xmlns:sodipodi="http://sodipodi.sourceforge.net/DTD/sodipodi-0.dtd"
   xmlns:inkscape="http://www.inkscape.org/namespaces/inkscape"
   width="144"
   height="96"
   id="svg3072"
   version="1.1"
   inkscape:version="0.48.2 r9819"
   inkscape:export-filename="/home/moshse/Projects/android-radio-t/Radio-T/res/drawable-ldpi/home_btn_main_show_pressed.png"
   inkscape:export-xdpi="45"
   inkscape:export-ydpi="45"
   sodipodi:docname="btn_home_main_show.svg">
  <defs
     id="defs3074">
    <linearGradient
       inkscape:collect="always"
       xlink:href="#linearGradient4349"
       id="linearGradient4355"
       x1="8"
       y1="4"
       x2="40"
       y2="34"
       gradientUnits="userSpaceOnUse" />
    <linearGradient
       id="linearGradient4349">
      <stop
         style="stop-color:#eeeeec;stop-opacity:1;"
         offset="0"
         id="stop4351" />
      <stop
         style="stop-color:#eeeeec;stop-opacity:0.50196081;"
         offset="1"
         id="stop4353" />
    </linearGradient>
    <filter
       color-interpolation-filters="sRGB"
       inkscape:collect="always"
       id="filter4581">
      <feGaussianBlur
         inkscape:collect="always"
         stdDeviation="0.17736231"
         id="feGaussianBlur4583" />
    </filter>
    <linearGradient
       inkscape:collect="always"
       xlink:href="#linearGradient4383"
       id="linearGradient4435"
       x1="39"
       y1="985.36218"
       x2="9"
       y2="961.36218"
       gradientUnits="userSpaceOnUse" />
    <linearGradient
       id="linearGradient4383">
      <stop
         style="stop-color:#000000;stop-opacity:0.64705884;"
         offset="0"
         id="stop4385" />
      <stop
         style="stop-color:#000000;stop-opacity:0;"
         offset="1"
         id="stop4387" />
    </linearGradient>
    <linearGradient
       inkscape:collect="always"
       xlink:href="#linearGradient4383"
       id="linearGradient4445"
       x1="33"
       y1="988.36218"
       x2="15"
       y2="970.36218"
       gradientUnits="userSpaceOnUse" />
    <linearGradient
       id="linearGradient3181">
      <stop
         style="stop-color:#000000;stop-opacity:0.64705884;"
         offset="0"
         id="stop3183" />
      <stop
         style="stop-color:#000000;stop-opacity:0;"
         offset="1"
         id="stop3185" />
    </linearGradient>
    <filter
       color-interpolation-filters="sRGB"
       inkscape:collect="always"
       id="filter4551">
      <feGaussianBlur
         inkscape:collect="always"
         stdDeviation="0.055"
         id="feGaussianBlur4553" />
    </filter>
    <filter
       color-interpolation-filters="sRGB"
       inkscape:collect="always"
       id="filter4571">
      <feGaussianBlur
         inkscape:collect="always"
         stdDeviation="0.11"
         id="feGaussianBlur4573" />
    </filter>
    <linearGradient
       inkscape:collect="always"
       xlink:href="#linearGradient4383"
       id="linearGradient3242"
       gradientUnits="userSpaceOnUse"
       x1="39"
       y1="985.36218"
       x2="9"
       y2="961.36218" />
    <linearGradient
       inkscape:collect="always"
       xlink:href="#linearGradient4383"
       id="linearGradient3244"
       gradientUnits="userSpaceOnUse"
       x1="33"
       y1="988.36218"
       x2="15"
       y2="970.36218" />
    <linearGradient
       inkscape:collect="always"
       xlink:href="#linearGradient4383"
       id="linearGradient3259"
       gradientUnits="userSpaceOnUse"
       x1="33"
       y1="988.36218"
       x2="15"
       y2="970.36218"
       gradientTransform="matrix(2.9320156,0,0,2.9320156,2.1748348,-1854.2696)" />
    <linearGradient
       inkscape:collect="always"
       xlink:href="#linearGradient4383"
       id="linearGradient3262"
       gradientUnits="userSpaceOnUse"
       x1="39"
       y1="985.36218"
       x2="9"
       y2="961.36218"
       gradientTransform="matrix(2.9320156,0,0,2.9320156,2.1748348,-1854.2696)" />
    <filter
       inkscape:collect="always"
       id="filter4099">
      <feGaussianBlur
         inkscape:collect="always"
         stdDeviation="0.61535714"
         id="feGaussianBlur4101" />
    </filter>
  </defs>
  <sodipodi:namedview
     id="base"
     pagecolor="#000000"
     bordercolor="#666666"
     borderopacity="1.0"
     inkscape:pageopacity="1"
     inkscape:pageshadow="2"
     inkscape:zoom="8"
     inkscape:cx="39.553237"
     inkscape:cy="45.801209"
     inkscape:document-units="px"
     inkscape:current-layer="layer1"
     showgrid="false"
     inkscape:window-width="1680"
     inkscape:window-height="1026"
     inkscape:window-x="0"
     inkscape:window-y="24"
     inkscape:window-maximized="1" />
  <metadata
     id="metadata3077">
    <rdf:RDF>
      <cc:Work
         rdf:about="">
        <dc:format>image/svg+xml</dc:format>
        <dc:type
           rdf:resource="http://purl.org/dc/dcmitype/StillImage" />
        <dc:title />
      </cc:Work>
    </rdf:RDF>
  </metadata>
  <g
     inkscape:label="Layer 1"
     inkscape:groupmode="layer"
     id="layer1"
     transform="translate(0,-956.36218)">
    <path
       transform="matrix(2.9320156,0,0,2.9320156,2.1748348,949.7992)"
       d="M 23.8125,4 C 15.314616,4 8.3381666,10.652583 7.71875,19 a 1.1221329,1.1221329 0 0 0 0,0.03125 c -0.00311,0.04304 -0.028479,0.08187 -0.03125,0.125 -6.8e-6,-9.36e-4 0.031252,9.55e-4 0.03125,0 -0.010354,0.07321 -0.027122,0.122967 -0.03125,0.1875 -0.00751,0.11747 -0.03125,0.258672 -0.03125,0.34375 l 0,0.5 0.03125,0 c -0.00818,0.108282 -0.00818,0.204218 0,0.3125 l -0.03125,0 0,5.875 c 0,1.830737 1.49409,3.375 3.34375,3.375 l 0.40625,0 c 1.127905,0 2.083049,-0.60636 2.6875,-1.46875 0.678485,2.807197 3.112944,4.9375 6.125,4.9375 l 7.15625,0 c 3.022662,0 5.457259,-2.146636 6.125,-4.96875 0.601813,0.88243 1.575202,1.5 2.71875,1.5 l 0.40625,0 c 1.849654,0 3.34375,-1.544255 3.34375,-3.375 l 0,-5.75 0,-0.15625 c 0.006,-0.09236 0.0059,-0.188944 0,-0.28125 l 0,-0.15625 0,-0.34375 c 0,-0.08597 -0.02372,-0.226818 -0.03125,-0.34375 1.77e-4,-0.0019 -0.0019,-0.13152 0,-0.1875 -0.0028,-0.04313 -0.02814,-0.08196 -0.03125,-0.125 -0.0051,-0.03475 0.0097,-0.01874 0,-0.0625 C 39.271856,10.635908 32.299852,4 23.8125,4 z m 0,4.34375 c 5.334368,0 9.4681,3.55474 10.9375,8.40625 -0.546125,0.278441 -0.988171,0.701322 -1.3125,1.21875 -0.744271,-2.711775 -3.118321,-4.75 -6.0625,-4.75 l -7.15625,0 c -2.933573,0 -5.308411,2.021874 -6.0625,4.71875 C 13.833285,17.436762 13.408105,17.021803 12.875,16.75 14.3444,11.89849 18.478132,8.34375 23.8125,8.34375 z"
       id="path3547"
       style="font-size:medium;font-style:normal;font-variant:normal;font-weight:normal;font-stretch:normal;text-indent:0;text-align:start;text-decoration:none;line-height:normal;letter-spacing:normal;word-spacing:normal;text-transform:none;direction:ltr;block-progression:tb;writing-mode:lr-tb;text-anchor:start;color:#000000;fill:#eeeeec;fill-opacity:1;stroke:none;stroke-width:2.0754981;marker:none;visibility:visible;display:inline;overflow:visible;filter:url(#filter4099);enable-background:accumulate;font-family:Bitstream Vera Sans;-inkscape-font-specification:Bitstream Vera Sans"
       inkscape:original="M 23.8125 5.125 C 15.84746 5.125 9.31636 11.37725 8.8125 19.21875 C 8.8105 19.22875 8.8145 19.241 8.8125 19.25 C 8.7829 19.3955 8.78125 19.533 8.78125 19.6875 L 8.78125 20.1875 C 8.76555 20.2909 8.76555 20.3966 8.78125 20.5 L 8.78125 26.375 C 8.78125 27.61107 9.7639195 28.625 11 28.625 L 11.40625 28.625 C 12.64232 28.625 13.625 27.61107 13.625 26.375 L 13.625 19.6875 C 13.625 18.4514 12.64232 17.46875 11.40625 17.46875 C 12.66186 11.61785 17.58228 7.21875 23.8125 7.21875 C 30.04272 7.21875 34.96314 11.61785 36.21875 17.46875 C 34.98268 17.46875 34 18.4514 34 19.6875 L 34 26.375 C 34 27.61107 34.98268 28.625 36.21875 28.625 L 36.625 28.625 C 37.861068 28.625 38.84375 27.61107 38.84375 26.375 L 38.84375 20.46875 C 38.85645 20.37575 38.85645 20.2807 38.84375 20.1875 L 38.84375 19.6875 C 38.84375 19.533 38.84175 19.3955 38.8125 19.25 C 38.8105 19.24 38.8145 19.22775 38.8125 19.21875 C 38.30865 11.37725 31.77753 5.125 23.8125 5.125 z M 20.21875 14.34375 C 17.289938 14.34375 14.9375 16.696188 14.9375 19.625 L 14.9375 26.8125 C 14.9375 29.741312 17.289938 32.09375 20.21875 32.09375 L 27.375 32.09375 C 30.303812 32.09375 32.65625 29.741312 32.65625 26.8125 L 32.65625 19.625 C 32.65625 16.696188 30.303812 14.34375 27.375 14.34375 L 20.21875 14.34375 z "
       inkscape:radius="1.1220207"
       sodipodi:type="inkscape:offset" />
    <path
       sodipodi:type="inkscape:offset"
       inkscape:radius="1.1220207"
       inkscape:original="M 23.8125 5.125 C 15.84746 5.125 9.31636 11.37725 8.8125 19.21875 C 8.8105 19.22875 8.8145 19.241 8.8125 19.25 C 8.7829 19.3955 8.78125 19.533 8.78125 19.6875 L 8.78125 20.1875 C 8.76555 20.2909 8.76555 20.3966 8.78125 20.5 L 8.78125 26.375 C 8.78125 27.61107 9.7639195 28.625 11 28.625 L 11.40625 28.625 C 12.64232 28.625 13.625 27.61107 13.625 26.375 L 13.625 19.6875 C 13.625 18.4514 12.64232 17.46875 11.40625 17.46875 C 12.66186 11.61785 17.58228 7.21875 23.8125 7.21875 C 30.04272 7.21875 34.96314 11.61785 36.21875 17.46875 C 34.98268 17.46875 34 18.4514 34 19.6875 L 34 26.375 C 34 27.61107 34.98268 28.625 36.21875 28.625 L 36.625 28.625 C 37.861068 28.625 38.84375 27.61107 38.84375 26.375 L 38.84375 20.46875 C 38.85645 20.37575 38.85645 20.2807 38.84375 20.1875 L 38.84375 19.6875 C 38.84375 19.533 38.84175 19.3955 38.8125 19.25 C 38.8105 19.24 38.8145 19.22775 38.8125 19.21875 C 38.30865 11.37725 31.77753 5.125 23.8125 5.125 z M 20.21875 14.34375 C 17.289938 14.34375 14.9375 16.696188 14.9375 19.625 L 14.9375 26.8125 C 14.9375 29.741312 17.289938 32.09375 20.21875 32.09375 L 27.375 32.09375 C 30.303812 32.09375 32.65625 29.741312 32.65625 26.8125 L 32.65625 19.625 C 32.65625 16.696188 30.303812 14.34375 27.375 14.34375 L 20.21875 14.34375 z "
       style="font-size:medium;font-style:normal;font-variant:normal;font-weight:normal;font-stretch:normal;text-indent:0;text-align:start;text-decoration:none;line-height:normal;letter-spacing:normal;word-spacing:normal;text-transform:none;direction:ltr;block-progression:tb;writing-mode:lr-tb;text-anchor:start;color:#000000;fill:#eeeeec;fill-opacity:1;stroke:none;stroke-width:2.0754981;marker:none;visibility:visible;display:inline;overflow:visible;enable-background:accumulate;font-family:Bitstream Vera Sans;-inkscape-font-specification:Bitstream Vera Sans"
       id="path3481"
       d="M 23.8125,4 C 15.314616,4 8.3381666,10.652583 7.71875,19 a 1.1221329,1.1221329 0 0 0 0,0.03125 c -0.00311,0.04304 -0.028479,0.08187 -0.03125,0.125 -6.8e-6,-9.36e-4 0.031252,9.55e-4 0.03125,0 -0.010354,0.07321 -0.027122,0.122967 -0.03125,0.1875 -0.00751,0.11747 -0.03125,0.258672 -0.03125,0.34375 l 0,0.5 0.03125,0 c -0.00818,0.108282 -0.00818,0.204218 0,0.3125 l -0.03125,0 0,5.875 c 0,1.830737 1.49409,3.375 3.34375,3.375 l 0.40625,0 c 1.127905,0 2.083049,-0.60636 2.6875,-1.46875 0.678485,2.807197 3.112944,4.9375 6.125,4.9375 l 7.15625,0 c 3.022662,0 5.457259,-2.146636 6.125,-4.96875 0.601813,0.88243 1.575202,1.5 2.71875,1.5 l 0.40625,0 c 1.849654,0 3.34375,-1.544255 3.34375,-3.375 l 0,-5.75 0,-0.15625 c 0.006,-0.09236 0.0059,-0.188944 0,-0.28125 l 0,-0.15625 0,-0.34375 c 0,-0.08597 -0.02372,-0.226818 -0.03125,-0.34375 1.77e-4,-0.0019 -0.0019,-0.13152 0,-0.1875 -0.0028,-0.04313 -0.02814,-0.08196 -0.03125,-0.125 -0.0051,-0.03475 0.0097,-0.01874 0,-0.0625 C 39.271856,10.635908 32.299852,4 23.8125,4 z m 0,4.34375 c 5.334368,0 9.4681,3.55474 10.9375,8.40625 -0.546125,0.278441 -0.988171,0.701322 -1.3125,1.21875 -0.744271,-2.711775 -3.118321,-4.75 -6.0625,-4.75 l -7.15625,0 c -2.933573,0 -5.308411,2.021874 -6.0625,4.71875 C 13.833285,17.436762 13.408105,17.021803 12.875,16.75 14.3444,11.89849 18.478132,8.34375 23.8125,8.34375 z"
       transform="matrix(2.9262032,0,0,2.9262032,2.3132554,949.90736)" />
    <rect
       style="opacity:0.57201646;fill:#ff7403;fill-opacity:1;stroke:none;filter:url(#filter4581)"
       id="rect4575"
       width="17.736231"
       height="17.736231"
       x="14.7732"
       y="970.55499"
       rx="5.286665"
       ry="5.286665"
       transform="matrix(2.9320156,0,0,2.9320156,2.1748348,-1854.2696)" />
    <path
       inkscape:connector-curvature="0"
       style="font-size:medium;font-style:normal;font-variant:normal;font-weight:normal;font-stretch:normal;text-indent:0;text-align:start;text-decoration:none;line-height:normal;letter-spacing:normal;word-spacing:normal;text-transform:none;direction:ltr;block-progression:tb;writing-mode:lr-tb;text-anchor:start;color:#000000;fill:#555753;fill-opacity:1;stroke:none;stroke-width:2.0754981;marker:none;visibility:visible;display:inline;overflow:visible;enable-background:accumulate;font-family:Bitstream Vera Sans;-inkscape-font-specification:Bitstream Vera Sans"
       d="m 71.965016,964.82361 c -23.353622,0 -42.50291,18.33155 -43.980236,41.32299 -0.0059,0.029 0.0059,0.064 0,0.091 -0.08679,0.4266 -0.09148,0.8297 -0.09148,1.2827 l 0,1.466 c -0.04603,0.3032 -0.04603,0.6131 0,0.9163 l 0,17.2256 c 0,3.6241 2.881204,6.5969 6.505411,6.5969 l 1.191132,0 c 3.624176,0 6.505409,-2.9728 6.505409,-6.5969 l 0,-19.6079 c 0,-3.6243 -2.881233,-6.5055 -6.505409,-6.5055 l 0.02346,0 c 3.681468,-17.15498 18.085581,-30.05321 36.352683,-30.05321 18.267103,0 32.715784,12.89823 36.397244,30.05321 l -0.0234,0 c -3.62418,0 -6.50541,2.8812 -6.50541,6.5055 l 0,19.6079 c 0,3.6241 2.88123,6.5969 6.50541,6.5969 l 1.19113,0 c 3.62417,0 6.5054,-2.9728 6.5054,-6.5969 l 0,-17.3174 c 0.0372,-0.2727 0.0372,-0.5512 0,-0.8245 l 0,-1.466 c 0,-0.453 -0.006,-0.8561 -0.0915,-1.2827 -0.006,-0.029 0.006,-0.065 0,-0.091 -1.47729,-22.99144 -20.626571,-41.32299 -43.980163,-41.32299 z"
       id="path3592"
       sodipodi:nodetypes="ccsccccccccccsccccccccccscc" />
    <rect
       style="fill:#f57900;fill-opacity:1;stroke:none"
       id="rect3311"
       width="52.002907"
       height="52.002907"
       x="45.960052"
       y="991.88269"
       rx="15.500585"
       ry="15.500585" />
    <path
       sodipodi:nodetypes="ccsccccccccccsccccccccccscc"
       id="path4427"
       d="m 71.965016,964.82361 c -23.353622,0 -42.50291,18.33155 -43.980236,41.32299 -0.0059,0.029 0.0059,0.064 0,0.091 -0.08679,0.4266 -0.09148,0.8297 -0.09148,1.2827 l 0,1.466 c -0.04603,0.3032 -0.04603,0.6131 0,0.9163 l 0,17.2256 c 0,3.6241 2.881204,6.5969 6.505411,6.5969 l 1.191132,0 c 3.624176,0 6.505409,-2.9728 6.505409,-6.5969 l 0,-19.6079 c 0,-3.6243 -2.881233,-6.5055 -6.505409,-6.5055 l 0.02346,0 c 3.681468,-17.15498 18.085581,-30.05321 36.352683,-30.05321 18.267103,0 32.715784,12.89823 36.397244,30.05321 l -0.0234,0 c -3.62418,0 -6.50541,2.8812 -6.50541,6.5055 l 0,19.6079 c 0,3.6241 2.88123,6.5969 6.50541,6.5969 l 1.19113,0 c 3.62417,0 6.5054,-2.9728 6.5054,-6.5969 l 0,-17.3174 c 0.0372,-0.2727 0.0372,-0.5512 0,-0.8245 l 0,-1.466 c 0,-0.453 -0.006,-0.8561 -0.0915,-1.2827 -0.006,-0.029 0.006,-0.065 0,-0.091 -1.47729,-22.99144 -20.626571,-41.32299 -43.980163,-41.32299 z"
       style="font-size:medium;font-style:normal;font-variant:normal;font-weight:normal;font-stretch:normal;text-indent:0;text-align:start;text-decoration:none;line-height:normal;letter-spacing:normal;word-spacing:normal;text-transform:none;direction:ltr;block-progression:tb;writing-mode:lr-tb;text-anchor:start;color:#000000;fill:url(#linearGradient3262);fill-opacity:1;stroke:none;stroke-width:2.0754981;marker:none;visibility:visible;display:inline;overflow:visible;enable-background:accumulate;font-family:Bitstream Vera Sans;-inkscape-font-specification:Bitstream Vera Sans"
       inkscape:connector-curvature="0" />
    <rect
       ry="15.500585"
       rx="15.500585"
       y="991.88269"
       x="45.960052"
       height="52.002907"
       width="52.002907"
       id="rect4437"
       style="fill:url(#linearGradient3259);fill-opacity:1;stroke:none" />
    <g
       style="fill:#692f00;fill-opacity:1;filter:url(#filter4551)"
       transform="matrix(2.9320156,0,0,2.9320156,-117.62347,-1933.0204)"
       id="g4555">
      <path
         inkscape:connector-curvature="0"
         style="fill:#692f00;fill-opacity:1;stroke:none"
         d="m 60.5,44.5 c -0.513358,0 -1.008716,0.04662 -1.5,0.125 l 0,2.03125 C 59.488232,46.556343 59.982233,46.5 60.5,46.5 c 4.142136,0 7.5,3.357864 7.5,7.5 0,0.506842 -0.06041,0.990108 -0.15625,1.46875 l 2.03125,0 C 69.9502,54.987231 70,54.502618 70,54 70,48.753295 65.746705,44.5 60.5,44.5 z"
         transform="translate(0,956.36218)"
         id="path4557" />
      <path
         sodipodi:type="arc"
         style="fill:#692f00;fill-opacity:1;stroke:none"
         id="path4559"
         sodipodi:cx="52"
         sodipodi:cy="52"
         sodipodi:rx="1"
         sodipodi:ry="1"
         d="m 53,52 a 1,1 0 1 1 -2,0 1,1 0 1 1 2,0 z"
         transform="matrix(1.5,0,0,1.5,-17.5,932.36218)" />
      <path
         inkscape:connector-curvature="0"
         style="fill:#692f00;fill-opacity:1;stroke:none"
         d="m 60.5,48.5 c -0.524727,0 -1.019327,0.08152 -1.5,0.21875 l 0,2.125 C 59.452535,50.63022 59.966434,50.5 60.5,50.5 c 1.932997,0 3.5,1.567003 3.5,3.5 0,0.523607 -0.137663,1.022723 -0.34375,1.46875 l 2.125,0 C 65.913194,54.996711 66,54.514145 66,54 66,50.962434 63.537566,48.5 60.5,48.5 z"
         transform="translate(0,956.36218)"
         id="path4561" />
    </g>
    <g
       style="fill:#ff7506;fill-opacity:1;filter:url(#filter4571)"
       transform="matrix(2.9320156,0,0,2.9320156,-116.68353,-1932.0805)"
       id="g4563">
      <path
         inkscape:connector-curvature="0"
         style="fill:#ff7506;fill-opacity:1;stroke:none"
         d="m 60.5,44.5 c -0.513358,0 -1.008716,0.04662 -1.5,0.125 l 0,2.03125 C 59.488232,46.556343 59.982233,46.5 60.5,46.5 c 4.142136,0 7.5,3.357864 7.5,7.5 0,0.506842 -0.06041,0.990108 -0.15625,1.46875 l 2.03125,0 C 69.9502,54.987231 70,54.502618 70,54 70,48.753295 65.746705,44.5 60.5,44.5 z"
         transform="translate(0,956.36218)"
         id="path4565" />
      <path
         sodipodi:type="arc"
         style="fill:#ff7506;fill-opacity:1;stroke:none"
         id="path4567"
         sodipodi:cx="52"
         sodipodi:cy="52"
         sodipodi:rx="1"
         sodipodi:ry="1"
         d="m 53,52 a 1,1 0 1 1 -2,0 1,1 0 1 1 2,0 z"
         transform="matrix(1.5,0,0,1.5,-17.5,932.36218)" />
      <path
         inkscape:connector-curvature="0"
         style="fill:#ff7506;fill-opacity:1;stroke:none"
         d="m 60.5,48.5 c -0.524727,0 -1.019327,0.08152 -1.5,0.21875 l 0,2.125 C 59.452535,50.63022 59.966434,50.5 60.5,50.5 c 1.932997,0 3.5,1.567003 3.5,3.5 0,0.523607 -0.137663,1.022723 -0.34375,1.46875 l 2.125,0 C 65.913194,54.996711 66,54.514145 66,54 66,50.962434 63.537566,48.5 60.5,48.5 z"
         transform="translate(0,956.36218)"
         id="path4569" />
    </g>
    <g
       id="g4538"
       transform="matrix(2.9320156,0,0,2.9320156,-117.1535,-1932.5505)"
       style="filter:url(#filter4551)">
      <path
         id="path4526"
         transform="translate(0,956.36218)"
         d="m 60.5,44.5 c -0.513358,0 -1.008716,0.04662 -1.5,0.125 l 0,2.03125 C 59.488232,46.556343 59.982233,46.5 60.5,46.5 c 4.142136,0 7.5,3.357864 7.5,7.5 0,0.506842 -0.06041,0.990108 -0.15625,1.46875 l 2.03125,0 C 69.9502,54.987231 70,54.502618 70,54 70,48.753295 65.746705,44.5 60.5,44.5 z"
         style="fill:#eeeeec;fill-opacity:1;stroke:none"
         inkscape:connector-curvature="0" />
      <path
         transform="matrix(1.5,0,0,1.5,-17.5,932.36218)"
         d="m 53,52 a 1,1 0 1 1 -2,0 1,1 0 1 1 2,0 z"
         sodipodi:ry="1"
         sodipodi:rx="1"
         sodipodi:cy="52"
         sodipodi:cx="52"
         id="path4518"
         style="fill:#eeeeec;fill-opacity:1;stroke:none"
         sodipodi:type="arc" />
      <path
         id="path4522"
         transform="translate(0,956.36218)"
         d="m 60.5,48.5 c -0.524727,0 -1.019327,0.08152 -1.5,0.21875 l 0,2.125 C 59.452535,50.63022 59.966434,50.5 60.5,50.5 c 1.932997,0 3.5,1.567003 3.5,3.5 0,0.523607 -0.137663,1.022723 -0.34375,1.46875 l 2.125,0 C 65.913194,54.996711 66,54.514145 66,54 66,50.962434 63.537566,48.5 60.5,48.5 z"
         style="fill:#eeeeec;fill-opacity:1;stroke:none"
         inkscape:connector-curvature="0" />
    </g>
  </g>
  <g
     inkscape:groupmode="layer"
     id="layer2"
     inkscape:label="Selection"
     style="display:none">
    <path
       transform="matrix(2.9262032,0,0,2.9262032,2.3132556,-6.4548127)"
       d="M 23.8125,4 C 15.314616,4 8.3381666,10.652583 7.71875,19 a 1.1221329,1.1221329 0 0 0 0,0.03125 c -0.00311,0.04304 -0.028479,0.08187 -0.03125,0.125 -6.8e-6,-9.36e-4 0.031252,9.55e-4 0.03125,0 -0.010354,0.07321 -0.027122,0.122967 -0.03125,0.1875 -0.00751,0.11747 -0.03125,0.258672 -0.03125,0.34375 l 0,0.5 0.03125,0 c -0.00818,0.108282 -0.00818,0.204218 0,0.3125 l -0.03125,0 0,5.875 c 0,1.830737 1.49409,3.375 3.34375,3.375 l 0.40625,0 c 1.127905,0 2.083049,-0.60636 2.6875,-1.46875 0.678485,2.807197 3.112944,4.9375 6.125,4.9375 l 7.15625,0 c 3.022662,0 5.457259,-2.146636 6.125,-4.96875 0.601813,0.88243 1.575202,1.5 2.71875,1.5 l 0.40625,0 c 1.849654,0 3.34375,-1.544255 3.34375,-3.375 l 0,-5.75 0,-0.15625 c 0.006,-0.09236 0.0059,-0.188944 0,-0.28125 l 0,-0.15625 0,-0.34375 c 0,-0.08597 -0.02372,-0.226818 -0.03125,-0.34375 1.77e-4,-0.0019 -0.0019,-0.13152 0,-0.1875 -0.0028,-0.04313 -0.02814,-0.08196 -0.03125,-0.125 -0.0051,-0.03475 0.0097,-0.01874 0,-0.0625 C 39.271856,10.635908 32.299852,4 23.8125,4 z m 0,4.34375 c 5.334368,0 9.4681,3.55474 10.9375,8.40625 -0.546125,0.278441 -0.988171,0.701322 -1.3125,1.21875 -0.744271,-2.711775 -3.118321,-4.75 -6.0625,-4.75 l -7.15625,0 c -2.933573,0 -5.308411,2.021874 -6.0625,4.71875 C 13.833285,17.436762 13.408105,17.021803 12.875,16.75 14.3444,11.89849 18.478132,8.34375 23.8125,8.34375 z"
       id="path4103"
       style="font-size:medium;font-style:normal;font-variant:normal;font-weight:normal;font-stretch:normal;text-indent:0;text-align:start;text-decoration:none;line-height:normal;letter-spacing:normal;word-spacing:normal;text-transform:none;direction:ltr;block-progression:tb;writing-mode:lr-tb;text-anchor:start;opacity:0.4;color:#000000;fill:#eeeeec;fill-opacity:1;stroke:none;stroke-width:2.0754981;marker:none;visibility:visible;display:inline;overflow:visible;enable-background:accumulate;font-family:Bitstream Vera Sans;-inkscape-font-specification:Bitstream Vera Sans"
       inkscape:original="M 23.8125 5.125 C 15.84746 5.125 9.31636 11.37725 8.8125 19.21875 C 8.8105 19.22875 8.8145 19.241 8.8125 19.25 C 8.7829 19.3955 8.78125 19.533 8.78125 19.6875 L 8.78125 20.1875 C 8.76555 20.2909 8.76555 20.3966 8.78125 20.5 L 8.78125 26.375 C 8.78125 27.61107 9.7639195 28.625 11 28.625 L 11.40625 28.625 C 12.64232 28.625 13.625 27.61107 13.625 26.375 L 13.625 19.6875 C 13.625 18.4514 12.64232 17.46875 11.40625 17.46875 C 12.66186 11.61785 17.58228 7.21875 23.8125 7.21875 C 30.04272 7.21875 34.96314 11.61785 36.21875 17.46875 C 34.98268 17.46875 34 18.4514 34 19.6875 L 34 26.375 C 34 27.61107 34.98268 28.625 36.21875 28.625 L 36.625 28.625 C 37.861068 28.625 38.84375 27.61107 38.84375 26.375 L 38.84375 20.46875 C 38.85645 20.37575 38.85645 20.2807 38.84375 20.1875 L 38.84375 19.6875 C 38.84375 19.533 38.84175 19.3955 38.8125 19.25 C 38.8105 19.24 38.8145 19.22775 38.8125 19.21875 C 38.30865 11.37725 31.77753 5.125 23.8125 5.125 z M 20.21875 14.34375 C 17.289938 14.34375 14.9375 16.696188 14.9375 19.625 L 14.9375 26.8125 C 14.9375 29.741312 17.289938 32.09375 20.21875 32.09375 L 27.375 32.09375 C 30.303812 32.09375 32.65625 29.741312 32.65625 26.8125 L 32.65625 19.625 C 32.65625 16.696188 30.303812 14.34375 27.375 14.34375 L 20.21875 14.34375 z "
       inkscape:radius="1.1220207"
       sodipodi:type="inkscape:offset" />
  </g>
</svg>
