<?xml version="1.0" encoding="UTF-8" standalone="no"?>
<!-- Created with Inkscape (http://www.inkscape.org/) -->

<svg
   xmlns:dc="http://purl.org/dc/elements/1.1/"
   xmlns:cc="http://creativecommons.org/ns#"
   xmlns:rdf="http://www.w3.org/1999/02/22-rdf-syntax-ns#"
   xmlns:svg="http://www.w3.org/2000/svg"
   xmlns="http://www.w3.org/2000/svg"
   xmlns:xlink="http://www.w3.org/1999/xlink"
   xmlns:sodipodi="http://sodipodi.sourceforge.net/DTD/sodipodi-0.dtd"
   xmlns:inkscape="http://www.inkscape.org/namespaces/inkscape"
   width="32"
   height="32"
   id="svg2"
   version="1.1"
   inkscape:version="0.47 r22583"
   inkscape:export-filename="/Users/sergio/Projects/Eclipse/android-radio-t/default_button.png"
   inkscape:export-xdpi="90"
   inkscape:export-ydpi="90"
   sodipodi:docname="button-sketch.svg">
  <defs
     id="defs4">
    <linearGradient
       id="linearGradient3892">
      <stop
         id="stop3894"
         offset="0"
         style="stop-color:#525252;stop-opacity:1;" />
      <stop
         id="stop3896"
         offset="1"
         style="stop-color:#959595;stop-opacity:1;" />
    </linearGradient>
    <linearGradient
       id="linearGradient3886">
      <stop
         id="stop3888"
         offset="0"
         style="stop-color:#c9c9c9;stop-opacity:1;" />
      <stop
         id="stop3890"
         offset="1"
         style="stop-color:#959595;stop-opacity:1;" />
    </linearGradient>
    <linearGradient
       id="linearGradient3856">
      <stop
         id="stop3858"
         offset="0"
         style="stop-color:#fdf404;stop-opacity:1;" />
      <stop
         id="stop3860"
         offset="1"
         style="stop-color:#c3bc02;stop-opacity:1;" />
    </linearGradient>
    <linearGradient
       id="linearGradient3850">
      <stop
         id="stop3852"
         offset="0"
         style="stop-color:#b78d00;stop-opacity:1;" />
      <stop
         id="stop3854"
         offset="1"
         style="stop-color:#ffce28;stop-opacity:1;" />
    </linearGradient>
    <linearGradient
       id="linearGradient3618">
      <stop
         style="stop-color:#a2c7ef;stop-opacity:1;"
         offset="0"
         id="stop3620" />
      <stop
         style="stop-color:#5692d4;stop-opacity:1;"
         offset="1"
         id="stop3622" />
    </linearGradient>
    <linearGradient
       id="linearGradient3590">
      <stop
         style="stop-color:#1f5085;stop-opacity:1;"
         offset="0"
         id="stop3592" />
      <stop
         style="stop-color:#5692d4;stop-opacity:1;"
         offset="1"
         id="stop3594" />
    </linearGradient>
    <inkscape:perspective
       sodipodi:type="inkscape:persp3d"
       inkscape:vp_x="0 : 526.18109 : 1"
       inkscape:vp_y="0 : 1000 : 0"
       inkscape:vp_z="744.09448 : 526.18109 : 1"
       inkscape:persp3d-origin="372.04724 : 350.78739 : 1"
       id="perspective10" />
    <linearGradient
       inkscape:collect="always"
       xlink:href="#linearGradient3618"
       id="linearGradient3624"
       x1="15.859375"
       y1="1.6875"
       x2="15.859375"
       y2="30.15625"
       gradientUnits="userSpaceOnUse" />
    <linearGradient
       inkscape:collect="always"
       xlink:href="#linearGradient3590"
       id="linearGradient3674"
       gradientUnits="userSpaceOnUse"
       gradientTransform="matrix(0.94558779,0,0,0.94558779,0.99066923,1021.293)"
       x1="15.873016"
       y1="28.888889"
       x2="15.873016"
       y2="2.984127" />
    <filter
       inkscape:collect="always"
       id="filter3748"
       x="-0.2028"
       width="1.4056"
       y="-0.2028"
       height="1.4056">
      <feGaussianBlur
         inkscape:collect="always"
         stdDeviation="2.4056094"
         id="feGaussianBlur3750" />
    </filter>
    <linearGradient
       inkscape:collect="always"
       xlink:href="#linearGradient3856"
       id="linearGradient3846"
       gradientUnits="userSpaceOnUse"
       x1="15.859375"
       y1="1.6875"
       x2="15.859375"
       y2="30.15625" />
    <linearGradient
       inkscape:collect="always"
       xlink:href="#linearGradient3850"
       id="linearGradient3848"
       gradientUnits="userSpaceOnUse"
       gradientTransform="matrix(0.94558779,0,0,0.94558779,0.99066923,1021.293)"
       x1="15.873016"
       y1="28.888889"
       x2="15.873016"
       y2="2.984127" />
    <linearGradient
       inkscape:collect="always"
       xlink:href="#linearGradient3856"
       id="linearGradient3868"
       gradientUnits="userSpaceOnUse"
       x1="15.859375"
       y1="1.6875"
       x2="15.859375"
       y2="30.15625" />
    <linearGradient
       inkscape:collect="always"
       xlink:href="#linearGradient3850"
       id="linearGradient3870"
       gradientUnits="userSpaceOnUse"
       gradientTransform="matrix(0.94558779,0,0,0.94558779,0.99066923,1021.293)"
       x1="15.873016"
       y1="28.888889"
       x2="15.873016"
       y2="2.984127" />
    <linearGradient
       inkscape:collect="always"
       xlink:href="#linearGradient3886"
       id="linearGradient3880"
       gradientUnits="userSpaceOnUse"
       x1="15.859375"
       y1="1.6875"
       x2="15.859375"
       y2="30.15625" />
    <linearGradient
       inkscape:collect="always"
       xlink:href="#linearGradient3892"
       id="linearGradient3882"
       gradientUnits="userSpaceOnUse"
       gradientTransform="matrix(0.94558779,0,0,0.94558779,0.99066923,1021.293)"
       x1="15.873016"
       y1="28.888889"
       x2="15.873016"
       y2="2.984127" />
  </defs>
  <sodipodi:namedview
     id="base"
     pagecolor="#ffffff"
     bordercolor="#666666"
     borderopacity="1.0"
     inkscape:pageopacity="0.0"
     inkscape:pageshadow="2"
     inkscape:zoom="5.5684659"
     inkscape:cx="91.757083"
     inkscape:cy="16.749245"
     inkscape:document-units="px"
     inkscape:current-layer="layer1"
     showgrid="false"
     inkscape:window-width="1280"
     inkscape:window-height="752"
     inkscape:window-x="0"
     inkscape:window-y="0"
     inkscape:window-maximized="0" />
  <metadata
     id="metadata7">
    <rdf:RDF>
      <cc:Work
         rdf:about="">
        <dc:format>image/svg+xml</dc:format>
        <dc:type
           rdf:resource="http://purl.org/dc/dcmitype/StillImage" />
        <dc:title></dc:title>
      </cc:Work>
    </rdf:RDF>
  </metadata>
  <g
     inkscape:label="Layer 1"
     inkscape:groupmode="layer"
     id="layer1"
     transform="translate(0,-1020.3622)">
    <path
       transform="matrix(0.94558779,0,0,0.94558779,1.0035686,1021.3067)"
       d="M 7.90625,1.6875 C 4.4547227,1.6875 1.625,4.5172227 1.625,7.96875 l 0,15.90625 c 0,3.451527 2.8297227,6.28125 6.28125,6.28125 l 15.90625,0 c 3.451527,0 6.28125,-2.829723 6.28125,-6.28125 l 0,-15.90625 c 0,-3.4515273 -2.829723,-6.28125 -6.28125,-6.28125 l -15.90625,0 z"
       id="path3626"
       style="fill:#000000;fill-opacity:1;stroke:none;opacity:0.82740739;filter:url(#filter3748)"
       inkscape:original="M 7.90625 2.96875 C 5.13625 2.96875 2.90625 5.19875 2.90625 7.96875 L 2.90625 23.875 C 2.90625 26.645 5.13625 28.875 7.90625 28.875 L 23.8125 28.875 C 26.5825 28.875 28.8125 26.645 28.8125 23.875 L 28.8125 7.96875 C 28.8125 5.19875 26.5825 2.96875 23.8125 2.96875 L 7.90625 2.96875 z "
       inkscape:radius="1.2698413"
       sodipodi:type="inkscape:offset"
       inkscape:export-filename="/Users/sergio/Projects/Eclipse/android-radio-t/default_button.png"
       inkscape:export-xdpi="66.599998"
       inkscape:export-ydpi="66.599998" />
    <path
       sodipodi:type="inkscape:offset"
       inkscape:radius="1.2698413"
       inkscape:original="M 7.90625 2.96875 C 5.13625 2.96875 2.90625 5.19875 2.90625 7.96875 L 2.90625 23.875 C 2.90625 26.645 5.13625 28.875 7.90625 28.875 L 23.8125 28.875 C 26.5825 28.875 28.8125 26.645 28.8125 23.875 L 28.8125 7.96875 C 28.8125 5.19875 26.5825 2.96875 23.8125 2.96875 L 7.90625 2.96875 z "
       style="fill:url(#linearGradient3624);fill-opacity:1;stroke:none;opacity:1"
       id="path3616"
       d="M 7.90625,1.6875 C 4.4547227,1.6875 1.625,4.5172227 1.625,7.96875 l 0,15.90625 c 0,3.451527 2.8297227,6.28125 6.28125,6.28125 l 15.90625,0 c 3.451527,0 6.28125,-2.829723 6.28125,-6.28125 l 0,-15.90625 c 0,-3.4515273 -2.829723,-6.28125 -6.28125,-6.28125 l -15.90625,0 z"
       transform="matrix(0.94558779,0,0,0.94558779,1.0035686,1021.3067)"
       inkscape:export-filename="/Users/sergio/Projects/Eclipse/android-radio-t/default_button.png"
       inkscape:export-xdpi="66.599998"
       inkscape:export-ydpi="66.599998" />
    <path
       sodipodi:type="inkscape:offset"
       inkscape:radius="-0.43552741"
       inkscape:original="M 8.46875 1024.125 C 5.8494717 1024.125 3.75 1026.2245 3.75 1028.8438 L 3.75 1043.875 C 3.75 1046.4943 5.8494717 1048.625 8.46875 1048.625 L 23.53125 1048.625 C 26.150528 1048.625 28.25 1046.4943 28.25 1043.875 L 28.25 1028.8438 C 28.25 1026.2245 26.150528 1024.125 23.53125 1024.125 L 8.46875 1024.125 z "
       style="fill:url(#linearGradient3674);fill-opacity:1;stroke:none;opacity:1"
       id="path3672"
       d="m 8.46875,1024.5625 c -2.386545,0 -4.28125,1.8947 -4.28125,4.2813 l 0,15.0312 c 0,2.3866 1.8981635,4.3125 4.28125,4.3125 l 15.0625,0 c 2.383086,0 4.28125,-1.9259 4.28125,-4.3125 l 0,-15.0312 c 0,-2.3866 -1.894705,-4.2813 -4.28125,-4.2813 l -15.0625,0 z"
       inkscape:export-filename="/Users/sergio/Projects/Eclipse/android-radio-t/default_button.png"
       inkscape:export-xdpi="66.599998"
       inkscape:export-ydpi="66.599998" />
    <path
       inkscape:export-ydpi="66.599998"
       inkscape:export-xdpi="66.599998"
       inkscape:export-filename="/Users/sergio/Projects/Eclipse/android-radio-t/focused_button.png"
       sodipodi:type="inkscape:offset"
       inkscape:radius="1.2698413"
       inkscape:original="M 7.90625 2.96875 C 5.13625 2.96875 2.90625 5.19875 2.90625 7.96875 L 2.90625 23.875 C 2.90625 26.645 5.13625 28.875 7.90625 28.875 L 23.8125 28.875 C 26.5825 28.875 28.8125 26.645 28.8125 23.875 L 28.8125 7.96875 C 28.8125 5.19875 26.5825 2.96875 23.8125 2.96875 L 7.90625 2.96875 z "
       style="opacity:0.82740742;fill:#000000;fill-opacity:1;stroke:none;filter:url(#filter3748)"
       id="path3840"
       d="M 7.90625,1.6875 C 4.4547227,1.6875 1.625,4.5172227 1.625,7.96875 l 0,15.90625 c 0,3.451527 2.8297227,6.28125 6.28125,6.28125 l 15.90625,0 c 3.451527,0 6.28125,-2.829723 6.28125,-6.28125 l 0,-15.90625 c 0,-3.4515273 -2.829723,-6.28125 -6.28125,-6.28125 l -15.90625,0 z"
       transform="matrix(0.94558779,0,0,0.94558779,41.589253,1021.1271)" />
    <path
       inkscape:export-ydpi="66.599998"
       inkscape:export-xdpi="66.599998"
       inkscape:export-filename="/Users/sergio/Projects/Eclipse/android-radio-t/focused_button.png"
       transform="matrix(0.94558779,0,0,0.94558779,41.589253,1021.1271)"
       d="M 7.90625,1.6875 C 4.4547227,1.6875 1.625,4.5172227 1.625,7.96875 l 0,15.90625 c 0,3.451527 2.8297227,6.28125 6.28125,6.28125 l 15.90625,0 c 3.451527,0 6.28125,-2.829723 6.28125,-6.28125 l 0,-15.90625 c 0,-3.4515273 -2.829723,-6.28125 -6.28125,-6.28125 l -15.90625,0 z"
       id="path3842"
       style="fill:url(#linearGradient3846);fill-opacity:1.0;stroke:none"
       inkscape:original="M 7.90625 2.96875 C 5.13625 2.96875 2.90625 5.19875 2.90625 7.96875 L 2.90625 23.875 C 2.90625 26.645 5.13625 28.875 7.90625 28.875 L 23.8125 28.875 C 26.5825 28.875 28.8125 26.645 28.8125 23.875 L 28.8125 7.96875 C 28.8125 5.19875 26.5825 2.96875 23.8125 2.96875 L 7.90625 2.96875 z "
       inkscape:radius="1.2698413"
       sodipodi:type="inkscape:offset" />
    <path
       inkscape:export-ydpi="66.599998"
       inkscape:export-xdpi="66.599998"
       inkscape:export-filename="/Users/sergio/Projects/Eclipse/android-radio-t/focused_button.png"
       d="m 8.46875,1024.5625 c -2.386545,0 -4.28125,1.8947 -4.28125,4.2813 l 0,15.0312 c 0,2.3866 1.8981635,4.3125 4.28125,4.3125 l 15.0625,0 c 2.383086,0 4.28125,-1.9259 4.28125,-4.3125 l 0,-15.0312 c 0,-2.3866 -1.894705,-4.2813 -4.28125,-4.2813 l -15.0625,0 z"
       id="path3844"
       style="fill:url(#linearGradient3848);fill-opacity:1.0;stroke:none"
       inkscape:original="M 8.46875 1024.125 C 5.8494717 1024.125 3.75 1026.2245 3.75 1028.8438 L 3.75 1043.875 C 3.75 1046.4943 5.8494717 1048.625 8.46875 1048.625 L 23.53125 1048.625 C 26.150528 1048.625 28.25 1046.4943 28.25 1043.875 L 28.25 1028.8438 C 28.25 1026.2245 26.150528 1024.125 23.53125 1024.125 L 8.46875 1024.125 z "
       inkscape:radius="-0.43552741"
       sodipodi:type="inkscape:offset"
       transform="translate(40.585684,-0.17958267)" />
    <path
       transform="matrix(0.94558779,0,0,0.94558779,78.762867,1021.1271)"
       d="M 7.90625,1.6875 C 4.4547227,1.6875 1.625,4.5172227 1.625,7.96875 l 0,15.90625 c 0,3.451527 2.8297227,6.28125 6.28125,6.28125 l 15.90625,0 c 3.451527,0 6.28125,-2.829723 6.28125,-6.28125 l 0,-15.90625 c 0,-3.4515273 -2.829723,-6.28125 -6.28125,-6.28125 l -15.90625,0 z"
       id="path3862"
       style="opacity:0.82740742;fill:#000000;fill-opacity:1;stroke:none;filter:url(#filter3748)"
       inkscape:original="M 7.90625 2.96875 C 5.13625 2.96875 2.90625 5.19875 2.90625 7.96875 L 2.90625 23.875 C 2.90625 26.645 5.13625 28.875 7.90625 28.875 L 23.8125 28.875 C 26.5825 28.875 28.8125 26.645 28.8125 23.875 L 28.8125 7.96875 C 28.8125 5.19875 26.5825 2.96875 23.8125 2.96875 L 7.90625 2.96875 z "
       inkscape:radius="1.2698413"
       sodipodi:type="inkscape:offset"
       inkscape:export-filename="/Users/sergio/Projects/Eclipse/android-radio-t/pressed_button.png"
       inkscape:export-xdpi="66.599998"
       inkscape:export-ydpi="66.599998" />
    <path
       sodipodi:type="inkscape:offset"
       inkscape:radius="1.2698413"
       inkscape:original="M 7.90625 2.96875 C 5.13625 2.96875 2.90625 5.19875 2.90625 7.96875 L 2.90625 23.875 C 2.90625 26.645 5.13625 28.875 7.90625 28.875 L 23.8125 28.875 C 26.5825 28.875 28.8125 26.645 28.8125 23.875 L 28.8125 7.96875 C 28.8125 5.19875 26.5825 2.96875 23.8125 2.96875 L 7.90625 2.96875 z "
       style="fill:url(#linearGradient3868);fill-opacity:1;stroke:none"
       id="path3864"
       d="M 7.90625,1.6875 C 4.4547227,1.6875 1.625,4.5172227 1.625,7.96875 l 0,15.90625 c 0,3.451527 2.8297227,6.28125 6.28125,6.28125 l 15.90625,0 c 3.451527,0 6.28125,-2.829723 6.28125,-6.28125 l 0,-15.90625 c 0,-3.4515273 -2.829723,-6.28125 -6.28125,-6.28125 l -15.90625,0 z"
       transform="matrix(0.94558779,0,0,0.94558779,78.762867,1021.1271)"
       inkscape:export-filename="/Users/sergio/Projects/Eclipse/android-radio-t/pressed_button.png"
       inkscape:export-xdpi="66.599998"
       inkscape:export-ydpi="66.599998" />
    <path
       transform="translate(77.759298,-0.17958267)"
       sodipodi:type="inkscape:offset"
       inkscape:radius="-0.43552741"
       inkscape:original="M 8.46875 1024.125 C 5.8494717 1024.125 3.75 1026.2245 3.75 1028.8438 L 3.75 1043.875 C 3.75 1046.4943 5.8494717 1048.625 8.46875 1048.625 L 23.53125 1048.625 C 26.150528 1048.625 28.25 1046.4943 28.25 1043.875 L 28.25 1028.8438 C 28.25 1026.2245 26.150528 1024.125 23.53125 1024.125 L 8.46875 1024.125 z "
       style="fill:url(#linearGradient3870);fill-opacity:1;stroke:none"
       id="path3866"
       d="m 8.46875,1024.5625 c -2.386545,0 -4.28125,1.8947 -4.28125,4.2813 l 0,15.0312 c 0,2.3866 1.8981635,4.3125 4.28125,4.3125 l 15.0625,0 c 2.383086,0 4.28125,-1.9259 4.28125,-4.3125 l 0,-15.0312 c 0,-2.3866 -1.894705,-4.2813 -4.28125,-4.2813 l -15.0625,0 z"
       inkscape:export-filename="/Users/sergio/Projects/Eclipse/android-radio-t/pressed_button.png"
       inkscape:export-xdpi="66.599998"
       inkscape:export-ydpi="66.599998" />
    <path
       inkscape:export-ydpi="66.599998"
       inkscape:export-xdpi="66.599998"
       inkscape:export-filename="/Users/sergio/Projects/Eclipse/android-radio-t/pressed_button.png"
       transform="matrix(0.94558779,0,0,0.94558779,78.762867,1021.1271)"
       d="M 7.90625,1.6875 C 4.4547227,1.6875 1.625,4.5172227 1.625,7.96875 l 0,15.90625 c 0,3.451527 2.8297227,6.28125 6.28125,6.28125 l 15.90625,0 c 3.451527,0 6.28125,-2.829723 6.28125,-6.28125 l 0,-15.90625 c 0,-3.4515273 -2.829723,-6.28125 -6.28125,-6.28125 l -15.90625,0 z"
       id="path3872"
       style="fill:#ffffff;fill-opacity:1;stroke:none;opacity:0.37333333"
       inkscape:original="M 7.90625 2.96875 C 5.13625 2.96875 2.90625 5.19875 2.90625 7.96875 L 2.90625 23.875 C 2.90625 26.645 5.13625 28.875 7.90625 28.875 L 23.8125 28.875 C 26.5825 28.875 28.8125 26.645 28.8125 23.875 L 28.8125 7.96875 C 28.8125 5.19875 26.5825 2.96875 23.8125 2.96875 L 7.90625 2.96875 z "
       inkscape:radius="1.2698413"
       sodipodi:type="inkscape:offset" />
    <path
       inkscape:export-ydpi="66.599998"
       inkscape:export-xdpi="66.599998"
       inkscape:export-filename="/Users/sergio/Projects/Eclipse/android-radio-t/disabled_button.png"
       sodipodi:type="inkscape:offset"
       inkscape:radius="1.2698413"
       inkscape:original="M 7.90625 2.96875 C 5.13625 2.96875 2.90625 5.19875 2.90625 7.96875 L 2.90625 23.875 C 2.90625 26.645 5.13625 28.875 7.90625 28.875 L 23.8125 28.875 C 26.5825 28.875 28.8125 26.645 28.8125 23.875 L 28.8125 7.96875 C 28.8125 5.19875 26.5825 2.96875 23.8125 2.96875 L 7.90625 2.96875 z "
       style="opacity:0.82740742;fill:#000000;fill-opacity:1;stroke:none;filter:url(#filter3748)"
       id="path3874"
       d="M 7.90625,1.6875 C 4.4547227,1.6875 1.625,4.5172227 1.625,7.96875 l 0,15.90625 c 0,3.451527 2.8297227,6.28125 6.28125,6.28125 l 15.90625,0 c 3.451527,0 6.28125,-2.829723 6.28125,-6.28125 l 0,-15.90625 c 0,-3.4515273 -2.829723,-6.28125 -6.28125,-6.28125 l -15.90625,0 z"
       transform="matrix(0.94558779,0,0,0.94558779,120.60563,1020.9475)" />
    <path
       inkscape:export-ydpi="66.599998"
       inkscape:export-xdpi="66.599998"
       inkscape:export-filename="/Users/sergio/Projects/Eclipse/android-radio-t/disabled_button.png"
       transform="matrix(0.94558779,0,0,0.94558779,120.60563,1020.9475)"
       d="M 7.90625,1.6875 C 4.4547227,1.6875 1.625,4.5172227 1.625,7.96875 l 0,15.90625 c 0,3.451527 2.8297227,6.28125 6.28125,6.28125 l 15.90625,0 c 3.451527,0 6.28125,-2.829723 6.28125,-6.28125 l 0,-15.90625 c 0,-3.4515273 -2.829723,-6.28125 -6.28125,-6.28125 l -15.90625,0 z"
       id="path3876"
       style="fill:url(#linearGradient3880);fill-opacity:1.0;stroke:none"
       inkscape:original="M 7.90625 2.96875 C 5.13625 2.96875 2.90625 5.19875 2.90625 7.96875 L 2.90625 23.875 C 2.90625 26.645 5.13625 28.875 7.90625 28.875 L 23.8125 28.875 C 26.5825 28.875 28.8125 26.645 28.8125 23.875 L 28.8125 7.96875 C 28.8125 5.19875 26.5825 2.96875 23.8125 2.96875 L 7.90625 2.96875 z "
       inkscape:radius="1.2698413"
       sodipodi:type="inkscape:offset" />
    <path
       inkscape:export-ydpi="66.599998"
       inkscape:export-xdpi="66.599998"
       inkscape:export-filename="/Users/sergio/Projects/Eclipse/android-radio-t/disabled_button.png"
       d="m 8.46875,1024.5625 c -2.386545,0 -4.28125,1.8947 -4.28125,4.2813 l 0,15.0312 c 0,2.3866 1.8981635,4.3125 4.28125,4.3125 l 15.0625,0 c 2.383086,0 4.28125,-1.9259 4.28125,-4.3125 l 0,-15.0312 c 0,-2.3866 -1.894705,-4.2813 -4.28125,-4.2813 l -15.0625,0 z"
       id="path3878"
       style="fill:url(#linearGradient3882);fill-opacity:1.0;stroke:none"
       inkscape:original="M 8.46875 1024.125 C 5.8494717 1024.125 3.75 1026.2245 3.75 1028.8438 L 3.75 1043.875 C 3.75 1046.4943 5.8494717 1048.625 8.46875 1048.625 L 23.53125 1048.625 C 26.150528 1048.625 28.25 1046.4943 28.25 1043.875 L 28.25 1028.8438 C 28.25 1026.2245 26.150528 1024.125 23.53125 1024.125 L 8.46875 1024.125 z "
       inkscape:radius="-0.43552741"
       sodipodi:type="inkscape:offset"
       transform="translate(119.60206,-0.35916535)" />
  </g>
</svg>
