<?xml version="1.0" encoding="UTF-8" standalone="no"?>
<!-- Created with Inkscape (http://www.inkscape.org/) -->

<svg
   xmlns:dc="http://purl.org/dc/elements/1.1/"
   xmlns:cc="http://creativecommons.org/ns#"
   xmlns:rdf="http://www.w3.org/1999/02/22-rdf-syntax-ns#"
   xmlns:svg="http://www.w3.org/2000/svg"
   xmlns="http://www.w3.org/2000/svg"
   xmlns:sodipodi="http://sodipodi.sourceforge.net/DTD/sodipodi-0.dtd"
   xmlns:inkscape="http://www.inkscape.org/namespaces/inkscape"
   width="72"
   height="72"
   id="svg2"
   version="1.1"
   inkscape:version="0.47 r22583"
   sodipodi:docname="default-podcast-icon.svg"
   inkscape:export-filename="/Users/sergio/Projects/Eclipse/android-radio-t/Radio-T/res/drawable-mdpi/default_podcast_icon.png"
   inkscape:export-xdpi="90"
   inkscape:export-ydpi="90">
  <defs
     id="defs4">
    <inkscape:perspective
       sodipodi:type="inkscape:persp3d"
       inkscape:vp_x="0 : 526.18109 : 1"
       inkscape:vp_y="0 : 1000 : 0"
       inkscape:vp_z="744.09448 : 526.18109 : 1"
       inkscape:persp3d-origin="372.04724 : 350.78739 : 1"
       id="perspective10" />
  </defs>
  <sodipodi:namedview
     id="base"
     pagecolor="#000000"
     bordercolor="#666666"
     borderopacity="1.0"
     inkscape:pageopacity="1"
     inkscape:pageshadow="2"
     inkscape:zoom="7"
     inkscape:cx="40.692641"
     inkscape:cy="29.015969"
     inkscape:document-units="px"
     inkscape:current-layer="layer1"
     showgrid="true"
     inkscape:snap-grids="false"
     inkscape:window-width="1280"
     inkscape:window-height="752"
     inkscape:window-x="0"
     inkscape:window-y="0"
     inkscape:window-maximized="0">
    <inkscape:grid
       type="xygrid"
       id="grid2816"
       empspacing="5"
       visible="true"
       enabled="true"
       snapvisiblegridlinesonly="true"
       dotted="true" />
  </sodipodi:namedview>
  <metadata
     id="metadata7">
    <rdf:RDF>
      <cc:Work
         rdf:about="">
        <dc:format>image/svg+xml</dc:format>
        <dc:type
           rdf:resource="http://purl.org/dc/dcmitype/StillImage" />
        <dc:title></dc:title>
      </cc:Work>
    </rdf:RDF>
  </metadata>
  <g
     inkscape:label="Layer 1"
     inkscape:groupmode="layer"
     id="layer1"
     transform="translate(0,-980.36218)">
    <rect
       style="fill:#ffffff;fill-opacity:0.05882353;stroke:none"
       id="rect3622"
       width="74.574829"
       height="75.462204"
       x="-1.1445575"
       y="978.48822"
       ry="0" />
    <g
       id="g3616"
       transform="translate(0.78597306,0.62373429)"
       style="opacity:0.2">
      <rect
         ry="10"
         transform="translate(0,980.36218)"
         y="7"
         x="25"
         height="40"
         width="20"
         id="rect2818"
         style="fill:#ffffff;fill-opacity:1;stroke:none" />
      <path
         id="path3594"
         transform="translate(0,980.36218)"
         d="m 19.59375,27.21875 a 1.6872143,1.6872143 0 0 0 -1.5,1.71875 l 0,9.25 c 0,8.137324 6.749338,14.838899 15.15625,15.65625 l 0,6.40625 -5.71875,0 a 1.750175,1.750175 0 0 0 -0.1875,0 1.7525094,1.7525094 0 1 0 0.1875,3.5 l 15,0 a 1.750175,1.750175 0 1 0 0,-3.5 l -5.78125,0 0,-6.40625 C 45.156912,53.026328 51.90625,46.324824 51.90625,38.1875 l 0,-9.25 a 1.6875,1.6875 0 0 0 -3.375,0 l 0,9.25 c 0,6.6751 -6.051535,12.34375 -13.53125,12.34375 -7.479715,0 -13.53125,-5.66865 -13.53125,-12.34375 l 0,-9.25 a 1.6872143,1.6872143 0 0 0 -1.875,-1.71875 z"
         style="font-size:medium;font-style:normal;font-variant:normal;font-weight:normal;font-stretch:normal;text-indent:0;text-align:start;text-decoration:none;line-height:normal;letter-spacing:normal;word-spacing:normal;text-transform:none;direction:ltr;block-progression:tb;writing-mode:lr-tb;text-anchor:start;color:#000000;fill:#ffffff;fill-opacity:1;stroke:none;stroke-width:3.37409114999999993;marker:none;visibility:visible;display:inline;overflow:visible;enable-background:accumulate;font-family:Bitstream Vera Sans;-inkscape-font-specification:Bitstream Vera Sans" />
    </g>
  </g>
</svg>
