<?xml version="1.0" encoding="UTF-8" standalone="no"?>
<!-- Created with Inkscape (http://www.inkscape.org/) -->

<svg
   xmlns:dc="http://purl.org/dc/elements/1.1/"
   xmlns:cc="http://creativecommons.org/ns#"
   xmlns:rdf="http://www.w3.org/1999/02/22-rdf-syntax-ns#"
   xmlns:svg="http://www.w3.org/2000/svg"
   xmlns="http://www.w3.org/2000/svg"
   xmlns:xlink="http://www.w3.org/1999/xlink"
   xmlns:sodipodi="http://sodipodi.sourceforge.net/DTD/sodipodi-0.dtd"
   xmlns:inkscape="http://www.inkscape.org/namespaces/inkscape"
   width="144"
   height="96"
   id="svg2"
   version="1.1"
   inkscape:version="0.48.2 r9819"
   sodipodi:docname="home_icons.svg">
  <defs
     id="defs4">
    <linearGradient
       id="linearGradient4411">
      <stop
         style="stop-color:#888a85;stop-opacity:1"
         offset="0"
         id="stop4413" />
      <stop
         style="stop-color:#888a85;stop-opacity:0;"
         offset="1"
         id="stop4415" />
    </linearGradient>
    <linearGradient
       id="linearGradient4383">
      <stop
         style="stop-color:#000000;stop-opacity:0.64705884;"
         offset="0"
         id="stop4385" />
      <stop
         style="stop-color:#000000;stop-opacity:0;"
         offset="1"
         id="stop4387" />
    </linearGradient>
    <linearGradient
       id="linearGradient4349">
      <stop
         style="stop-color:#eeeeec;stop-opacity:1;"
         offset="0"
         id="stop4351" />
      <stop
         style="stop-color:#eeeeec;stop-opacity:0.50196081;"
         offset="1"
         id="stop4353" />
    </linearGradient>
    <filter
       inkscape:collect="always"
       id="filter4333">
      <feGaussianBlur
         inkscape:collect="always"
         stdDeviation="0.30767857"
         id="feGaussianBlur4335" />
    </filter>
    <filter
       inkscape:collect="always"
       id="filter4339">
      <feGaussianBlur
         inkscape:collect="always"
         stdDeviation="0.34320264"
         id="feGaussianBlur4341" />
    </filter>
    <filter
       inkscape:collect="always"
       id="filter4345">
      <feGaussianBlur
         inkscape:collect="always"
         stdDeviation="0.30771262"
         id="feGaussianBlur4347" />
    </filter>
    <linearGradient
       inkscape:collect="always"
       xlink:href="#linearGradient4349"
       id="linearGradient4355"
       x1="8"
       y1="4"
       x2="40"
       y2="34"
       gradientUnits="userSpaceOnUse" />
    <linearGradient
       inkscape:collect="always"
       xlink:href="#linearGradient4349"
       id="linearGradient4363"
       x1="47"
       y1="4"
       x2="81"
       y2="39"
       gradientUnits="userSpaceOnUse" />
    <linearGradient
       inkscape:collect="always"
       xlink:href="#linearGradient4349"
       id="linearGradient4371"
       x1="4.942493"
       y1="37.409599"
       x2="36.942493"
       y2="65.409599"
       gradientUnits="userSpaceOnUse" />
    <linearGradient
       inkscape:collect="always"
       xlink:href="#linearGradient4383"
       id="linearGradient4399"
       x1="80"
       y1="989.36218"
       x2="49"
       y2="961.36218"
       gradientUnits="userSpaceOnUse" />
    <linearGradient
       inkscape:collect="always"
       xlink:href="#linearGradient4383"
       id="linearGradient4409"
       x1="39"
       y1="1018.3622"
       x2="9"
       y2="995.36218"
       gradientUnits="userSpaceOnUse" />
    <linearGradient
       inkscape:collect="always"
       xlink:href="#linearGradient4383"
       id="linearGradient4435"
       x1="39"
       y1="985.36218"
       x2="9"
       y2="961.36218"
       gradientUnits="userSpaceOnUse" />
    <linearGradient
       inkscape:collect="always"
       xlink:href="#linearGradient4383"
       id="linearGradient4445"
       x1="33"
       y1="988.36218"
       x2="15"
       y2="970.36218"
       gradientUnits="userSpaceOnUse" />
    <linearGradient
       inkscape:collect="always"
       xlink:href="#linearGradient4383"
       id="linearGradient4455"
       x1="71"
       y1="993.36218"
       x2="56"
       y2="972.36218"
       gradientUnits="userSpaceOnUse" />
    <linearGradient
       inkscape:collect="always"
       xlink:href="#linearGradient4383"
       id="linearGradient4465"
       x1="25.769379"
       y1="60.195572"
       x2="14.194157"
       y2="46.691147"
       gradientUnits="userSpaceOnUse" />
    <filter
       inkscape:collect="always"
       id="filter4505">
      <feGaussianBlur
         inkscape:collect="always"
         stdDeviation="0.13810411"
         id="feGaussianBlur4507" />
    </filter>
    <linearGradient
       inkscape:collect="always"
       xlink:href="#linearGradient4383"
       id="linearGradient4515"
       x1="65"
       y1="980.36218"
       x2="52"
       y2="967.36218"
       gradientUnits="userSpaceOnUse" />
    <filter
       inkscape:collect="always"
       id="filter4551">
      <feGaussianBlur
         inkscape:collect="always"
         stdDeviation="0.055"
         id="feGaussianBlur4553" />
    </filter>
    <filter
       inkscape:collect="always"
       id="filter4571">
      <feGaussianBlur
         inkscape:collect="always"
         stdDeviation="0.11"
         id="feGaussianBlur4573" />
    </filter>
    <filter
       inkscape:collect="always"
       id="filter4581">
      <feGaussianBlur
         inkscape:collect="always"
         stdDeviation="0.17736231"
         id="feGaussianBlur4583" />
    </filter>
    <filter
       inkscape:collect="always"
       id="filter4591">
      <feGaussianBlur
         inkscape:collect="always"
         stdDeviation="0.18438211"
         id="feGaussianBlur4593" />
    </filter>
    <filter
       inkscape:collect="always"
       id="filter4601">
      <feGaussianBlur
         inkscape:collect="always"
         stdDeviation="0.17471464"
         id="feGaussianBlur4603" />
    </filter>
    <filter
       inkscape:collect="always"
       id="filter4736">
      <feGaussianBlur
         inkscape:collect="always"
         stdDeviation="0.061765304"
         id="feGaussianBlur4738" />
    </filter>
    <filter
       inkscape:collect="always"
       id="filter4772">
      <feGaussianBlur
         inkscape:collect="always"
         stdDeviation="0.061765304"
         id="feGaussianBlur4774" />
    </filter>
  </defs>
  <sodipodi:namedview
     id="base"
     pagecolor="#000000"
     bordercolor="#666666"
     borderopacity="1.0"
     inkscape:pageopacity="1"
     inkscape:pageshadow="2"
     inkscape:zoom="12.477488"
     inkscape:cx="52.56323"
     inkscape:cy="50.939481"
     inkscape:document-units="px"
     inkscape:current-layer="layer1"
     showgrid="true"
     inkscape:window-width="1680"
     inkscape:window-height="1026"
     inkscape:window-x="0"
     inkscape:window-y="24"
     inkscape:window-maximized="1">
    <inkscape:grid
       type="xygrid"
       id="grid3465"
       empspacing="5"
       visible="true"
       enabled="true"
       snapvisiblegridlinesonly="true"
       dotted="true" />
  </sodipodi:namedview>
  <metadata
     id="metadata7">
    <rdf:RDF>
      <cc:Work
         rdf:about="">
        <dc:format>image/svg+xml</dc:format>
        <dc:type
           rdf:resource="http://purl.org/dc/dcmitype/StillImage" />
        <dc:title />
      </cc:Work>
    </rdf:RDF>
  </metadata>
  <g
     inkscape:label="Layer 1"
     inkscape:groupmode="layer"
     id="layer1"
     transform="translate(0,-956.36218)">
    <g
       id="g3331">
      <path
         sodipodi:type="inkscape:offset"
         inkscape:radius="1.202165"
         inkscape:original="M 62.53125 5.15625 C 60.654819 5.254577 58.771131 5.71602 56.96875 6.5625 C 49.759215 9.94842 46.49766 18.37559 49.375 25.6875 C 49.3775 25.6975 49.40422 25.70965 49.40625 25.71875 C 49.44131 25.86304 49.49682 25.98515 49.5625 26.125 L 49.78125 26.5625 C 49.81099 26.66277 49.84808 26.78809 49.90625 26.875 L 52.40625 32.1875 C 52.931701 33.30632 54.256166 33.8067 55.375 33.28125 L 55.71875 33.09375 C 56.837575 32.5683 57.306701 31.24383 56.78125 30.125 L 53.9375 24.0625 C 53.412036 22.94365 52.118825 22.47455 51 23 C 49.649305 17.17032 52.235734 11.08597 57.875 8.4375 C 63.514267 5.78905 69.84503 7.67533 73.46875 12.4375 L 73.4375 12.46875 C 72.318674 12.9942 71.849537 14.2874 72.375 15.40625 L 75.21875 21.46875 C 75.744201 22.58757 77.068675 23.08796 78.1875 22.5625 L 78.5625 22.375 C 79.681324 21.84955 80.119201 20.52507 79.59375 19.40625 L 77.09375 14.0625 C 77.06571 13.9729 77.01987 13.89146 76.96875 13.8125 L 76.78125 13.34375 C 76.71557 13.20391 76.650783 13.08804 76.5625 12.96875 C 76.5565 12.95975 76.53683 12.9449 76.53125 12.9375 C 73.68915 7.7748525 68.160544 4.861268 62.53125 5.15625 z M 57.46875 11.15625 C 57.057889 11.15623 56.706087 11.32765 56.5 11.6875 C 55.216386 13.32386 53.908614 14.9886 52.625 16.625 C 52.316259 17.2794 53.17753 18.00325 53.8125 17.84375 C 54.194814 17.57715 54.436944 17.12715 54.75 16.78125 C 55.598744 15.71425 56.432505 14.66072 57.28125 13.59375 C 57.662697 14.398816 58.056667 15.194634 58.4375 16 L 57.625 16 C 56.805372 15.9467 56.164649 16.61228 56.4375 17.28125 L 58.90625 35.15625 C 59.099976 35.51031 58.409682 35.65422 58.1875 35.90625 C 57.68123 36.29405 57.108251 36.60163 56.65625 37.03125 C 57.060106 37.56879 57.999894 37.51646 58.6875 37.53125 C 62.509124 37.52125 66.335521 37.56465 70.15625 37.53125 C 70.799801 37.57955 71.94171 37.06666 71 36.65625 L 69.125 35.34375 C 69.355223 34.49411 69.382107 33.61574 69.53125 32.75 L 71.71875 16.875 C 71.72415 16.11493 70.675188 15.94015 69.96875 16 L 60.375 16 C 59.719333 14.616251 59.063605 13.226672 58.40625 11.84375 C 58.217578 11.49638 57.877283 11.19849 57.46875 11.15625 z "
         style="font-size:medium;font-style:normal;font-variant:normal;font-weight:normal;font-stretch:normal;text-indent:0;text-align:start;text-decoration:none;line-height:normal;letter-spacing:normal;word-spacing:normal;text-transform:none;direction:ltr;block-progression:tb;writing-mode:lr-tb;text-anchor:start;color:#000000;fill:#eeeeec;fill-opacity:1;stroke:none;stroke-width:2.07549809999999990;marker:none;visibility:visible;display:inline;overflow:visible;enable-background:accumulate;font-family:Bitstream Vera Sans;-inkscape-font-specification:Bitstream Vera Sans;filter:url(#filter4339);opacity:0.5"
         id="path4337"
         d="m 62.46875,3.96875 c -2.030723,0.1064121 -4.058062,0.5879775 -6,1.5 -7.728407,3.6296056 -11.252222,12.642335 -8.25,20.5 0.01926,0.05039 0.01146,0.105952 0.03125,0.15625 l 0.03125,0 c 0.01965,0.0636 0.04124,0.101018 0.0625,0.15625 -4.5e-5,-8.7e-5 -0.0029,0.02643 0,0.03125 0.02177,0.03564 0.04289,0.06743 0.0625,0.09375 0.02841,0.06543 0.03871,0.168104 0.0625,0.21875 A 1.2022852,1.2022852 0 0 0 48.5,26.65625 l 0.125,0.25 0.09375,0.1875 c 0.02056,0.07471 0.06277,0.158893 0.125,0.28125 l -0.03125,0 0.09375,0.15625 2.40625,5.15625 c 0.797254,1.697558 2.847433,2.492965 4.5625,1.6875 a 1.2022852,1.2022852 0 0 0 0.0625,-0.03125 l 0.28125,-0.15625 c 0.02153,-0.01011 0.04128,-0.02074 0.0625,-0.03125 0.470715,-0.233205 0.85157,-0.575901 1.15625,-0.96875 l 0.21875,1.65625 c -0.05562,0.03127 -0.08428,0.0684 -0.15625,0.125 L 57.46875,34.9375 c -0.402265,0.308133 -1.044208,0.637014 -1.65625,1.21875 A 1.2022852,1.2022852 0 0 0 55.6875,37.75 c 0.482168,0.641775 1.168626,0.828067 1.6875,0.90625 0.518874,0.07818 0.979695,0.05601 1.28125,0.0625 a 1.2022852,1.2022852 0 0 0 0.03125,0 c 3.779275,-0.0099 7.569647,0.03203 11.375,0 0.03136,-2.64e-4 0.06239,2.74e-4 0.09375,0 l 0,-0.03125 c 0.637314,0.03225 1.153754,-0.04259 1.71875,-0.4375 0.149101,-0.104215 0.287164,-0.239125 0.4375,-0.46875 0.150336,-0.229625 0.274548,-0.586131 0.21875,-0.96875 -0.09531,-0.653588 -0.50546,-0.937217 -0.875,-1.125 l 0.03125,-0.03125 -1.25,-0.875 c 0.100977,-0.641096 0.19358,-1.303598 0.28125,-1.8125 a 1.2022852,1.2022852 0 0 0 0,-0.0625 l 1.9375,-14.0625 1.46875,3.125 c 0.797255,1.69756 2.84743,2.492989 4.5625,1.6875 A 1.2022852,1.2022852 0 0 0 78.71875,23.625 l 0.34375,-0.15625 0.03125,-0.03125 c 1.683029,-0.81834 2.377296,-2.86288 1.59375,-4.53125 L 78.25,13.71875 c -0.02068,-0.06609 -0.03867,-0.100055 -0.0625,-0.15625 -0.02979,-0.07024 -0.06303,-0.131663 -0.09375,-0.1875 l -0.1875,-0.46875 A 1.2022852,1.2022852 0 0 0 77.875,12.84375 c -0.07221,-0.153752 -0.170456,-0.336931 -0.28125,-0.5 -0.0072,-0.01316 -0.02397,-0.01812 -0.03125,-0.03125 -0.0114,-0.02058 -0.01977,-0.04199 -0.03125,-0.0625 -0.0073,-0.01309 -0.02389,-0.01819 -0.03125,-0.03125 -3.089949,-5.4847499 -8.999014,-8.5660967 -15.03125,-8.25 z m -0.1875,4.5 c 3.561192,-0.3032804 6.970106,1.226179 9.4375,3.9375 -0.555183,0.724915 -0.784527,1.615536 -0.65625,2.53125 -0.381848,-0.07945 -0.758494,-0.148292 -1.09375,-0.125 -0.02837,0.002 -0.06574,-0.0024 -0.09375,0 l -8.71875,0 C 60.607783,13.653785 60.050893,12.471451 59.5,11.3125 A 1.2022852,1.2022852 0 0 0 59.46875,11.28125 C 59.141892,10.679462 58.543581,10.128035 57.6875,10 57.937945,9.859241 58.109394,9.6559915 58.375,9.53125 59.656779,8.9292698 60.975021,8.5799919 62.28125,8.46875 z m -6.96875,9.5 1.21875,8.8125 -1.5,-3.21875 C 54.480302,22.389388 53.316784,21.718967 52.09375,21.65625 51.935399,20.547137 51.861352,19.449592 52,18.375 c 0.0093,0.0092 0.02183,0.02232 0.03125,0.03125 0.511511,0.485003 1.203703,0.809474 2.0625,0.59375 A 1.2022852,1.2022852 0 0 0 54.5,18.84375 c 0.496194,-0.346012 0.632041,-0.614509 0.8125,-0.875 z"
         transform="translate(0,956.36218)" />
      <path
         transform="translate(0,956.36218)"
         d="m 62.46875,3.96875 c -2.030723,0.1064121 -4.058062,0.5879775 -6,1.5 -7.728407,3.6296056 -11.252222,12.642335 -8.25,20.5 0.01926,0.05039 0.01146,0.105952 0.03125,0.15625 l 0.03125,0 c 0.01965,0.0636 0.04124,0.101018 0.0625,0.15625 -4.5e-5,-8.7e-5 -0.0029,0.02643 0,0.03125 0.02177,0.03564 0.04289,0.06743 0.0625,0.09375 0.02841,0.06543 0.03871,0.168104 0.0625,0.21875 A 1.2022852,1.2022852 0 0 0 48.5,26.65625 l 0.125,0.25 0.09375,0.1875 c 0.02056,0.07471 0.06277,0.158893 0.125,0.28125 l -0.03125,0 0.09375,0.15625 2.40625,5.15625 c 0.797254,1.697558 2.847433,2.492965 4.5625,1.6875 a 1.2022852,1.2022852 0 0 0 0.0625,-0.03125 l 0.28125,-0.15625 c 0.02153,-0.01011 0.04128,-0.02074 0.0625,-0.03125 0.470715,-0.233205 0.85157,-0.575901 1.15625,-0.96875 l 0.21875,1.65625 c -0.05562,0.03127 -0.08428,0.0684 -0.15625,0.125 L 57.46875,34.9375 c -0.402265,0.308133 -1.044208,0.637014 -1.65625,1.21875 A 1.2022852,1.2022852 0 0 0 55.6875,37.75 c 0.482168,0.641775 1.168626,0.828067 1.6875,0.90625 0.518874,0.07818 0.979695,0.05601 1.28125,0.0625 a 1.2022852,1.2022852 0 0 0 0.03125,0 c 3.779275,-0.0099 7.569647,0.03203 11.375,0 0.03136,-2.64e-4 0.06239,2.74e-4 0.09375,0 l 0,-0.03125 c 0.637314,0.03225 1.153754,-0.04259 1.71875,-0.4375 0.149101,-0.104215 0.287164,-0.239125 0.4375,-0.46875 0.150336,-0.229625 0.274548,-0.586131 0.21875,-0.96875 -0.09531,-0.653588 -0.50546,-0.937217 -0.875,-1.125 l 0.03125,-0.03125 -1.25,-0.875 c 0.100977,-0.641096 0.19358,-1.303598 0.28125,-1.8125 a 1.2022852,1.2022852 0 0 0 0,-0.0625 l 1.9375,-14.0625 1.46875,3.125 c 0.797255,1.69756 2.84743,2.492989 4.5625,1.6875 A 1.2022852,1.2022852 0 0 0 78.71875,23.625 l 0.34375,-0.15625 0.03125,-0.03125 c 1.683029,-0.81834 2.377296,-2.86288 1.59375,-4.53125 L 78.25,13.71875 c -0.02068,-0.06609 -0.03867,-0.100055 -0.0625,-0.15625 -0.02979,-0.07024 -0.06303,-0.131663 -0.09375,-0.1875 l -0.1875,-0.46875 A 1.2022852,1.2022852 0 0 0 77.875,12.84375 c -0.07221,-0.153752 -0.170456,-0.336931 -0.28125,-0.5 -0.0072,-0.01316 -0.02397,-0.01812 -0.03125,-0.03125 -0.0114,-0.02058 -0.01977,-0.04199 -0.03125,-0.0625 -0.0073,-0.01309 -0.02389,-0.01819 -0.03125,-0.03125 -3.089949,-5.4847499 -8.999014,-8.5660967 -15.03125,-8.25 z m -0.1875,4.5 c 3.561192,-0.3032804 6.970106,1.226179 9.4375,3.9375 -0.555183,0.724915 -0.784527,1.615536 -0.65625,2.53125 -0.381848,-0.07945 -0.758494,-0.148292 -1.09375,-0.125 -0.02837,0.002 -0.06574,-0.0024 -0.09375,0 l -8.71875,0 C 60.607783,13.653785 60.050893,12.471451 59.5,11.3125 A 1.2022852,1.2022852 0 0 0 59.46875,11.28125 C 59.141892,10.679462 58.543581,10.128035 57.6875,10 57.937945,9.859241 58.109394,9.6559915 58.375,9.53125 59.656779,8.9292698 60.975021,8.5799919 62.28125,8.46875 z m -6.96875,9.5 1.21875,8.8125 -1.5,-3.21875 C 54.480302,22.389388 53.316784,21.718967 52.09375,21.65625 51.935399,20.547137 51.861352,19.449592 52,18.375 c 0.0093,0.0092 0.02183,0.02232 0.03125,0.03125 0.511511,0.485003 1.203703,0.809474 2.0625,0.59375 A 1.2022852,1.2022852 0 0 0 54.5,18.84375 c 0.496194,-0.346012 0.632041,-0.614509 0.8125,-0.875 z"
         id="path3540"
         style="font-size:medium;font-style:normal;font-variant:normal;font-weight:normal;font-stretch:normal;text-indent:0;text-align:start;text-decoration:none;line-height:normal;letter-spacing:normal;word-spacing:normal;text-transform:none;direction:ltr;block-progression:tb;writing-mode:lr-tb;text-anchor:start;color:#000000;fill:url(#linearGradient4363);fill-opacity:1;stroke:none;stroke-width:2.07549809999999990;marker:none;visibility:visible;display:inline;overflow:visible;enable-background:accumulate;font-family:Bitstream Vera Sans;-inkscape-font-specification:Bitstream Vera Sans"
         inkscape:original="M 62.53125 5.15625 C 60.654819 5.254577 58.771131 5.71602 56.96875 6.5625 C 49.759215 9.94842 46.49766 18.37559 49.375 25.6875 C 49.3775 25.6975 49.40422 25.70965 49.40625 25.71875 C 49.44131 25.86304 49.49682 25.98515 49.5625 26.125 L 49.78125 26.5625 C 49.81099 26.66277 49.84808 26.78809 49.90625 26.875 L 52.40625 32.1875 C 52.931701 33.30632 54.256166 33.8067 55.375 33.28125 L 55.71875 33.09375 C 56.837575 32.5683 57.306701 31.24383 56.78125 30.125 L 53.9375 24.0625 C 53.412036 22.94365 52.118825 22.47455 51 23 C 49.649305 17.17032 52.235734 11.08597 57.875 8.4375 C 63.514267 5.78905 69.84503 7.67533 73.46875 12.4375 L 73.4375 12.46875 C 72.318674 12.9942 71.849537 14.2874 72.375 15.40625 L 75.21875 21.46875 C 75.744201 22.58757 77.068675 23.08796 78.1875 22.5625 L 78.5625 22.375 C 79.681324 21.84955 80.119201 20.52507 79.59375 19.40625 L 77.09375 14.0625 C 77.06571 13.9729 77.01987 13.89146 76.96875 13.8125 L 76.78125 13.34375 C 76.71557 13.20391 76.650783 13.08804 76.5625 12.96875 C 76.5565 12.95975 76.53683 12.9449 76.53125 12.9375 C 73.68915 7.7748525 68.160544 4.861268 62.53125 5.15625 z M 57.46875 11.15625 C 57.057889 11.15623 56.706087 11.32765 56.5 11.6875 C 55.216386 13.32386 53.908614 14.9886 52.625 16.625 C 52.316259 17.2794 53.17753 18.00325 53.8125 17.84375 C 54.194814 17.57715 54.436944 17.12715 54.75 16.78125 C 55.598744 15.71425 56.432505 14.66072 57.28125 13.59375 C 57.662697 14.398816 58.056667 15.194634 58.4375 16 L 57.625 16 C 56.805372 15.9467 56.164649 16.61228 56.4375 17.28125 L 58.90625 35.15625 C 59.099976 35.51031 58.409682 35.65422 58.1875 35.90625 C 57.68123 36.29405 57.108251 36.60163 56.65625 37.03125 C 57.060106 37.56879 57.999894 37.51646 58.6875 37.53125 C 62.509124 37.52125 66.335521 37.56465 70.15625 37.53125 C 70.799801 37.57955 71.94171 37.06666 71 36.65625 L 69.125 35.34375 C 69.355223 34.49411 69.382107 33.61574 69.53125 32.75 L 71.71875 16.875 C 71.72415 16.11493 70.675188 15.94015 69.96875 16 L 60.375 16 C 59.719333 14.616251 59.063605 13.226672 58.40625 11.84375 C 58.217578 11.49638 57.877283 11.19849 57.46875 11.15625 z "
         inkscape:radius="1.202165"
         sodipodi:type="inkscape:offset" />
      <path
         inkscape:connector-curvature="0"
         id="path4585"
         d="m 57.475676,972.28199 c -0.819628,-0.0533 -1.475131,0.60491 -1.20228,1.27388 0.819895,5.95743 1.63979,11.91485 2.459685,17.87228 0.193726,0.35406 -0.472767,0.49475 -0.694949,0.74678 -0.50627,0.3878 -1.097027,0.71049 -1.549028,1.14011 0.403856,0.53754 1.3405,0.48319 2.028106,0.49798 3.821624,-0.01 7.644663,0.019 11.465392,-0.0144 0.643551,0.0483 1.784345,-0.43633 0.842635,-0.84674 -0.625245,-0.44071 -1.250491,-0.88143 -1.875736,-1.32214 0.230223,-0.84964 0.260204,-1.73912 0.409347,-2.60486 0.728016,-5.28984 1.456034,-10.57967 2.184052,-15.86951 0.0054,-0.76007 -1.022774,-0.93318 -1.729212,-0.87333 -4.112672,0 -8.225342,0 -12.338012,0 z"
         style="fill:#4e85d5;fill-opacity:1;stroke:none;filter:url(#filter4591);opacity:0.66255144" />
      <path
         sodipodi:nodetypes="ccsccccccccccsccccccccccscc"
         id="path3592-4"
         d="m 56.970012,962.91661 c -7.209535,3.38592 -10.463344,11.82144 -7.586004,19.13335 0.0025,0.01 0.01115,0.019 0.01318,0.0281 0.03506,0.14429 0.09206,0.26943 0.15774,0.40928 l 0.212549,0.45256 c 0.02974,0.10027 0.07467,0.19595 0.132843,0.28286 l 2.497453,5.31775 c 0.525451,1.11882 1.845918,1.61881 2.964752,1.09336 l 0.367717,-0.1727 c 1.118825,-0.52545 1.577288,-1.86091 1.051837,-2.97974 l -2.842844,-6.05317 c -0.525464,-1.11885 -1.832678,-1.5906 -2.951503,-1.06515 l 0.0072,-0.004 c -1.350695,-5.82968 1.225973,-11.89988 6.865239,-14.54835 5.639267,-2.64845 11.969791,-0.76145 15.593511,4.00072 l -0.0072,0.004 c -1.118826,0.52545 -1.590551,1.83268 -1.065088,2.95153 l 2.842845,6.05318 c 0.525451,1.11882 1.845927,1.61881 2.964752,1.09335 l 0.367716,-0.17269 c 1.118824,-0.52545 1.577287,-1.86092 1.051836,-2.97974 l -2.510758,-5.34607 c -0.02804,-0.0896 -0.06842,-0.17557 -0.119541,-0.25453 l -0.212549,-0.45257 c -0.06568,-0.13984 -0.125937,-0.26345 -0.21422,-0.38274 -0.006,-0.009 -0.0076,-0.0207 -0.01318,-0.0281 -3.789466,-6.88353 -12.35887,-9.76633 -19.568395,-6.38041 z"
         style="font-size:medium;font-style:normal;font-variant:normal;font-weight:normal;font-stretch:normal;text-indent:0;text-align:start;text-decoration:none;line-height:normal;letter-spacing:normal;word-spacing:normal;text-transform:none;direction:ltr;block-progression:tb;writing-mode:lr-tb;text-anchor:start;color:#000000;fill:#555753;fill-opacity:1;stroke:none;stroke-width:2.0754981;marker:none;visibility:visible;display:inline;overflow:visible;enable-background:accumulate;font-family:Bitstream Vera Sans;-inkscape-font-specification:Bitstream Vera Sans"
         inkscape:connector-curvature="0" />
      <path
         inkscape:connector-curvature="0"
         id="rect3348"
         d="m 57.482694,967.50442 c -0.410861,-2e-5 -0.786822,0.19981 -0.992909,0.55966 -1.283614,1.63636 -2.567227,3.27271 -3.850841,4.90911 -0.308741,0.6544 0.551011,1.3853 1.185981,1.2258 0.382314,-0.2666 0.610979,-0.7102 0.924035,-1.0561 0.848744,-1.067 1.697489,-2.134 2.546234,-3.20097 1.93739,4.08897 3.864091,8.18317 5.80817,12.26877 0.237834,0.5494 1.102191,1.0169 1.525636,0.4017 0.430874,-0.6857 -0.07775,-1.4129 -0.360714,-2.0467 -1.954093,-4.1212 -3.901863,-8.2455 -5.859908,-12.36477 -0.188672,-0.34737 -0.517151,-0.65426 -0.925684,-0.6965 z"
         style="fill:#ce5c00;fill-opacity:1;stroke:none" />
      <path
         style="fill:url(#linearGradient4515);fill-opacity:1;stroke:none;filter:url(#filter4505)"
         d="m 57.482694,967.50442 c -0.410861,-2e-5 -0.786822,0.19981 -0.992909,0.55966 -1.283614,1.63636 -2.567227,3.27271 -3.850841,4.90911 -0.308741,0.6544 0.551011,1.3853 1.185981,1.2258 0.382314,-0.2666 0.610979,-0.7102 0.924035,-1.0561 0.848744,-1.067 1.697489,-2.134 2.546234,-3.20097 1.93739,4.08897 3.864091,8.18317 5.80817,12.26877 0.237834,0.5494 1.102191,1.0169 1.525636,0.4017 0.430874,-0.6857 -0.07775,-1.4129 -0.360714,-2.0467 -1.954093,-4.1212 -3.901863,-8.2455 -5.859908,-12.36477 -0.188672,-0.34737 -0.517151,-0.65426 -0.925684,-0.6965 z"
         id="path4503"
         inkscape:connector-curvature="0" />
      <path
         inkscape:connector-curvature="0"
         id="rect3331"
         d="m 57.635964,972.36213 c -0.819628,-0.0533 -1.475131,0.60491 -1.20228,1.27388 0.819895,5.95743 1.63979,11.91485 2.459685,17.87228 0.193726,0.35406 -0.472767,0.49475 -0.694949,0.74678 -0.50627,0.3878 -1.097027,0.71049 -1.549028,1.14011 0.403856,0.53754 1.3405,0.48319 2.028106,0.49798 3.821624,-0.01 7.644663,0.019 11.465392,-0.0144 0.643551,0.0483 1.784345,-0.43633 0.842635,-0.84674 -0.625245,-0.44071 -1.250491,-0.88143 -1.875736,-1.32214 0.230223,-0.84964 0.260204,-1.73912 0.409347,-2.60486 0.728016,-5.28984 1.456034,-10.57967 2.184052,-15.86951 0.0054,-0.76007 -1.022774,-0.93318 -1.729212,-0.87333 -4.112672,0 -8.225342,0 -12.338012,0 z"
         style="fill:#3465a4;fill-opacity:1;stroke:none" />
      <path
         inkscape:connector-curvature="0"
         style="font-size:medium;font-style:normal;font-variant:normal;font-weight:normal;font-stretch:normal;text-indent:0;text-align:start;text-decoration:none;line-height:normal;letter-spacing:normal;word-spacing:normal;text-transform:none;direction:ltr;block-progression:tb;writing-mode:lr-tb;text-anchor:start;color:#000000;fill:url(#linearGradient4399);fill-opacity:1;stroke:none;stroke-width:2.07549809999999990;marker:none;visibility:visible;display:inline;overflow:visible;enable-background:accumulate;font-family:Bitstream Vera Sans;-inkscape-font-specification:Bitstream Vera Sans"
         d="m 56.970012,962.91661 c -7.209535,3.38592 -10.463344,11.82144 -7.586004,19.13335 0.0025,0.01 0.01115,0.019 0.01318,0.0281 0.03506,0.14429 0.09206,0.26943 0.15774,0.40928 l 0.212549,0.45256 c 0.02974,0.10027 0.07467,0.19595 0.132843,0.28286 l 2.497453,5.31775 c 0.525451,1.11882 1.845918,1.61881 2.964752,1.09336 l 0.367717,-0.1727 c 1.118825,-0.52545 1.577288,-1.86091 1.051837,-2.97974 l -2.842844,-6.05317 c -0.525464,-1.11885 -1.832678,-1.5906 -2.951503,-1.06515 l 0.0072,-0.004 c -1.350695,-5.82968 1.225973,-11.89988 6.865239,-14.54835 5.639267,-2.64845 11.969791,-0.76145 15.593511,4.00072 l -0.0072,0.004 c -1.118826,0.52545 -1.590551,1.83268 -1.065088,2.95153 l 2.842845,6.05318 c 0.525451,1.11882 1.845927,1.61881 2.964752,1.09335 l 0.367716,-0.17269 c 1.118824,-0.52545 1.577287,-1.86092 1.051836,-2.97974 l -2.510758,-5.34607 c -0.02804,-0.0896 -0.06842,-0.17557 -0.119541,-0.25453 l -0.212549,-0.45257 c -0.06568,-0.13984 -0.125937,-0.26345 -0.21422,-0.38274 -0.006,-0.009 -0.0076,-0.0207 -0.01318,-0.0281 -3.789466,-6.88353 -12.35887,-9.76633 -19.568395,-6.38041 z"
         id="path4391"
         sodipodi:nodetypes="ccsccccccccccsccccccccccscc" />
      <path
         style="fill:url(#linearGradient4455);fill-opacity:1;stroke:none"
         d="m 57.635964,972.36213 c -0.819628,-0.0533 -1.475131,0.60491 -1.20228,1.27388 0.819895,5.95743 1.63979,11.91485 2.459685,17.87228 0.193726,0.35406 -0.472767,0.49475 -0.694949,0.74678 -0.50627,0.3878 -1.097027,0.71049 -1.549028,1.14011 0.403856,0.53754 1.3405,0.48319 2.028106,0.49798 3.821624,-0.01 7.644663,0.019 11.465392,-0.0144 0.643551,0.0483 1.784345,-0.43633 0.842635,-0.84674 -0.625245,-0.44071 -1.250491,-0.88143 -1.875736,-1.32214 0.230223,-0.84964 0.260204,-1.73912 0.409347,-2.60486 0.728016,-5.28984 1.456034,-10.57967 2.184052,-15.86951 0.0054,-0.76007 -1.022774,-0.93318 -1.729212,-0.87333 -4.112672,0 -8.225342,0 -12.338012,0 z"
         id="path4447"
         inkscape:connector-curvature="0" />
    </g>
    <g
       id="g3080">
      <path
         sodipodi:type="inkscape:offset"
         inkscape:radius="1.1220207"
         inkscape:original="M 23.8125 5.125 C 15.84746 5.125 9.31636 11.37725 8.8125 19.21875 C 8.8105 19.22875 8.8145 19.241 8.8125 19.25 C 8.7829 19.3955 8.78125 19.533 8.78125 19.6875 L 8.78125 20.1875 C 8.76555 20.2909 8.76555 20.3966 8.78125 20.5 L 8.78125 26.375 C 8.78125 27.61107 9.7639195 28.625 11 28.625 L 11.40625 28.625 C 12.64232 28.625 13.625 27.61107 13.625 26.375 L 13.625 19.6875 C 13.625 18.4514 12.64232 17.46875 11.40625 17.46875 C 12.66186 11.61785 17.58228 7.21875 23.8125 7.21875 C 30.04272 7.21875 34.96314 11.61785 36.21875 17.46875 C 34.98268 17.46875 34 18.4514 34 19.6875 L 34 26.375 C 34 27.61107 34.98268 28.625 36.21875 28.625 L 36.625 28.625 C 37.861068 28.625 38.84375 27.61107 38.84375 26.375 L 38.84375 20.46875 C 38.85645 20.37575 38.85645 20.2807 38.84375 20.1875 L 38.84375 19.6875 C 38.84375 19.533 38.84175 19.3955 38.8125 19.25 C 38.8105 19.24 38.8145 19.22775 38.8125 19.21875 C 38.30865 11.37725 31.77753 5.125 23.8125 5.125 z M 20.21875 14.34375 C 17.289938 14.34375 14.9375 16.696188 14.9375 19.625 L 14.9375 26.8125 C 14.9375 29.741312 17.289938 32.09375 20.21875 32.09375 L 27.375 32.09375 C 30.303812 32.09375 32.65625 29.741312 32.65625 26.8125 L 32.65625 19.625 C 32.65625 16.696188 30.303812 14.34375 27.375 14.34375 L 20.21875 14.34375 z "
         style="font-size:medium;font-style:normal;font-variant:normal;font-weight:normal;font-stretch:normal;text-indent:0;text-align:start;text-decoration:none;line-height:normal;letter-spacing:normal;word-spacing:normal;text-transform:none;direction:ltr;block-progression:tb;writing-mode:lr-tb;text-anchor:start;color:#000000;fill:#eeeeec;fill-opacity:1;stroke:none;stroke-width:2.07549809999999990;marker:none;visibility:visible;display:inline;overflow:visible;enable-background:accumulate;font-family:Bitstream Vera Sans;-inkscape-font-specification:Bitstream Vera Sans;opacity:0.50000000000000000;filter:url(#filter4333)"
         id="path3547"
         d="M 23.8125,4 C 15.314616,4 8.3381666,10.652583 7.71875,19 a 1.1221329,1.1221329 0 0 0 0,0.03125 c -0.00311,0.04304 -0.028479,0.08187 -0.03125,0.125 -6.8e-6,-9.36e-4 0.031252,9.55e-4 0.03125,0 -0.010354,0.07321 -0.027122,0.122967 -0.03125,0.1875 -0.00751,0.11747 -0.03125,0.258672 -0.03125,0.34375 l 0,0.5 0.03125,0 c -0.00818,0.108282 -0.00818,0.204218 0,0.3125 l -0.03125,0 0,5.875 c 0,1.830737 1.49409,3.375 3.34375,3.375 l 0.40625,0 c 1.127905,0 2.083049,-0.60636 2.6875,-1.46875 0.678485,2.807197 3.112944,4.9375 6.125,4.9375 l 7.15625,0 c 3.022662,0 5.457259,-2.146636 6.125,-4.96875 0.601813,0.88243 1.575202,1.5 2.71875,1.5 l 0.40625,0 c 1.849654,0 3.34375,-1.544255 3.34375,-3.375 l 0,-5.75 0,-0.15625 c 0.006,-0.09236 0.0059,-0.188944 0,-0.28125 l 0,-0.15625 0,-0.34375 c 0,-0.08597 -0.02372,-0.226818 -0.03125,-0.34375 1.77e-4,-0.0019 -0.0019,-0.13152 0,-0.1875 -0.0028,-0.04313 -0.02814,-0.08196 -0.03125,-0.125 -0.0051,-0.03475 0.0097,-0.01874 0,-0.0625 C 39.271856,10.635908 32.299852,4 23.8125,4 z m 0,4.34375 c 5.334368,0 9.4681,3.55474 10.9375,8.40625 -0.546125,0.278441 -0.988171,0.701322 -1.3125,1.21875 -0.744271,-2.711775 -3.118321,-4.75 -6.0625,-4.75 l -7.15625,0 c -2.933573,0 -5.308411,2.021874 -6.0625,4.71875 C 13.833285,17.436762 13.408105,17.021803 12.875,16.75 14.3444,11.89849 18.478132,8.34375 23.8125,8.34375 z"
         transform="translate(0,956.36218)" />
      <path
         transform="translate(0,956.36218)"
         d="M 23.8125,4 C 15.314616,4 8.3381666,10.652583 7.71875,19 a 1.1221329,1.1221329 0 0 0 0,0.03125 c -0.00311,0.04304 -0.028479,0.08187 -0.03125,0.125 -6.8e-6,-9.36e-4 0.031252,9.55e-4 0.03125,0 -0.010354,0.07321 -0.027122,0.122967 -0.03125,0.1875 -0.00751,0.11747 -0.03125,0.258672 -0.03125,0.34375 l 0,0.5 0.03125,0 c -0.00818,0.108282 -0.00818,0.204218 0,0.3125 l -0.03125,0 0,5.875 c 0,1.830737 1.49409,3.375 3.34375,3.375 l 0.40625,0 c 1.127905,0 2.083049,-0.60636 2.6875,-1.46875 0.678485,2.807197 3.112944,4.9375 6.125,4.9375 l 7.15625,0 c 3.022662,0 5.457259,-2.146636 6.125,-4.96875 0.601813,0.88243 1.575202,1.5 2.71875,1.5 l 0.40625,0 c 1.849654,0 3.34375,-1.544255 3.34375,-3.375 l 0,-5.75 0,-0.15625 c 0.006,-0.09236 0.0059,-0.188944 0,-0.28125 l 0,-0.15625 0,-0.34375 c 0,-0.08597 -0.02372,-0.226818 -0.03125,-0.34375 1.77e-4,-0.0019 -0.0019,-0.13152 0,-0.1875 -0.0028,-0.04313 -0.02814,-0.08196 -0.03125,-0.125 -0.0051,-0.03475 0.0097,-0.01874 0,-0.0625 C 39.271856,10.635908 32.299852,4 23.8125,4 z m 0,4.34375 c 5.334368,0 9.4681,3.55474 10.9375,8.40625 -0.546125,0.278441 -0.988171,0.701322 -1.3125,1.21875 -0.744271,-2.711775 -3.118321,-4.75 -6.0625,-4.75 l -7.15625,0 c -2.933573,0 -5.308411,2.021874 -6.0625,4.71875 C 13.833285,17.436762 13.408105,17.021803 12.875,16.75 14.3444,11.89849 18.478132,8.34375 23.8125,8.34375 z"
         id="path3481"
         style="font-size:medium;font-style:normal;font-variant:normal;font-weight:normal;font-stretch:normal;text-indent:0;text-align:start;text-decoration:none;line-height:normal;letter-spacing:normal;word-spacing:normal;text-transform:none;direction:ltr;block-progression:tb;writing-mode:lr-tb;text-anchor:start;color:#000000;fill:url(#linearGradient4355);fill-opacity:1;stroke:none;stroke-width:2.07549809999999990;marker:none;visibility:visible;display:inline;overflow:visible;enable-background:accumulate;font-family:Bitstream Vera Sans;-inkscape-font-specification:Bitstream Vera Sans"
         inkscape:original="M 23.8125 5.125 C 15.84746 5.125 9.31636 11.37725 8.8125 19.21875 C 8.8105 19.22875 8.8145 19.241 8.8125 19.25 C 8.7829 19.3955 8.78125 19.533 8.78125 19.6875 L 8.78125 20.1875 C 8.76555 20.2909 8.76555 20.3966 8.78125 20.5 L 8.78125 26.375 C 8.78125 27.61107 9.7639195 28.625 11 28.625 L 11.40625 28.625 C 12.64232 28.625 13.625 27.61107 13.625 26.375 L 13.625 19.6875 C 13.625 18.4514 12.64232 17.46875 11.40625 17.46875 C 12.66186 11.61785 17.58228 7.21875 23.8125 7.21875 C 30.04272 7.21875 34.96314 11.61785 36.21875 17.46875 C 34.98268 17.46875 34 18.4514 34 19.6875 L 34 26.375 C 34 27.61107 34.98268 28.625 36.21875 28.625 L 36.625 28.625 C 37.861068 28.625 38.84375 27.61107 38.84375 26.375 L 38.84375 20.46875 C 38.85645 20.37575 38.85645 20.2807 38.84375 20.1875 L 38.84375 19.6875 C 38.84375 19.533 38.84175 19.3955 38.8125 19.25 C 38.8105 19.24 38.8145 19.22775 38.8125 19.21875 C 38.30865 11.37725 31.77753 5.125 23.8125 5.125 z M 20.21875 14.34375 C 17.289938 14.34375 14.9375 16.696188 14.9375 19.625 L 14.9375 26.8125 C 14.9375 29.741312 17.289938 32.09375 20.21875 32.09375 L 27.375 32.09375 C 30.303812 32.09375 32.65625 29.741312 32.65625 26.8125 L 32.65625 19.625 C 32.65625 16.696188 30.303812 14.34375 27.375 14.34375 L 20.21875 14.34375 z "
         inkscape:radius="1.1220207"
         sodipodi:type="inkscape:offset" />
      <rect
         ry="5.286665"
         rx="5.286665"
         y="970.55499"
         x="14.7732"
         height="17.736231"
         width="17.736231"
         id="rect4575"
         style="fill:#ff7403;fill-opacity:1;stroke:none;filter:url(#filter4581);opacity:0.57201646" />
      <path
         sodipodi:nodetypes="ccsccccccccccsccccccccccscc"
         id="path3592"
         d="m 23.8028,961.48643 c -7.96504,0 -14.4961405,6.2522 -15.0000005,14.0937 -0.002,0.01 0.002,0.022 0,0.031 -0.0296,0.1455 -0.0312,0.283 -0.0312,0.4375 l 0,0.5 c -0.0157,0.1034 -0.0157,0.2091 0,0.3125 l 0,5.875 c 0,1.23607 0.98267,2.24997 2.2187505,2.24997 l 0.40625,0 c 1.23607,0 2.21875,-1.0139 2.21875,-2.24997 l 0,-6.6875 c 0,-1.2361 -0.98268,-2.2188 -2.21875,-2.2188 l 0.008,0 c 1.25561,-5.8509 6.16831,-10.25 12.39853,-10.25 6.23022,0 11.15812,4.3991 12.41373,10.25 l -0.008,0 c -1.23607,0 -2.21875,0.9827 -2.21875,2.2188 l 0,6.6875 c 0,1.23607 0.98268,2.24997 2.21875,2.24997 l 0.40625,0 c 1.236068,0 2.218748,-1.0139 2.218748,-2.24997 l 0,-5.9063 c 0.0127,-0.093 0.0127,-0.188 0,-0.2812 l 0,-0.5 c 0,-0.1545 -0.002,-0.292 -0.0312,-0.4375 -0.002,-0.01 0.002,-0.022 0,-0.031 -0.50385,-7.8415 -7.034948,-14.0937 -14.999978,-14.0937 z"
         style="font-size:medium;font-style:normal;font-variant:normal;font-weight:normal;font-stretch:normal;text-indent:0;text-align:start;text-decoration:none;line-height:normal;letter-spacing:normal;word-spacing:normal;text-transform:none;direction:ltr;block-progression:tb;writing-mode:lr-tb;text-anchor:start;color:#000000;fill:#555753;fill-opacity:1;stroke:none;stroke-width:2.07549809999999990;marker:none;visibility:visible;display:inline;overflow:visible;enable-background:accumulate;font-family:Bitstream Vera Sans;-inkscape-font-specification:Bitstream Vera Sans"
         inkscape:connector-curvature="0" />
      <rect
         ry="5.286665"
         rx="5.286665"
         y="970.71527"
         x="14.933488"
         height="17.736231"
         width="17.736231"
         id="rect3311"
         style="fill:#f57900;fill-opacity:1;stroke:none" />
      <path
         inkscape:connector-curvature="0"
         style="font-size:medium;font-style:normal;font-variant:normal;font-weight:normal;font-stretch:normal;text-indent:0;text-align:start;text-decoration:none;line-height:normal;letter-spacing:normal;word-spacing:normal;text-transform:none;direction:ltr;block-progression:tb;writing-mode:lr-tb;text-anchor:start;color:#000000;fill:url(#linearGradient4435);fill-opacity:1;stroke:none;stroke-width:2.07549809999999990;marker:none;visibility:visible;display:inline;overflow:visible;enable-background:accumulate;font-family:Bitstream Vera Sans;-inkscape-font-specification:Bitstream Vera Sans"
         d="m 23.8028,961.48643 c -7.96504,0 -14.4961405,6.2522 -15.0000005,14.0937 -0.002,0.01 0.002,0.022 0,0.031 -0.0296,0.1455 -0.0312,0.283 -0.0312,0.4375 l 0,0.5 c -0.0157,0.1034 -0.0157,0.2091 0,0.3125 l 0,5.875 c 0,1.23607 0.98267,2.24997 2.2187505,2.24997 l 0.40625,0 c 1.23607,0 2.21875,-1.0139 2.21875,-2.24997 l 0,-6.6875 c 0,-1.2361 -0.98268,-2.2188 -2.21875,-2.2188 l 0.008,0 c 1.25561,-5.8509 6.16831,-10.25 12.39853,-10.25 6.23022,0 11.15812,4.3991 12.41373,10.25 l -0.008,0 c -1.23607,0 -2.21875,0.9827 -2.21875,2.2188 l 0,6.6875 c 0,1.23607 0.98268,2.24997 2.21875,2.24997 l 0.40625,0 c 1.236068,0 2.218748,-1.0139 2.218748,-2.24997 l 0,-5.9063 c 0.0127,-0.093 0.0127,-0.188 0,-0.2812 l 0,-0.5 c 0,-0.1545 -0.002,-0.292 -0.0312,-0.4375 -0.002,-0.01 0.002,-0.022 0,-0.031 -0.50385,-7.8415 -7.034948,-14.0937 -14.999978,-14.0937 z"
         id="path4427"
         sodipodi:nodetypes="ccsccccccccccsccccccccccscc" />
      <rect
         style="fill:url(#linearGradient4445);fill-opacity:1;stroke:none"
         id="rect4437"
         width="17.736231"
         height="17.736231"
         x="14.933488"
         y="970.71527"
         rx="5.286665"
         ry="5.286665" />
      <g
         id="g4555"
         transform="translate(-40.858685,-26.858938)"
         style="fill:#692f00;filter:url(#filter4551);fill-opacity:1">
        <path
           id="path4557"
           transform="translate(0,956.36218)"
           d="m 60.5,44.5 c -0.513358,0 -1.008716,0.04662 -1.5,0.125 l 0,2.03125 C 59.488232,46.556343 59.982233,46.5 60.5,46.5 c 4.142136,0 7.5,3.357864 7.5,7.5 0,0.506842 -0.06041,0.990108 -0.15625,1.46875 l 2.03125,0 C 69.9502,54.987231 70,54.502618 70,54 70,48.753295 65.746705,44.5 60.5,44.5 z"
           style="fill:#692f00;fill-opacity:1;stroke:none"
           inkscape:connector-curvature="0" />
        <path
           transform="matrix(1.5,0,0,1.5,-17.5,932.36218)"
           d="m 53,52 c 0,0.552285 -0.447715,1 -1,1 -0.552285,0 -1,-0.447715 -1,-1 0,-0.552285 0.447715,-1 1,-1 0.552285,0 1,0.447715 1,1 z"
           sodipodi:ry="1"
           sodipodi:rx="1"
           sodipodi:cy="52"
           sodipodi:cx="52"
           id="path4559"
           style="fill:#692f00;fill-opacity:1;stroke:none"
           sodipodi:type="arc" />
        <path
           id="path4561"
           transform="translate(0,956.36218)"
           d="m 60.5,48.5 c -0.524727,0 -1.019327,0.08152 -1.5,0.21875 l 0,2.125 C 59.452535,50.63022 59.966434,50.5 60.5,50.5 c 1.932997,0 3.5,1.567003 3.5,3.5 0,0.523607 -0.137663,1.022723 -0.34375,1.46875 l 2.125,0 C 65.913194,54.996711 66,54.514145 66,54 66,50.962434 63.537566,48.5 60.5,48.5 z"
           style="fill:#692f00;fill-opacity:1;stroke:none"
           inkscape:connector-curvature="0" />
      </g>
      <g
         id="g4563"
         transform="translate(-40.538109,-26.538362)"
         style="fill:#ff7506;fill-opacity:1;filter:url(#filter4571)">
        <path
           id="path4565"
           transform="translate(0,956.36218)"
           d="m 60.5,44.5 c -0.513358,0 -1.008716,0.04662 -1.5,0.125 l 0,2.03125 C 59.488232,46.556343 59.982233,46.5 60.5,46.5 c 4.142136,0 7.5,3.357864 7.5,7.5 0,0.506842 -0.06041,0.990108 -0.15625,1.46875 l 2.03125,0 C 69.9502,54.987231 70,54.502618 70,54 70,48.753295 65.746705,44.5 60.5,44.5 z"
           style="fill:#ff7506;fill-opacity:1;stroke:none"
           inkscape:connector-curvature="0" />
        <path
           transform="matrix(1.5,0,0,1.5,-17.5,932.36218)"
           d="m 53,52 c 0,0.552285 -0.447715,1 -1,1 -0.552285,0 -1,-0.447715 -1,-1 0,-0.552285 0.447715,-1 1,-1 0.552285,0 1,0.447715 1,1 z"
           sodipodi:ry="1"
           sodipodi:rx="1"
           sodipodi:cy="52"
           sodipodi:cx="52"
           id="path4567"
           style="fill:#ff7506;fill-opacity:1;stroke:none"
           sodipodi:type="arc" />
        <path
           id="path4569"
           transform="translate(0,956.36218)"
           d="m 60.5,48.5 c -0.524727,0 -1.019327,0.08152 -1.5,0.21875 l 0,2.125 C 59.452535,50.63022 59.966434,50.5 60.5,50.5 c 1.932997,0 3.5,1.567003 3.5,3.5 0,0.523607 -0.137663,1.022723 -0.34375,1.46875 l 2.125,0 C 65.913194,54.996711 66,54.514145 66,54 66,50.962434 63.537566,48.5 60.5,48.5 z"
           style="fill:#ff7506;fill-opacity:1;stroke:none"
           inkscape:connector-curvature="0" />
      </g>
      <g
         style="filter:url(#filter4551)"
         transform="translate(-40.698397,-26.69865)"
         id="g4538">
        <path
           inkscape:connector-curvature="0"
           style="fill:#eeeeec;fill-opacity:1;stroke:none"
           d="m 60.5,44.5 c -0.513358,0 -1.008716,0.04662 -1.5,0.125 l 0,2.03125 C 59.488232,46.556343 59.982233,46.5 60.5,46.5 c 4.142136,0 7.5,3.357864 7.5,7.5 0,0.506842 -0.06041,0.990108 -0.15625,1.46875 l 2.03125,0 C 69.9502,54.987231 70,54.502618 70,54 70,48.753295 65.746705,44.5 60.5,44.5 z"
           transform="translate(0,956.36218)"
           id="path4526" />
        <path
           sodipodi:type="arc"
           style="fill:#eeeeec;fill-opacity:1;stroke:none"
           id="path4518"
           sodipodi:cx="52"
           sodipodi:cy="52"
           sodipodi:rx="1"
           sodipodi:ry="1"
           d="m 53,52 c 0,0.552285 -0.447715,1 -1,1 -0.552285,0 -1,-0.447715 -1,-1 0,-0.552285 0.447715,-1 1,-1 0.552285,0 1,0.447715 1,1 z"
           transform="matrix(1.5,0,0,1.5,-17.5,932.36218)" />
        <path
           inkscape:connector-curvature="0"
           style="fill:#eeeeec;fill-opacity:1;stroke:none"
           d="m 60.5,48.5 c -0.524727,0 -1.019327,0.08152 -1.5,0.21875 l 0,2.125 C 59.452535,50.63022 59.966434,50.5 60.5,50.5 c 1.932997,0 3.5,1.567003 3.5,3.5 0,0.523607 -0.137663,1.022723 -0.34375,1.46875 l 2.125,0 C 65.913194,54.996711 66,54.514145 66,54 66,50.962434 63.537566,48.5 60.5,48.5 z"
           transform="translate(0,956.36218)"
           id="path4522" />
      </g>
    </g>
    <g
       id="g3490">
      <path
         sodipodi:type="inkscape:offset"
         inkscape:radius="0.19169477"
         inkscape:original="M 21 36.9375 C 12.534798 36.9375 5.586577 43.560162 4.96875 51.875 C 4.9647843 51.894829 4.9716298 51.888438 4.96875 51.90625 C 4.9656164 51.949558 4.9402887 51.987851 4.9375 52.03125 C 4.9379203 52.092158 4.9371561 52.21501 4.9375 52.21875 C 4.9301416 52.333888 4.90625 52.477652 4.90625 52.5625 L 4.90625 52.90625 L 4.90625 53.0625 C 4.8983006 53.167687 4.8983006 53.269813 4.90625 53.375 C 4.9102247 53.427594 4.8983006 53.478896 4.90625 53.53125 L 4.90625 59.25 C 4.90625 61.047984 6.3716688 62.5625 8.1875 62.5625 L 8.59375 62.5625 C 10.309419 62.5625 11.663191 61.196754 11.8125 59.53125 C 13.400781 63.050553 16.899446 65.53125 21 65.53125 C 25.100554 65.53125 28.599219 63.050553 30.1875 59.53125 C 30.336809 61.196754 31.690581 62.5625 33.40625 62.5625 L 33.8125 62.5625 C 35.628325 62.5625 37.09375 61.047991 37.09375 59.25 L 37.09375 53.5 L 37.09375 53.34375 C 37.099535 53.254035 37.099526 53.15217 37.09375 53.0625 L 37.09375 52.90625 L 37.09375 52.5625 C 37.09375 52.476814 37.069877 52.33338 37.0625 52.21875 C 37.062697 52.216607 37.062011 52.095017 37.0625 52.03125 C 37.059711 51.987851 37.034384 51.949558 37.03125 51.90625 C 37.027612 51.886278 37.03626 51.897545 37.03125 51.875 C 36.413433 43.56016 29.465193 36.9375 21 36.9375 z M 21 41.15625 C 26.371938 41.15625 30.530927 44.734876 32 49.625 C 31.208236 50.008758 30.596292 50.689738 30.3125 51.53125 C 28.785519 47.87085 25.202851 45.28125 21 45.28125 C 16.797149 45.28125 13.214481 47.87085 11.6875 51.53125 C 11.403708 50.689738 10.791764 50.008758 10 49.625 C 11.469073 44.734876 15.628063 41.15625 21 41.15625 z "
         style="font-size:medium;font-style:normal;font-variant:normal;font-weight:normal;font-stretch:normal;text-indent:0;text-align:start;text-decoration:none;line-height:normal;letter-spacing:normal;word-spacing:normal;text-transform:none;direction:ltr;block-progression:tb;writing-mode:lr-tb;text-anchor:start;color:#000000;fill:#eeeeec;fill-opacity:1;stroke:none;stroke-width:2.07549809999999990;marker:none;visibility:visible;display:inline;overflow:visible;enable-background:accumulate;font-family:Bitstream Vera Sans;-inkscape-font-specification:Bitstream Vera Sans;filter:url(#filter4345);opacity:0.5"
         id="path4343"
         d="m 21,36.75 c -8.554628,0 -15.5786177,6.695087 -16.21875,15.09375 -7.898e-4,0.01036 7.703e-4,0.02088 0,0.03125 a 0.19171394,0.19171394 0 0 0 0,0.03125 c 0.001,0.01255 -9.793e-4,0.02769 0,0.03125 -0.00669,0.0052 -0.025829,0.0094 -0.03125,0.09375 3.403e-4,0.04931 -2.361e-4,0.154234 0,0.1875 3.93e-5,0.0055 -4.91e-5,0.03072 0,0.03125 -0.00854,0.09573 -0.03125,0.202562 -0.03125,0.3125 l 0,0.34375 0,0.15625 c -0.00865,0.114484 -0.00865,0.198016 0,0.3125 9.148e-4,0.0121 -0.00536,0.08546 0,0.15625 0.00107,0.01416 -0.0025,0.01477 0,0.03125 l 0,5.6875 c 0,1.902143 1.5463286,3.5 3.46875,3.5 l 0.40625,0 c 1.625175,0 2.938896,-1.153778 3.3125,-2.65625 1.712614,3.321343 5.110126,5.625 9.09375,5.625 3.983624,0 7.381136,-2.303657 9.09375,-5.625 0.373604,1.502472 1.687325,2.65625 3.3125,2.65625 l 0.40625,0 c 1.922415,0 3.46875,-1.59785 3.46875,-3.5 l 0,-5.75 0,-0.15625 c 0.0064,-0.09903 0.0064,-0.182299 0,-0.28125 l 0,-0.15625 0,-0.34375 c 0,-0.110355 -0.0227,-0.217131 -0.03125,-0.3125 2.8e-5,-3.06e-4 -2.7e-5,-0.02592 0,-0.03125 1.61e-4,-0.03199 -3.98e-4,-0.135622 0,-0.1875 -0.0038,-0.0584 -0.02383,-0.04266 -0.03125,-0.0625 -0.0032,0.0074 -0.0027,-0.03708 0,-0.0625 0.0021,-0.01062 -1.85e-4,-0.02218 0,-0.03125 -7.7e-4,-0.01037 7.9e-4,-0.02089 0,-0.03125 C 36.578628,43.445085 29.554619,36.75 21,36.75 z m 0,4.59375 c 5.227314,0 9.260055,3.451749 10.75,8.1875 -0.635112,0.348883 -1.122222,0.908804 -1.4375,1.5625 -1.640442,-3.524729 -5.17956,-6 -9.3125,-6 -4.13294,0 -7.672058,2.475271 -9.3125,6 -0.315278,-0.653696 -0.802388,-1.213617 -1.4375,-1.5625 1.489945,-4.735751 5.522687,-8.1875 10.75,-8.1875 z"
         transform="translate(3.057507,956.95258)" />
      <path
         transform="translate(3.057507,956.95258)"
         d="m 21,36.75 c -8.554628,0 -15.5786177,6.695087 -16.21875,15.09375 -7.898e-4,0.01036 7.703e-4,0.02088 0,0.03125 a 0.19171394,0.19171394 0 0 0 0,0.03125 c 0.001,0.01255 -9.793e-4,0.02769 0,0.03125 -0.00669,0.0052 -0.025829,0.0094 -0.03125,0.09375 3.403e-4,0.04931 -2.361e-4,0.154234 0,0.1875 3.93e-5,0.0055 -4.91e-5,0.03072 0,0.03125 -0.00854,0.09573 -0.03125,0.202562 -0.03125,0.3125 l 0,0.34375 0,0.15625 c -0.00865,0.114484 -0.00865,0.198016 0,0.3125 9.148e-4,0.0121 -0.00536,0.08546 0,0.15625 0.00107,0.01416 -0.0025,0.01477 0,0.03125 l 0,5.6875 c 0,1.902143 1.5463286,3.5 3.46875,3.5 l 0.40625,0 c 1.625175,0 2.938896,-1.153778 3.3125,-2.65625 1.712614,3.321343 5.110126,5.625 9.09375,5.625 3.983624,0 7.381136,-2.303657 9.09375,-5.625 0.373604,1.502472 1.687325,2.65625 3.3125,2.65625 l 0.40625,0 c 1.922415,0 3.46875,-1.59785 3.46875,-3.5 l 0,-5.75 0,-0.15625 c 0.0064,-0.09903 0.0064,-0.182299 0,-0.28125 l 0,-0.15625 0,-0.34375 c 0,-0.110355 -0.0227,-0.217131 -0.03125,-0.3125 2.8e-5,-3.06e-4 -2.7e-5,-0.02592 0,-0.03125 1.61e-4,-0.03199 -3.98e-4,-0.135622 0,-0.1875 -0.0038,-0.0584 -0.02383,-0.04266 -0.03125,-0.0625 -0.0032,0.0074 -0.0027,-0.03708 0,-0.0625 0.0021,-0.01062 -1.85e-4,-0.02218 0,-0.03125 -7.7e-4,-0.01037 7.9e-4,-0.02089 0,-0.03125 C 36.578628,43.445085 29.554619,36.75 21,36.75 z m 0,4.59375 c 5.227314,0 9.260055,3.451749 10.75,8.1875 -0.635112,0.348883 -1.122222,0.908804 -1.4375,1.5625 -1.640442,-3.524729 -5.17956,-6 -9.3125,-6 -4.13294,0 -7.672058,2.475271 -9.3125,6 -0.315278,-0.653696 -0.802388,-1.213617 -1.4375,-1.5625 1.489945,-4.735751 5.522687,-8.1875 10.75,-8.1875 z"
         id="path3521"
         style="font-size:medium;font-style:normal;font-variant:normal;font-weight:normal;font-stretch:normal;text-indent:0;text-align:start;text-decoration:none;line-height:normal;letter-spacing:normal;word-spacing:normal;text-transform:none;direction:ltr;block-progression:tb;writing-mode:lr-tb;text-anchor:start;color:#000000;fill:url(#linearGradient4371);fill-opacity:1;stroke:none;stroke-width:2.07549809999999990;marker:none;visibility:visible;display:inline;overflow:visible;enable-background:accumulate;font-family:Bitstream Vera Sans;-inkscape-font-specification:Bitstream Vera Sans"
         inkscape:original="M 21 36.9375 C 12.534798 36.9375 5.586577 43.560162 4.96875 51.875 C 4.9647843 51.894829 4.9716298 51.888438 4.96875 51.90625 C 4.9656164 51.949558 4.9402887 51.987851 4.9375 52.03125 C 4.9379203 52.092158 4.9371561 52.21501 4.9375 52.21875 C 4.9301416 52.333888 4.90625 52.477652 4.90625 52.5625 L 4.90625 52.90625 L 4.90625 53.0625 C 4.8983006 53.167687 4.8983006 53.269813 4.90625 53.375 C 4.9102247 53.427594 4.8983006 53.478896 4.90625 53.53125 L 4.90625 59.25 C 4.90625 61.047984 6.3716688 62.5625 8.1875 62.5625 L 8.59375 62.5625 C 10.309419 62.5625 11.663191 61.196754 11.8125 59.53125 C 13.400781 63.050553 16.899446 65.53125 21 65.53125 C 25.100554 65.53125 28.599219 63.050553 30.1875 59.53125 C 30.336809 61.196754 31.690581 62.5625 33.40625 62.5625 L 33.8125 62.5625 C 35.628325 62.5625 37.09375 61.047991 37.09375 59.25 L 37.09375 53.5 L 37.09375 53.34375 C 37.099535 53.254035 37.099526 53.15217 37.09375 53.0625 L 37.09375 52.90625 L 37.09375 52.5625 C 37.09375 52.476814 37.069877 52.33338 37.0625 52.21875 C 37.062697 52.216607 37.062011 52.095017 37.0625 52.03125 C 37.059711 51.987851 37.034384 51.949558 37.03125 51.90625 C 37.027612 51.886278 37.03626 51.897545 37.03125 51.875 C 36.413433 43.56016 29.465193 36.9375 21 36.9375 z M 21 41.15625 C 26.371938 41.15625 30.530927 44.734876 32 49.625 C 31.208236 50.008758 30.596292 50.689738 30.3125 51.53125 C 28.785519 47.87085 25.202851 45.28125 21 45.28125 C 16.797149 45.28125 13.214481 47.87085 11.6875 51.53125 C 11.403708 50.689738 10.791764 50.008758 10 49.625 C 11.469073 44.734876 15.628063 41.15625 21 41.15625 z "
         inkscape:radius="0.19169477"
         sodipodi:type="inkscape:offset" />
      <path
         transform="matrix(1.0366972,0,0,1.0366972,3.124669,956.79732)"
         d="m 28.771815,53.443359 c 0,4.824612 -3.91112,8.735732 -8.735732,8.735732 -4.824611,0 -8.735732,-3.91112 -8.735732,-8.735732 0,-4.824611 3.911121,-8.735732 8.735732,-8.735732 4.824612,0 8.735732,3.911121 8.735732,8.735732 z"
         sodipodi:ry="8.7357321"
         sodipodi:rx="8.7357321"
         sodipodi:cy="53.443359"
         sodipodi:cx="20.036083"
         id="path4595"
         style="fill:#6ed908;fill-opacity:1;stroke:none;filter:url(#filter4601);opacity:0.76954733"
         sodipodi:type="arc" />
      <path
         sodipodi:nodetypes="ccsccccccccccsccccccccccscc"
         id="path3592-6"
         d="m 24.057507,994.95258 c -7.96504,0 -14.496141,6.25222 -15.000001,14.09362 -0.002,0.01 0.002,0.022 0,0.031 -0.0296,0.1455 -0.0312,0.283 -0.0312,0.4375 l 0,0.5 c -0.0157,0.1034 -0.0157,0.2091 0,0.3125 l 0,5.875 c 0,1.2361 0.98267,2.25 2.218751,2.25 l 0.40625,0 c 1.23607,0 2.21875,-1.0139 2.21875,-2.25 l 0,-6.6875 c 0,-1.2361 -0.98268,-2.2188 -2.21875,-2.2188 l 0.008,0 c 1.25561,-5.8508 6.16831,-10.24992 12.398529,-10.24992 6.23022,0 11.15812,4.39912 12.41373,10.24992 l -0.008,0 c -1.23607,0 -2.21875,0.9827 -2.21875,2.2188 l 0,6.6875 c 0,1.2361 0.98268,2.25 2.21875,2.25 l 0.40625,0 c 1.236068,0 2.218748,-1.0139 2.218748,-2.25 l 0,-5.9063 c 0.0127,-0.093 0.0127,-0.188 0,-0.2812 l 0,-0.5 c 0,-0.1545 -0.002,-0.292 -0.0312,-0.4375 -0.002,-0.01 0.002,-0.022 0,-0.031 -0.50385,-7.8414 -7.034948,-14.09362 -14.999978,-14.09362 z"
         style="font-size:medium;font-style:normal;font-variant:normal;font-weight:normal;font-stretch:normal;text-indent:0;text-align:start;text-decoration:none;line-height:normal;letter-spacing:normal;word-spacing:normal;text-transform:none;direction:ltr;block-progression:tb;writing-mode:lr-tb;text-anchor:start;color:#000000;fill:#555753;fill-opacity:1;stroke:none;stroke-width:2.07549809999999990;marker:none;visibility:visible;display:inline;overflow:visible;enable-background:accumulate;font-family:Bitstream Vera Sans;-inkscape-font-specification:Bitstream Vera Sans"
         inkscape:connector-curvature="0" />
      <path
         transform="matrix(1.0366972,0,0,1.0366972,3.2849576,956.9576)"
         d="m 28.771815,53.443359 c 0,4.824612 -3.91112,8.735732 -8.735732,8.735732 -4.824611,0 -8.735732,-3.91112 -8.735732,-8.735732 0,-4.824611 3.911121,-8.735732 8.735732,-8.735732 4.824612,0 8.735732,3.911121 8.735732,8.735732 z"
         sodipodi:ry="8.7357321"
         sodipodi:rx="8.7357321"
         sodipodi:cy="53.443359"
         sodipodi:cx="20.036083"
         id="path3426"
         style="fill:#4e9a06;fill-opacity:1;stroke:none"
         sodipodi:type="arc" />
      <path
         inkscape:connector-curvature="0"
         style="font-size:medium;font-style:normal;font-variant:normal;font-weight:normal;font-stretch:normal;text-indent:0;text-align:start;text-decoration:none;line-height:normal;letter-spacing:normal;word-spacing:normal;text-transform:none;direction:ltr;block-progression:tb;writing-mode:lr-tb;text-anchor:start;color:#000000;fill:url(#linearGradient4409);fill-opacity:1;stroke:none;stroke-width:2.07549809999999990;marker:none;visibility:visible;display:inline;overflow:visible;enable-background:accumulate;font-family:Bitstream Vera Sans;-inkscape-font-specification:Bitstream Vera Sans"
         d="m 24.057507,994.95258 c -7.96504,0 -14.496141,6.25222 -15.000001,14.09362 -0.002,0.01 0.002,0.022 0,0.031 -0.0296,0.1455 -0.0312,0.283 -0.0312,0.4375 l 0,0.5 c -0.0157,0.1034 -0.0157,0.2091 0,0.3125 l 0,5.875 c 0,1.2361 0.98267,2.25 2.218751,2.25 l 0.40625,0 c 1.23607,0 2.21875,-1.0139 2.21875,-2.25 l 0,-6.6875 c 0,-1.2361 -0.98268,-2.2188 -2.21875,-2.2188 l 0.008,0 c 1.25561,-5.8508 6.16831,-10.24992 12.398529,-10.24992 6.23022,0 11.15812,4.39912 12.41373,10.24992 l -0.008,0 c -1.23607,0 -2.21875,0.9827 -2.21875,2.2188 l 0,6.6875 c 0,1.2361 0.98268,2.25 2.21875,2.25 l 0.40625,0 c 1.236068,0 2.218748,-1.0139 2.218748,-2.25 l 0,-5.9063 c 0.0127,-0.093 0.0127,-0.188 0,-0.2812 l 0,-0.5 c 0,-0.1545 -0.002,-0.292 -0.0312,-0.4375 -0.002,-0.01 0.002,-0.022 0,-0.031 -0.50385,-7.8414 -7.034948,-14.09362 -14.999978,-14.09362 z"
         id="path4401"
         sodipodi:nodetypes="ccsccccccccccsccccccccccscc" />
      <path
         sodipodi:type="arc"
         style="fill:url(#linearGradient4465);fill-opacity:1;stroke:none"
         id="path4457"
         sodipodi:cx="20.036083"
         sodipodi:cy="53.443359"
         sodipodi:rx="8.7357321"
         sodipodi:ry="8.7357321"
         d="m 28.771815,53.443359 c 0,4.824612 -3.91112,8.735732 -8.735732,8.735732 -4.824611,0 -8.735732,-3.91112 -8.735732,-8.735732 0,-4.824611 3.911121,-8.735732 8.735732,-8.735732 4.824612,0 8.735732,3.911121 8.735732,8.735732 z"
         transform="matrix(1.0366972,0,0,1.0366972,3.2849576,956.9576)" />
      <path
         style="fill:#2c4d0b;fill-opacity:1;stroke:none;filter:url(#filter4736);opacity:0.83539095"
         d="m 22.239305,1005.7013 c -0.617341,0.1433 -0.53338,0.8908 -0.686523,1.3739 -0.574416,2.7149 -1.148831,5.4298 -1.723247,8.1447 -0.524966,0.056 -1.129592,-0.1471 -1.579363,0.1877 -0.549389,0.5759 0.183272,1.2822 0.821789,1.0975 0.51761,-0.035 1.063898,0.085 1.556862,-0.09 0.542659,-0.4367 0.467595,-1.1999 0.657136,-1.8145 0.364638,-1.7212 0.729277,-3.4426 1.093915,-5.1639 0.470675,2.1902 0.915828,4.3868 1.402519,6.5729 0.275122,0.6751 1.059335,0.462 1.629624,0.4958 0.41946,-0.114 0.315343,0.4521 0.448802,0.7095 0.177083,0.4614 0.137113,1.0566 0.541448,1.3882 0.553736,0.3271 1.175942,-0.1016 1.195959,-0.7044 0.128121,-0.4644 0.256241,-0.9289 0.384362,-1.3933 0.518355,-0.055 1.116087,0.1468 1.559282,-0.1878 0.549389,-0.5759 -0.183272,-1.2821 -0.821789,-1.0974 -0.481933,0.019 -0.973017,-0.042 -1.448329,0.037 -0.462568,0.1222 -0.375742,1.0136 -0.601963,0.2745 -0.449549,-0.4901 -1.168779,-0.2569 -1.759657,-0.3115 -0.652843,-3.047 -1.274741,-6.102 -1.946978,-9.144 -0.111145,-0.2758 -0.435473,-0.4377 -0.723849,-0.3746 z"
         id="path4726"
         inkscape:connector-curvature="0" />
      <path
         inkscape:connector-curvature="0"
         id="rect4605"
         d="m 22.399593,1005.8615 c -0.617341,0.1433 -0.53338,0.8908 -0.686523,1.3739 -0.574416,2.7149 -1.148831,5.4298 -1.723247,8.1447 -0.524966,0.056 -1.129592,-0.1471 -1.579363,0.1877 -0.549389,0.5759 0.183272,1.2822 0.821789,1.0975 0.51761,-0.035 1.063898,0.085 1.556862,-0.09 0.542659,-0.4367 0.467595,-1.1999 0.657136,-1.8145 0.364638,-1.7212 0.729277,-3.4426 1.093915,-5.1639 0.470675,2.1902 0.915828,4.3868 1.402519,6.5729 0.275122,0.6751 1.059335,0.462 1.629624,0.4958 0.41946,-0.114 0.315343,0.4521 0.448802,0.7095 0.177083,0.4614 0.137113,1.0566 0.541448,1.3882 0.553736,0.3271 1.175942,-0.1016 1.195959,-0.7044 0.128121,-0.4644 0.256241,-0.9289 0.384362,-1.3933 0.518355,-0.055 1.116087,0.1468 1.559282,-0.1878 0.549389,-0.5759 -0.183272,-1.2821 -0.821789,-1.0974 -0.481933,0.019 -0.973017,-0.042 -1.448329,0.037 -0.462568,0.1222 -0.375742,1.0136 -0.601963,0.2745 -0.449549,-0.4901 -1.168779,-0.2569 -1.759657,-0.3115 -0.652843,-3.047 -1.274741,-6.102 -1.946978,-9.144 -0.111145,-0.2758 -0.435473,-0.4377 -0.723849,-0.3746 z"
         style="fill:#8ae234;fill-opacity:1;stroke:none" />
      <path
         inkscape:connector-curvature="0"
         id="path4754"
         d="m 22.479737,1006.0217 c -0.617341,0.1433 -0.53338,0.8908 -0.686523,1.3739 -0.574416,2.7149 -1.148831,5.4298 -1.723247,8.1447 -0.524966,0.056 -1.129592,-0.1471 -1.579363,0.1877 -0.549389,0.5759 0.183272,1.2822 0.821789,1.0975 0.51761,-0.035 1.063898,0.085 1.556862,-0.09 0.542659,-0.4367 0.467595,-1.1999 0.657136,-1.8145 0.364638,-1.7212 0.729277,-3.4426 1.093915,-5.1639 0.470675,2.1902 0.915828,4.3868 1.402519,6.5729 0.275122,0.6751 1.059335,0.462 1.629624,0.4958 0.41946,-0.114 0.315343,0.4521 0.448802,0.7095 0.177083,0.4614 0.137113,1.0566 0.541448,1.3882 0.553736,0.3271 1.175942,-0.1016 1.195959,-0.7044 0.128121,-0.4644 0.256241,-0.9289 0.384362,-1.3933 0.518355,-0.055 1.116087,0.1468 1.559282,-0.1878 0.549389,-0.5759 -0.183272,-1.2821 -0.821789,-1.0974 -0.481933,0.019 -0.973017,-0.042 -1.448329,0.037 -0.462568,0.1222 -0.375742,1.0136 -0.601963,0.2745 -0.449549,-0.4901 -1.168779,-0.2569 -1.759657,-0.3115 -0.652843,-3.047 -1.274741,-6.102 -1.946978,-9.144 -0.111145,-0.2758 -0.435473,-0.4377 -0.723849,-0.3746 z"
         style="opacity:0.62551436999999999;fill:#8ae234;fill-opacity:1;stroke:none;filter:url(#filter4772)" />
      <path
         style="fill:#b6ed81;fill-opacity:1;stroke:none"
         d="m 22.399593,1005.8615 c -0.617341,0.1433 -0.53338,0.8908 -0.686523,1.3739 -0.574416,2.7149 -1.148831,5.4298 -1.723247,8.1447 -0.524966,0.056 -1.129592,-0.1471 -1.579363,0.1877 -0.549389,0.5759 0.183272,1.2822 0.821789,1.0975 0.51761,-0.035 1.063898,0.085 1.556862,-0.09 0.542659,-0.4367 0.467595,-1.1999 0.657136,-1.8145 0.364638,-1.7212 0.729277,-3.4426 1.093915,-5.1639 0.470675,2.1902 0.915828,4.3868 1.402519,6.5729 0.275122,0.6751 1.059335,0.462 1.629624,0.4958 0.41946,-0.114 0.315343,0.4521 0.448802,0.7095 0.177083,0.4614 0.137113,1.0566 0.541448,1.3882 0.553736,0.3271 1.175942,-0.1016 1.195959,-0.7044 0.128121,-0.4644 0.256241,-0.9289 0.384362,-1.3933 0.518355,-0.055 1.116087,0.1468 1.559282,-0.1878 0.549389,-0.5759 -0.183272,-1.2821 -0.821789,-1.0974 -0.481933,0.019 -0.973017,-0.042 -1.448329,0.037 -0.462568,0.1222 -0.375742,1.0136 -0.601963,0.2745 -0.449549,-0.4901 -1.168779,-0.2569 -1.759657,-0.3115 -0.652843,-3.047 -1.274741,-6.102 -1.946978,-9.144 -0.111145,-0.2758 -0.435473,-0.4377 -0.723849,-0.3746 z"
         id="path4742"
         inkscape:connector-curvature="0" />
    </g>
  </g>
  <g
     inkscape:groupmode="layer"
     id="layer2"
     inkscape:label="Layer"
     style="display:inline" />
</svg>
