<?xml version="1.0" encoding="UTF-8" standalone="no"?>
<!-- Created with Inkscape (http://www.inkscape.org/) -->

<svg
   xmlns:dc="http://purl.org/dc/elements/1.1/"
   xmlns:cc="http://creativecommons.org/ns#"
   xmlns:rdf="http://www.w3.org/1999/02/22-rdf-syntax-ns#"
   xmlns:svg="http://www.w3.org/2000/svg"
   xmlns="http://www.w3.org/2000/svg"
   xmlns:xlink="http://www.w3.org/1999/xlink"
   xmlns:sodipodi="http://sodipodi.sourceforge.net/DTD/sodipodi-0.dtd"
   xmlns:inkscape="http://www.inkscape.org/namespaces/inkscape"
   width="32"
   height="32"
   id="svg2"
   version="1.1"
   inkscape:version="0.47 r22583"
   sodipodi:docname="headphones.svg"
   inkscape:export-filename="/Users/sergio/Projects/Eclipse/android-radio-t/artwork/podcast-icon.png"
   inkscape:export-xdpi="90"
   inkscape:export-ydpi="90">
  <defs
     id="defs4">
    <linearGradient
       id="linearGradient3708">
      <stop
         style="stop-color:#ffffff;stop-opacity:1;"
         offset="0"
         id="stop3710" />
      <stop
         style="stop-color:#ffffff;stop-opacity:0.74796748;"
         offset="1"
         id="stop3712" />
    </linearGradient>
    <inkscape:perspective
       sodipodi:type="inkscape:persp3d"
       inkscape:vp_x="0 : 526.18109 : 1"
       inkscape:vp_y="0 : 1000 : 0"
       inkscape:vp_z="744.09448 : 526.18109 : 1"
       inkscape:persp3d-origin="372.04724 : 350.78739 : 1"
       id="perspective10" />
    <linearGradient
       inkscape:collect="always"
       xlink:href="#linearGradient3708"
       id="linearGradient3714"
       x1="16.178661"
       y1="1054.9312"
       x2="16.178661"
       y2="1081.4312"
       gradientUnits="userSpaceOnUse"
       gradientTransform="translate(-0.17207162,-31.833248)" />
    <clipPath
       clipPathUnits="userSpaceOnUse"
       id="clipPath3757">
      <path
         id="path3759"
         d="m 16.007714,1023.0979 c -7.9650361,0 -14.4961348,6.2522 -14.9999998,14.0937 -0.0021,0.01 0.002,0.022 0,0.031 -0.02962,0.1455 -0.03125,0.283 -0.03125,0.4375 l 0,0.5 c -0.01574,0.1034 -0.01574,0.2091 0,0.3125 l 0,5.875 c 0,1.2361 0.982677,2.25 2.21875,2.25 l 0.40625,0 c 1.236073,0 2.21875,-1.0139 2.21875,-2.25 l 0,-6.6875 c 0,-1.2361 -0.982677,-2.2188 -2.21875,-2.2188 1.255616,-5.8509 6.1760297,-10.25 12.4062498,-10.25 6.23022,0 11.150638,4.3991 12.40625,10.25 -1.236073,0 -2.21875,0.9827 -2.21875,2.2188 l 0,6.6875 c 0,1.2361 0.982677,2.25 2.21875,2.25 l 0.40625,0 c 1.236073,0 2.21875,-1.0139 2.21875,-2.25 l 0,-5.9063 c 0.01274,-0.093 0.01274,-0.188 0,-0.2812 l 0,-0.5 c 0,-0.1545 -0.0016,-0.292 -0.03125,-0.4375 -0.002,-0.01 0.0021,-0.022 0,-0.031 -0.50385,-7.8415 -7.034965,-14.0937 -15,-14.0937 z m 0,8.5937 c -4.939064,0 -8.9374998,3.9984 -8.9374998,8.9375 0,4.939 3.9984358,8.9688 8.9374998,8.9688 4.939064,0 8.9375,-4.0298 8.9375,-8.9688 0,-4.9391 -3.998436,-8.9375 -8.9375,-8.9375 z m -3.96875,4.5 7.90625,0 0,2.1875 -2.84375,0 0,6.6875 -2.1875,0 0,-6.6875 -2.875,0 0,-2.1875 z"
         style="font-size:medium;font-style:normal;font-variant:normal;font-weight:normal;font-stretch:normal;text-indent:0;text-align:start;text-decoration:none;line-height:normal;letter-spacing:normal;word-spacing:normal;text-transform:none;direction:ltr;block-progression:tb;writing-mode:lr-tb;text-anchor:start;color:#000000;fill:url(#linearGradient3761);fill-opacity:1;stroke:none;stroke-width:2.0754981;marker:none;visibility:visible;display:inline;overflow:visible;enable-background:accumulate;font-family:Bitstream Vera Sans;-inkscape-font-specification:Bitstream Vera Sans" />
    </clipPath>
    <linearGradient
       inkscape:collect="always"
       xlink:href="#linearGradient3708"
       id="linearGradient3761"
       gradientUnits="userSpaceOnUse"
       gradientTransform="translate(-0.17207162,-31.833248)"
       x1="16.178661"
       y1="1054.9312"
       x2="16.178661"
       y2="1081.4312" />
    <filter
       inkscape:collect="always"
       id="filter3817">
      <feGaussianBlur
         inkscape:collect="always"
         stdDeviation="0.66827432"
         id="feGaussianBlur3819" />
    </filter>
    <linearGradient
       inkscape:collect="always"
       xlink:href="#linearGradient3708"
       id="linearGradient3869"
       gradientUnits="userSpaceOnUse"
       gradientTransform="translate(32.951714,-17.121125)"
       x1="16.178661"
       y1="1054.9312"
       x2="16.178661"
       y2="1081.4312" />
    <linearGradient
       inkscape:collect="always"
       xlink:href="#linearGradient3708"
       id="linearGradient3875"
       gradientUnits="userSpaceOnUse"
       gradientTransform="translate(32.951714,-17.121125)"
       x1="16.178661"
       y1="1054.9312"
       x2="16.178661"
       y2="1081.4312" />
  </defs>
  <sodipodi:namedview
     id="base"
     pagecolor="#000000"
     bordercolor="#666666"
     borderopacity="1.0"
     inkscape:pageopacity="0.56862745"
     inkscape:pageshadow="2"
     inkscape:zoom="11.623068"
     inkscape:cx="26.498409"
     inkscape:cy="14.575275"
     inkscape:document-units="px"
     inkscape:current-layer="layer1"
     showgrid="true"
     inkscape:window-width="1280"
     inkscape:window-height="774"
     inkscape:window-x="0"
     inkscape:window-y="0"
     inkscape:window-maximized="0">
    <inkscape:grid
       type="xygrid"
       id="grid2816"
       empspacing="5"
       visible="true"
       enabled="false"
       snapvisiblegridlinesonly="true"
       dotted="true" />
  </sodipodi:namedview>
  <metadata
     id="metadata7">
    <rdf:RDF>
      <cc:Work
         rdf:about="">
        <dc:format>image/svg+xml</dc:format>
        <dc:type
           rdf:resource="http://purl.org/dc/dcmitype/StillImage" />
        <dc:title></dc:title>
      </cc:Work>
    </rdf:RDF>
  </metadata>
  <g
     inkscape:label="Layer 1"
     inkscape:groupmode="layer"
     id="layer1"
     transform="translate(0,-1020.3622)">
    <path
       style="font-size:medium;font-style:normal;font-variant:normal;font-weight:normal;font-stretch:normal;text-indent:0;text-align:start;text-decoration:none;line-height:normal;letter-spacing:normal;word-spacing:normal;text-transform:none;direction:ltr;block-progression:tb;writing-mode:lr-tb;text-anchor:start;color:#000000;fill:#ffffff;fill-opacity:1;stroke:none;stroke-width:2.0754981;marker:none;visibility:visible;display:inline;overflow:visible;enable-background:accumulate;font-family:Bitstream Vera Sans;-inkscape-font-specification:Bitstream Vera Sans"
       d="m 48.779642,1020.7835 c -7.965036,0 -14.496135,6.2522 -15,14.0937 -0.0021,0.01 0.002,0.022 0,0.031 -0.02962,0.1455 -0.03125,0.283 -0.03125,0.4375 l 0,0.5 c -0.01574,0.1034 -0.01574,0.2091 0,0.3125 l 0,5.875 c 0,1.2361 0.982677,2.25 2.21875,2.25 l 0.40625,0 c 1.236073,0 2.21875,-1.0139 2.21875,-2.25 l 0,-6.6875 c 0,-1.2361 -0.982677,-2.2188 -2.21875,-2.2188 l 0.0077,0 c 1.255616,-5.8509 6.16831,-10.25 12.39853,-10.25 6.23022,0 11.158124,4.3991 12.413736,10.25 l -0.0075,0 c -1.236073,0 -2.21875,0.9827 -2.21875,2.2188 l 0,6.6875 c 0,1.2361 0.982677,2.25 2.21875,2.25 l 0.40625,0 c 1.236073,0 2.21875,-1.0139 2.21875,-2.25 l 0,-5.9063 c 0.01274,-0.093 0.01274,-0.188 0,-0.2812 l 0,-0.5 c 0,-0.1545 -0.0016,-0.292 -0.03125,-0.4375 -0.002,-0.01 0.0021,-0.022 0,-0.031 -0.50385,-7.8415 -7.034951,-14.0937 -14.999986,-14.0937 z"
       id="path3592"
       sodipodi:nodetypes="ccsccccccccccsccccccccccscc" />
    <path
       style="fill:#fefefe;fill-opacity:1;stroke:none"
       d="M 48.78125 9 C 43.842186 9 39.84375 12.998436 39.84375 17.9375 C 39.84375 22.876564 43.842186 26.90625 48.78125 26.90625 C 53.720314 26.90625 57.71875 22.876564 57.71875 17.9375 C 57.71875 12.998436 53.720314 9 48.78125 9 z M 44.8125 13.5 L 52.71875 13.5 L 52.71875 15.6875 L 49.875 15.6875 L 49.875 22.375 L 47.6875 22.375 L 47.6875 15.6875 L 44.8125 15.6875 L 44.8125 13.5 z "
       transform="translate(0,1020.3622)"
       id="path3687" />
    <g
       id="g3871"
       transform="translate(-33.03775,-14.626087)">
      <path
         id="path3700"
         d="m 49.131499,1037.81 c -7.965036,0 -14.496134,6.2522 -14.999999,14.0937 -0.0021,0.01 0.002,0.022 0,0.031 -0.02962,0.1455 -0.03125,0.283 -0.03125,0.4375 l 0,0.5 c -0.01574,0.1034 -0.01574,0.2091 0,0.3125 l 0,5.875 c 0,1.2361 0.982677,2.25 2.21875,2.25 l 0.40625,0 c 1.236073,0 2.21875,-1.0139 2.21875,-2.25 l 0,-6.6875 c 0,-1.2361 -0.982677,-2.2188 -2.21875,-2.2188 1.255616,-5.8509 6.176029,-10.25 12.406249,-10.25 6.23022,0 11.150638,4.3991 12.40625,10.25 -1.236073,0 -2.21875,0.9827 -2.21875,2.2188 l 0,6.6875 c 0,1.2361 0.982677,2.25 2.21875,2.25 l 0.40625,0 c 1.236073,0 2.21875,-1.0139 2.21875,-2.25 l 0,-5.9063 c 0.01274,-0.093 0.01274,-0.188 0,-0.2812 l 0,-0.5 c 0,-0.1545 -0.0016,-0.292 -0.03125,-0.4375 -0.002,-0.01 0.0021,-0.022 0,-0.031 -0.50385,-7.8415 -7.034965,-14.0937 -15,-14.0937 z m 0,8.5937 c -4.939064,0 -8.937499,3.9984 -8.937499,8.9375 0,4.939 3.998435,8.9688 8.937499,8.9688 4.939064,0 8.9375,-4.0298 8.9375,-8.9688 0,-4.9391 -3.998436,-8.9375 -8.9375,-8.9375 z m -3.96875,4.5 7.90625,0 0,2.1875 -2.84375,0 0,6.6875 -2.1875,0 0,-6.6875 -2.875,0 0,-2.1875 z"
         style="font-size:medium;font-style:normal;font-variant:normal;font-weight:normal;font-stretch:normal;text-indent:0;text-align:start;text-decoration:none;line-height:normal;letter-spacing:normal;word-spacing:normal;text-transform:none;direction:ltr;block-progression:tb;writing-mode:lr-tb;text-anchor:start;color:#000000;fill:url(#linearGradient3875);fill-opacity:1;stroke:none;stroke-width:2.0754981;marker:none;visibility:visible;display:inline;overflow:visible;enable-background:accumulate;font-family:Bitstream Vera Sans;-inkscape-font-specification:Bitstream Vera Sans" />
      <path
         transform="translate(33.123785,14.712123)"
         clip-path="url(#clipPath3757)"
         id="rect3705"
         d="m -2.8755353,1017.5439 0,38.8126 38.9687503,0 0,-38.8126 -38.9687503,0 z m 19.5000003,6.1564 c 7.965035,0 14.49615,6.2522 15,14.0937 0.0021,0.01 -0.002,0.021 0,0.031 0.02965,0.1455 0.03125,0.2829 0.03125,0.4375 l 0,0.5 c 0.01274,0.093 0.01274,0.1882 0,0.2811 l 0,5.9064 c 0,1.2361 -0.982677,2.25 -2.21875,2.25 l -0.40625,0 c -1.236073,0 -2.21875,-1.0139 -2.21875,-2.25 l 0,-6.6875 c 0,-1.2362 0.982677,-2.2189 2.21875,-2.2189 -1.255612,-5.8508 -6.17603,-10.25 -12.40625,-10.25 -6.23022,0 -11.1506343,4.3992 -12.4062503,10.25 1.236073,0 2.21875,0.9827 2.21875,2.2189 l 0,6.6875 c 0,1.2361 -0.982677,2.25 -2.21875,2.25 l -0.40625,0 c -1.236073,0 -2.2187499,-1.0139 -2.2187499,-2.25 l 0,-5.875 c -0.01574,-0.1034 -0.01574,-0.2092 0,-0.3125 l 0,-0.5 c 0,-0.1546 0.00163,-0.292 0.03125,-0.4375 0.002,-0.01 -0.0021,-0.021 0,-0.031 0.503865,-7.8415 7.034964,-14.0937 15.0000002,-14.0937 z m 0,8.5937 c 4.939064,0 8.9375,3.9984 8.9375,8.9375 0,4.9391 -3.998436,8.9688 -8.9375,8.9688 -4.939064,0 -8.9375003,-4.0297 -8.9375003,-8.9688 0,-4.9391 3.9984363,-8.9375 8.9375003,-8.9375 z m -3.96875,4.5 0,2.1875 2.875,0 0,6.6875 2.1875,0 0,-6.6875 2.84375,0 0,-2.1875 -7.90625,0 z"
         style="opacity:0.81444451;fill:#000000;fill-opacity:1;stroke:none;filter:url(#filter3817)" />
    </g>
  </g>
</svg>
