<?xml version="1.0" encoding="UTF-8" standalone="no"?>
<!-- Created with Inkscape (http://www.inkscape.org/) -->

<svg
   xmlns:dc="http://purl.org/dc/elements/1.1/"
   xmlns:cc="http://creativecommons.org/ns#"
   xmlns:rdf="http://www.w3.org/1999/02/22-rdf-syntax-ns#"
   xmlns:svg="http://www.w3.org/2000/svg"
   xmlns="http://www.w3.org/2000/svg"
   xmlns:xlink="http://www.w3.org/1999/xlink"
   xmlns:sodipodi="http://sodipodi.sourceforge.net/DTD/sodipodi-0.dtd"
   xmlns:inkscape="http://www.inkscape.org/namespaces/inkscape"
   width="32"
   height="32"
   id="svg2"
   version="1.1"
   inkscape:version="0.47 r22583"
   sodipodi:docname="ic_title_about.svg"
   inkscape:export-filename="/Users/sergio/Projects/Eclipse/android-radio-t/Radio-T/res/drawable-ldpi/ic_title_about.png"
   inkscape:export-xdpi="106.88"
   inkscape:export-ydpi="106.88">
  <defs
     id="defs4">
    <linearGradient
       id="linearGradient3629">
      <stop
         style="stop-color:#58a2dc;stop-opacity:1;"
         offset="0"
         id="stop3631" />
      <stop
         style="stop-color:#217acc;stop-opacity:1;"
         offset="1"
         id="stop3633" />
    </linearGradient>
    <inkscape:perspective
       sodipodi:type="inkscape:persp3d"
       inkscape:vp_x="0 : 526.18109 : 1"
       inkscape:vp_y="0 : 1000 : 0"
       inkscape:vp_z="744.09448 : 526.18109 : 1"
       inkscape:persp3d-origin="372.04724 : 350.78739 : 1"
       id="perspective10" />
    <inkscape:perspective
       id="perspective3700"
       inkscape:persp3d-origin="0.5 : 0.33333333 : 1"
       inkscape:vp_z="1 : 0.5 : 1"
       inkscape:vp_y="0 : 1000 : 0"
       inkscape:vp_x="0 : 0.5 : 1"
       sodipodi:type="inkscape:persp3d" />
    <clipPath
       clipPathUnits="userSpaceOnUse"
       id="clipPath4325">
      <g
         id="g4327">
        <path
           style="font-size:medium;font-style:normal;font-variant:normal;font-weight:normal;font-stretch:normal;text-indent:0;text-align:start;text-decoration:none;line-height:normal;letter-spacing:normal;word-spacing:normal;text-transform:none;direction:ltr;block-progression:tb;writing-mode:lr-tb;text-anchor:start;color:#000000;fill:#ffffff;fill-opacity:1;stroke:none;stroke-width:2.23214293;marker:none;visibility:visible;display:inline;overflow:visible;enable-background:accumulate;font-family:Bitstream Vera Sans;-inkscape-font-specification:Bitstream Vera Sans"
           d="m 16,1021.192 c -8.4075371,0 -15.26000041,6.8525 -15.26000041,15.26 0,8.4075 6.85246331,15.26 15.26000041,15.26 8.407536,0 15.26,-6.8525 15.26,-15.26 0,-8.4075 -6.852464,-15.26 -15.26,-15.26 z m 0,2.52 c 7.056436,0 12.74,5.6836 12.74,12.74 0,7.0564 -5.683564,12.74 -12.74,12.74 -7.0564368,0 -12.7400004,-5.6836 -12.7400004,-12.74 0,-7.0564 5.6835636,-12.74 12.7400004,-12.74 z"
           id="path4329" />
        <g
           transform="scale(1.1494376,0.86999068)"
           style="font-size:30.10829926px;font-style:normal;font-variant:normal;font-weight:bold;font-stretch:normal;text-align:start;line-height:125%;writing-mode:lr-tb;text-anchor:start;fill:#ffffff;fill-opacity:1;stroke:none;font-family:Liberation Serif;-inkscape-font-specification:Liberation Serif Bold"
           id="g4331">
          <path
             d="m 16.03684,1200.4591 1.514236,0.3528 0,0.9703 -7.262451,0 0,-0.9703 1.499534,-0.3528 0,-11.173 -1.411326,-0.3528 0,-0.9703 5.660007,0 0,12.4961 m -4.395694,-17.3181 c -2e-6,-0.3137 0.0588,-0.6077 0.176416,-0.8821 0.117608,-0.2744 0.279323,-0.5096 0.485144,-0.7057 0.205815,-0.2058 0.445936,-0.3675 0.720364,-0.4851 0.274421,-0.1176 0.568447,-0.1764 0.882079,-0.1764 0.313624,0 0.60765,0.059 0.882079,0.1764 0.274419,0.1176 0.50964,0.2793 0.705664,0.4851 0.205812,0.1961 0.367526,0.4313 0.485143,0.7057 0.117604,0.2744 0.176409,0.5684 0.176416,0.8821 -7e-6,0.3136 -0.05881,0.6076 -0.176416,0.882 -0.117617,0.2745 -0.279331,0.5146 -0.485143,0.7204 -0.196024,0.2058 -0.431245,0.3675 -0.705664,0.4851 -0.274429,0.1177 -0.568455,0.1765 -0.882079,0.1765 -0.313632,0 -0.607658,-0.059 -0.882079,-0.1765 -0.274428,-0.1176 -0.514549,-0.2793 -0.720364,-0.4851 -0.205821,-0.2058 -0.367536,-0.4459 -0.485144,-0.7204 -0.117613,-0.2744 -0.176418,-0.5684 -0.176416,-0.882"
             id="path4333" />
        </g>
      </g>
    </clipPath>
    <linearGradient
       inkscape:collect="always"
       xlink:href="#linearGradient3629"
       id="linearGradient3635"
       x1="16"
       y1="1022.3622"
       x2="16"
       y2="1050.3622"
       gradientUnits="userSpaceOnUse" />
    <linearGradient
       inkscape:collect="always"
       xlink:href="#linearGradient3629"
       id="linearGradient3637"
       gradientUnits="userSpaceOnUse"
       x1="16"
       y1="1022.3622"
       x2="16"
       y2="1050.3622" />
    <linearGradient
       inkscape:collect="always"
       xlink:href="#linearGradient3629"
       id="linearGradient3639"
       gradientUnits="userSpaceOnUse"
       x1="16"
       y1="1022.3622"
       x2="16"
       y2="1050.3622" />
    <linearGradient
       inkscape:collect="always"
       xlink:href="#linearGradient3629"
       id="linearGradient3641"
       gradientUnits="userSpaceOnUse"
       x1="16"
       y1="1022.3622"
       x2="16"
       y2="1050.3622" />
    <linearGradient
       inkscape:collect="always"
       xlink:href="#linearGradient3629"
       id="linearGradient3728"
       gradientUnits="userSpaceOnUse"
       x1="16"
       y1="1022.3622"
       x2="16"
       y2="1050.3622" />
    <linearGradient
       inkscape:collect="always"
       xlink:href="#linearGradient3629"
       id="linearGradient3734"
       gradientUnits="userSpaceOnUse"
       x1="16"
       y1="1022.3622"
       x2="16"
       y2="1050.3622" />
    <linearGradient
       inkscape:collect="always"
       xlink:href="#linearGradient3629"
       id="linearGradient3739"
       gradientUnits="userSpaceOnUse"
       x1="16"
       y1="1022.3622"
       x2="16"
       y2="1050.3622"
       gradientTransform="matrix(0.81025257,0,0,0.8163171,2.9816791,190.27202)" />
    <linearGradient
       inkscape:collect="always"
       xlink:href="#linearGradient3629"
       id="linearGradient3747"
       gradientUnits="userSpaceOnUse"
       x1="16"
       y1="1022.3622"
       x2="16"
       y2="1050.3622" />
    <linearGradient
       inkscape:collect="always"
       xlink:href="#linearGradient3629"
       id="linearGradient3757"
       gradientUnits="userSpaceOnUse"
       gradientTransform="matrix(0.98688876,0,0,0.99427537,43.700024,6.4766657)"
       x1="16"
       y1="1022.3622"
       x2="16"
       y2="1050.3622" />
    <linearGradient
       inkscape:collect="always"
       xlink:href="#linearGradient3629"
       id="linearGradient3759"
       gradientUnits="userSpaceOnUse"
       x1="16"
       y1="1022.3622"
       x2="16"
       y2="1050.3622" />
    <linearGradient
       inkscape:collect="always"
       xlink:href="#linearGradient3629"
       id="linearGradient3761"
       gradientUnits="userSpaceOnUse"
       x1="16"
       y1="1022.3622"
       x2="16"
       y2="1050.3622" />
    <clipPath
       clipPathUnits="userSpaceOnUse"
       id="clipPath4367">
      <g
         id="g4369">
        <path
           style="font-size:medium;font-style:normal;font-variant:normal;font-weight:normal;font-stretch:normal;text-indent:0;text-align:start;text-decoration:none;line-height:normal;letter-spacing:normal;word-spacing:normal;text-transform:none;direction:ltr;block-progression:tb;writing-mode:lr-tb;text-anchor:start;color:#000000;fill:url(#linearGradient4377);fill-opacity:1;stroke:none;stroke-width:2.37558413;marker:none;visibility:visible;display:inline;overflow:visible;enable-background:accumulate;font-family:Bitstream Vera Sans;-inkscape-font-specification:Bitstream Vera Sans"
           d="m 15.953729,1022.0138 c -7.7240686,0 -14.0060822,6.4044 -14.0060822,14.2388 0,7.8343 6.2820136,14.206 14.0060822,14.206 7.72407,0 14.006084,-6.3717 14.006084,-14.206 0,-7.8344 -6.282014,-14.2388 -14.006084,-14.2388 z m 0,2.4933 c 6.395157,0 11.547741,5.2591 11.547741,11.7455 0,6.4865 -5.152584,11.7126 -11.547741,11.7126 -6.3951551,0 -11.5477397,-5.2261 -11.5477397,-11.7126 0,-6.4864 5.1525846,-11.7455 11.5477397,-11.7455 z"
           id="path4371" />
        <g
           transform="matrix(1.0987572,0,0,0.89304457,0.15375412,5.850629)"
           style="font-size:27.31720161px;font-style:normal;font-variant:normal;font-weight:bold;font-stretch:normal;text-align:start;line-height:125%;writing-mode:lr-tb;text-anchor:start;fill:url(#linearGradient4381);fill-opacity:1;stroke:none;font-family:Utopia;-inkscape-font-specification:Utopia Bold"
           id="g4373">
          <path
             d="m 12.308533,1161.2522 c 0,1.1473 -0.218539,1.2566 -1.775618,1.3385 l 0,1.0381 7.676134,0 0,-1.0381 c -1.557079,-0.082 -1.775618,-0.1912 -1.775618,-1.3385 l 0,-11.1727 -0.191221,-0.164 -5.545391,0.7922 0,0.9835 0.956102,0.1366 c 0.437074,0.055 0.655612,0.3004 0.655612,1.3931 l 0,8.0313 m 1.912205,-12.5113 c 1.502444,0 2.513182,-1.0927 2.513182,-2.4039 0,-1.2839 -0.956104,-2.3766 -2.513182,-2.3766 -1.529762,0 -2.485866,1.0927 -2.485866,2.3766 0,1.3112 0.956104,2.4039 2.485866,2.4039"
             style="fill:url(#linearGradient4379);fill-opacity:1"
             id="path4375" />
        </g>
      </g>
    </clipPath>
    <linearGradient
       inkscape:collect="always"
       xlink:href="#linearGradient3629"
       id="linearGradient4377"
       gradientUnits="userSpaceOnUse"
       gradientTransform="matrix(0.98688876,0,0,0.99427537,0.15375378,5.8506472)"
       x1="16"
       y1="1022.3622"
       x2="16"
       y2="1050.3622" />
    <linearGradient
       inkscape:collect="always"
       xlink:href="#linearGradient3629"
       id="linearGradient4379"
       gradientUnits="userSpaceOnUse"
       x1="16"
       y1="1022.3622"
       x2="16"
       y2="1050.3622" />
    <linearGradient
       inkscape:collect="always"
       xlink:href="#linearGradient3629"
       id="linearGradient4381"
       gradientUnits="userSpaceOnUse"
       x1="16"
       y1="1022.3622"
       x2="16"
       y2="1050.3622" />
    <filter
       inkscape:collect="always"
       id="filter4320">
      <feGaussianBlur
         inkscape:collect="always"
         stdDeviation="0.595"
         id="feGaussianBlur4322" />
    </filter>
    <inkscape:perspective
       id="perspective4369"
       inkscape:persp3d-origin="0.5 : 0.33333333 : 1"
       inkscape:vp_z="1 : 0.5 : 1"
       inkscape:vp_y="0 : 1000 : 0"
       inkscape:vp_x="0 : 0.5 : 1"
       sodipodi:type="inkscape:persp3d" />
    <clipPath
       clipPathUnits="userSpaceOnUse"
       id="clipPath3697">
      <path
         id="path3699"
         d="m 15.96875,1023.0185 c -7.965036,0 -14.496135,6.2522 -15,14.0937 -0.0021,0.01 0.002,0.022 0,0.031 -0.02962,0.1455 -0.03125,0.283 -0.03125,0.4375 l 0,0.5 c -0.01574,0.1034 -0.01574,0.2091 0,0.3125 l 0,5.875 c 0,1.2361 0.982677,2.25 2.21875,2.25 l 0.40625,0 c 1.236073,0 2.21875,-1.0139 2.21875,-2.25 l 0,-6.6875 c 0,-1.2361 -0.982677,-2.2188 -2.21875,-2.2188 1.255616,-5.8509 6.17603,-10.25 12.40625,-10.25 6.23022,0 11.150638,4.3991 12.40625,10.25 -1.236073,0 -2.21875,0.9827 -2.21875,2.2188 l 0,6.6875 c 0,1.2361 0.982677,2.25 2.21875,2.25 l 0.40625,0 c 1.236073,0 2.21875,-1.0139 2.21875,-2.25 l 0,-5.9063 c 0.01274,-0.093 0.01274,-0.188 0,-0.2812 l 0,-0.5 c 0,-0.1545 -0.0016,-0.292 -0.03125,-0.4375 -0.002,-0.01 0.0021,-0.022 0,-0.031 -0.50385,-7.8415 -7.034965,-14.0937 -15,-14.0937 z m -3.125,4.75 a 0.80308027,0.80308027 0 0 0 -0.71875,0.6875 l -2.125,13.3125 -2.53125,0 a 0.8125,0.8125 0 1 0 0,1.625 l 3.25,0 A 0.80308027,0.80308027 0 0 0 11.5,1042.706 l 1.46875,-9.25 1.59375,9.2812 a 0.80308027,0.80308027 0 0 0 0.8125,0.6563 l 2,0 1.0625,4.1562 a 0.80308027,0.80308027 0 0 0 1.53125,0 l 1.0625,-4.1562 3.4375,0 a 0.8125,0.8125 0 0 0 0,-1.625 l -4.0625,0 a 0.80308027,0.80308027 0 0 0 -0.75,0.625 l -0.4375,1.7187 -0.4375,-1.7187 A 0.80308027,0.80308027 0 0 0 18,1041.7685 l -1.96875,0 -2.3125,-13.3125 a 0.80308027,0.80308027 0 0 0 -0.78125,-0.6875 0.80308027,0.80308027 0 0 0 -0.09375,0 z"
         style="font-size:medium;font-style:normal;font-variant:normal;font-weight:normal;font-stretch:normal;text-indent:0;text-align:start;text-decoration:none;line-height:normal;letter-spacing:normal;word-spacing:normal;text-transform:none;direction:ltr;block-progression:tb;writing-mode:lr-tb;text-anchor:start;color:#000000;fill:#ffffff;fill-opacity:1;stroke:none;stroke-width:2.0754981;marker:none;visibility:visible;display:inline;overflow:visible;enable-background:accumulate;font-family:Bitstream Vera Sans;-inkscape-font-specification:Bitstream Vera Sans" />
    </clipPath>
    <filter
       color-interpolation-filters="sRGB"
       inkscape:collect="always"
       id="filter3691">
      <feGaussianBlur
         inkscape:collect="always"
         stdDeviation="0.68"
         id="feGaussianBlur3693" />
    </filter>
    <linearGradient
       inkscape:collect="always"
       xlink:href="#linearGradient3746"
       id="linearGradient3752"
       x1="15.967625"
       y1="27.748184"
       x2="15.967625"
       y2="2.65625"
       gradientUnits="userSpaceOnUse" />
    <linearGradient
       id="linearGradient3746">
      <stop
         style="stop-color:#217acc;stop-opacity:1;"
         offset="0"
         id="stop3748" />
      <stop
         style="stop-color:#58a2dc;stop-opacity:1;"
         offset="1"
         id="stop3750" />
    </linearGradient>
    <linearGradient
       gradientTransform="translate(-32.602546,1020.652)"
       y2="2.65625"
       x2="15.967625"
       y1="27.748184"
       x1="15.967625"
       gradientUnits="userSpaceOnUse"
       id="linearGradient4384"
       xlink:href="#linearGradient3746"
       inkscape:collect="always" />
  </defs>
  <sodipodi:namedview
     id="base"
     pagecolor="#000000"
     bordercolor="#666666"
     borderopacity="1.0"
     inkscape:pageopacity="0"
     inkscape:pageshadow="2"
     inkscape:zoom="7.875"
     inkscape:cx="5.5210955"
     inkscape:cy="11.944891"
     inkscape:document-units="px"
     inkscape:current-layer="layer1"
     showgrid="true"
     inkscape:window-width="1280"
     inkscape:window-height="752"
     inkscape:window-x="0"
     inkscape:window-y="0"
     inkscape:window-maximized="0"
     inkscape:snap-grids="false">
    <inkscape:grid
       type="xygrid"
       id="grid2816"
       empspacing="5"
       visible="true"
       enabled="true"
       snapvisiblegridlinesonly="true"
       dotted="true" />
  </sodipodi:namedview>
  <metadata
     id="metadata7">
    <rdf:RDF>
      <cc:Work
         rdf:about="">
        <dc:format>image/svg+xml</dc:format>
        <dc:type
           rdf:resource="http://purl.org/dc/dcmitype/StillImage" />
        <dc:title></dc:title>
      </cc:Work>
    </rdf:RDF>
  </metadata>
  <g
     inkscape:label="Layer 1"
     inkscape:groupmode="layer"
     id="layer1"
     transform="translate(0,-1020.3622)">
    <g
       id="g3760"
       style="font-size:30.10829926px;font-style:normal;font-variant:normal;font-weight:bold;font-stretch:normal;text-align:start;line-height:125%;writing-mode:lr-tb;text-anchor:start;fill:#ffffff;fill-opacity:1;stroke:none;font-family:Liberation Serif;-inkscape-font-specification:Liberation Serif Bold"
       transform="matrix(1.1494376,0,0,0.86999068,47.050661,-0.35922466)" />
    <path
       style="font-size:medium;font-style:normal;font-variant:normal;font-weight:normal;font-stretch:normal;text-indent:0;text-align:start;text-decoration:none;line-height:normal;letter-spacing:normal;word-spacing:normal;text-transform:none;direction:ltr;block-progression:tb;writing-mode:lr-tb;text-anchor:start;color:#000000;fill:url(#linearGradient3739);fill-opacity:1;stroke:none;stroke-width:2.37558413;marker:none;visibility:visible;display:inline;overflow:visible;enable-background:accumulate;font-family:Bitstream Vera Sans;-inkscape-font-specification:Bitstream Vera Sans"
       d="m 15.953729,1024.5594 c -6.3415923,0 -11.499233,5.258 -11.499233,11.6902 0,6.4322 5.1576407,11.6634 11.499233,11.6634 6.341594,0 11.499235,-5.2312 11.499235,-11.6634 0,-6.4322 -5.157641,-11.6902 -11.499235,-11.6902 z m 0,2.047 c 5.250534,0 9.480894,4.3178 9.480894,9.6432 0,5.3256 -4.23036,9.6163 -9.480894,9.6163 -5.250532,0 -9.4808918,-4.2907 -9.4808918,-9.6163 0,-5.3254 4.2303598,-9.6432 9.4808918,-9.6432 z"
       id="path2839" />
    <g
       transform="matrix(0.90209847,0,0,0.73320488,2.9816794,190.272)"
       style="font-size:27.31720161px;font-style:normal;font-variant:normal;font-weight:bold;font-stretch:normal;text-align:start;line-height:125%;writing-mode:lr-tb;text-anchor:start;fill:#ffffff;fill-opacity:1;stroke:none;font-family:Utopia;-inkscape-font-specification:Utopia Bold"
       id="text3613">
      <path
         d="m 12.308533,1161.2522 c 0,1.1473 -0.218539,1.2566 -1.775618,1.3385 l 0,1.0381 7.676134,0 0,-1.0381 c -1.557079,-0.082 -1.775618,-0.1912 -1.775618,-1.3385 l 0,-11.1727 -0.191221,-0.164 -5.545391,0.7922 0,0.9835 0.956102,0.1366 c 0.437074,0.055 0.655612,0.3004 0.655612,1.3931 l 0,8.0313 m 1.912205,-12.5113 c 1.502444,0 2.513182,-1.0927 2.513182,-2.4039 0,-1.2839 -0.956104,-2.3766 -2.513182,-2.3766 -1.529762,0 -2.485866,1.0927 -2.485866,2.3766 0,1.3112 0.956104,2.4039 2.485866,2.4039"
         style="fill:#ffffff;fill-opacity:1"
         id="path3618" />
    </g>
    <path
       style="opacity:0.73000004;fill:#000000;fill-opacity:1;stroke:none;filter:url(#filter4320)"
       d="m -1.9845974,1020.2485 0,33 37.0000004,0 0,-33 -37.0000004,0 z m 18.5000004,2.2813 c 7.72407,0 14,6.4156 14,14.25 0,7.8343 -6.27593,14.1875 -14,14.1875 -7.7240684,0 -14.0000004,-6.3532 -14.0000004,-14.1875 0,-7.8344 6.275932,-14.25 14.0000004,-14.25 z m 0,2.5 c -6.395155,0 -11.5625004,5.2636 -11.5625004,11.75 0,6.4865 5.1673454,11.6875 11.5625004,11.6875 6.395157,0 11.5625,-5.201 11.5625,-11.6875 0,-6.4864 -5.167343,-11.75 -11.5625,-11.75 z m -0.15625,2.9375 c 1.710851,0 2.75,0.9784 2.75,2.125 0,1.1709 -1.099179,2.1562 -2.75,2.1562 -1.680837,0 -2.75,-0.9853 -2.75,-2.1562 0,-1.1466 1.069163,-2.125 2.75,-2.125 z m 2.21875,5.3125 0.21875,0.1562 0,9.9688 c 0,1.0245 0.226648,1.1142 1.9375,1.1875 l 0,0.9375 -8.4375,0 0,-0.9375 c 1.710852,-0.073 1.9375,-0.163 1.9375,-1.1875 l 0,-7.1563 c 0,-0.9758 -0.238512,-1.2009 -0.71875,-1.25 l -1.03125,-0.125 0,-0.875 6.09375,-0.7187 z"
       id="rect3718"
       clip-path="url(#clipPath4367)"
       transform="matrix(0.82101712,0,0,0.82101712,2.8554446,185.46854)" />
    <g
       id="g3753"
       style="font-size:27.31720161px;font-style:normal;font-variant:normal;font-weight:bold;font-stretch:normal;text-align:start;line-height:125%;writing-mode:lr-tb;text-anchor:start;fill:url(#linearGradient3761);fill-opacity:1;stroke:none;font-family:Utopia;-inkscape-font-specification:Utopia Bold"
       transform="matrix(1.0987572,0,0,0.89304457,43.70978,6.4721976)" />
  </g>
</svg>
