<?xml version="1.0" encoding="UTF-8" standalone="no"?>
<!-- Created with Inkscape (http://www.inkscape.org/) -->

<svg
   xmlns:dc="http://purl.org/dc/elements/1.1/"
   xmlns:cc="http://creativecommons.org/ns#"
   xmlns:rdf="http://www.w3.org/1999/02/22-rdf-syntax-ns#"
   xmlns:svg="http://www.w3.org/2000/svg"
   xmlns="http://www.w3.org/2000/svg"
   xmlns:xlink="http://www.w3.org/1999/xlink"
   xmlns:sodipodi="http://sodipodi.sourceforge.net/DTD/sodipodi-0.dtd"
   xmlns:inkscape="http://www.inkscape.org/namespaces/inkscape"
   width="72"
   height="72"
   id="svg2"
   version="1.1"
   inkscape:version="0.47 r22583"
   sodipodi:docname="main-logo.svg">
  <defs
     id="defs4">
    <inkscape:perspective
       sodipodi:type="inkscape:persp3d"
       inkscape:vp_x="0 : 526.18109 : 1"
       inkscape:vp_y="0 : 1000 : 0"
       inkscape:vp_z="744.09448 : 526.18109 : 1"
       inkscape:persp3d-origin="372.04724 : 350.78739 : 1"
       id="perspective10" />
    <inkscape:perspective
       id="perspective3307"
       inkscape:persp3d-origin="0.5 : 0.33333333 : 1"
       inkscape:vp_z="1 : 0.5 : 1"
       inkscape:vp_y="0 : 1000 : 0"
       inkscape:vp_x="0 : 0.5 : 1"
       sodipodi:type="inkscape:persp3d" />
    <filter
       color-interpolation-filters="sRGB"
       inkscape:collect="always"
       id="filter3720">
      <feGaussianBlur
         inkscape:collect="always"
         stdDeviation="0.55"
         id="feGaussianBlur3722" />
    </filter>
    <linearGradient
       inkscape:collect="always"
       xlink:href="#linearGradient3956"
       id="linearGradient3729"
       gradientUnits="userSpaceOnUse"
       x1="-16"
       y1="25"
       x2="-16"
       y2="3" />
    <linearGradient
       id="linearGradient3956">
      <stop
         style="stop-color:#217acc;stop-opacity:1"
         offset="0"
         id="stop3958" />
      <stop
         style="stop-color:#58a2dc;stop-opacity:1"
         offset="1"
         id="stop3960" />
    </linearGradient>
    <filter
       color-interpolation-filters="sRGB"
       inkscape:collect="always"
       id="filter3640">
      <feGaussianBlur
         inkscape:collect="always"
         stdDeviation="0.37008777"
         id="feGaussianBlur3642" />
    </filter>
    <inkscape:perspective
       id="perspective3447"
       inkscape:persp3d-origin="0.5 : 0.33333333 : 1"
       inkscape:vp_z="1 : 0.5 : 1"
       inkscape:vp_y="0 : 1000 : 0"
       inkscape:vp_x="0 : 0.5 : 1"
       sodipodi:type="inkscape:persp3d" />
    <linearGradient
       inkscape:collect="always"
       xlink:href="#linearGradient3956"
       id="linearGradient4237"
       gradientUnits="userSpaceOnUse"
       x1="-16"
       y1="25"
       x2="-16"
       y2="3" />
  </defs>
  <sodipodi:namedview
     id="base"
     pagecolor="#000000"
     bordercolor="#666666"
     borderopacity="1.0"
     inkscape:pageopacity="0.48627451"
     inkscape:pageshadow="2"
     inkscape:zoom="4.9497475"
     inkscape:cx="92.603947"
     inkscape:cy="35.471"
     inkscape:document-units="px"
     inkscape:current-layer="layer1"
     showgrid="true"
     inkscape:window-width="1280"
     inkscape:window-height="752"
     inkscape:window-x="0"
     inkscape:window-y="0"
     inkscape:window-maximized="0"
     inkscape:snap-grids="false">
    <inkscape:grid
       type="xygrid"
       id="grid2826"
       empspacing="5"
       visible="true"
       enabled="true"
       snapvisiblegridlinesonly="true"
       dotted="true" />
  </sodipodi:namedview>
  <metadata
     id="metadata7">
    <rdf:RDF>
      <cc:Work
         rdf:about="">
        <dc:format>image/svg+xml</dc:format>
        <dc:type
           rdf:resource="http://purl.org/dc/dcmitype/StillImage" />
      </cc:Work>
    </rdf:RDF>
  </metadata>
  <g
     inkscape:label="Layer 1"
     inkscape:groupmode="layer"
     id="layer1"
     transform="translate(0,-980.36218)">
    <image
       y="969.36218"
       x="60.083336"
       id="image3449"
       height="73.769234"
       width="79.916664"
       xlink:href="file:///Users/sergio/Desktop/logo-cut.png" />
    <path
       transform="matrix(1.5972729,0,0,1.5972729,41.264143,967.51876)"
       d="m 60.609152,29.977654 a 27.678179,27.678179 0 1 1 -55.3563577,0 27.678179,27.678179 0 1 1 55.3563577,0 z"
       sodipodi:ry="27.678179"
       sodipodi:rx="27.678179"
       sodipodi:cy="29.977654"
       sodipodi:cx="32.930973"
       id="path4242"
       style="opacity:0.20000000000000001;fill:#ffffff;fill-opacity:0.05882353000000000;stroke:#000000;stroke-width:0.62606709;stroke-linecap:round;stroke-linejoin:round;stroke-miterlimit:4;stroke-opacity:1;stroke-dasharray:none"
       sodipodi:type="arc" />
    <path
       sodipodi:type="arc"
       style="fill:url(#linearGradient3729);fill-opacity:1;stroke:none"
       id="path3918"
       sodipodi:cx="-16"
       sodipodi:cy="14"
       sodipodi:rx="11"
       sodipodi:ry="11"
       d="m -5,14 a 11,11 0 1 1 -22,0 11,11 0 1 1 22,0 z"
       transform="matrix(2.5103628,0,0,2.5103628,134.0297,980.25617)" />
    <path
       id="path4010"
       d="m 13.480457,1017.6365 0,4.75 8.21875,0 0,16.3438 4.71875,0 0,-16.3438 8.34375,0 0,-4.75 -21.28125,0 z"
       style="fill:#ffffff;fill-opacity:0.99170125;stroke:#2877c0;stroke-opacity:1;filter:url(#filter3640)"
       transform="matrix(1.2998528,0,0,1.2998528,62.499171,-321.08587)" />
    <path
       sodipodi:type="arc"
       style="opacity:0.20000000000000001;fill:#ffffff;fill-opacity:0.05882353000000000;stroke:#000000;stroke-width:0.78880341;stroke-linecap:round;stroke-linejoin:round;stroke-miterlimit:4;stroke-opacity:1;stroke-dasharray:none"
       id="path4227"
       sodipodi:cx="32.930973"
       sodipodi:cy="29.977654"
       sodipodi:rx="27.678179"
       sodipodi:ry="27.678179"
       d="m 60.609152,29.977654 a 27.678179,27.678179 0 1 1 -55.3563577,0 27.678179,27.678179 0 1 1 55.3563577,0 z"
       transform="matrix(1.267743,0,0,1.267743,52.115883,977.39729)" />
    <g
       inkscape:export-ydpi="90"
       inkscape:export-xdpi="90"
       inkscape:export-filename="/Users/sergio/Projects/Eclipse/android-radio-t/Radio-T/res/drawable-mdpi/icon.png"
       transform="matrix(1.2998528,0,0,1.2998528,-63.769897,-324.52039)"
       id="g4229">
      <path
         transform="matrix(1.931267,0,0,1.931267,55.029713,1002.5145)"
         d="m -5,14 c 0,6.075132 -4.9248678,11 -11,11 -6.075132,0 -11,-4.924868 -11,-11 0,-6.0751322 4.924868,-11 11,-11 6.0751322,0 11,4.9248678 11,11 z"
         sodipodi:ry="11"
         sodipodi:rx="11"
         sodipodi:cy="14"
         sodipodi:cx="-16"
         id="path4231"
         style="opacity:0.75;fill:#000000;fill-opacity:1;stroke:none;filter:url(#filter3720)"
         sodipodi:type="arc" />
      <path
         sodipodi:type="arc"
         style="fill:url(#linearGradient4237);fill-opacity:1;stroke:none"
         id="path4233"
         sodipodi:cx="-16"
         sodipodi:cy="14"
         sodipodi:rx="11"
         sodipodi:ry="11"
         d="m -5,14 c 0,6.075132 -4.9248678,11 -11,11 -6.075132,0 -11,-4.924868 -11,-11 0,-6.0751322 4.924868,-11 11,-11 6.0751322,0 11,4.9248678 11,11 z"
         transform="matrix(1.931267,0,0,1.931267,55.029713,1001.1457)" />
      <path
         id="path4235"
         d="m 13.480457,1017.6365 0,4.75 8.21875,0 0,16.3438 4.71875,0 0,-16.3438 8.34375,0 0,-4.75 -21.28125,0 z"
         style="fill:#ffffff;fill-opacity:0.99170125;stroke:#2877c0;stroke-opacity:1;filter:url(#filter3640)" />
    </g>
  </g>
</svg>
