<?xml version="1.0" encoding="UTF-8" standalone="no"?>
<!-- Created with Inkscape (http://www.inkscape.org/) -->

<svg
   xmlns:dc="http://purl.org/dc/elements/1.1/"
   xmlns:cc="http://creativecommons.org/ns#"
   xmlns:rdf="http://www.w3.org/1999/02/22-rdf-syntax-ns#"
   xmlns:svg="http://www.w3.org/2000/svg"
   xmlns="http://www.w3.org/2000/svg"
   xmlns:xlink="http://www.w3.org/1999/xlink"
   xmlns:sodipodi="http://sodipodi.sourceforge.net/DTD/sodipodi-0.dtd"
   xmlns:inkscape="http://www.inkscape.org/namespaces/inkscape"
   width="24"
   height="38"
   id="svg2"
   version="1.1"
   inkscape:version="0.48.2 r9819"
   sodipodi:docname="stat_download_complete.svg"
   inkscape:export-filename="/home/moshse/Projects/android-radio-t/Radio-T/res/drawable-ldpi-v9/stat_download_complete.png"
   inkscape:export-xdpi="45"
   inkscape:export-ydpi="45">
  <defs
     id="defs4">
    <linearGradient
       id="linearGradient3897">
      <stop
         id="stop3899"
         offset="0"
         style="stop-color:#828282;stop-opacity:1;" />
      <stop
         id="stop3901"
         offset="1"
         style="stop-color:#919191;stop-opacity:1;" />
    </linearGradient>
    <linearGradient
       id="linearGradient3630">
      <stop
         style="stop-color:#696969;stop-opacity:1;"
         offset="0"
         id="stop3632" />
      <stop
         style="stop-color:#0a0a0a;stop-opacity:1;"
         offset="1"
         id="stop3634" />
    </linearGradient>
    <linearGradient
       id="linearGradient3614">
      <stop
         style="stop-color:#828282;stop-opacity:1;"
         offset="0"
         id="stop3616" />
      <stop
         style="stop-color:#919191;stop-opacity:1;"
         offset="1"
         id="stop3618" />
    </linearGradient>
    <linearGradient
       id="linearGradient3592">
      <stop
         style="stop-color:#0a0a0a;stop-opacity:1;"
         offset="0"
         id="stop3594" />
      <stop
         style="stop-color:#696969;stop-opacity:1;"
         offset="1"
         id="stop3596" />
    </linearGradient>
    <inkscape:perspective
       sodipodi:type="inkscape:persp3d"
       inkscape:vp_x="0 : 526.18109 : 1"
       inkscape:vp_y="0 : 1000 : 0"
       inkscape:vp_z="744.09448 : 526.18109 : 1"
       inkscape:persp3d-origin="372.04724 : 350.78739 : 1"
       id="perspective10" />
    <inkscape:perspective
       id="perspective3722"
       inkscape:persp3d-origin="0.5 : 0.33333333 : 1"
       inkscape:vp_z="1 : 0.5 : 1"
       inkscape:vp_y="0 : 1000 : 0"
       inkscape:vp_x="0 : 0.5 : 1"
       sodipodi:type="inkscape:persp3d" />
    <linearGradient
       inkscape:collect="always"
       xlink:href="#linearGradient3614"
       id="linearGradient3620"
       x1="13"
       y1="24"
       x2="13"
       y2="1"
       gradientUnits="userSpaceOnUse" />
    <linearGradient
       inkscape:collect="always"
       xlink:href="#linearGradient3614"
       id="linearGradient3842"
       gradientUnits="userSpaceOnUse"
       x1="13"
       y1="24"
       x2="13"
       y2="1"
       gradientTransform="matrix(1.1428574,0,0,1.1428574,-2.2857175,4.7143)" />
    <linearGradient
       inkscape:collect="always"
       xlink:href="#linearGradient3614"
       id="linearGradient3881"
       gradientUnits="userSpaceOnUse"
       gradientTransform="matrix(1.1428574,0,0,1.1428574,-52.814868,1002.5452)"
       x1="12.908319"
       y1="19.417995"
       x2="12.908319"
       y2="6.2929988" />
    <linearGradient
       inkscape:collect="always"
       xlink:href="#linearGradient3897"
       id="linearGradient3895"
       x1="-19"
       y1="1043.3622"
       x2="-19"
       y2="1019.3622"
       gradientUnits="userSpaceOnUse" />
    <linearGradient
       inkscape:collect="always"
       xlink:href="#linearGradient3897"
       id="linearGradient3984"
       gradientUnits="userSpaceOnUse"
       x1="-19"
       y1="1043.3622"
       x2="-19"
       y2="1019.3622"
       gradientTransform="translate(0,-1014.3622)" />
    <linearGradient
       inkscape:collect="always"
       xlink:href="#linearGradient3614-7"
       id="linearGradient3881-5"
       gradientUnits="userSpaceOnUse"
       gradientTransform="matrix(1.1428574,0,0,1.1428574,-52.814868,1002.5452)"
       x1="12.908319"
       y1="19.417995"
       x2="12.908319"
       y2="6.2929988" />
    <linearGradient
       id="linearGradient3614-7">
      <stop
         style="stop-color:#828282;stop-opacity:1;"
         offset="0"
         id="stop3616-7" />
      <stop
         style="stop-color:#919191;stop-opacity:1;"
         offset="1"
         id="stop3618-8" />
    </linearGradient>
    <linearGradient
       inkscape:collect="always"
       xlink:href="#linearGradient3897"
       id="linearGradient4042"
       gradientUnits="userSpaceOnUse"
       gradientTransform="translate(0,-1014.3622)"
       x1="-19"
       y1="1043.3622"
       x2="-19"
       y2="1019.3622" />
    <linearGradient
       inkscape:collect="always"
       xlink:href="#linearGradient3897"
       id="linearGradient4045"
       gradientUnits="userSpaceOnUse"
       gradientTransform="translate(0,-1014.3622)"
       x1="-19"
       y1="1043.3622"
       x2="-19"
       y2="1019.3622" />
    <linearGradient
       inkscape:collect="always"
       xlink:href="#linearGradient3614-0"
       id="linearGradient3845"
       gradientUnits="userSpaceOnUse"
       gradientTransform="matrix(1.1428574,0,0,1.1428574,-2.221118,1019.0765)"
       x1="13"
       y1="24"
       x2="13"
       y2="1" />
    <linearGradient
       id="linearGradient3614-0">
      <stop
         style="stop-color:#828282;stop-opacity:1;"
         offset="0"
         id="stop3616-8" />
      <stop
         style="stop-color:#919191;stop-opacity:1;"
         offset="1"
         id="stop3618-2" />
    </linearGradient>
    <linearGradient
       inkscape:collect="always"
       xlink:href="#linearGradient3614-8"
       id="linearGradient3900-1"
       x1="-16"
       y1="24"
       x2="-16"
       y2="0"
       gradientUnits="userSpaceOnUse" />
    <linearGradient
       id="linearGradient3614-8">
      <stop
         style="stop-color:#828282;stop-opacity:1;"
         offset="0"
         id="stop3616-9" />
      <stop
         style="stop-color:#919191;stop-opacity:1;"
         offset="1"
         id="stop3618-84" />
    </linearGradient>
    <linearGradient
       gradientTransform="translate(-7,1008.3622)"
       y2="0"
       x2="-16"
       y1="24"
       x1="-16"
       gradientUnits="userSpaceOnUse"
       id="linearGradient4025"
       xlink:href="#linearGradient3614-8"
       inkscape:collect="always" />
    <linearGradient
       inkscape:collect="always"
       xlink:href="#linearGradient3614"
       id="linearGradient4081"
       gradientUnits="userSpaceOnUse"
       x1="-16"
       y1="24"
       x2="-16"
       y2="0"
       gradientTransform="translate(28,1021.3622)" />
    <linearGradient
       inkscape:collect="always"
       xlink:href="#linearGradient3614-8"
       id="linearGradient4188"
       gradientUnits="userSpaceOnUse"
       gradientTransform="translate(-7,-6)"
       x1="-16"
       y1="24"
       x2="-16"
       y2="0" />
    <linearGradient
       inkscape:collect="always"
       xlink:href="#linearGradient3614-9"
       id="linearGradient3845-1"
       gradientUnits="userSpaceOnUse"
       gradientTransform="matrix(1.1428574,0,0,1.1428574,-2.221118,1019.0765)"
       x1="13"
       y1="24"
       x2="13"
       y2="1" />
    <linearGradient
       id="linearGradient3614-9">
      <stop
         style="stop-color:#828282;stop-opacity:1;"
         offset="0"
         id="stop3616-88" />
      <stop
         style="stop-color:#919191;stop-opacity:1;"
         offset="1"
         id="stop3618-7" />
    </linearGradient>
    <linearGradient
       inkscape:collect="always"
       xlink:href="#linearGradient3614-8"
       id="linearGradient4225"
       gradientUnits="userSpaceOnUse"
       gradientTransform="translate(-7,-6)"
       x1="-16"
       y1="24"
       x2="-16"
       y2="0" />
    <linearGradient
       inkscape:collect="always"
       xlink:href="#linearGradient3614-8"
       id="linearGradient4228"
       gradientUnits="userSpaceOnUse"
       gradientTransform="translate(28,1021.3622)"
       x1="-16"
       y1="24"
       x2="-16"
       y2="0" />
  </defs>
  <sodipodi:namedview
     id="base"
     pagecolor="#ffffff"
     bordercolor="#666666"
     borderopacity="1.0"
     inkscape:pageopacity="0"
     inkscape:pageshadow="2"
     inkscape:zoom="15.48"
     inkscape:cx="-9.4366925"
     inkscape:cy="18.333067"
     inkscape:document-units="px"
     inkscape:current-layer="layer1"
     showgrid="true"
     inkscape:window-width="1680"
     inkscape:window-height="1026"
     inkscape:window-x="0"
     inkscape:window-y="24"
     inkscape:window-maximized="1"
     showguides="true"
     inkscape:guide-bbox="true">
    <inkscape:grid
       type="xygrid"
       id="grid2816"
       empspacing="5"
       visible="true"
       enabled="true"
       snapvisiblegridlinesonly="true"
       dotted="true" />
    <sodipodi:guide
       orientation="0,1"
       position="-42,48"
       id="guide3887" />
  </sodipodi:namedview>
  <metadata
     id="metadata7">
    <rdf:RDF>
      <cc:Work
         rdf:about="">
        <dc:format>image/svg+xml</dc:format>
        <dc:type
           rdf:resource="http://purl.org/dc/dcmitype/StillImage" />
        <dc:title></dc:title>
      </cc:Work>
    </rdf:RDF>
  </metadata>
  <g
     inkscape:label="Layer 1"
     inkscape:groupmode="layer"
     id="layer1"
     transform="translate(0,-1014.3622)">
    <rect
       style="fill:#000000;fill-opacity:1;stroke:none"
       id="rect3913"
       width="1.5"
       height="4"
       x="-46"
       y="1030.3622"
       ry="0.5"
       rx="0.375" />
    <path
       style="fill:url(#linearGradient4228);fill-opacity:1;stroke:none"
       d="m 4,1021.3622 c -0.554,0 -1,0.446 -1,1 l 0,22 c 0,0.554 0.446,1 1,1 l 16,0 c 0.554,0 1,-0.446 1,-1 l 0,-20 c 0,-0.277 -0.6005,-1.038 -1.28125,-1.7187 C 19.038,1021.9627 18.277,1021.3622 18,1021.3622 l -14,0 z m 1.9375,1.1875 0.75,0 c 0.20775,0 0.375,0.223 0.375,0.5 l 0,3 c 0,0.277 -0.16725,0.5 -0.375,0.5 l -0.75,0 c -0.20775,0 -0.375,-0.223 -0.375,-0.5 l 0,-3 c 0,-0.277 0.16725,-0.5 0.375,-0.5 z m 2.46875,0 0.75,0 c 0.20775,0 0.375,0.223 0.375,0.5 l 0,3 c 0,0.277 -0.16725,0.5 -0.375,0.5 l -0.75,0 c -0.20775,0 -0.375,-0.223 -0.375,-0.5 l 0,-3 c 0,-0.277 0.16725,-0.5 0.375,-0.5 z m 2.4375,0 0.75,0 c 0.20775,0 0.375,0.223 0.375,0.5 l 0,3 c 0,0.277 -0.16725,0.5 -0.375,0.5 l -0.75,0 c -0.20775,0 -0.375,-0.223 -0.375,-0.5 l 0,-3 c 0,-0.277 0.16725,-0.5 0.375,-0.5 z m 2.46875,0 0.75,0 c 0.20775,0 0.375,0.223 0.375,0.5 l 0,3 c 0,0.277 -0.16725,0.5 -0.375,0.5 l -0.75,0 c -0.20775,0 -0.375,-0.223 -0.375,-0.5 l 0,-3 c 0,-0.277 0.16725,-0.5 0.375,-0.5 z m 2.46875,0 0.75,0 c 0.20775,0 0.375,0.223 0.375,0.5 l 0,3 c 0,0.277 -0.16725,0.5 -0.375,0.5 l -0.75,0 c -0.20775,0 -0.375,-0.223 -0.375,-0.5 l 0,-3 c 0,-0.277 0.16725,-0.5 0.375,-0.5 z M 12,1029.2685 c 3.918289,0 7.09375,3.1754 7.09375,7.0937 0,3.9183 -3.175461,7.0938 -7.09375,7.0938 -3.918288,0 -7.09375,-3.1755 -7.09375,-7.0938 0,-3.9183 3.175462,-7.0937 7.09375,-7.0937 z m -3.75,3.25 0,1.7812 2.84375,0 0,6.1563 1.8125,0 0,-6.1563 2.84375,0 0,-1.7812 -7.5,0 z"
       id="rect3892-8"
       inkscape:connector-curvature="0" />
  </g>
</svg>
