<?xml version="1.0" encoding="UTF-8" standalone="no"?>
<!-- Created with Inkscape (http://www.inkscape.org/) -->

<svg
   xmlns:dc="http://purl.org/dc/elements/1.1/"
   xmlns:cc="http://creativecommons.org/ns#"
   xmlns:rdf="http://www.w3.org/1999/02/22-rdf-syntax-ns#"
   xmlns:svg="http://www.w3.org/2000/svg"
   xmlns="http://www.w3.org/2000/svg"
   xmlns:xlink="http://www.w3.org/1999/xlink"
   xmlns:sodipodi="http://sodipodi.sourceforge.net/DTD/sodipodi-0.dtd"
   xmlns:inkscape="http://www.inkscape.org/namespaces/inkscape"
   width="144"
   height="96"
   id="svg5213"
   version="1.1"
   inkscape:version="0.48.2 r9819"
   sodipodi:docname="btn_home_live.svg"
   inkscape:export-filename="/home/moshse/Projects/android-radio-t/Radio-T/res/drawable-ldpi/home_btn_live_pressed.png"
   inkscape:export-xdpi="45"
   inkscape:export-ydpi="45">
  <defs
     id="defs5215">
    <linearGradient
       id="linearGradient4089">
      <stop
         style="stop-color:#e5b66c;stop-opacity:1;"
         offset="0"
         id="stop4091" />
      <stop
         style="stop-color:#e5b66c;stop-opacity:0;"
         offset="1"
         id="stop4093" />
    </linearGradient>
    <linearGradient
       id="linearGradient5895">
      <stop
         id="stop5897"
         offset="0"
         style="stop-color:#000000;stop-opacity:0.35294119;" />
      <stop
         style="stop-color:#3f3f3f;stop-opacity:0.35294118;"
         offset="0.46230528"
         id="stop5903" />
      <stop
         style="stop-color:#7f7f7f;stop-opacity:0.35294118;"
         offset="0.51814383"
         id="stop5901" />
      <stop
         id="stop5899"
         offset="1"
         style="stop-color:#ffffff;stop-opacity:0.35294119;" />
    </linearGradient>
    <linearGradient
       inkscape:collect="always"
       id="linearGradient5869">
      <stop
         style="stop-color:#e9b96e;stop-opacity:1;"
         offset="0"
         id="stop5871" />
      <stop
         style="stop-color:#e9b96e;stop-opacity:0;"
         offset="1"
         id="stop5873" />
    </linearGradient>
    <linearGradient
       id="linearGradient5807">
      <stop
         style="stop-color:#000000;stop-opacity:0.64705884;"
         offset="0"
         id="stop5809" />
      <stop
         style="stop-color:#000000;stop-opacity:0;"
         offset="1"
         id="stop5811" />
    </linearGradient>
    <filter
       inkscape:collect="always"
       id="filter5911">
      <feGaussianBlur
         inkscape:collect="always"
         stdDeviation="0.31663832"
         id="feGaussianBlur5913" />
    </filter>
    <linearGradient
       inkscape:collect="always"
       xlink:href="#linearGradient5869"
       id="linearGradient6145"
       gradientUnits="userSpaceOnUse"
       x1="25.12953"
       y1="8.4261789"
       x2="116.78673"
       y2="75.106262" />
    <linearGradient
       inkscape:collect="always"
       xlink:href="#linearGradient5895"
       id="linearGradient6153"
       gradientUnits="userSpaceOnUse"
       gradientTransform="matrix(0.84353742,0,0,0.84353742,11.265306,6.534851)"
       x1="27.901136"
       y1="9.9977865"
       x2="90.01577"
       y2="97.014572" />
    <linearGradient
       inkscape:collect="always"
       xlink:href="#linearGradient5807"
       id="linearGradient6162"
       gradientUnits="userSpaceOnUse"
       x1="97.841797"
       y1="86.309341"
       x2="46.158203"
       y2="84.042519"
       gradientTransform="matrix(0.87090924,0,0,1,9.7133232,1.1150742)" />
    <linearGradient
       inkscape:collect="always"
       xlink:href="#linearGradient5807"
       id="linearGradient6165"
       gradientUnits="userSpaceOnUse"
       x1="114.16293"
       y1="73.955132"
       x2="28.476976"
       y2="10.484052"
       gradientTransform="matrix(0.87090924,0,0,1,9.7133232,1.1150742)" />
    <linearGradient
       inkscape:collect="always"
       xlink:href="#linearGradient5807"
       id="linearGradient6170"
       gradientUnits="userSpaceOnUse"
       x1="72.340027"
       y1="75.201965"
       x2="72.340019"
       y2="78.375519"
       gradientTransform="matrix(0.87090924,0,0,1,9.7133232,1.1150742)" />
    <linearGradient
       inkscape:collect="always"
       xlink:href="#linearGradient5807-9"
       id="linearGradient6170-8"
       gradientUnits="userSpaceOnUse"
       x1="72.340027"
       y1="75.201965"
       x2="72.340019"
       y2="78.375519"
       gradientTransform="matrix(0.87090924,0,0,1,9.7133232,1.1150742)" />
    <linearGradient
       id="linearGradient5807-9">
      <stop
         style="stop-color:#000000;stop-opacity:0.64705884;"
         offset="0"
         id="stop5809-3" />
      <stop
         style="stop-color:#000000;stop-opacity:0;"
         offset="1"
         id="stop5811-5" />
    </linearGradient>
    <linearGradient
       id="linearGradient6189">
      <stop
         style="stop-color:#000000;stop-opacity:0.64705884;"
         offset="0"
         id="stop6191" />
      <stop
         style="stop-color:#000000;stop-opacity:0;"
         offset="1"
         id="stop6193" />
    </linearGradient>
    <linearGradient
       id="linearGradient6196">
      <stop
         style="stop-color:#000000;stop-opacity:0.64705884;"
         offset="0"
         id="stop6198" />
      <stop
         style="stop-color:#000000;stop-opacity:0;"
         offset="1"
         id="stop6200" />
    </linearGradient>
    <linearGradient
       id="linearGradient5807-2">
      <stop
         style="stop-color:#000000;stop-opacity:0.64705884;"
         offset="0"
         id="stop5809-0" />
      <stop
         style="stop-color:#000000;stop-opacity:0;"
         offset="1"
         id="stop5811-3" />
    </linearGradient>
    <linearGradient
       id="linearGradient6293">
      <stop
         style="stop-color:#000000;stop-opacity:0.64705884;"
         offset="0"
         id="stop6295" />
      <stop
         style="stop-color:#000000;stop-opacity:0;"
         offset="1"
         id="stop6297" />
    </linearGradient>
    <linearGradient
       inkscape:collect="always"
       xlink:href="#linearGradient5807-2"
       id="linearGradient6170-2"
       gradientUnits="userSpaceOnUse"
       x1="72.340027"
       y1="75.201965"
       x2="72.340019"
       y2="78.375519"
       gradientTransform="matrix(0.87090924,0,0,1,9.7133232,1.1150742)" />
    <linearGradient
       id="linearGradient6300">
      <stop
         style="stop-color:#000000;stop-opacity:0.64705884;"
         offset="0"
         id="stop6302" />
      <stop
         style="stop-color:#000000;stop-opacity:0;"
         offset="1"
         id="stop6304" />
    </linearGradient>
    <linearGradient
       inkscape:collect="always"
       xlink:href="#linearGradient5807"
       id="linearGradient6367"
       gradientUnits="userSpaceOnUse"
       x1="36.021027"
       y1="15.697747"
       x2="108.20566"
       y2="67.608017" />
    <linearGradient
       inkscape:collect="always"
       xlink:href="#linearGradient5869"
       id="linearGradient4502"
       gradientUnits="userSpaceOnUse"
       x1="25.12953"
       y1="8.4261789"
       x2="116.78673"
       y2="75.106262" />
    <linearGradient
       inkscape:collect="always"
       xlink:href="#linearGradient5807"
       id="linearGradient4504"
       gradientUnits="userSpaceOnUse"
       gradientTransform="matrix(0.87090924,0,0,1,9.7133232,1.1150742)"
       x1="72.340027"
       y1="75.201965"
       x2="72.340019"
       y2="78.375519" />
    <linearGradient
       inkscape:collect="always"
       xlink:href="#linearGradient5807"
       id="linearGradient4506"
       gradientUnits="userSpaceOnUse"
       gradientTransform="matrix(0.87090924,0,0,1,9.7133232,1.1150742)"
       x1="114.16293"
       y1="73.955132"
       x2="28.476976"
       y2="10.484052" />
    <linearGradient
       inkscape:collect="always"
       xlink:href="#linearGradient5807"
       id="linearGradient4508"
       gradientUnits="userSpaceOnUse"
       gradientTransform="matrix(0.87090924,0,0,1,9.7133232,1.1150742)"
       x1="97.841797"
       y1="86.309341"
       x2="46.158203"
       y2="84.042519" />
    <linearGradient
       inkscape:collect="always"
       xlink:href="#linearGradient5895"
       id="linearGradient4510"
       gradientUnits="userSpaceOnUse"
       gradientTransform="matrix(0.84353742,0,0,0.84353742,11.265306,6.534851)"
       x1="27.901136"
       y1="9.9977865"
       x2="90.01577"
       y2="97.014572" />
    <linearGradient
       inkscape:collect="always"
       xlink:href="#linearGradient5807"
       id="linearGradient4512"
       gradientUnits="userSpaceOnUse"
       x1="36.021027"
       y1="15.697747"
       x2="108.20566"
       y2="67.608017" />
    <linearGradient
       inkscape:collect="always"
       xlink:href="#linearGradient5807"
       id="linearGradient4519"
       gradientUnits="userSpaceOnUse"
       gradientTransform="matrix(0.87090924,0,0,1,9.7133232,1.1150742)"
       x1="97.841797"
       y1="86.309341"
       x2="46.158203"
       y2="84.042519" />
    <linearGradient
       inkscape:collect="always"
       xlink:href="#linearGradient5807"
       id="linearGradient4522"
       gradientUnits="userSpaceOnUse"
       gradientTransform="matrix(0.87090924,0,0,1,9.7133232,1.1150742)"
       x1="114.16293"
       y1="73.955132"
       x2="28.476976"
       y2="10.484052" />
    <linearGradient
       inkscape:collect="always"
       xlink:href="#linearGradient5807"
       id="linearGradient4527"
       gradientUnits="userSpaceOnUse"
       gradientTransform="matrix(0.87090924,0,0,1,9.7133232,1.1150742)"
       x1="72.340027"
       y1="75.201965"
       x2="72.340019"
       y2="78.375519" />
    <linearGradient
       inkscape:collect="always"
       xlink:href="#linearGradient5807"
       id="linearGradient4543"
       gradientUnits="userSpaceOnUse"
       gradientTransform="matrix(0.87090924,0,0,1,9.7133232,1.1150742)"
       x1="72.340027"
       y1="75.201965"
       x2="72.340019"
       y2="78.375519" />
    <linearGradient
       inkscape:collect="always"
       xlink:href="#linearGradient5807"
       id="linearGradient4545"
       gradientUnits="userSpaceOnUse"
       gradientTransform="matrix(0.87090924,0,0,1,9.7133232,1.1150742)"
       x1="114.16293"
       y1="73.955132"
       x2="28.476976"
       y2="10.484052" />
    <linearGradient
       inkscape:collect="always"
       xlink:href="#linearGradient5807"
       id="linearGradient4547"
       gradientUnits="userSpaceOnUse"
       gradientTransform="matrix(0.87090924,0,0,1,9.7133232,1.1150742)"
       x1="97.841797"
       y1="86.309341"
       x2="46.158203"
       y2="84.042519" />
    <linearGradient
       inkscape:collect="always"
       xlink:href="#linearGradient5895"
       id="linearGradient4549"
       gradientUnits="userSpaceOnUse"
       gradientTransform="matrix(0.84353742,0,0,0.84353742,11.265306,6.534851)"
       x1="27.901136"
       y1="9.9977865"
       x2="90.01577"
       y2="97.014572" />
    <linearGradient
       inkscape:collect="always"
       xlink:href="#linearGradient5807"
       id="linearGradient4551"
       gradientUnits="userSpaceOnUse"
       x1="36.021027"
       y1="15.697747"
       x2="108.20566"
       y2="67.608017" />
    <linearGradient
       inkscape:collect="always"
       xlink:href="#linearGradient5807"
       id="linearGradient4558"
       gradientUnits="userSpaceOnUse"
       gradientTransform="matrix(0.89169131,0,0,1.0238625,7.7982251,-1.1454009)"
       x1="97.841797"
       y1="86.309341"
       x2="46.158203"
       y2="84.042519" />
    <linearGradient
       inkscape:collect="always"
       xlink:href="#linearGradient5807"
       id="linearGradient4561"
       gradientUnits="userSpaceOnUse"
       gradientTransform="matrix(0.89169131,0,0,1.0238625,7.7982251,-1.1454009)"
       x1="114.16293"
       y1="73.955132"
       x2="28.476976"
       y2="10.484052" />
    <linearGradient
       inkscape:collect="always"
       xlink:href="#linearGradient5807"
       id="linearGradient4566"
       gradientUnits="userSpaceOnUse"
       gradientTransform="matrix(0.89169131,0,0,1.0238625,7.7982251,-1.1454009)"
       x1="72.340027"
       y1="75.201965"
       x2="72.340019"
       y2="78.375519" />
    <linearGradient
       id="linearGradient5807-0">
      <stop
         style="stop-color:#000000;stop-opacity:0.64705884;"
         offset="0"
         id="stop5809-4" />
      <stop
         style="stop-color:#000000;stop-opacity:0;"
         offset="1"
         id="stop5811-2" />
    </linearGradient>
    <linearGradient
       inkscape:collect="always"
       xlink:href="#linearGradient5807-0"
       id="linearGradient4566-6"
       gradientUnits="userSpaceOnUse"
       gradientTransform="matrix(0.89169131,0,0,1.0238625,7.7982251,-1.1454009)"
       x1="72.340027"
       y1="75.201965"
       x2="72.340019"
       y2="78.375519" />
    <linearGradient
       id="linearGradient4584">
      <stop
         style="stop-color:#000000;stop-opacity:0.64705884;"
         offset="0"
         id="stop4586" />
      <stop
         style="stop-color:#000000;stop-opacity:0;"
         offset="1"
         id="stop4588" />
    </linearGradient>
    <linearGradient
       id="linearGradient4591">
      <stop
         style="stop-color:#000000;stop-opacity:0.64705884;"
         offset="0"
         id="stop4593" />
      <stop
         style="stop-color:#000000;stop-opacity:0;"
         offset="1"
         id="stop4595" />
    </linearGradient>
    <filter
       inkscape:collect="always"
       id="filter4073">
      <feGaussianBlur
         inkscape:collect="always"
         stdDeviation="0.81749997"
         id="feGaussianBlur4075" />
    </filter>
    <filter
       inkscape:collect="always"
       id="filter4085">
      <feGaussianBlur
         inkscape:collect="always"
         stdDeviation="0.66523002"
         id="feGaussianBlur4087" />
    </filter>
    <linearGradient
       inkscape:collect="always"
       xlink:href="#linearGradient4089"
       id="linearGradient4095"
       x1="30.236448"
       y1="6.8546834"
       x2="113.03932"
       y2="89.41629"
       gradientUnits="userSpaceOnUse" />
    <filter
       inkscape:collect="always"
       id="filter4113">
      <feGaussianBlur
         inkscape:collect="always"
         stdDeviation="0.901875"
         id="feGaussianBlur4115" />
    </filter>
  </defs>
  <sodipodi:namedview
     id="base"
     pagecolor="#ffffff"
     bordercolor="#666666"
     borderopacity="1.0"
     inkscape:pageopacity="0.0"
     inkscape:pageshadow="2"
     inkscape:zoom="2.9290916"
     inkscape:cx="12.337175"
     inkscape:cy="43.171836"
     inkscape:document-units="px"
     inkscape:current-layer="g4117"
     showgrid="true"
     showguides="true"
     inkscape:guide-bbox="true"
     inkscape:window-width="1680"
     inkscape:window-height="1026"
     inkscape:window-x="0"
     inkscape:window-y="24"
     inkscape:window-maximized="1" />
  <metadata
     id="metadata5218">
    <rdf:RDF>
      <cc:Work
         rdf:about="">
        <dc:format>image/svg+xml</dc:format>
        <dc:type
           rdf:resource="http://purl.org/dc/dcmitype/StillImage" />
        <dc:title></dc:title>
      </cc:Work>
    </rdf:RDF>
  </metadata>
  <g
     inkscape:label="Black"
     inkscape:groupmode="layer"
     id="layer1"
     transform="translate(0,-956.36218)"
     sodipodi:insensitive="true"
     style="display:inline">
    <rect
       style="fill:#000000;fill-opacity:1;stroke:none"
       id="rect5221"
       width="144.51004"
       height="96.453362"
       x="-0.34002361"
       y="956.36218" />
  </g>
  <g
     inkscape:groupmode="layer"
     id="layer6"
     inkscape:label="Background"
     style="display:inline"
     sodipodi:insensitive="true">
    <path
       sodipodi:type="inkscape:offset"
       inkscape:radius="0.48281643"
       inkscape:original="M 39.34375 3.75 C 32.566746 3.75 27 9.3167459 27 16.09375 L 27 67.15625 C 27 73.933254 32.566746 79.5 39.34375 79.5 L 47.6875 79.5 C 45.989141 80.598239 44.8125 82.442304 44.8125 84.5625 L 44.8125 86.1875 C 44.8125 89.485914 47.576586 92.25 50.875 92.25 L 93.125 92.25 C 96.423414 92.25 99.1875 89.485914 99.1875 86.1875 L 99.1875 84.5625 C 99.1875 82.442304 98.010859 80.598239 96.3125 79.5 L 104.65625 79.5 C 111.43326 79.5 117 73.933256 117 67.15625 L 117 16.09375 C 117 9.3167443 111.43326 3.75 104.65625 3.75 L 39.34375 3.75 z "
       style="fill:#888a85;fill-opacity:1;stroke:none;display:inline"
       id="path3284"
       d="m 39.34375,3.28125 c -7.0414,0 -12.8125,5.7711002 -12.8125,12.8125 l 0,51.0625 c 0,7.0414 5.7711,12.8125 12.8125,12.8125 l 7.03125,0 c -1.225445,1.181639 -2.03125,2.78307 -2.03125,4.59375 l 0,1.625 c 0,3.568149 2.963101,6.53125 6.53125,6.53125 l 42.25,0 c 3.568149,0 6.53125,-2.963101 6.53125,-6.53125 l 0,-1.625 c 0,-1.81068 -0.805805,-3.412111 -2.03125,-4.59375 l 7.03125,0 c 7.04141,0 12.8125,-5.771099 12.8125,-12.8125 l 0,-51.0625 c 0,-7.0414011 -5.77109,-12.8125 -12.8125,-12.8125 l -65.3125,0 z"
       transform="matrix(1.0006988,0,0,1.0006988,-0.0503136,-0.0335424)" />
  </g>
  <g
     style="display:none"
     inkscape:label="Selected"
     id="g4097"
     inkscape:groupmode="layer"
     sodipodi:insensitive="true">
    <path
       transform="matrix(1.0006988,0,0,1.0006988,-0.0503136,-0.0335424)"
       d="m 39.34375,3.28125 c -7.0414,0 -12.8125,5.7711002 -12.8125,12.8125 l 0,51.0625 c 0,7.0414 5.7711,12.8125 12.8125,12.8125 l 7.03125,0 c -1.225445,1.181639 -2.03125,2.78307 -2.03125,4.59375 l 0,1.625 c 0,3.568149 2.963101,6.53125 6.53125,6.53125 l 42.25,0 c 3.568149,0 6.53125,-2.963101 6.53125,-6.53125 l 0,-1.625 c 0,-1.81068 -0.805805,-3.412111 -2.03125,-4.59375 l 7.03125,0 c 7.04141,0 12.8125,-5.771099 12.8125,-12.8125 l 0,-51.0625 c 0,-7.0414011 -5.77109,-12.8125 -12.8125,-12.8125 l -65.3125,0 z"
       id="path4099"
       style="fill:#eeeeec;fill-opacity:1;stroke:none;display:inline;filter:url(#filter4113)"
       inkscape:original="M 39.34375 3.75 C 32.566746 3.75 27 9.3167459 27 16.09375 L 27 67.15625 C 27 73.933254 32.566746 79.5 39.34375 79.5 L 47.6875 79.5 C 45.989141 80.598239 44.8125 82.442304 44.8125 84.5625 L 44.8125 86.1875 C 44.8125 89.485914 47.576586 92.25 50.875 92.25 L 93.125 92.25 C 96.423414 92.25 99.1875 89.485914 99.1875 86.1875 L 99.1875 84.5625 C 99.1875 82.442304 98.010859 80.598239 96.3125 79.5 L 104.65625 79.5 C 111.43326 79.5 117 73.933256 117 67.15625 L 117 16.09375 C 117 9.3167443 111.43326 3.75 104.65625 3.75 L 39.34375 3.75 z "
       inkscape:radius="0.48281643"
       sodipodi:type="inkscape:offset" />
  </g>
  <g
     inkscape:groupmode="layer"
     id="layer5"
     inkscape:label="Main"
     style="display:inline"
     sodipodi:insensitive="true">
    <path
       style="opacity:0.6;fill:url(#linearGradient4095);fill-opacity:1;stroke:none;filter:url(#filter4073)"
       d="m 38.860934,7.1526745 c -4.757414,0 -8.59375,3.8363355 -8.59375,8.5937455 l 0,51.062499 c 0,4.757414 3.836336,8.59375 8.59375,8.59375 l 22.15625,0 0,6.46875 -10.625,0 c -1.285788,0 -2.3125,1.05796 -2.3125,2.34375 l 0,1.625 c 0,1.28579 1.026712,2.3125 2.3125,2.3125 l 42.25,0 c 1.285788,0 2.3125,-1.02671 2.3125,-2.3125 l 0,-1.625 c 0,-1.28579 -1.026712,-2.34375 -2.3125,-2.34375 l -10.625,0 0,-6.46875 22.156246,0 c 4.75741,0 8.59375,-3.836336 8.59375,-8.59375 l 0,-51.062499 c 0,-4.75741 -3.83634,-8.5937455 -8.59375,-8.5937455 l -65.312496,0 z"
       id="rect3286"
       inkscape:connector-curvature="0" />
    <rect
       style="fill:#997948;fill-opacity:1;stroke:none"
       id="rect5740"
       width="21.021597"
       height="6.9627485"
       x="61.489204"
       y="75.50293" />
    <rect
       y="75.50293"
       x="61.489204"
       height="6.9627485"
       width="21.021597"
       id="rect5849"
       style="opacity:0.62551437;fill:url(#linearGradient4566);fill-opacity:1;stroke:none" />
    <rect
       style="fill:#e9b96e;fill-opacity:1;stroke:none"
       id="rect5731"
       width="82.469337"
       height="68.23494"
       x="30.765331"
       y="7.4999995"
       ry="8.5873899" />
    <rect
       style="fill:#e9b96e;fill-opacity:1;stroke:none"
       id="rect5735"
       width="46.894329"
       height="6.2664738"
       x="48.552837"
       y="82.233528"
       ry="2.3209162" />
    <rect
       ry="8.5873899"
       y="7.4999995"
       x="30.765331"
       height="68.23494"
       width="82.469337"
       id="rect5805"
       style="fill:url(#linearGradient4561);fill-opacity:1;stroke:none" />
    <rect
       ry="2.3209162"
       y="82.233528"
       x="48.552837"
       height="6.2664738"
       width="46.894329"
       id="rect5823"
       style="fill:url(#linearGradient4558);fill-opacity:1;stroke:none" />
    <rect
       style="fill:url(#linearGradient4549);fill-opacity:1;stroke:none;filter:url(#filter4085)"
       id="rect5877"
       width="78.015755"
       height="56.217239"
       x="32.992123"
       y="13.657603"
       ry="2.5413101"
       transform="matrix(0.89169131,0,0,1.0238625,7.7982251,-1.1454009)" />
    <rect
       ry="2.3978491"
       y="15.24438"
       x="35.19418"
       height="53.043686"
       width="73.611641"
       id="rect5905"
       style="fill:#386d03;fill-opacity:1;stroke:none;filter:url(#filter5911)"
       transform="matrix(0.82377898,0,0,0.94588385,12.687914,2.111473)" />
    <path
       sodipodi:type="inkscape:offset"
       inkscape:radius="0.43204257"
       inkscape:original="M 58.75 28.28125 C 57.706883 28.800926 57.878002 30.421315 57.65625 31.5625 L 55.0625 52.21875 C 53.373584 52.23619 51.687139 52.18792 50 52.25 C 48.6802 52.52547 49.010402 55.28129 50.34375 55 C 52.33298 54.9766 54.338109 55.06193 56.3125 54.96875 C 57.316612 54.424036 57.153547 52.841856 57.375 51.71875 L 59 38.53125 C 59.668507 43.654608 60.294806 48.792089 61 53.90625 C 61.250702 55.2493 62.395194 54.975895 63.21875 55 L 64.625 55 C 64.986479 56.671827 65.291239 58.373254 65.6875 60.03125 C 66.242887 61.291843 68.175267 60.986913 68.25 59.40625 L 69.21875 55 C 70.046436 54.992 70.85935 54.9963 71.6875 55 C 71.78687 55.000453 71.900626 54.999647 72 55 C 73.967821 54.97894 75.953555 55.06091 77.90625 54.96875 C 78.910362 54.424036 78.747297 52.841857 78.96875 51.71875 L 80.625 38.53125 C 81.29351 43.654609 81.888557 48.792089 82.59375 53.90625 C 82.844452 55.249301 83.988944 54.975896 84.8125 55 L 86.21875 55 C 86.580228 56.671828 86.884987 58.373255 87.28125 60.03125 C 87.836636 61.291844 89.769019 60.986913 89.84375 59.40625 L 90.8125 55 C 92.666516 54.9823 94.522764 55.03117 96.375 54.96875 C 97.694801 54.69328 97.333348 51.93746 96 52.21875 C 94.072876 52.24334 92.117766 52.15738 90.21875 52.25 C 89.231183 51.890084 88.80886 53.17954 88.6875 54.15625 C 88.568132 54.991782 88.463119 55.149761 88.34375 54.21875 C 88.184745 53.342216 87.964816 52.106759 87.03125 52.21875 C 86.467986 52.368984 85.914358 52.14261 85.3125 52.21875 C 84.75435 52.375444 84.451548 52.141924 84.5 51.40625 C 83.56205 44.077597 82.655128 36.727727 81.6875 29.40625 C 81.546226 28.609964 80.975252 28.112456 80.34375 28.28125 C 79.300632 28.800925 79.471752 30.421315 79.25 31.5625 L 76.65625 52.21875 C 75.998231 52.22555 75.314679 52.22235 74.65625 52.21875 C 74.57943 52.218336 74.514315 52.219139 74.4375 52.21875 C 74.329233 52.22005 74.202265 52.217955 74.09375 52.21875 C 72.270707 52.23211 70.417329 52.16259 68.625 52.25 C 67.637433 51.890084 67.215109 53.17954 67.09375 54.15625 C 66.974382 54.991782 66.869369 55.14976 66.75 54.21875 C 66.590994 53.342215 66.339816 52.106759 65.40625 52.21875 C 64.842987 52.368984 64.320606 52.14261 63.71875 52.21875 C 63.1606 52.375444 62.857798 52.141924 62.90625 51.40625 C 61.968299 44.077597 61.061379 36.727727 60.09375 29.40625 C 59.952477 28.609964 59.381503 28.112455 58.75 28.28125 z "
       style="fill:#8ae234;fill-opacity:1;stroke:none"
       id="path6365"
       d="m 59.3125,27.84375 c -0.214023,-0.05199 -0.462783,-0.02882 -0.6875,0.03125 a 0.43208577,0.43208577 0 0 0 -0.0625,0.03125 c -0.690421,0.343965 -0.96857,1.022462 -1.09375,1.6875 -0.12518,0.665038 -0.150397,1.362421 -0.25,1.875 a 0.43208577,0.43208577 0 0 0 0,0.03125 l -2.5625,20.28125 c -1.545777,0.0073 -3.117616,-0.02652 -4.6875,0.03125 a 0.43208577,0.43208577 0 0 0 -0.0625,0 c -0.474516,0.09904 -0.82407,0.458906 -1,0.84375 -0.17593,0.384844 -0.206893,0.805026 -0.15625,1.21875 0.05064,0.413724 0.191951,0.812846 0.46875,1.125 0.258081,0.291046 0.683555,0.494484 1.125,0.4375 0.03202,-0.0041 0.06154,0.0068 0.09375,0 1.943742,-0.01956 3.936951,0.06169 5.90625,-0.03125 a 0.43208577,0.43208577 0 0 0 0.1875,-0.0625 c 0.664783,-0.360634 0.909435,-1.064302 1.03125,-1.71875 0.121815,-0.654448 0.150616,-1.308473 0.25,-1.8125 a 0.43208577,0.43208577 0 0 0 0,-0.03125 L 59,42.0625 c 0.507697,3.970857 1.015844,7.941828 1.5625,11.90625 a 0.43208577,0.43208577 0 0 0 0,0.03125 c 0.148082,0.793301 0.683797,1.244517 1.21875,1.375 0.534953,0.130483 1.079321,0.05202 1.4375,0.0625 l 1.03125,0 c 0.328711,1.554073 0.658235,3.126767 1.03125,4.6875 a 0.43208577,0.43208577 0 0 0 0,0.09375 c 0.357414,0.811242 1.229934,1.152851 1.96875,1 0.722169,-0.149407 1.366102,-0.78936 1.4375,-1.71875 0.0016,-0.02142 -0.001,-0.04077 0,-0.0625 l 0.90625,-4 c 0.695706,-0.0038 1.391198,-0.0031 2.09375,0 0.103209,4.71e-4 0.216633,-3.41e-4 0.3125,0 1.952715,-0.0209 3.958977,0.06213 5.9375,-0.03125 a 0.43208577,0.43208577 0 0 0 0.1875,-0.0625 c 0.664783,-0.360634 0.909435,-1.064302 1.03125,-1.71875 0.121815,-0.654448 0.150616,-1.308472 0.25,-1.8125 a 0.43208577,0.43208577 0 0 0 0,-0.03125 l 1.21875,-9.75 c 0.500491,3.980042 0.983042,7.961818 1.53125,11.9375 a 0.43208577,0.43208577 0 0 0 0,0.03125 c 0.148082,0.793301 0.683797,1.244517 1.21875,1.375 0.534953,0.130483 1.079321,0.05202 1.4375,0.0625 l 1.03125,0 c 0.32871,1.554074 0.658233,3.126768 1.03125,4.6875 a 0.43208577,0.43208577 0 0 0 0,0.09375 c 0.357413,0.811243 1.229934,1.152851 1.96875,1 0.722169,-0.149407 1.366103,-0.78936 1.4375,-1.71875 0.0016,-0.02142 -0.001,-0.04077 0,-0.0625 l 0.90625,-4 c 1.721375,-0.0088 3.443999,0.02751 5.1875,-0.03125 a 0.43208577,0.43208577 0 0 0 0.09375,0 c 0.47485,-0.09911 0.827359,-0.457646 1,-0.84375 0.172641,-0.386104 0.211571,-0.836413 0.15625,-1.25 -0.05532,-0.413587 -0.220472,-0.814368 -0.5,-1.125 -0.260626,-0.289626 -0.683306,-0.463387 -1.125,-0.40625 -0.03203,0.0041 -0.06152,-0.0068 -0.09375,0 -1.88128,0.02054 -3.823402,-0.06119 -5.71875,0.03125 l 0,0.03125 c -0.273163,-0.05692 -0.552877,-0.07705 -0.78125,0.03125 -0.283112,0.134259 -0.50535,0.346903 -0.65625,0.59375 -0.138665,0.226832 -0.14137,0.494252 -0.21875,0.75 -0.05393,-0.192143 -0.06976,-0.379894 -0.15625,-0.5625 C 88.259883,52.413201 88.11008,52.173237 87.875,52 87.63992,51.826763 87.297405,51.741824 86.96875,51.78125 a 0.43208577,0.43208577 0 0 0 -0.0625,0.03125 C 86.515518,51.916716 85.990372,51.687587 85.25,51.78125 a 0.43208577,0.43208577 0 0 0 -0.0625,0.03125 c -0.205728,0.05776 -0.225782,0.02466 -0.21875,0.03125 0.007,0.0066 -0.0514,-0.100297 -0.03125,-0.40625 a 0.43208577,0.43208577 0 0 0 0,-0.09375 c -0.937784,-7.327359 -1.844545,-14.676052 -2.8125,-22 -0.08542,-0.481479 -0.324694,-0.906544 -0.65625,-1.1875 -0.331556,-0.280956 -0.800567,-0.401379 -1.25,-0.28125 a 0.43208577,0.43208577 0 0 0 -0.0625,0.03125 c -0.690422,0.343964 -0.968571,1.022462 -1.09375,1.6875 -0.125179,0.665038 -0.150397,1.362421 -0.25,1.875 a 0.43208577,0.43208577 0 0 0 0,0.03125 l -2.53125,20.28125 c -0.538037,0.0027 -1.090217,0.0029 -1.625,0 -0.08115,-4.37e-4 -0.146182,3.67e-4 -0.21875,0 -0.09864,0.0012 -0.227206,-8.54e-4 -0.34375,0 -1.809914,0.01326 -3.682065,-0.05741 -5.5,0.03125 l 0,0.03125 c -0.273163,-0.05692 -0.552877,-0.07705 -0.78125,0.03125 -0.283112,0.134259 -0.505349,0.346903 -0.65625,0.59375 -0.145599,0.238174 -0.171435,0.512231 -0.25,0.78125 C 66.848099,53.048578 66.844007,52.846951 66.75,52.65625 66.630338,52.413504 66.486927,52.171347 66.25,52 66.013073,51.828653 65.672688,51.74179 65.34375,51.78125 a 0.43208577,0.43208577 0 0 0 -0.0625,0.03125 c -0.394575,0.105241 -0.886476,-0.12468 -1.625,-0.03125 a 0.43208577,0.43208577 0 0 0 -0.0625,0.03125 c -0.205728,0.05776 -0.225782,0.02466 -0.21875,0.03125 0.007,0.0066 -0.0514,-0.100297 -0.03125,-0.40625 a 0.43208577,0.43208577 0 0 0 0,-0.09375 c -0.937785,-7.327359 -1.844544,-14.676052 -2.8125,-22 -0.08542,-0.481479 -0.324694,-0.906544 -0.65625,-1.1875 -0.165778,-0.140478 -0.348477,-0.260511 -0.5625,-0.3125 z"
       transform="translate(-0.76945265,-1.6533135)" />
    <rect
       style="fill:url(#linearGradient4551);fill-opacity:1;stroke:none;filter:url(#filter5911)"
       id="rect5915"
       width="73.611641"
       height="53.043686"
       x="35.19418"
       y="15.24438"
       ry="2.3978491"
       transform="matrix(0.85070664,0,0,0.97680286,10.749121,0.82010252)" />
    <rect
       style="opacity:0.6;fill:#4f9a06;fill-opacity:1;stroke:none"
       id="rect5925"
       width="0.22668241"
       height="1.133412"
       x="155.50414"
       y="137.02951"
       ry="0.1133412" />
  </g>
  <g
     style="display:none"
     inkscape:label="Pressed"
     id="g4117"
     inkscape:groupmode="layer">
    <path
       transform="matrix(1.0006988,0,0,1.0006988,-0.0503136,-0.0335424)"
       d="m 39.34375,3.28125 c -7.0414,0 -12.8125,5.7711002 -12.8125,12.8125 l 0,51.0625 c 0,7.0414 5.7711,12.8125 12.8125,12.8125 l 7.03125,0 c -1.225445,1.181639 -2.03125,2.78307 -2.03125,4.59375 l 0,1.625 c 0,3.568149 2.963101,6.53125 6.53125,6.53125 l 42.25,0 c 3.568149,0 6.53125,-2.963101 6.53125,-6.53125 l 0,-1.625 c 0,-1.81068 -0.805805,-3.412111 -2.03125,-4.59375 l 7.03125,0 c 7.04141,0 12.8125,-5.771099 12.8125,-12.8125 l 0,-51.0625 c 0,-7.0414011 -5.77109,-12.8125 -12.8125,-12.8125 l -65.3125,0 z"
       id="path4119"
       style="opacity:0.4;fill:#eeeeec;fill-opacity:1;stroke:none;display:inline"
       inkscape:original="M 39.34375 3.75 C 32.566746 3.75 27 9.3167459 27 16.09375 L 27 67.15625 C 27 73.933254 32.566746 79.5 39.34375 79.5 L 47.6875 79.5 C 45.989141 80.598239 44.8125 82.442304 44.8125 84.5625 L 44.8125 86.1875 C 44.8125 89.485914 47.576586 92.25 50.875 92.25 L 93.125 92.25 C 96.423414 92.25 99.1875 89.485914 99.1875 86.1875 L 99.1875 84.5625 C 99.1875 82.442304 98.010859 80.598239 96.3125 79.5 L 104.65625 79.5 C 111.43326 79.5 117 73.933256 117 67.15625 L 117 16.09375 C 117 9.3167443 111.43326 3.75 104.65625 3.75 L 39.34375 3.75 z "
       inkscape:radius="0.48281643"
       sodipodi:type="inkscape:offset" />
  </g>
</svg>
